%TF.GenerationSoftware,KiCad,Pcbnew,8.0.9-8.0.9-0~ubuntu20.04.1*%
%TF.CreationDate,2025-09-01T23:21:27-04:00*%
%TF.ProjectId,Iguana_V1,49677561-6e61-45f5-9631-2e6b69636164,rev?*%
%TF.SameCoordinates,Original*%
%TF.FileFunction,Drillmap*%
%TF.FilePolarity,Positive*%
%FSLAX45Y45*%
G04 Gerber Fmt 4.5, Leading zero omitted, Abs format (unit mm)*
G04 Created by KiCad (PCBNEW 8.0.9-8.0.9-0~ubuntu20.04.1) date 2025-09-01 23:21:27*
%MOMM*%
%LPD*%
G01*
G04 APERTURE LIST*
%ADD10C,0.100000*%
%ADD11C,0.200000*%
%ADD12C,0.320000*%
G04 APERTURE END LIST*
D10*
X8300000Y-8000000D02*
G75*
G02*
X8000000Y-7700000I0J300000D01*
G01*
X8000000Y-3300000D02*
X8000000Y-7700000D01*
X16000000Y-7700000D02*
G75*
G02*
X15700000Y-8000000I-300000J0D01*
G01*
X15700000Y-3000000D02*
G75*
G02*
X16000000Y-3300000I0J-300000D01*
G01*
X15700000Y-3000000D02*
X8300000Y-3000000D01*
X8000000Y-3300000D02*
G75*
G02*
X8300000Y-3000000I300000J0D01*
G01*
X16000000Y-7700000D02*
X16000000Y-3300000D01*
X8300000Y-8000000D02*
X15700000Y-8000000D01*
D11*
D10*
X8185000Y-3635000D02*
X8215000Y-3665000D01*
X8215000Y-3635000D02*
X8185000Y-3665000D01*
X8435000Y-6750000D02*
X8465000Y-6780000D01*
X8465000Y-6750000D02*
X8435000Y-6780000D01*
X8535000Y-7415000D02*
X8565000Y-7445000D01*
X8565000Y-7415000D02*
X8535000Y-7445000D01*
X8613950Y-4547966D02*
X8643950Y-4577966D01*
X8643950Y-4547966D02*
X8613950Y-4577966D01*
X8650000Y-5165000D02*
X8680000Y-5195000D01*
X8680000Y-5165000D02*
X8650000Y-5195000D01*
X8698087Y-3130156D02*
X8728087Y-3160156D01*
X8728087Y-3130156D02*
X8698087Y-3160156D01*
X8705000Y-6620000D02*
X8735000Y-6650000D01*
X8735000Y-6620000D02*
X8705000Y-6650000D01*
X8720000Y-4880000D02*
X8750000Y-4910000D01*
X8750000Y-4880000D02*
X8720000Y-4910000D01*
X8725000Y-6045000D02*
X8755000Y-6075000D01*
X8755000Y-6045000D02*
X8725000Y-6075000D01*
X8725000Y-7540000D02*
X8755000Y-7570000D01*
X8755000Y-7540000D02*
X8725000Y-7570000D01*
X8820000Y-4355000D02*
X8850000Y-4385000D01*
X8850000Y-4355000D02*
X8820000Y-4385000D01*
X8885000Y-6175000D02*
X8915000Y-6205000D01*
X8915000Y-6175000D02*
X8885000Y-6205000D01*
X8940000Y-4655000D02*
X8970000Y-4685000D01*
X8970000Y-4655000D02*
X8940000Y-4685000D01*
X9095000Y-3075000D02*
X9125000Y-3105000D01*
X9125000Y-3075000D02*
X9095000Y-3105000D01*
X9115000Y-3945000D02*
X9145000Y-3975000D01*
X9145000Y-3945000D02*
X9115000Y-3975000D01*
X9115000Y-4495000D02*
X9145000Y-4525000D01*
X9145000Y-4495000D02*
X9115000Y-4525000D01*
X9125000Y-4850000D02*
X9155000Y-4880000D01*
X9155000Y-4850000D02*
X9125000Y-4880000D01*
X9165000Y-6715000D02*
X9195000Y-6745000D01*
X9195000Y-6715000D02*
X9165000Y-6745000D01*
X9223013Y-3592133D02*
X9253013Y-3622133D01*
X9253013Y-3592133D02*
X9223013Y-3622133D01*
X9299911Y-3785486D02*
X9329911Y-3815486D01*
X9329911Y-3785486D02*
X9299911Y-3815486D01*
X9315000Y-6295000D02*
X9345000Y-6325000D01*
X9345000Y-6295000D02*
X9315000Y-6325000D01*
X9385000Y-4700000D02*
X9415000Y-4730000D01*
X9415000Y-4700000D02*
X9385000Y-4730000D01*
X9392350Y-3545000D02*
X9422350Y-3575000D01*
X9422350Y-3545000D02*
X9392350Y-3575000D01*
X9400000Y-7750000D02*
X9430000Y-7780000D01*
X9430000Y-7750000D02*
X9400000Y-7780000D01*
X9415000Y-5400000D02*
X9445000Y-5430000D01*
X9445000Y-5400000D02*
X9415000Y-5430000D01*
X9440000Y-7275000D02*
X9470000Y-7305000D01*
X9470000Y-7275000D02*
X9440000Y-7305000D01*
X9540000Y-4160000D02*
X9570000Y-4190000D01*
X9570000Y-4160000D02*
X9540000Y-4190000D01*
X9635000Y-4665000D02*
X9665000Y-4695000D01*
X9665000Y-4665000D02*
X9635000Y-4695000D01*
X9660000Y-6710000D02*
X9690000Y-6740000D01*
X9690000Y-6710000D02*
X9660000Y-6740000D01*
X9670000Y-5715000D02*
X9700000Y-5745000D01*
X9700000Y-5715000D02*
X9670000Y-5745000D01*
X9699327Y-4059771D02*
X9729327Y-4089771D01*
X9729327Y-4059771D02*
X9699327Y-4089771D01*
X9720000Y-4495000D02*
X9750000Y-4525000D01*
X9750000Y-4495000D02*
X9720000Y-4525000D01*
X9845000Y-3520000D02*
X9875000Y-3550000D01*
X9875000Y-3520000D02*
X9845000Y-3550000D01*
X9915000Y-7460000D02*
X9945000Y-7490000D01*
X9945000Y-7460000D02*
X9915000Y-7490000D01*
X9930000Y-5420000D02*
X9960000Y-5450000D01*
X9960000Y-5420000D02*
X9930000Y-5450000D01*
X9930000Y-6380000D02*
X9960000Y-6410000D01*
X9960000Y-6380000D02*
X9930000Y-6410000D01*
X9965000Y-3790000D02*
X9995000Y-3820000D01*
X9995000Y-3790000D02*
X9965000Y-3820000D01*
X9990000Y-6840000D02*
X10020000Y-6870000D01*
X10020000Y-6840000D02*
X9990000Y-6870000D01*
X10020000Y-4690000D02*
X10050000Y-4720000D01*
X10050000Y-4690000D02*
X10020000Y-4720000D01*
X10080000Y-5700000D02*
X10110000Y-5730000D01*
X10110000Y-5700000D02*
X10080000Y-5730000D01*
X10130000Y-3335000D02*
X10160000Y-3365000D01*
X10160000Y-3335000D02*
X10130000Y-3365000D01*
X10190000Y-3210000D02*
X10220000Y-3240000D01*
X10220000Y-3210000D02*
X10190000Y-3240000D01*
X10240000Y-7385000D02*
X10270000Y-7415000D01*
X10270000Y-7385000D02*
X10240000Y-7415000D01*
X10260000Y-3640000D02*
X10290000Y-3670000D01*
X10290000Y-3640000D02*
X10260000Y-3670000D01*
X10335000Y-3280000D02*
X10365000Y-3310000D01*
X10365000Y-3280000D02*
X10335000Y-3310000D01*
X10365000Y-5885000D02*
X10395000Y-5915000D01*
X10395000Y-5885000D02*
X10365000Y-5915000D01*
X10365000Y-6015000D02*
X10395000Y-6045000D01*
X10395000Y-6015000D02*
X10365000Y-6045000D01*
X10375000Y-5755000D02*
X10405000Y-5785000D01*
X10405000Y-5755000D02*
X10375000Y-5785000D01*
X10415000Y-4430000D02*
X10445000Y-4460000D01*
X10445000Y-4430000D02*
X10415000Y-4460000D01*
X10420000Y-3750000D02*
X10450000Y-3780000D01*
X10450000Y-3750000D02*
X10420000Y-3780000D01*
X10435000Y-5245000D02*
X10465000Y-5275000D01*
X10465000Y-5245000D02*
X10435000Y-5275000D01*
X10585000Y-5080000D02*
X10615000Y-5110000D01*
X10615000Y-5080000D02*
X10585000Y-5110000D01*
X10615000Y-5460000D02*
X10645000Y-5490000D01*
X10645000Y-5460000D02*
X10615000Y-5490000D01*
X10720000Y-3980000D02*
X10750000Y-4010000D01*
X10750000Y-3980000D02*
X10720000Y-4010000D01*
X10720000Y-4310000D02*
X10750000Y-4340000D01*
X10750000Y-4310000D02*
X10720000Y-4340000D01*
X10725000Y-3635000D02*
X10755000Y-3665000D01*
X10755000Y-3635000D02*
X10725000Y-3665000D01*
X10775000Y-4730000D02*
X10805000Y-4760000D01*
X10805000Y-4730000D02*
X10775000Y-4760000D01*
X10820000Y-4185000D02*
X10850000Y-4215000D01*
X10850000Y-4185000D02*
X10820000Y-4215000D01*
X10830000Y-7025000D02*
X10860000Y-7055000D01*
X10860000Y-7025000D02*
X10830000Y-7055000D01*
X10945000Y-6335000D02*
X10975000Y-6365000D01*
X10975000Y-6335000D02*
X10945000Y-6365000D01*
X11010000Y-5300000D02*
X11040000Y-5330000D01*
X11040000Y-5300000D02*
X11010000Y-5330000D01*
X11020000Y-4735000D02*
X11050000Y-4765000D01*
X11050000Y-4735000D02*
X11020000Y-4765000D01*
X11080000Y-7455000D02*
X11110000Y-7485000D01*
X11110000Y-7455000D02*
X11080000Y-7485000D01*
X11145000Y-6235000D02*
X11175000Y-6265000D01*
X11175000Y-6235000D02*
X11145000Y-6265000D01*
X11165000Y-7060000D02*
X11195000Y-7090000D01*
X11195000Y-7060000D02*
X11165000Y-7090000D01*
X11230000Y-4815000D02*
X11260000Y-4845000D01*
X11260000Y-4815000D02*
X11230000Y-4845000D01*
X11270000Y-3305000D02*
X11300000Y-3335000D01*
X11300000Y-3305000D02*
X11270000Y-3335000D01*
X11300000Y-6805000D02*
X11330000Y-6835000D01*
X11330000Y-6805000D02*
X11300000Y-6835000D01*
X11330000Y-5700000D02*
X11360000Y-5730000D01*
X11360000Y-5700000D02*
X11330000Y-5730000D01*
X11350000Y-6410000D02*
X11380000Y-6440000D01*
X11380000Y-6410000D02*
X11350000Y-6440000D01*
X11445000Y-4610000D02*
X11475000Y-4640000D01*
X11475000Y-4610000D02*
X11445000Y-4640000D01*
X11449292Y-5302570D02*
X11479292Y-5332570D01*
X11479292Y-5302570D02*
X11449292Y-5332570D01*
X11485000Y-4800000D02*
X11515000Y-4830000D01*
X11515000Y-4800000D02*
X11485000Y-4830000D01*
X11500000Y-5540000D02*
X11530000Y-5570000D01*
X11530000Y-5540000D02*
X11500000Y-5570000D01*
X11560000Y-6100000D02*
X11590000Y-6130000D01*
X11590000Y-6100000D02*
X11560000Y-6130000D01*
X11570000Y-4725000D02*
X11600000Y-4755000D01*
X11600000Y-4725000D02*
X11570000Y-4755000D01*
X11645000Y-3290000D02*
X11675000Y-3320000D01*
X11675000Y-3290000D02*
X11645000Y-3320000D01*
X11692500Y-4422500D02*
X11722500Y-4452500D01*
X11722500Y-4422500D02*
X11692500Y-4452500D01*
X11745000Y-6245000D02*
X11775000Y-6275000D01*
X11775000Y-6245000D02*
X11745000Y-6275000D01*
X11765000Y-4705000D02*
X11795000Y-4735000D01*
X11795000Y-4705000D02*
X11765000Y-4735000D01*
X11830000Y-3245000D02*
X11860000Y-3275000D01*
X11860000Y-3245000D02*
X11830000Y-3275000D01*
X11835000Y-7585000D02*
X11865000Y-7615000D01*
X11865000Y-7585000D02*
X11835000Y-7615000D01*
X11875000Y-7110000D02*
X11905000Y-7140000D01*
X11905000Y-7110000D02*
X11875000Y-7140000D01*
X11875000Y-7880000D02*
X11905000Y-7910000D01*
X11905000Y-7880000D02*
X11875000Y-7910000D01*
X11879202Y-5304687D02*
X11909202Y-5334687D01*
X11909202Y-5304687D02*
X11879202Y-5334687D01*
X11950000Y-6070000D02*
X11980000Y-6100000D01*
X11980000Y-6070000D02*
X11950000Y-6100000D01*
X11964239Y-5444057D02*
X11994239Y-5474057D01*
X11994239Y-5444057D02*
X11964239Y-5474057D01*
X11965000Y-6775000D02*
X11995000Y-6805000D01*
X11995000Y-6775000D02*
X11965000Y-6805000D01*
X12000000Y-5825000D02*
X12030000Y-5855000D01*
X12030000Y-5825000D02*
X12000000Y-5855000D01*
X12005000Y-4660000D02*
X12035000Y-4690000D01*
X12035000Y-4660000D02*
X12005000Y-4690000D01*
X12090000Y-6330000D02*
X12120000Y-6360000D01*
X12120000Y-6330000D02*
X12090000Y-6360000D01*
X12195000Y-3255000D02*
X12225000Y-3285000D01*
X12225000Y-3255000D02*
X12195000Y-3285000D01*
X12195000Y-3600000D02*
X12225000Y-3630000D01*
X12225000Y-3600000D02*
X12195000Y-3630000D01*
X12240000Y-6795000D02*
X12270000Y-6825000D01*
X12270000Y-6795000D02*
X12240000Y-6825000D01*
X12265000Y-3945000D02*
X12295000Y-3975000D01*
X12295000Y-3945000D02*
X12265000Y-3975000D01*
X12280000Y-3375000D02*
X12310000Y-3405000D01*
X12310000Y-3375000D02*
X12280000Y-3405000D01*
X12300000Y-7150000D02*
X12330000Y-7180000D01*
X12330000Y-7150000D02*
X12300000Y-7180000D01*
X12340000Y-5195000D02*
X12370000Y-5225000D01*
X12370000Y-5195000D02*
X12340000Y-5225000D01*
X12360000Y-4240000D02*
X12390000Y-4270000D01*
X12390000Y-4240000D02*
X12360000Y-4270000D01*
X12605000Y-6315000D02*
X12635000Y-6345000D01*
X12635000Y-6315000D02*
X12605000Y-6345000D01*
X12610000Y-5840000D02*
X12640000Y-5870000D01*
X12640000Y-5840000D02*
X12610000Y-5870000D01*
X12620000Y-6105000D02*
X12650000Y-6135000D01*
X12650000Y-6105000D02*
X12620000Y-6135000D01*
X12640000Y-6800000D02*
X12670000Y-6830000D01*
X12670000Y-6800000D02*
X12640000Y-6830000D01*
X12690000Y-7390000D02*
X12720000Y-7420000D01*
X12720000Y-7390000D02*
X12690000Y-7420000D01*
X12770000Y-4920000D02*
X12800000Y-4950000D01*
X12800000Y-4920000D02*
X12770000Y-4950000D01*
X12800000Y-4330000D02*
X12830000Y-4360000D01*
X12830000Y-4330000D02*
X12800000Y-4360000D01*
X12830000Y-7640000D02*
X12860000Y-7670000D01*
X12860000Y-7640000D02*
X12830000Y-7670000D01*
X12845000Y-4227500D02*
X12875000Y-4257500D01*
X12875000Y-4227500D02*
X12845000Y-4257500D01*
X12912500Y-3677500D02*
X12942500Y-3707500D01*
X12942500Y-3677500D02*
X12912500Y-3707500D01*
X12940000Y-4575000D02*
X12970000Y-4605000D01*
X12970000Y-4575000D02*
X12940000Y-4605000D01*
X12955000Y-3365000D02*
X12985000Y-3395000D01*
X12985000Y-3365000D02*
X12955000Y-3395000D01*
X12975000Y-3175000D02*
X13005000Y-3205000D01*
X13005000Y-3175000D02*
X12975000Y-3205000D01*
X12985000Y-4920000D02*
X13015000Y-4950000D01*
X13015000Y-4920000D02*
X12985000Y-4950000D01*
X13025000Y-5585000D02*
X13055000Y-5615000D01*
X13055000Y-5585000D02*
X13025000Y-5615000D01*
X13140000Y-6400000D02*
X13170000Y-6430000D01*
X13170000Y-6400000D02*
X13140000Y-6430000D01*
X13170000Y-4510000D02*
X13200000Y-4540000D01*
X13200000Y-4510000D02*
X13170000Y-4540000D01*
X13220000Y-7460000D02*
X13250000Y-7490000D01*
X13250000Y-7460000D02*
X13220000Y-7490000D01*
X13250000Y-5725000D02*
X13280000Y-5755000D01*
X13280000Y-5725000D02*
X13250000Y-5755000D01*
X13255000Y-4897650D02*
X13285000Y-4927650D01*
X13285000Y-4897650D02*
X13255000Y-4927650D01*
X13300000Y-4194570D02*
X13330000Y-4224570D01*
X13330000Y-4194570D02*
X13300000Y-4224570D01*
X13300000Y-4590000D02*
X13330000Y-4620000D01*
X13330000Y-4590000D02*
X13300000Y-4620000D01*
X13300000Y-5040000D02*
X13330000Y-5070000D01*
X13330000Y-5040000D02*
X13300000Y-5070000D01*
X13405000Y-3655000D02*
X13435000Y-3685000D01*
X13435000Y-3655000D02*
X13405000Y-3685000D01*
X13430000Y-3815000D02*
X13460000Y-3845000D01*
X13460000Y-3815000D02*
X13430000Y-3845000D01*
X13435000Y-4500000D02*
X13465000Y-4530000D01*
X13465000Y-4500000D02*
X13435000Y-4530000D01*
X13465000Y-3080000D02*
X13495000Y-3110000D01*
X13495000Y-3080000D02*
X13465000Y-3110000D01*
X13565000Y-3475000D02*
X13595000Y-3505000D01*
X13595000Y-3475000D02*
X13565000Y-3505000D01*
X13585000Y-4115000D02*
X13615000Y-4145000D01*
X13615000Y-4115000D02*
X13585000Y-4145000D01*
X13595000Y-3055000D02*
X13625000Y-3085000D01*
X13625000Y-3055000D02*
X13595000Y-3085000D01*
X13645000Y-4880000D02*
X13675000Y-4910000D01*
X13675000Y-4880000D02*
X13645000Y-4910000D01*
X13670000Y-5242550D02*
X13700000Y-5272550D01*
X13700000Y-5242550D02*
X13670000Y-5272550D01*
X13725000Y-3485000D02*
X13755000Y-3515000D01*
X13755000Y-3485000D02*
X13725000Y-3515000D01*
X13760000Y-6115000D02*
X13790000Y-6145000D01*
X13790000Y-6115000D02*
X13760000Y-6145000D01*
X13815000Y-7570000D02*
X13845000Y-7600000D01*
X13845000Y-7570000D02*
X13815000Y-7600000D01*
X13817500Y-4142500D02*
X13847500Y-4172500D01*
X13847500Y-4142500D02*
X13817500Y-4172500D01*
X13840000Y-6100000D02*
X13870000Y-6130000D01*
X13870000Y-6100000D02*
X13840000Y-6130000D01*
X13865000Y-7825000D02*
X13895000Y-7855000D01*
X13895000Y-7825000D02*
X13865000Y-7855000D01*
X13885000Y-7280000D02*
X13915000Y-7310000D01*
X13915000Y-7280000D02*
X13885000Y-7310000D01*
X13890000Y-6010000D02*
X13920000Y-6040000D01*
X13920000Y-6010000D02*
X13890000Y-6040000D01*
X13915000Y-4860000D02*
X13945000Y-4890000D01*
X13945000Y-4860000D02*
X13915000Y-4890000D01*
X13917500Y-5602500D02*
X13947500Y-5632500D01*
X13947500Y-5602500D02*
X13917500Y-5632500D01*
X13925841Y-4975841D02*
X13955841Y-5005841D01*
X13955841Y-4975841D02*
X13925841Y-5005841D01*
X13950000Y-6450000D02*
X13980000Y-6480000D01*
X13980000Y-6450000D02*
X13950000Y-6480000D01*
X14010000Y-6005000D02*
X14040000Y-6035000D01*
X14040000Y-6005000D02*
X14010000Y-6035000D01*
X14025000Y-5365000D02*
X14055000Y-5395000D01*
X14055000Y-5365000D02*
X14025000Y-5395000D01*
X14025000Y-6685000D02*
X14055000Y-6715000D01*
X14055000Y-6685000D02*
X14025000Y-6715000D01*
X14030000Y-4390000D02*
X14060000Y-4420000D01*
X14060000Y-4390000D02*
X14030000Y-4420000D01*
X14035000Y-6985000D02*
X14065000Y-7015000D01*
X14065000Y-6985000D02*
X14035000Y-7015000D01*
X14115000Y-6545000D02*
X14145000Y-6575000D01*
X14145000Y-6545000D02*
X14115000Y-6575000D01*
X14155000Y-4080000D02*
X14185000Y-4110000D01*
X14185000Y-4080000D02*
X14155000Y-4110000D01*
X14215000Y-3695000D02*
X14245000Y-3725000D01*
X14245000Y-3695000D02*
X14215000Y-3725000D01*
X14218127Y-3431873D02*
X14248127Y-3461873D01*
X14248127Y-3431873D02*
X14218127Y-3461873D01*
X14230000Y-7530000D02*
X14260000Y-7560000D01*
X14260000Y-7530000D02*
X14230000Y-7560000D01*
X14235000Y-5520000D02*
X14265000Y-5550000D01*
X14265000Y-5520000D02*
X14235000Y-5550000D01*
X14235000Y-6465000D02*
X14265000Y-6495000D01*
X14265000Y-6465000D02*
X14235000Y-6495000D01*
X14250000Y-5275000D02*
X14280000Y-5305000D01*
X14280000Y-5275000D02*
X14250000Y-5305000D01*
X14255000Y-5955000D02*
X14285000Y-5985000D01*
X14285000Y-5955000D02*
X14255000Y-5985000D01*
X14272450Y-6082500D02*
X14302450Y-6112500D01*
X14302450Y-6082500D02*
X14272450Y-6112500D01*
X14310000Y-4365000D02*
X14340000Y-4395000D01*
X14340000Y-4365000D02*
X14310000Y-4395000D01*
X14315000Y-7125000D02*
X14345000Y-7155000D01*
X14345000Y-7125000D02*
X14315000Y-7155000D01*
X14365000Y-7885000D02*
X14395000Y-7915000D01*
X14395000Y-7885000D02*
X14365000Y-7915000D01*
X14435000Y-3620000D02*
X14465000Y-3650000D01*
X14465000Y-3620000D02*
X14435000Y-3650000D01*
X14455000Y-5805000D02*
X14485000Y-5835000D01*
X14485000Y-5805000D02*
X14455000Y-5835000D01*
X14465000Y-6705000D02*
X14495000Y-6735000D01*
X14495000Y-6705000D02*
X14465000Y-6735000D01*
X14490000Y-7535000D02*
X14520000Y-7565000D01*
X14520000Y-7535000D02*
X14490000Y-7565000D01*
X14500000Y-4375000D02*
X14530000Y-4405000D01*
X14530000Y-4375000D02*
X14500000Y-4405000D01*
X14502740Y-7182260D02*
X14532740Y-7212260D01*
X14532740Y-7182260D02*
X14502740Y-7212260D01*
X14515000Y-3725000D02*
X14545000Y-3755000D01*
X14545000Y-3725000D02*
X14515000Y-3755000D01*
X14515000Y-7052450D02*
X14545000Y-7082450D01*
X14545000Y-7052450D02*
X14515000Y-7082450D01*
X14520000Y-6819650D02*
X14550000Y-6849650D01*
X14550000Y-6819650D02*
X14520000Y-6849650D01*
X14551659Y-6121659D02*
X14581659Y-6151659D01*
X14581659Y-6121659D02*
X14551659Y-6151659D01*
X14605000Y-5045000D02*
X14635000Y-5075000D01*
X14635000Y-5045000D02*
X14605000Y-5075000D01*
X14635000Y-4110000D02*
X14665000Y-4140000D01*
X14665000Y-4110000D02*
X14635000Y-4140000D01*
X14685000Y-6035000D02*
X14715000Y-6065000D01*
X14715000Y-6035000D02*
X14685000Y-6065000D01*
X14685000Y-7597650D02*
X14715000Y-7627650D01*
X14715000Y-7597650D02*
X14685000Y-7627650D01*
X14750000Y-5170000D02*
X14780000Y-5200000D01*
X14780000Y-5170000D02*
X14750000Y-5200000D01*
X14780000Y-4730000D02*
X14810000Y-4760000D01*
X14810000Y-4730000D02*
X14780000Y-4760000D01*
X14805000Y-5645000D02*
X14835000Y-5675000D01*
X14835000Y-5645000D02*
X14805000Y-5675000D01*
X14815000Y-4115000D02*
X14845000Y-4145000D01*
X14845000Y-4115000D02*
X14815000Y-4145000D01*
X14920000Y-3825000D02*
X14950000Y-3855000D01*
X14950000Y-3825000D02*
X14920000Y-3855000D01*
X14945000Y-7565000D02*
X14975000Y-7595000D01*
X14975000Y-7565000D02*
X14945000Y-7595000D01*
X14975000Y-5985000D02*
X15005000Y-6015000D01*
X15005000Y-5985000D02*
X14975000Y-6015000D01*
X14985000Y-3635000D02*
X15015000Y-3665000D01*
X15015000Y-3635000D02*
X14985000Y-3665000D01*
X14995000Y-4980000D02*
X15025000Y-5010000D01*
X15025000Y-4980000D02*
X14995000Y-5010000D01*
X15020000Y-5150000D02*
X15050000Y-5180000D01*
X15050000Y-5150000D02*
X15020000Y-5180000D01*
X15055000Y-6475000D02*
X15085000Y-6505000D01*
X15085000Y-6475000D02*
X15055000Y-6505000D01*
X15055000Y-7895000D02*
X15085000Y-7925000D01*
X15085000Y-7895000D02*
X15055000Y-7925000D01*
X15090000Y-6810000D02*
X15120000Y-6840000D01*
X15120000Y-6810000D02*
X15090000Y-6840000D01*
X15105000Y-6975000D02*
X15135000Y-7005000D01*
X15135000Y-6975000D02*
X15105000Y-7005000D01*
X15140000Y-3470000D02*
X15170000Y-3500000D01*
X15170000Y-3470000D02*
X15140000Y-3500000D01*
X15150000Y-5920000D02*
X15180000Y-5950000D01*
X15180000Y-5920000D02*
X15150000Y-5950000D01*
X15185000Y-6450000D02*
X15215000Y-6480000D01*
X15215000Y-6450000D02*
X15185000Y-6480000D01*
X15230000Y-4915000D02*
X15260000Y-4945000D01*
X15260000Y-4915000D02*
X15230000Y-4945000D01*
X15250000Y-3235000D02*
X15280000Y-3265000D01*
X15280000Y-3235000D02*
X15250000Y-3265000D01*
X15250000Y-4370000D02*
X15280000Y-4400000D01*
X15280000Y-4370000D02*
X15250000Y-4400000D01*
X15260000Y-4755000D02*
X15290000Y-4785000D01*
X15290000Y-4755000D02*
X15260000Y-4785000D01*
X15280000Y-7595000D02*
X15310000Y-7625000D01*
X15310000Y-7595000D02*
X15280000Y-7625000D01*
X15285000Y-3845000D02*
X15315000Y-3875000D01*
X15315000Y-3845000D02*
X15285000Y-3875000D01*
X15340000Y-7500000D02*
X15370000Y-7530000D01*
X15370000Y-7500000D02*
X15340000Y-7530000D01*
X9190000Y-4295000D02*
G75*
G02*
X9150000Y-4295000I-20000J0D01*
G01*
X9150000Y-4295000D02*
G75*
G02*
X9190000Y-4295000I20000J0D01*
G01*
X10330000Y-4455000D02*
G75*
G02*
X10290000Y-4455000I-20000J0D01*
G01*
X10290000Y-4455000D02*
G75*
G02*
X10330000Y-4455000I20000J0D01*
G01*
X12070000Y-7805000D02*
X12070000Y-7855000D01*
X12045000Y-7830000D02*
X12095000Y-7830000D01*
X12045000Y-7797500D02*
X12045000Y-7862500D01*
X12095000Y-7862500D02*
G75*
G02*
X12045000Y-7862500I-25000J0D01*
G01*
X12095000Y-7862500D02*
X12095000Y-7797500D01*
X12095000Y-7797500D02*
G75*
G03*
X12045000Y-7797500I-25000J0D01*
G01*
X12770000Y-7805000D02*
X12770000Y-7855000D01*
X12745000Y-7830000D02*
X12795000Y-7830000D01*
X12745000Y-7797500D02*
X12745000Y-7862500D01*
X12795000Y-7862500D02*
G75*
G02*
X12745000Y-7862500I-25000J0D01*
G01*
X12795000Y-7862500D02*
X12795000Y-7797500D01*
X12795000Y-7797500D02*
G75*
G03*
X12745000Y-7797500I-25000J0D01*
G01*
X12189446Y-7579446D02*
X12189446Y-7540554D01*
X12150554Y-7540554D01*
X12150554Y-7579446D01*
X12189446Y-7579446D01*
X12155000Y-7587500D02*
X12185000Y-7587500D01*
X12185000Y-7532500D02*
G75*
G02*
X12185000Y-7587500I0J-27500D01*
G01*
X12185000Y-7532500D02*
X12155000Y-7532500D01*
X12155000Y-7532500D02*
G75*
G03*
X12155000Y-7587500I0J-27500D01*
G01*
X12689446Y-7579446D02*
X12689446Y-7540554D01*
X12650554Y-7540554D01*
X12650554Y-7579446D01*
X12689446Y-7579446D01*
X12655000Y-7587500D02*
X12685000Y-7587500D01*
X12685000Y-7532500D02*
G75*
G02*
X12685000Y-7587500I0J-27500D01*
G01*
X12685000Y-7532500D02*
X12655000Y-7532500D01*
X12655000Y-7532500D02*
G75*
G03*
X12655000Y-7587500I0J-27500D01*
G01*
X8287500Y-4027500D02*
X8335000Y-3980000D01*
X8287500Y-3932500D01*
X8240000Y-3980000D01*
X8287500Y-4027500D01*
X8287500Y-4277500D02*
X8335000Y-4230000D01*
X8287500Y-4182500D01*
X8240000Y-4230000D01*
X8287500Y-4277500D01*
X8287500Y-4527500D02*
X8335000Y-4480000D01*
X8287500Y-4432500D01*
X8240000Y-4480000D01*
X8287500Y-4527500D01*
X8287500Y-5157500D02*
X8335000Y-5110000D01*
X8287500Y-5062500D01*
X8240000Y-5110000D01*
X8287500Y-5157500D01*
X8287500Y-5407500D02*
X8335000Y-5360000D01*
X8287500Y-5312500D01*
X8240000Y-5360000D01*
X8287500Y-5407500D01*
X8287500Y-5657500D02*
X8335000Y-5610000D01*
X8287500Y-5562500D01*
X8240000Y-5610000D01*
X8287500Y-5657500D01*
X8290000Y-6247500D02*
X8337500Y-6200000D01*
X8290000Y-6152500D01*
X8242500Y-6200000D01*
X8290000Y-6247500D01*
X8290000Y-6497500D02*
X8337500Y-6450000D01*
X8290000Y-6402500D01*
X8242500Y-6450000D01*
X8290000Y-6497500D01*
X8290000Y-6747500D02*
X8337500Y-6700000D01*
X8290000Y-6652500D01*
X8242500Y-6700000D01*
X8290000Y-6747500D01*
X8290000Y-6997500D02*
X8337500Y-6950000D01*
X8290000Y-6902500D01*
X8242500Y-6950000D01*
X8290000Y-6997500D01*
X9170000Y-3337500D02*
X9217500Y-3290000D01*
X9170000Y-3242500D01*
X9122500Y-3290000D01*
X9170000Y-3337500D01*
X9210000Y-6047500D02*
X9257500Y-6000000D01*
X9210000Y-5952500D01*
X9162500Y-6000000D01*
X9210000Y-6047500D01*
X9420000Y-3337500D02*
X9467500Y-3290000D01*
X9420000Y-3242500D01*
X9372500Y-3290000D01*
X9420000Y-3337500D01*
X9440000Y-5257500D02*
X9487500Y-5210000D01*
X9440000Y-5162500D01*
X9392500Y-5210000D01*
X9440000Y-5257500D01*
X9460000Y-6047500D02*
X9507500Y-6000000D01*
X9460000Y-5952500D01*
X9412500Y-6000000D01*
X9460000Y-6047500D01*
X9670000Y-3337500D02*
X9717500Y-3290000D01*
X9670000Y-3242500D01*
X9622500Y-3290000D01*
X9670000Y-3337500D01*
X9690000Y-5257500D02*
X9737500Y-5210000D01*
X9690000Y-5162500D01*
X9642500Y-5210000D01*
X9690000Y-5257500D01*
X9710000Y-6047500D02*
X9757500Y-6000000D01*
X9710000Y-5952500D01*
X9662500Y-6000000D01*
X9710000Y-6047500D01*
X9920000Y-3337500D02*
X9967500Y-3290000D01*
X9920000Y-3242500D01*
X9872500Y-3290000D01*
X9920000Y-3337500D01*
X9940000Y-5257500D02*
X9987500Y-5210000D01*
X9940000Y-5162500D01*
X9892500Y-5210000D01*
X9940000Y-5257500D01*
X9960000Y-6047500D02*
X10007500Y-6000000D01*
X9960000Y-5952500D01*
X9912500Y-6000000D01*
X9960000Y-6047500D01*
X8815000Y-7662500D02*
X8915000Y-7762500D01*
X8915000Y-7662500D02*
X8815000Y-7762500D01*
X8915000Y-7712500D02*
G75*
G02*
X8815000Y-7712500I-50000J0D01*
G01*
X8815000Y-7712500D02*
G75*
G02*
X8915000Y-7712500I50000J0D01*
G01*
X9065000Y-7662500D02*
X9165000Y-7762500D01*
X9165000Y-7662500D02*
X9065000Y-7762500D01*
X9165000Y-7712500D02*
G75*
G02*
X9065000Y-7712500I-50000J0D01*
G01*
X9065000Y-7712500D02*
G75*
G02*
X9165000Y-7712500I50000J0D01*
G01*
X9657500Y-7662500D02*
X9757500Y-7762500D01*
X9757500Y-7662500D02*
X9657500Y-7762500D01*
X9757500Y-7712500D02*
G75*
G02*
X9657500Y-7712500I-50000J0D01*
G01*
X9657500Y-7712500D02*
G75*
G02*
X9757500Y-7712500I50000J0D01*
G01*
X9907500Y-7662500D02*
X10007500Y-7762500D01*
X10007500Y-7662500D02*
X9907500Y-7762500D01*
X10007500Y-7712500D02*
G75*
G02*
X9907500Y-7712500I-50000J0D01*
G01*
X9907500Y-7712500D02*
G75*
G02*
X10007500Y-7712500I50000J0D01*
G01*
X10497500Y-7660000D02*
X10597500Y-7760000D01*
X10597500Y-7660000D02*
X10497500Y-7760000D01*
X10597500Y-7710000D02*
G75*
G02*
X10497500Y-7710000I-50000J0D01*
G01*
X10497500Y-7710000D02*
G75*
G02*
X10597500Y-7710000I50000J0D01*
G01*
X10747500Y-7660000D02*
X10847500Y-7760000D01*
X10847500Y-7660000D02*
X10747500Y-7760000D01*
X10847500Y-7710000D02*
G75*
G02*
X10747500Y-7710000I-50000J0D01*
G01*
X10747500Y-7710000D02*
G75*
G02*
X10847500Y-7710000I50000J0D01*
G01*
X11190000Y-5142500D02*
X11290000Y-5242500D01*
X11290000Y-5142500D02*
X11190000Y-5242500D01*
X11290000Y-5192500D02*
G75*
G02*
X11190000Y-5192500I-50000J0D01*
G01*
X11190000Y-5192500D02*
G75*
G02*
X11290000Y-5192500I50000J0D01*
G01*
X11190000Y-5396500D02*
X11290000Y-5496500D01*
X11290000Y-5396500D02*
X11190000Y-5496500D01*
X11290000Y-5446500D02*
G75*
G02*
X11190000Y-5446500I-50000J0D01*
G01*
X11190000Y-5446500D02*
G75*
G02*
X11290000Y-5446500I50000J0D01*
G01*
X11345000Y-7662500D02*
X11445000Y-7762500D01*
X11445000Y-7662500D02*
X11345000Y-7762500D01*
X11445000Y-7712500D02*
G75*
G02*
X11345000Y-7712500I-50000J0D01*
G01*
X11345000Y-7712500D02*
G75*
G02*
X11445000Y-7712500I50000J0D01*
G01*
X11595000Y-7662500D02*
X11695000Y-7762500D01*
X11695000Y-7662500D02*
X11595000Y-7762500D01*
X11695000Y-7712500D02*
G75*
G02*
X11595000Y-7712500I-50000J0D01*
G01*
X11595000Y-7712500D02*
G75*
G02*
X11695000Y-7712500I50000J0D01*
G01*
D12*
X8140000Y-3130000D02*
X8460000Y-3450000D01*
X8460000Y-3130000D02*
X8140000Y-3450000D01*
X8300000Y-3130000D02*
X8300000Y-3450000D01*
X8140000Y-3290000D02*
X8460000Y-3290000D01*
X8140000Y-7540000D02*
X8460000Y-7860000D01*
X8460000Y-7540000D02*
X8140000Y-7860000D01*
X8300000Y-7540000D02*
X8300000Y-7860000D01*
X8140000Y-7700000D02*
X8460000Y-7700000D01*
X15540000Y-3140000D02*
X15860000Y-3460000D01*
X15860000Y-3140000D02*
X15540000Y-3460000D01*
X15700000Y-3140000D02*
X15700000Y-3460000D01*
X15540000Y-3300000D02*
X15860000Y-3300000D01*
X15540000Y-7540000D02*
X15860000Y-7860000D01*
X15860000Y-7540000D02*
X15540000Y-7860000D01*
X15700000Y-7540000D02*
X15700000Y-7860000D01*
X15540000Y-7700000D02*
X15860000Y-7700000D01*
D11*
X8255777Y-8316484D02*
X8255777Y-8116484D01*
X8255777Y-8116484D02*
X8303396Y-8116484D01*
X8303396Y-8116484D02*
X8331967Y-8126008D01*
X8331967Y-8126008D02*
X8351015Y-8145055D01*
X8351015Y-8145055D02*
X8360539Y-8164103D01*
X8360539Y-8164103D02*
X8370062Y-8202198D01*
X8370062Y-8202198D02*
X8370062Y-8230769D01*
X8370062Y-8230769D02*
X8360539Y-8268865D01*
X8360539Y-8268865D02*
X8351015Y-8287912D01*
X8351015Y-8287912D02*
X8331967Y-8306960D01*
X8331967Y-8306960D02*
X8303396Y-8316484D01*
X8303396Y-8316484D02*
X8255777Y-8316484D01*
X8455777Y-8316484D02*
X8455777Y-8183150D01*
X8455777Y-8221246D02*
X8465301Y-8202198D01*
X8465301Y-8202198D02*
X8474824Y-8192674D01*
X8474824Y-8192674D02*
X8493872Y-8183150D01*
X8493872Y-8183150D02*
X8512920Y-8183150D01*
X8579586Y-8316484D02*
X8579586Y-8183150D01*
X8579586Y-8116484D02*
X8570063Y-8126008D01*
X8570063Y-8126008D02*
X8579586Y-8135531D01*
X8579586Y-8135531D02*
X8589110Y-8126008D01*
X8589110Y-8126008D02*
X8579586Y-8116484D01*
X8579586Y-8116484D02*
X8579586Y-8135531D01*
X8703396Y-8316484D02*
X8684348Y-8306960D01*
X8684348Y-8306960D02*
X8674824Y-8287912D01*
X8674824Y-8287912D02*
X8674824Y-8116484D01*
X8808158Y-8316484D02*
X8789110Y-8306960D01*
X8789110Y-8306960D02*
X8779586Y-8287912D01*
X8779586Y-8287912D02*
X8779586Y-8116484D01*
X9036729Y-8316484D02*
X9036729Y-8116484D01*
X9036729Y-8116484D02*
X9103396Y-8259341D01*
X9103396Y-8259341D02*
X9170063Y-8116484D01*
X9170063Y-8116484D02*
X9170063Y-8316484D01*
X9351015Y-8316484D02*
X9351015Y-8211722D01*
X9351015Y-8211722D02*
X9341491Y-8192674D01*
X9341491Y-8192674D02*
X9322444Y-8183150D01*
X9322444Y-8183150D02*
X9284348Y-8183150D01*
X9284348Y-8183150D02*
X9265301Y-8192674D01*
X9351015Y-8306960D02*
X9331967Y-8316484D01*
X9331967Y-8316484D02*
X9284348Y-8316484D01*
X9284348Y-8316484D02*
X9265301Y-8306960D01*
X9265301Y-8306960D02*
X9255777Y-8287912D01*
X9255777Y-8287912D02*
X9255777Y-8268865D01*
X9255777Y-8268865D02*
X9265301Y-8249817D01*
X9265301Y-8249817D02*
X9284348Y-8240293D01*
X9284348Y-8240293D02*
X9331967Y-8240293D01*
X9331967Y-8240293D02*
X9351015Y-8230769D01*
X9446253Y-8183150D02*
X9446253Y-8383150D01*
X9446253Y-8192674D02*
X9465301Y-8183150D01*
X9465301Y-8183150D02*
X9503396Y-8183150D01*
X9503396Y-8183150D02*
X9522444Y-8192674D01*
X9522444Y-8192674D02*
X9531967Y-8202198D01*
X9531967Y-8202198D02*
X9541491Y-8221246D01*
X9541491Y-8221246D02*
X9541491Y-8278388D01*
X9541491Y-8278388D02*
X9531967Y-8297436D01*
X9531967Y-8297436D02*
X9522444Y-8306960D01*
X9522444Y-8306960D02*
X9503396Y-8316484D01*
X9503396Y-8316484D02*
X9465301Y-8316484D01*
X9465301Y-8316484D02*
X9446253Y-8306960D01*
X9627205Y-8297436D02*
X9636729Y-8306960D01*
X9636729Y-8306960D02*
X9627205Y-8316484D01*
X9627205Y-8316484D02*
X9617682Y-8306960D01*
X9617682Y-8306960D02*
X9627205Y-8297436D01*
X9627205Y-8297436D02*
X9627205Y-8316484D01*
X9627205Y-8192674D02*
X9636729Y-8202198D01*
X9636729Y-8202198D02*
X9627205Y-8211722D01*
X9627205Y-8211722D02*
X9617682Y-8202198D01*
X9617682Y-8202198D02*
X9627205Y-8192674D01*
X9627205Y-8192674D02*
X9627205Y-8211722D01*
D10*
X7965000Y-8630000D02*
X7995000Y-8660000D01*
X7995000Y-8630000D02*
X7965000Y-8660000D01*
D11*
X8293872Y-8536484D02*
X8312920Y-8536484D01*
X8312920Y-8536484D02*
X8331967Y-8546008D01*
X8331967Y-8546008D02*
X8341491Y-8555531D01*
X8341491Y-8555531D02*
X8351015Y-8574579D01*
X8351015Y-8574579D02*
X8360539Y-8612674D01*
X8360539Y-8612674D02*
X8360539Y-8660293D01*
X8360539Y-8660293D02*
X8351015Y-8698389D01*
X8351015Y-8698389D02*
X8341491Y-8717436D01*
X8341491Y-8717436D02*
X8331967Y-8726960D01*
X8331967Y-8726960D02*
X8312920Y-8736484D01*
X8312920Y-8736484D02*
X8293872Y-8736484D01*
X8293872Y-8736484D02*
X8274824Y-8726960D01*
X8274824Y-8726960D02*
X8265301Y-8717436D01*
X8265301Y-8717436D02*
X8255777Y-8698389D01*
X8255777Y-8698389D02*
X8246253Y-8660293D01*
X8246253Y-8660293D02*
X8246253Y-8612674D01*
X8246253Y-8612674D02*
X8255777Y-8574579D01*
X8255777Y-8574579D02*
X8265301Y-8555531D01*
X8265301Y-8555531D02*
X8274824Y-8546008D01*
X8274824Y-8546008D02*
X8293872Y-8536484D01*
X8446253Y-8717436D02*
X8455777Y-8726960D01*
X8455777Y-8726960D02*
X8446253Y-8736484D01*
X8446253Y-8736484D02*
X8436729Y-8726960D01*
X8436729Y-8726960D02*
X8446253Y-8717436D01*
X8446253Y-8717436D02*
X8446253Y-8736484D01*
X8522444Y-8536484D02*
X8646253Y-8536484D01*
X8646253Y-8536484D02*
X8579586Y-8612674D01*
X8579586Y-8612674D02*
X8608158Y-8612674D01*
X8608158Y-8612674D02*
X8627205Y-8622198D01*
X8627205Y-8622198D02*
X8636729Y-8631722D01*
X8636729Y-8631722D02*
X8646253Y-8650770D01*
X8646253Y-8650770D02*
X8646253Y-8698389D01*
X8646253Y-8698389D02*
X8636729Y-8717436D01*
X8636729Y-8717436D02*
X8627205Y-8726960D01*
X8627205Y-8726960D02*
X8608158Y-8736484D01*
X8608158Y-8736484D02*
X8551015Y-8736484D01*
X8551015Y-8736484D02*
X8531967Y-8726960D01*
X8531967Y-8726960D02*
X8522444Y-8717436D01*
X8770063Y-8536484D02*
X8789110Y-8536484D01*
X8789110Y-8536484D02*
X8808158Y-8546008D01*
X8808158Y-8546008D02*
X8817682Y-8555531D01*
X8817682Y-8555531D02*
X8827205Y-8574579D01*
X8827205Y-8574579D02*
X8836729Y-8612674D01*
X8836729Y-8612674D02*
X8836729Y-8660293D01*
X8836729Y-8660293D02*
X8827205Y-8698389D01*
X8827205Y-8698389D02*
X8817682Y-8717436D01*
X8817682Y-8717436D02*
X8808158Y-8726960D01*
X8808158Y-8726960D02*
X8789110Y-8736484D01*
X8789110Y-8736484D02*
X8770063Y-8736484D01*
X8770063Y-8736484D02*
X8751015Y-8726960D01*
X8751015Y-8726960D02*
X8741491Y-8717436D01*
X8741491Y-8717436D02*
X8731967Y-8698389D01*
X8731967Y-8698389D02*
X8722444Y-8660293D01*
X8722444Y-8660293D02*
X8722444Y-8612674D01*
X8722444Y-8612674D02*
X8731967Y-8574579D01*
X8731967Y-8574579D02*
X8741491Y-8555531D01*
X8741491Y-8555531D02*
X8751015Y-8546008D01*
X8751015Y-8546008D02*
X8770063Y-8536484D01*
X8960539Y-8536484D02*
X8979586Y-8536484D01*
X8979586Y-8536484D02*
X8998634Y-8546008D01*
X8998634Y-8546008D02*
X9008158Y-8555531D01*
X9008158Y-8555531D02*
X9017682Y-8574579D01*
X9017682Y-8574579D02*
X9027205Y-8612674D01*
X9027205Y-8612674D02*
X9027205Y-8660293D01*
X9027205Y-8660293D02*
X9017682Y-8698389D01*
X9017682Y-8698389D02*
X9008158Y-8717436D01*
X9008158Y-8717436D02*
X8998634Y-8726960D01*
X8998634Y-8726960D02*
X8979586Y-8736484D01*
X8979586Y-8736484D02*
X8960539Y-8736484D01*
X8960539Y-8736484D02*
X8941491Y-8726960D01*
X8941491Y-8726960D02*
X8931967Y-8717436D01*
X8931967Y-8717436D02*
X8922444Y-8698389D01*
X8922444Y-8698389D02*
X8912920Y-8660293D01*
X8912920Y-8660293D02*
X8912920Y-8612674D01*
X8912920Y-8612674D02*
X8922444Y-8574579D01*
X8922444Y-8574579D02*
X8931967Y-8555531D01*
X8931967Y-8555531D02*
X8941491Y-8546008D01*
X8941491Y-8546008D02*
X8960539Y-8536484D01*
X9112920Y-8736484D02*
X9112920Y-8603150D01*
X9112920Y-8622198D02*
X9122444Y-8612674D01*
X9122444Y-8612674D02*
X9141491Y-8603150D01*
X9141491Y-8603150D02*
X9170063Y-8603150D01*
X9170063Y-8603150D02*
X9189110Y-8612674D01*
X9189110Y-8612674D02*
X9198634Y-8631722D01*
X9198634Y-8631722D02*
X9198634Y-8736484D01*
X9198634Y-8631722D02*
X9208158Y-8612674D01*
X9208158Y-8612674D02*
X9227205Y-8603150D01*
X9227205Y-8603150D02*
X9255777Y-8603150D01*
X9255777Y-8603150D02*
X9274825Y-8612674D01*
X9274825Y-8612674D02*
X9284348Y-8631722D01*
X9284348Y-8631722D02*
X9284348Y-8736484D01*
X9379586Y-8736484D02*
X9379586Y-8603150D01*
X9379586Y-8622198D02*
X9389110Y-8612674D01*
X9389110Y-8612674D02*
X9408158Y-8603150D01*
X9408158Y-8603150D02*
X9436729Y-8603150D01*
X9436729Y-8603150D02*
X9455777Y-8612674D01*
X9455777Y-8612674D02*
X9465301Y-8631722D01*
X9465301Y-8631722D02*
X9465301Y-8736484D01*
X9465301Y-8631722D02*
X9474825Y-8612674D01*
X9474825Y-8612674D02*
X9493872Y-8603150D01*
X9493872Y-8603150D02*
X9522444Y-8603150D01*
X9522444Y-8603150D02*
X9541491Y-8612674D01*
X9541491Y-8612674D02*
X9551015Y-8631722D01*
X9551015Y-8631722D02*
X9551015Y-8736484D01*
X9941491Y-8526960D02*
X9770063Y-8784103D01*
X10198634Y-8536484D02*
X10217682Y-8536484D01*
X10217682Y-8536484D02*
X10236729Y-8546008D01*
X10236729Y-8546008D02*
X10246253Y-8555531D01*
X10246253Y-8555531D02*
X10255777Y-8574579D01*
X10255777Y-8574579D02*
X10265301Y-8612674D01*
X10265301Y-8612674D02*
X10265301Y-8660293D01*
X10265301Y-8660293D02*
X10255777Y-8698389D01*
X10255777Y-8698389D02*
X10246253Y-8717436D01*
X10246253Y-8717436D02*
X10236729Y-8726960D01*
X10236729Y-8726960D02*
X10217682Y-8736484D01*
X10217682Y-8736484D02*
X10198634Y-8736484D01*
X10198634Y-8736484D02*
X10179587Y-8726960D01*
X10179587Y-8726960D02*
X10170063Y-8717436D01*
X10170063Y-8717436D02*
X10160539Y-8698389D01*
X10160539Y-8698389D02*
X10151015Y-8660293D01*
X10151015Y-8660293D02*
X10151015Y-8612674D01*
X10151015Y-8612674D02*
X10160539Y-8574579D01*
X10160539Y-8574579D02*
X10170063Y-8555531D01*
X10170063Y-8555531D02*
X10179587Y-8546008D01*
X10179587Y-8546008D02*
X10198634Y-8536484D01*
X10351015Y-8717436D02*
X10360539Y-8726960D01*
X10360539Y-8726960D02*
X10351015Y-8736484D01*
X10351015Y-8736484D02*
X10341491Y-8726960D01*
X10341491Y-8726960D02*
X10351015Y-8717436D01*
X10351015Y-8717436D02*
X10351015Y-8736484D01*
X10484348Y-8536484D02*
X10503396Y-8536484D01*
X10503396Y-8536484D02*
X10522444Y-8546008D01*
X10522444Y-8546008D02*
X10531968Y-8555531D01*
X10531968Y-8555531D02*
X10541491Y-8574579D01*
X10541491Y-8574579D02*
X10551015Y-8612674D01*
X10551015Y-8612674D02*
X10551015Y-8660293D01*
X10551015Y-8660293D02*
X10541491Y-8698389D01*
X10541491Y-8698389D02*
X10531968Y-8717436D01*
X10531968Y-8717436D02*
X10522444Y-8726960D01*
X10522444Y-8726960D02*
X10503396Y-8736484D01*
X10503396Y-8736484D02*
X10484348Y-8736484D01*
X10484348Y-8736484D02*
X10465301Y-8726960D01*
X10465301Y-8726960D02*
X10455777Y-8717436D01*
X10455777Y-8717436D02*
X10446253Y-8698389D01*
X10446253Y-8698389D02*
X10436729Y-8660293D01*
X10436729Y-8660293D02*
X10436729Y-8612674D01*
X10436729Y-8612674D02*
X10446253Y-8574579D01*
X10446253Y-8574579D02*
X10455777Y-8555531D01*
X10455777Y-8555531D02*
X10465301Y-8546008D01*
X10465301Y-8546008D02*
X10484348Y-8536484D01*
X10741491Y-8736484D02*
X10627206Y-8736484D01*
X10684348Y-8736484D02*
X10684348Y-8536484D01*
X10684348Y-8536484D02*
X10665301Y-8565055D01*
X10665301Y-8565055D02*
X10646253Y-8584103D01*
X10646253Y-8584103D02*
X10627206Y-8593627D01*
X10931968Y-8736484D02*
X10817682Y-8736484D01*
X10874825Y-8736484D02*
X10874825Y-8536484D01*
X10874825Y-8536484D02*
X10855777Y-8565055D01*
X10855777Y-8565055D02*
X10836729Y-8584103D01*
X10836729Y-8584103D02*
X10817682Y-8593627D01*
X11046253Y-8622198D02*
X11027206Y-8612674D01*
X11027206Y-8612674D02*
X11017682Y-8603150D01*
X11017682Y-8603150D02*
X11008158Y-8584103D01*
X11008158Y-8584103D02*
X11008158Y-8574579D01*
X11008158Y-8574579D02*
X11017682Y-8555531D01*
X11017682Y-8555531D02*
X11027206Y-8546008D01*
X11027206Y-8546008D02*
X11046253Y-8536484D01*
X11046253Y-8536484D02*
X11084349Y-8536484D01*
X11084349Y-8536484D02*
X11103396Y-8546008D01*
X11103396Y-8546008D02*
X11112920Y-8555531D01*
X11112920Y-8555531D02*
X11122444Y-8574579D01*
X11122444Y-8574579D02*
X11122444Y-8584103D01*
X11122444Y-8584103D02*
X11112920Y-8603150D01*
X11112920Y-8603150D02*
X11103396Y-8612674D01*
X11103396Y-8612674D02*
X11084349Y-8622198D01*
X11084349Y-8622198D02*
X11046253Y-8622198D01*
X11046253Y-8622198D02*
X11027206Y-8631722D01*
X11027206Y-8631722D02*
X11017682Y-8641246D01*
X11017682Y-8641246D02*
X11008158Y-8660293D01*
X11008158Y-8660293D02*
X11008158Y-8698389D01*
X11008158Y-8698389D02*
X11017682Y-8717436D01*
X11017682Y-8717436D02*
X11027206Y-8726960D01*
X11027206Y-8726960D02*
X11046253Y-8736484D01*
X11046253Y-8736484D02*
X11084349Y-8736484D01*
X11084349Y-8736484D02*
X11103396Y-8726960D01*
X11103396Y-8726960D02*
X11112920Y-8717436D01*
X11112920Y-8717436D02*
X11122444Y-8698389D01*
X11122444Y-8698389D02*
X11122444Y-8660293D01*
X11122444Y-8660293D02*
X11112920Y-8641246D01*
X11112920Y-8641246D02*
X11103396Y-8631722D01*
X11103396Y-8631722D02*
X11084349Y-8622198D01*
X11198634Y-8536484D02*
X11198634Y-8574579D01*
X11274825Y-8536484D02*
X11274825Y-8574579D01*
X11570063Y-8812674D02*
X11560539Y-8803150D01*
X11560539Y-8803150D02*
X11541491Y-8774579D01*
X11541491Y-8774579D02*
X11531968Y-8755531D01*
X11531968Y-8755531D02*
X11522444Y-8726960D01*
X11522444Y-8726960D02*
X11512920Y-8679341D01*
X11512920Y-8679341D02*
X11512920Y-8641246D01*
X11512920Y-8641246D02*
X11522444Y-8593627D01*
X11522444Y-8593627D02*
X11531968Y-8565055D01*
X11531968Y-8565055D02*
X11541491Y-8546008D01*
X11541491Y-8546008D02*
X11560539Y-8517436D01*
X11560539Y-8517436D02*
X11570063Y-8507912D01*
X11751015Y-8736484D02*
X11636729Y-8736484D01*
X11693872Y-8736484D02*
X11693872Y-8536484D01*
X11693872Y-8536484D02*
X11674825Y-8565055D01*
X11674825Y-8565055D02*
X11655777Y-8584103D01*
X11655777Y-8584103D02*
X11636729Y-8593627D01*
X11846253Y-8736484D02*
X11884348Y-8736484D01*
X11884348Y-8736484D02*
X11903396Y-8726960D01*
X11903396Y-8726960D02*
X11912920Y-8717436D01*
X11912920Y-8717436D02*
X11931968Y-8688865D01*
X11931968Y-8688865D02*
X11941491Y-8650770D01*
X11941491Y-8650770D02*
X11941491Y-8574579D01*
X11941491Y-8574579D02*
X11931968Y-8555531D01*
X11931968Y-8555531D02*
X11922444Y-8546008D01*
X11922444Y-8546008D02*
X11903396Y-8536484D01*
X11903396Y-8536484D02*
X11865301Y-8536484D01*
X11865301Y-8536484D02*
X11846253Y-8546008D01*
X11846253Y-8546008D02*
X11836729Y-8555531D01*
X11836729Y-8555531D02*
X11827206Y-8574579D01*
X11827206Y-8574579D02*
X11827206Y-8622198D01*
X11827206Y-8622198D02*
X11836729Y-8641246D01*
X11836729Y-8641246D02*
X11846253Y-8650770D01*
X11846253Y-8650770D02*
X11865301Y-8660293D01*
X11865301Y-8660293D02*
X11903396Y-8660293D01*
X11903396Y-8660293D02*
X11922444Y-8650770D01*
X11922444Y-8650770D02*
X11931968Y-8641246D01*
X11931968Y-8641246D02*
X11941491Y-8622198D01*
X12036729Y-8736484D02*
X12074825Y-8736484D01*
X12074825Y-8736484D02*
X12093872Y-8726960D01*
X12093872Y-8726960D02*
X12103396Y-8717436D01*
X12103396Y-8717436D02*
X12122444Y-8688865D01*
X12122444Y-8688865D02*
X12131968Y-8650770D01*
X12131968Y-8650770D02*
X12131968Y-8574579D01*
X12131968Y-8574579D02*
X12122444Y-8555531D01*
X12122444Y-8555531D02*
X12112920Y-8546008D01*
X12112920Y-8546008D02*
X12093872Y-8536484D01*
X12093872Y-8536484D02*
X12055777Y-8536484D01*
X12055777Y-8536484D02*
X12036729Y-8546008D01*
X12036729Y-8546008D02*
X12027206Y-8555531D01*
X12027206Y-8555531D02*
X12017682Y-8574579D01*
X12017682Y-8574579D02*
X12017682Y-8622198D01*
X12017682Y-8622198D02*
X12027206Y-8641246D01*
X12027206Y-8641246D02*
X12036729Y-8650770D01*
X12036729Y-8650770D02*
X12055777Y-8660293D01*
X12055777Y-8660293D02*
X12093872Y-8660293D01*
X12093872Y-8660293D02*
X12112920Y-8650770D01*
X12112920Y-8650770D02*
X12122444Y-8641246D01*
X12122444Y-8641246D02*
X12131968Y-8622198D01*
X12370063Y-8736484D02*
X12370063Y-8536484D01*
X12455777Y-8736484D02*
X12455777Y-8631722D01*
X12455777Y-8631722D02*
X12446253Y-8612674D01*
X12446253Y-8612674D02*
X12427206Y-8603150D01*
X12427206Y-8603150D02*
X12398634Y-8603150D01*
X12398634Y-8603150D02*
X12379587Y-8612674D01*
X12379587Y-8612674D02*
X12370063Y-8622198D01*
X12579587Y-8736484D02*
X12560539Y-8726960D01*
X12560539Y-8726960D02*
X12551015Y-8717436D01*
X12551015Y-8717436D02*
X12541491Y-8698389D01*
X12541491Y-8698389D02*
X12541491Y-8641246D01*
X12541491Y-8641246D02*
X12551015Y-8622198D01*
X12551015Y-8622198D02*
X12560539Y-8612674D01*
X12560539Y-8612674D02*
X12579587Y-8603150D01*
X12579587Y-8603150D02*
X12608158Y-8603150D01*
X12608158Y-8603150D02*
X12627206Y-8612674D01*
X12627206Y-8612674D02*
X12636730Y-8622198D01*
X12636730Y-8622198D02*
X12646253Y-8641246D01*
X12646253Y-8641246D02*
X12646253Y-8698389D01*
X12646253Y-8698389D02*
X12636730Y-8717436D01*
X12636730Y-8717436D02*
X12627206Y-8726960D01*
X12627206Y-8726960D02*
X12608158Y-8736484D01*
X12608158Y-8736484D02*
X12579587Y-8736484D01*
X12760539Y-8736484D02*
X12741491Y-8726960D01*
X12741491Y-8726960D02*
X12731968Y-8707912D01*
X12731968Y-8707912D02*
X12731968Y-8536484D01*
X12912920Y-8726960D02*
X12893872Y-8736484D01*
X12893872Y-8736484D02*
X12855777Y-8736484D01*
X12855777Y-8736484D02*
X12836730Y-8726960D01*
X12836730Y-8726960D02*
X12827206Y-8707912D01*
X12827206Y-8707912D02*
X12827206Y-8631722D01*
X12827206Y-8631722D02*
X12836730Y-8612674D01*
X12836730Y-8612674D02*
X12855777Y-8603150D01*
X12855777Y-8603150D02*
X12893872Y-8603150D01*
X12893872Y-8603150D02*
X12912920Y-8612674D01*
X12912920Y-8612674D02*
X12922444Y-8631722D01*
X12922444Y-8631722D02*
X12922444Y-8650770D01*
X12922444Y-8650770D02*
X12827206Y-8669817D01*
X12998634Y-8726960D02*
X13017682Y-8736484D01*
X13017682Y-8736484D02*
X13055777Y-8736484D01*
X13055777Y-8736484D02*
X13074825Y-8726960D01*
X13074825Y-8726960D02*
X13084349Y-8707912D01*
X13084349Y-8707912D02*
X13084349Y-8698389D01*
X13084349Y-8698389D02*
X13074825Y-8679341D01*
X13074825Y-8679341D02*
X13055777Y-8669817D01*
X13055777Y-8669817D02*
X13027206Y-8669817D01*
X13027206Y-8669817D02*
X13008158Y-8660293D01*
X13008158Y-8660293D02*
X12998634Y-8641246D01*
X12998634Y-8641246D02*
X12998634Y-8631722D01*
X12998634Y-8631722D02*
X13008158Y-8612674D01*
X13008158Y-8612674D02*
X13027206Y-8603150D01*
X13027206Y-8603150D02*
X13055777Y-8603150D01*
X13055777Y-8603150D02*
X13074825Y-8612674D01*
X13151015Y-8812674D02*
X13160539Y-8803150D01*
X13160539Y-8803150D02*
X13179587Y-8774579D01*
X13179587Y-8774579D02*
X13189111Y-8755531D01*
X13189111Y-8755531D02*
X13198634Y-8726960D01*
X13198634Y-8726960D02*
X13208158Y-8679341D01*
X13208158Y-8679341D02*
X13208158Y-8641246D01*
X13208158Y-8641246D02*
X13198634Y-8593627D01*
X13198634Y-8593627D02*
X13189111Y-8565055D01*
X13189111Y-8565055D02*
X13179587Y-8546008D01*
X13179587Y-8546008D02*
X13160539Y-8517436D01*
X13160539Y-8517436D02*
X13151015Y-8507912D01*
D10*
X7995000Y-8909000D02*
G75*
G02*
X7955000Y-8909000I-20000J0D01*
G01*
X7955000Y-8909000D02*
G75*
G02*
X7995000Y-8909000I20000J0D01*
G01*
D11*
X8293872Y-8800484D02*
X8312920Y-8800484D01*
X8312920Y-8800484D02*
X8331967Y-8810008D01*
X8331967Y-8810008D02*
X8341491Y-8819531D01*
X8341491Y-8819531D02*
X8351015Y-8838579D01*
X8351015Y-8838579D02*
X8360539Y-8876674D01*
X8360539Y-8876674D02*
X8360539Y-8924293D01*
X8360539Y-8924293D02*
X8351015Y-8962389D01*
X8351015Y-8962389D02*
X8341491Y-8981436D01*
X8341491Y-8981436D02*
X8331967Y-8990960D01*
X8331967Y-8990960D02*
X8312920Y-9000484D01*
X8312920Y-9000484D02*
X8293872Y-9000484D01*
X8293872Y-9000484D02*
X8274824Y-8990960D01*
X8274824Y-8990960D02*
X8265301Y-8981436D01*
X8265301Y-8981436D02*
X8255777Y-8962389D01*
X8255777Y-8962389D02*
X8246253Y-8924293D01*
X8246253Y-8924293D02*
X8246253Y-8876674D01*
X8246253Y-8876674D02*
X8255777Y-8838579D01*
X8255777Y-8838579D02*
X8265301Y-8819531D01*
X8265301Y-8819531D02*
X8274824Y-8810008D01*
X8274824Y-8810008D02*
X8293872Y-8800484D01*
X8446253Y-8981436D02*
X8455777Y-8990960D01*
X8455777Y-8990960D02*
X8446253Y-9000484D01*
X8446253Y-9000484D02*
X8436729Y-8990960D01*
X8436729Y-8990960D02*
X8446253Y-8981436D01*
X8446253Y-8981436D02*
X8446253Y-9000484D01*
X8627205Y-8867150D02*
X8627205Y-9000484D01*
X8579586Y-8790960D02*
X8531967Y-8933817D01*
X8531967Y-8933817D02*
X8655777Y-8933817D01*
X8770063Y-8800484D02*
X8789110Y-8800484D01*
X8789110Y-8800484D02*
X8808158Y-8810008D01*
X8808158Y-8810008D02*
X8817682Y-8819531D01*
X8817682Y-8819531D02*
X8827205Y-8838579D01*
X8827205Y-8838579D02*
X8836729Y-8876674D01*
X8836729Y-8876674D02*
X8836729Y-8924293D01*
X8836729Y-8924293D02*
X8827205Y-8962389D01*
X8827205Y-8962389D02*
X8817682Y-8981436D01*
X8817682Y-8981436D02*
X8808158Y-8990960D01*
X8808158Y-8990960D02*
X8789110Y-9000484D01*
X8789110Y-9000484D02*
X8770063Y-9000484D01*
X8770063Y-9000484D02*
X8751015Y-8990960D01*
X8751015Y-8990960D02*
X8741491Y-8981436D01*
X8741491Y-8981436D02*
X8731967Y-8962389D01*
X8731967Y-8962389D02*
X8722444Y-8924293D01*
X8722444Y-8924293D02*
X8722444Y-8876674D01*
X8722444Y-8876674D02*
X8731967Y-8838579D01*
X8731967Y-8838579D02*
X8741491Y-8819531D01*
X8741491Y-8819531D02*
X8751015Y-8810008D01*
X8751015Y-8810008D02*
X8770063Y-8800484D01*
X8960539Y-8800484D02*
X8979586Y-8800484D01*
X8979586Y-8800484D02*
X8998634Y-8810008D01*
X8998634Y-8810008D02*
X9008158Y-8819531D01*
X9008158Y-8819531D02*
X9017682Y-8838579D01*
X9017682Y-8838579D02*
X9027205Y-8876674D01*
X9027205Y-8876674D02*
X9027205Y-8924293D01*
X9027205Y-8924293D02*
X9017682Y-8962389D01*
X9017682Y-8962389D02*
X9008158Y-8981436D01*
X9008158Y-8981436D02*
X8998634Y-8990960D01*
X8998634Y-8990960D02*
X8979586Y-9000484D01*
X8979586Y-9000484D02*
X8960539Y-9000484D01*
X8960539Y-9000484D02*
X8941491Y-8990960D01*
X8941491Y-8990960D02*
X8931967Y-8981436D01*
X8931967Y-8981436D02*
X8922444Y-8962389D01*
X8922444Y-8962389D02*
X8912920Y-8924293D01*
X8912920Y-8924293D02*
X8912920Y-8876674D01*
X8912920Y-8876674D02*
X8922444Y-8838579D01*
X8922444Y-8838579D02*
X8931967Y-8819531D01*
X8931967Y-8819531D02*
X8941491Y-8810008D01*
X8941491Y-8810008D02*
X8960539Y-8800484D01*
X9112920Y-9000484D02*
X9112920Y-8867150D01*
X9112920Y-8886198D02*
X9122444Y-8876674D01*
X9122444Y-8876674D02*
X9141491Y-8867150D01*
X9141491Y-8867150D02*
X9170063Y-8867150D01*
X9170063Y-8867150D02*
X9189110Y-8876674D01*
X9189110Y-8876674D02*
X9198634Y-8895722D01*
X9198634Y-8895722D02*
X9198634Y-9000484D01*
X9198634Y-8895722D02*
X9208158Y-8876674D01*
X9208158Y-8876674D02*
X9227205Y-8867150D01*
X9227205Y-8867150D02*
X9255777Y-8867150D01*
X9255777Y-8867150D02*
X9274825Y-8876674D01*
X9274825Y-8876674D02*
X9284348Y-8895722D01*
X9284348Y-8895722D02*
X9284348Y-9000484D01*
X9379586Y-9000484D02*
X9379586Y-8867150D01*
X9379586Y-8886198D02*
X9389110Y-8876674D01*
X9389110Y-8876674D02*
X9408158Y-8867150D01*
X9408158Y-8867150D02*
X9436729Y-8867150D01*
X9436729Y-8867150D02*
X9455777Y-8876674D01*
X9455777Y-8876674D02*
X9465301Y-8895722D01*
X9465301Y-8895722D02*
X9465301Y-9000484D01*
X9465301Y-8895722D02*
X9474825Y-8876674D01*
X9474825Y-8876674D02*
X9493872Y-8867150D01*
X9493872Y-8867150D02*
X9522444Y-8867150D01*
X9522444Y-8867150D02*
X9541491Y-8876674D01*
X9541491Y-8876674D02*
X9551015Y-8895722D01*
X9551015Y-8895722D02*
X9551015Y-9000484D01*
X9941491Y-8790960D02*
X9770063Y-9048103D01*
X10198634Y-8800484D02*
X10217682Y-8800484D01*
X10217682Y-8800484D02*
X10236729Y-8810008D01*
X10236729Y-8810008D02*
X10246253Y-8819531D01*
X10246253Y-8819531D02*
X10255777Y-8838579D01*
X10255777Y-8838579D02*
X10265301Y-8876674D01*
X10265301Y-8876674D02*
X10265301Y-8924293D01*
X10265301Y-8924293D02*
X10255777Y-8962389D01*
X10255777Y-8962389D02*
X10246253Y-8981436D01*
X10246253Y-8981436D02*
X10236729Y-8990960D01*
X10236729Y-8990960D02*
X10217682Y-9000484D01*
X10217682Y-9000484D02*
X10198634Y-9000484D01*
X10198634Y-9000484D02*
X10179587Y-8990960D01*
X10179587Y-8990960D02*
X10170063Y-8981436D01*
X10170063Y-8981436D02*
X10160539Y-8962389D01*
X10160539Y-8962389D02*
X10151015Y-8924293D01*
X10151015Y-8924293D02*
X10151015Y-8876674D01*
X10151015Y-8876674D02*
X10160539Y-8838579D01*
X10160539Y-8838579D02*
X10170063Y-8819531D01*
X10170063Y-8819531D02*
X10179587Y-8810008D01*
X10179587Y-8810008D02*
X10198634Y-8800484D01*
X10351015Y-8981436D02*
X10360539Y-8990960D01*
X10360539Y-8990960D02*
X10351015Y-9000484D01*
X10351015Y-9000484D02*
X10341491Y-8990960D01*
X10341491Y-8990960D02*
X10351015Y-8981436D01*
X10351015Y-8981436D02*
X10351015Y-9000484D01*
X10484348Y-8800484D02*
X10503396Y-8800484D01*
X10503396Y-8800484D02*
X10522444Y-8810008D01*
X10522444Y-8810008D02*
X10531968Y-8819531D01*
X10531968Y-8819531D02*
X10541491Y-8838579D01*
X10541491Y-8838579D02*
X10551015Y-8876674D01*
X10551015Y-8876674D02*
X10551015Y-8924293D01*
X10551015Y-8924293D02*
X10541491Y-8962389D01*
X10541491Y-8962389D02*
X10531968Y-8981436D01*
X10531968Y-8981436D02*
X10522444Y-8990960D01*
X10522444Y-8990960D02*
X10503396Y-9000484D01*
X10503396Y-9000484D02*
X10484348Y-9000484D01*
X10484348Y-9000484D02*
X10465301Y-8990960D01*
X10465301Y-8990960D02*
X10455777Y-8981436D01*
X10455777Y-8981436D02*
X10446253Y-8962389D01*
X10446253Y-8962389D02*
X10436729Y-8924293D01*
X10436729Y-8924293D02*
X10436729Y-8876674D01*
X10436729Y-8876674D02*
X10446253Y-8838579D01*
X10446253Y-8838579D02*
X10455777Y-8819531D01*
X10455777Y-8819531D02*
X10465301Y-8810008D01*
X10465301Y-8810008D02*
X10484348Y-8800484D01*
X10741491Y-9000484D02*
X10627206Y-9000484D01*
X10684348Y-9000484D02*
X10684348Y-8800484D01*
X10684348Y-8800484D02*
X10665301Y-8829055D01*
X10665301Y-8829055D02*
X10646253Y-8848103D01*
X10646253Y-8848103D02*
X10627206Y-8857627D01*
X10922444Y-8800484D02*
X10827206Y-8800484D01*
X10827206Y-8800484D02*
X10817682Y-8895722D01*
X10817682Y-8895722D02*
X10827206Y-8886198D01*
X10827206Y-8886198D02*
X10846253Y-8876674D01*
X10846253Y-8876674D02*
X10893872Y-8876674D01*
X10893872Y-8876674D02*
X10912920Y-8886198D01*
X10912920Y-8886198D02*
X10922444Y-8895722D01*
X10922444Y-8895722D02*
X10931968Y-8914770D01*
X10931968Y-8914770D02*
X10931968Y-8962389D01*
X10931968Y-8962389D02*
X10922444Y-8981436D01*
X10922444Y-8981436D02*
X10912920Y-8990960D01*
X10912920Y-8990960D02*
X10893872Y-9000484D01*
X10893872Y-9000484D02*
X10846253Y-9000484D01*
X10846253Y-9000484D02*
X10827206Y-8990960D01*
X10827206Y-8990960D02*
X10817682Y-8981436D01*
X10998634Y-8800484D02*
X11131968Y-8800484D01*
X11131968Y-8800484D02*
X11046253Y-9000484D01*
X11198634Y-8800484D02*
X11198634Y-8838579D01*
X11274825Y-8800484D02*
X11274825Y-8838579D01*
X11570063Y-9076674D02*
X11560539Y-9067150D01*
X11560539Y-9067150D02*
X11541491Y-9038579D01*
X11541491Y-9038579D02*
X11531968Y-9019531D01*
X11531968Y-9019531D02*
X11522444Y-8990960D01*
X11522444Y-8990960D02*
X11512920Y-8943341D01*
X11512920Y-8943341D02*
X11512920Y-8905246D01*
X11512920Y-8905246D02*
X11522444Y-8857627D01*
X11522444Y-8857627D02*
X11531968Y-8829055D01*
X11531968Y-8829055D02*
X11541491Y-8810008D01*
X11541491Y-8810008D02*
X11560539Y-8781436D01*
X11560539Y-8781436D02*
X11570063Y-8771912D01*
X11636729Y-8819531D02*
X11646253Y-8810008D01*
X11646253Y-8810008D02*
X11665301Y-8800484D01*
X11665301Y-8800484D02*
X11712920Y-8800484D01*
X11712920Y-8800484D02*
X11731968Y-8810008D01*
X11731968Y-8810008D02*
X11741491Y-8819531D01*
X11741491Y-8819531D02*
X11751015Y-8838579D01*
X11751015Y-8838579D02*
X11751015Y-8857627D01*
X11751015Y-8857627D02*
X11741491Y-8886198D01*
X11741491Y-8886198D02*
X11627206Y-9000484D01*
X11627206Y-9000484D02*
X11751015Y-9000484D01*
X11989110Y-9000484D02*
X11989110Y-8800484D01*
X12074825Y-9000484D02*
X12074825Y-8895722D01*
X12074825Y-8895722D02*
X12065301Y-8876674D01*
X12065301Y-8876674D02*
X12046253Y-8867150D01*
X12046253Y-8867150D02*
X12017682Y-8867150D01*
X12017682Y-8867150D02*
X11998634Y-8876674D01*
X11998634Y-8876674D02*
X11989110Y-8886198D01*
X12198634Y-9000484D02*
X12179587Y-8990960D01*
X12179587Y-8990960D02*
X12170063Y-8981436D01*
X12170063Y-8981436D02*
X12160539Y-8962389D01*
X12160539Y-8962389D02*
X12160539Y-8905246D01*
X12160539Y-8905246D02*
X12170063Y-8886198D01*
X12170063Y-8886198D02*
X12179587Y-8876674D01*
X12179587Y-8876674D02*
X12198634Y-8867150D01*
X12198634Y-8867150D02*
X12227206Y-8867150D01*
X12227206Y-8867150D02*
X12246253Y-8876674D01*
X12246253Y-8876674D02*
X12255777Y-8886198D01*
X12255777Y-8886198D02*
X12265301Y-8905246D01*
X12265301Y-8905246D02*
X12265301Y-8962389D01*
X12265301Y-8962389D02*
X12255777Y-8981436D01*
X12255777Y-8981436D02*
X12246253Y-8990960D01*
X12246253Y-8990960D02*
X12227206Y-9000484D01*
X12227206Y-9000484D02*
X12198634Y-9000484D01*
X12379587Y-9000484D02*
X12360539Y-8990960D01*
X12360539Y-8990960D02*
X12351015Y-8971912D01*
X12351015Y-8971912D02*
X12351015Y-8800484D01*
X12531968Y-8990960D02*
X12512920Y-9000484D01*
X12512920Y-9000484D02*
X12474825Y-9000484D01*
X12474825Y-9000484D02*
X12455777Y-8990960D01*
X12455777Y-8990960D02*
X12446253Y-8971912D01*
X12446253Y-8971912D02*
X12446253Y-8895722D01*
X12446253Y-8895722D02*
X12455777Y-8876674D01*
X12455777Y-8876674D02*
X12474825Y-8867150D01*
X12474825Y-8867150D02*
X12512920Y-8867150D01*
X12512920Y-8867150D02*
X12531968Y-8876674D01*
X12531968Y-8876674D02*
X12541491Y-8895722D01*
X12541491Y-8895722D02*
X12541491Y-8914770D01*
X12541491Y-8914770D02*
X12446253Y-8933817D01*
X12617682Y-8990960D02*
X12636730Y-9000484D01*
X12636730Y-9000484D02*
X12674825Y-9000484D01*
X12674825Y-9000484D02*
X12693872Y-8990960D01*
X12693872Y-8990960D02*
X12703396Y-8971912D01*
X12703396Y-8971912D02*
X12703396Y-8962389D01*
X12703396Y-8962389D02*
X12693872Y-8943341D01*
X12693872Y-8943341D02*
X12674825Y-8933817D01*
X12674825Y-8933817D02*
X12646253Y-8933817D01*
X12646253Y-8933817D02*
X12627206Y-8924293D01*
X12627206Y-8924293D02*
X12617682Y-8905246D01*
X12617682Y-8905246D02*
X12617682Y-8895722D01*
X12617682Y-8895722D02*
X12627206Y-8876674D01*
X12627206Y-8876674D02*
X12646253Y-8867150D01*
X12646253Y-8867150D02*
X12674825Y-8867150D01*
X12674825Y-8867150D02*
X12693872Y-8876674D01*
X12770063Y-9076674D02*
X12779587Y-9067150D01*
X12779587Y-9067150D02*
X12798634Y-9038579D01*
X12798634Y-9038579D02*
X12808158Y-9019531D01*
X12808158Y-9019531D02*
X12817682Y-8990960D01*
X12817682Y-8990960D02*
X12827206Y-8943341D01*
X12827206Y-8943341D02*
X12827206Y-8905246D01*
X12827206Y-8905246D02*
X12817682Y-8857627D01*
X12817682Y-8857627D02*
X12808158Y-8829055D01*
X12808158Y-8829055D02*
X12798634Y-8810008D01*
X12798634Y-8810008D02*
X12779587Y-8781436D01*
X12779587Y-8781436D02*
X12770063Y-8771912D01*
D10*
X7970000Y-9148000D02*
X7970000Y-9198000D01*
X7945000Y-9173000D02*
X7995000Y-9173000D01*
D11*
X8293872Y-9064484D02*
X8312920Y-9064484D01*
X8312920Y-9064484D02*
X8331967Y-9074008D01*
X8331967Y-9074008D02*
X8341491Y-9083531D01*
X8341491Y-9083531D02*
X8351015Y-9102579D01*
X8351015Y-9102579D02*
X8360539Y-9140674D01*
X8360539Y-9140674D02*
X8360539Y-9188293D01*
X8360539Y-9188293D02*
X8351015Y-9226389D01*
X8351015Y-9226389D02*
X8341491Y-9245436D01*
X8341491Y-9245436D02*
X8331967Y-9254960D01*
X8331967Y-9254960D02*
X8312920Y-9264484D01*
X8312920Y-9264484D02*
X8293872Y-9264484D01*
X8293872Y-9264484D02*
X8274824Y-9254960D01*
X8274824Y-9254960D02*
X8265301Y-9245436D01*
X8265301Y-9245436D02*
X8255777Y-9226389D01*
X8255777Y-9226389D02*
X8246253Y-9188293D01*
X8246253Y-9188293D02*
X8246253Y-9140674D01*
X8246253Y-9140674D02*
X8255777Y-9102579D01*
X8255777Y-9102579D02*
X8265301Y-9083531D01*
X8265301Y-9083531D02*
X8274824Y-9074008D01*
X8274824Y-9074008D02*
X8293872Y-9064484D01*
X8446253Y-9245436D02*
X8455777Y-9254960D01*
X8455777Y-9254960D02*
X8446253Y-9264484D01*
X8446253Y-9264484D02*
X8436729Y-9254960D01*
X8436729Y-9254960D02*
X8446253Y-9245436D01*
X8446253Y-9245436D02*
X8446253Y-9264484D01*
X8636729Y-9064484D02*
X8541491Y-9064484D01*
X8541491Y-9064484D02*
X8531967Y-9159722D01*
X8531967Y-9159722D02*
X8541491Y-9150198D01*
X8541491Y-9150198D02*
X8560539Y-9140674D01*
X8560539Y-9140674D02*
X8608158Y-9140674D01*
X8608158Y-9140674D02*
X8627205Y-9150198D01*
X8627205Y-9150198D02*
X8636729Y-9159722D01*
X8636729Y-9159722D02*
X8646253Y-9178770D01*
X8646253Y-9178770D02*
X8646253Y-9226389D01*
X8646253Y-9226389D02*
X8636729Y-9245436D01*
X8636729Y-9245436D02*
X8627205Y-9254960D01*
X8627205Y-9254960D02*
X8608158Y-9264484D01*
X8608158Y-9264484D02*
X8560539Y-9264484D01*
X8560539Y-9264484D02*
X8541491Y-9254960D01*
X8541491Y-9254960D02*
X8531967Y-9245436D01*
X8770063Y-9064484D02*
X8789110Y-9064484D01*
X8789110Y-9064484D02*
X8808158Y-9074008D01*
X8808158Y-9074008D02*
X8817682Y-9083531D01*
X8817682Y-9083531D02*
X8827205Y-9102579D01*
X8827205Y-9102579D02*
X8836729Y-9140674D01*
X8836729Y-9140674D02*
X8836729Y-9188293D01*
X8836729Y-9188293D02*
X8827205Y-9226389D01*
X8827205Y-9226389D02*
X8817682Y-9245436D01*
X8817682Y-9245436D02*
X8808158Y-9254960D01*
X8808158Y-9254960D02*
X8789110Y-9264484D01*
X8789110Y-9264484D02*
X8770063Y-9264484D01*
X8770063Y-9264484D02*
X8751015Y-9254960D01*
X8751015Y-9254960D02*
X8741491Y-9245436D01*
X8741491Y-9245436D02*
X8731967Y-9226389D01*
X8731967Y-9226389D02*
X8722444Y-9188293D01*
X8722444Y-9188293D02*
X8722444Y-9140674D01*
X8722444Y-9140674D02*
X8731967Y-9102579D01*
X8731967Y-9102579D02*
X8741491Y-9083531D01*
X8741491Y-9083531D02*
X8751015Y-9074008D01*
X8751015Y-9074008D02*
X8770063Y-9064484D01*
X8960539Y-9064484D02*
X8979586Y-9064484D01*
X8979586Y-9064484D02*
X8998634Y-9074008D01*
X8998634Y-9074008D02*
X9008158Y-9083531D01*
X9008158Y-9083531D02*
X9017682Y-9102579D01*
X9017682Y-9102579D02*
X9027205Y-9140674D01*
X9027205Y-9140674D02*
X9027205Y-9188293D01*
X9027205Y-9188293D02*
X9017682Y-9226389D01*
X9017682Y-9226389D02*
X9008158Y-9245436D01*
X9008158Y-9245436D02*
X8998634Y-9254960D01*
X8998634Y-9254960D02*
X8979586Y-9264484D01*
X8979586Y-9264484D02*
X8960539Y-9264484D01*
X8960539Y-9264484D02*
X8941491Y-9254960D01*
X8941491Y-9254960D02*
X8931967Y-9245436D01*
X8931967Y-9245436D02*
X8922444Y-9226389D01*
X8922444Y-9226389D02*
X8912920Y-9188293D01*
X8912920Y-9188293D02*
X8912920Y-9140674D01*
X8912920Y-9140674D02*
X8922444Y-9102579D01*
X8922444Y-9102579D02*
X8931967Y-9083531D01*
X8931967Y-9083531D02*
X8941491Y-9074008D01*
X8941491Y-9074008D02*
X8960539Y-9064484D01*
X9112920Y-9264484D02*
X9112920Y-9131150D01*
X9112920Y-9150198D02*
X9122444Y-9140674D01*
X9122444Y-9140674D02*
X9141491Y-9131150D01*
X9141491Y-9131150D02*
X9170063Y-9131150D01*
X9170063Y-9131150D02*
X9189110Y-9140674D01*
X9189110Y-9140674D02*
X9198634Y-9159722D01*
X9198634Y-9159722D02*
X9198634Y-9264484D01*
X9198634Y-9159722D02*
X9208158Y-9140674D01*
X9208158Y-9140674D02*
X9227205Y-9131150D01*
X9227205Y-9131150D02*
X9255777Y-9131150D01*
X9255777Y-9131150D02*
X9274825Y-9140674D01*
X9274825Y-9140674D02*
X9284348Y-9159722D01*
X9284348Y-9159722D02*
X9284348Y-9264484D01*
X9379586Y-9264484D02*
X9379586Y-9131150D01*
X9379586Y-9150198D02*
X9389110Y-9140674D01*
X9389110Y-9140674D02*
X9408158Y-9131150D01*
X9408158Y-9131150D02*
X9436729Y-9131150D01*
X9436729Y-9131150D02*
X9455777Y-9140674D01*
X9455777Y-9140674D02*
X9465301Y-9159722D01*
X9465301Y-9159722D02*
X9465301Y-9264484D01*
X9465301Y-9159722D02*
X9474825Y-9140674D01*
X9474825Y-9140674D02*
X9493872Y-9131150D01*
X9493872Y-9131150D02*
X9522444Y-9131150D01*
X9522444Y-9131150D02*
X9541491Y-9140674D01*
X9541491Y-9140674D02*
X9551015Y-9159722D01*
X9551015Y-9159722D02*
X9551015Y-9264484D01*
X9941491Y-9054960D02*
X9770063Y-9312103D01*
X10198634Y-9064484D02*
X10217682Y-9064484D01*
X10217682Y-9064484D02*
X10236729Y-9074008D01*
X10236729Y-9074008D02*
X10246253Y-9083531D01*
X10246253Y-9083531D02*
X10255777Y-9102579D01*
X10255777Y-9102579D02*
X10265301Y-9140674D01*
X10265301Y-9140674D02*
X10265301Y-9188293D01*
X10265301Y-9188293D02*
X10255777Y-9226389D01*
X10255777Y-9226389D02*
X10246253Y-9245436D01*
X10246253Y-9245436D02*
X10236729Y-9254960D01*
X10236729Y-9254960D02*
X10217682Y-9264484D01*
X10217682Y-9264484D02*
X10198634Y-9264484D01*
X10198634Y-9264484D02*
X10179587Y-9254960D01*
X10179587Y-9254960D02*
X10170063Y-9245436D01*
X10170063Y-9245436D02*
X10160539Y-9226389D01*
X10160539Y-9226389D02*
X10151015Y-9188293D01*
X10151015Y-9188293D02*
X10151015Y-9140674D01*
X10151015Y-9140674D02*
X10160539Y-9102579D01*
X10160539Y-9102579D02*
X10170063Y-9083531D01*
X10170063Y-9083531D02*
X10179587Y-9074008D01*
X10179587Y-9074008D02*
X10198634Y-9064484D01*
X10351015Y-9245436D02*
X10360539Y-9254960D01*
X10360539Y-9254960D02*
X10351015Y-9264484D01*
X10351015Y-9264484D02*
X10341491Y-9254960D01*
X10341491Y-9254960D02*
X10351015Y-9245436D01*
X10351015Y-9245436D02*
X10351015Y-9264484D01*
X10484348Y-9064484D02*
X10503396Y-9064484D01*
X10503396Y-9064484D02*
X10522444Y-9074008D01*
X10522444Y-9074008D02*
X10531968Y-9083531D01*
X10531968Y-9083531D02*
X10541491Y-9102579D01*
X10541491Y-9102579D02*
X10551015Y-9140674D01*
X10551015Y-9140674D02*
X10551015Y-9188293D01*
X10551015Y-9188293D02*
X10541491Y-9226389D01*
X10541491Y-9226389D02*
X10531968Y-9245436D01*
X10531968Y-9245436D02*
X10522444Y-9254960D01*
X10522444Y-9254960D02*
X10503396Y-9264484D01*
X10503396Y-9264484D02*
X10484348Y-9264484D01*
X10484348Y-9264484D02*
X10465301Y-9254960D01*
X10465301Y-9254960D02*
X10455777Y-9245436D01*
X10455777Y-9245436D02*
X10446253Y-9226389D01*
X10446253Y-9226389D02*
X10436729Y-9188293D01*
X10436729Y-9188293D02*
X10436729Y-9140674D01*
X10436729Y-9140674D02*
X10446253Y-9102579D01*
X10446253Y-9102579D02*
X10455777Y-9083531D01*
X10455777Y-9083531D02*
X10465301Y-9074008D01*
X10465301Y-9074008D02*
X10484348Y-9064484D01*
X10741491Y-9264484D02*
X10627206Y-9264484D01*
X10684348Y-9264484D02*
X10684348Y-9064484D01*
X10684348Y-9064484D02*
X10665301Y-9093055D01*
X10665301Y-9093055D02*
X10646253Y-9112103D01*
X10646253Y-9112103D02*
X10627206Y-9121627D01*
X10836729Y-9264484D02*
X10874825Y-9264484D01*
X10874825Y-9264484D02*
X10893872Y-9254960D01*
X10893872Y-9254960D02*
X10903396Y-9245436D01*
X10903396Y-9245436D02*
X10922444Y-9216865D01*
X10922444Y-9216865D02*
X10931968Y-9178770D01*
X10931968Y-9178770D02*
X10931968Y-9102579D01*
X10931968Y-9102579D02*
X10922444Y-9083531D01*
X10922444Y-9083531D02*
X10912920Y-9074008D01*
X10912920Y-9074008D02*
X10893872Y-9064484D01*
X10893872Y-9064484D02*
X10855777Y-9064484D01*
X10855777Y-9064484D02*
X10836729Y-9074008D01*
X10836729Y-9074008D02*
X10827206Y-9083531D01*
X10827206Y-9083531D02*
X10817682Y-9102579D01*
X10817682Y-9102579D02*
X10817682Y-9150198D01*
X10817682Y-9150198D02*
X10827206Y-9169246D01*
X10827206Y-9169246D02*
X10836729Y-9178770D01*
X10836729Y-9178770D02*
X10855777Y-9188293D01*
X10855777Y-9188293D02*
X10893872Y-9188293D01*
X10893872Y-9188293D02*
X10912920Y-9178770D01*
X10912920Y-9178770D02*
X10922444Y-9169246D01*
X10922444Y-9169246D02*
X10931968Y-9150198D01*
X10998634Y-9064484D02*
X11131968Y-9064484D01*
X11131968Y-9064484D02*
X11046253Y-9264484D01*
X11198634Y-9064484D02*
X11198634Y-9102579D01*
X11274825Y-9064484D02*
X11274825Y-9102579D01*
X11570063Y-9340674D02*
X11560539Y-9331150D01*
X11560539Y-9331150D02*
X11541491Y-9302579D01*
X11541491Y-9302579D02*
X11531968Y-9283531D01*
X11531968Y-9283531D02*
X11522444Y-9254960D01*
X11522444Y-9254960D02*
X11512920Y-9207341D01*
X11512920Y-9207341D02*
X11512920Y-9169246D01*
X11512920Y-9169246D02*
X11522444Y-9121627D01*
X11522444Y-9121627D02*
X11531968Y-9093055D01*
X11531968Y-9093055D02*
X11541491Y-9074008D01*
X11541491Y-9074008D02*
X11560539Y-9045436D01*
X11560539Y-9045436D02*
X11570063Y-9035912D01*
X11684348Y-9064484D02*
X11703396Y-9064484D01*
X11703396Y-9064484D02*
X11722444Y-9074008D01*
X11722444Y-9074008D02*
X11731968Y-9083531D01*
X11731968Y-9083531D02*
X11741491Y-9102579D01*
X11741491Y-9102579D02*
X11751015Y-9140674D01*
X11751015Y-9140674D02*
X11751015Y-9188293D01*
X11751015Y-9188293D02*
X11741491Y-9226389D01*
X11741491Y-9226389D02*
X11731968Y-9245436D01*
X11731968Y-9245436D02*
X11722444Y-9254960D01*
X11722444Y-9254960D02*
X11703396Y-9264484D01*
X11703396Y-9264484D02*
X11684348Y-9264484D01*
X11684348Y-9264484D02*
X11665301Y-9254960D01*
X11665301Y-9254960D02*
X11655777Y-9245436D01*
X11655777Y-9245436D02*
X11646253Y-9226389D01*
X11646253Y-9226389D02*
X11636729Y-9188293D01*
X11636729Y-9188293D02*
X11636729Y-9140674D01*
X11636729Y-9140674D02*
X11646253Y-9102579D01*
X11646253Y-9102579D02*
X11655777Y-9083531D01*
X11655777Y-9083531D02*
X11665301Y-9074008D01*
X11665301Y-9074008D02*
X11684348Y-9064484D01*
X11989110Y-9264484D02*
X11989110Y-9064484D01*
X12074825Y-9264484D02*
X12074825Y-9159722D01*
X12074825Y-9159722D02*
X12065301Y-9140674D01*
X12065301Y-9140674D02*
X12046253Y-9131150D01*
X12046253Y-9131150D02*
X12017682Y-9131150D01*
X12017682Y-9131150D02*
X11998634Y-9140674D01*
X11998634Y-9140674D02*
X11989110Y-9150198D01*
X12198634Y-9264484D02*
X12179587Y-9254960D01*
X12179587Y-9254960D02*
X12170063Y-9245436D01*
X12170063Y-9245436D02*
X12160539Y-9226389D01*
X12160539Y-9226389D02*
X12160539Y-9169246D01*
X12160539Y-9169246D02*
X12170063Y-9150198D01*
X12170063Y-9150198D02*
X12179587Y-9140674D01*
X12179587Y-9140674D02*
X12198634Y-9131150D01*
X12198634Y-9131150D02*
X12227206Y-9131150D01*
X12227206Y-9131150D02*
X12246253Y-9140674D01*
X12246253Y-9140674D02*
X12255777Y-9150198D01*
X12255777Y-9150198D02*
X12265301Y-9169246D01*
X12265301Y-9169246D02*
X12265301Y-9226389D01*
X12265301Y-9226389D02*
X12255777Y-9245436D01*
X12255777Y-9245436D02*
X12246253Y-9254960D01*
X12246253Y-9254960D02*
X12227206Y-9264484D01*
X12227206Y-9264484D02*
X12198634Y-9264484D01*
X12379587Y-9264484D02*
X12360539Y-9254960D01*
X12360539Y-9254960D02*
X12351015Y-9235912D01*
X12351015Y-9235912D02*
X12351015Y-9064484D01*
X12531968Y-9254960D02*
X12512920Y-9264484D01*
X12512920Y-9264484D02*
X12474825Y-9264484D01*
X12474825Y-9264484D02*
X12455777Y-9254960D01*
X12455777Y-9254960D02*
X12446253Y-9235912D01*
X12446253Y-9235912D02*
X12446253Y-9159722D01*
X12446253Y-9159722D02*
X12455777Y-9140674D01*
X12455777Y-9140674D02*
X12474825Y-9131150D01*
X12474825Y-9131150D02*
X12512920Y-9131150D01*
X12512920Y-9131150D02*
X12531968Y-9140674D01*
X12531968Y-9140674D02*
X12541491Y-9159722D01*
X12541491Y-9159722D02*
X12541491Y-9178770D01*
X12541491Y-9178770D02*
X12446253Y-9197817D01*
X12617682Y-9254960D02*
X12636730Y-9264484D01*
X12636730Y-9264484D02*
X12674825Y-9264484D01*
X12674825Y-9264484D02*
X12693872Y-9254960D01*
X12693872Y-9254960D02*
X12703396Y-9235912D01*
X12703396Y-9235912D02*
X12703396Y-9226389D01*
X12703396Y-9226389D02*
X12693872Y-9207341D01*
X12693872Y-9207341D02*
X12674825Y-9197817D01*
X12674825Y-9197817D02*
X12646253Y-9197817D01*
X12646253Y-9197817D02*
X12627206Y-9188293D01*
X12627206Y-9188293D02*
X12617682Y-9169246D01*
X12617682Y-9169246D02*
X12617682Y-9159722D01*
X12617682Y-9159722D02*
X12627206Y-9140674D01*
X12627206Y-9140674D02*
X12646253Y-9131150D01*
X12646253Y-9131150D02*
X12674825Y-9131150D01*
X12674825Y-9131150D02*
X12693872Y-9140674D01*
X12941492Y-9188293D02*
X13093873Y-9188293D01*
X13017682Y-9264484D02*
X13017682Y-9112103D01*
X13331968Y-9083531D02*
X13341492Y-9074008D01*
X13341492Y-9074008D02*
X13360539Y-9064484D01*
X13360539Y-9064484D02*
X13408158Y-9064484D01*
X13408158Y-9064484D02*
X13427206Y-9074008D01*
X13427206Y-9074008D02*
X13436730Y-9083531D01*
X13436730Y-9083531D02*
X13446253Y-9102579D01*
X13446253Y-9102579D02*
X13446253Y-9121627D01*
X13446253Y-9121627D02*
X13436730Y-9150198D01*
X13436730Y-9150198D02*
X13322444Y-9264484D01*
X13322444Y-9264484D02*
X13446253Y-9264484D01*
X13674825Y-9254960D02*
X13693873Y-9264484D01*
X13693873Y-9264484D02*
X13731968Y-9264484D01*
X13731968Y-9264484D02*
X13751015Y-9254960D01*
X13751015Y-9254960D02*
X13760539Y-9235912D01*
X13760539Y-9235912D02*
X13760539Y-9226389D01*
X13760539Y-9226389D02*
X13751015Y-9207341D01*
X13751015Y-9207341D02*
X13731968Y-9197817D01*
X13731968Y-9197817D02*
X13703396Y-9197817D01*
X13703396Y-9197817D02*
X13684349Y-9188293D01*
X13684349Y-9188293D02*
X13674825Y-9169246D01*
X13674825Y-9169246D02*
X13674825Y-9159722D01*
X13674825Y-9159722D02*
X13684349Y-9140674D01*
X13684349Y-9140674D02*
X13703396Y-9131150D01*
X13703396Y-9131150D02*
X13731968Y-9131150D01*
X13731968Y-9131150D02*
X13751015Y-9140674D01*
X13874825Y-9264484D02*
X13855777Y-9254960D01*
X13855777Y-9254960D02*
X13846254Y-9235912D01*
X13846254Y-9235912D02*
X13846254Y-9064484D01*
X13979587Y-9264484D02*
X13960539Y-9254960D01*
X13960539Y-9254960D02*
X13951015Y-9245436D01*
X13951015Y-9245436D02*
X13941492Y-9226389D01*
X13941492Y-9226389D02*
X13941492Y-9169246D01*
X13941492Y-9169246D02*
X13951015Y-9150198D01*
X13951015Y-9150198D02*
X13960539Y-9140674D01*
X13960539Y-9140674D02*
X13979587Y-9131150D01*
X13979587Y-9131150D02*
X14008158Y-9131150D01*
X14008158Y-9131150D02*
X14027206Y-9140674D01*
X14027206Y-9140674D02*
X14036730Y-9150198D01*
X14036730Y-9150198D02*
X14046254Y-9169246D01*
X14046254Y-9169246D02*
X14046254Y-9226389D01*
X14046254Y-9226389D02*
X14036730Y-9245436D01*
X14036730Y-9245436D02*
X14027206Y-9254960D01*
X14027206Y-9254960D02*
X14008158Y-9264484D01*
X14008158Y-9264484D02*
X13979587Y-9264484D01*
X14103396Y-9131150D02*
X14179587Y-9131150D01*
X14131968Y-9064484D02*
X14131968Y-9235912D01*
X14131968Y-9235912D02*
X14141492Y-9254960D01*
X14141492Y-9254960D02*
X14160539Y-9264484D01*
X14160539Y-9264484D02*
X14179587Y-9264484D01*
X14236730Y-9254960D02*
X14255777Y-9264484D01*
X14255777Y-9264484D02*
X14293873Y-9264484D01*
X14293873Y-9264484D02*
X14312920Y-9254960D01*
X14312920Y-9254960D02*
X14322444Y-9235912D01*
X14322444Y-9235912D02*
X14322444Y-9226389D01*
X14322444Y-9226389D02*
X14312920Y-9207341D01*
X14312920Y-9207341D02*
X14293873Y-9197817D01*
X14293873Y-9197817D02*
X14265301Y-9197817D01*
X14265301Y-9197817D02*
X14246254Y-9188293D01*
X14246254Y-9188293D02*
X14236730Y-9169246D01*
X14236730Y-9169246D02*
X14236730Y-9159722D01*
X14236730Y-9159722D02*
X14246254Y-9140674D01*
X14246254Y-9140674D02*
X14265301Y-9131150D01*
X14265301Y-9131150D02*
X14293873Y-9131150D01*
X14293873Y-9131150D02*
X14312920Y-9140674D01*
X14389111Y-9340674D02*
X14398635Y-9331150D01*
X14398635Y-9331150D02*
X14417682Y-9302579D01*
X14417682Y-9302579D02*
X14427206Y-9283531D01*
X14427206Y-9283531D02*
X14436730Y-9254960D01*
X14436730Y-9254960D02*
X14446254Y-9207341D01*
X14446254Y-9207341D02*
X14446254Y-9169246D01*
X14446254Y-9169246D02*
X14436730Y-9121627D01*
X14436730Y-9121627D02*
X14427206Y-9093055D01*
X14427206Y-9093055D02*
X14417682Y-9074008D01*
X14417682Y-9074008D02*
X14398635Y-9045436D01*
X14398635Y-9045436D02*
X14389111Y-9035912D01*
D10*
X7986946Y-9456446D02*
X7986946Y-9417554D01*
X7948054Y-9417554D01*
X7948054Y-9456446D01*
X7986946Y-9456446D01*
D11*
X8293872Y-9328484D02*
X8312920Y-9328484D01*
X8312920Y-9328484D02*
X8331967Y-9338008D01*
X8331967Y-9338008D02*
X8341491Y-9347531D01*
X8341491Y-9347531D02*
X8351015Y-9366579D01*
X8351015Y-9366579D02*
X8360539Y-9404674D01*
X8360539Y-9404674D02*
X8360539Y-9452293D01*
X8360539Y-9452293D02*
X8351015Y-9490389D01*
X8351015Y-9490389D02*
X8341491Y-9509436D01*
X8341491Y-9509436D02*
X8331967Y-9518960D01*
X8331967Y-9518960D02*
X8312920Y-9528484D01*
X8312920Y-9528484D02*
X8293872Y-9528484D01*
X8293872Y-9528484D02*
X8274824Y-9518960D01*
X8274824Y-9518960D02*
X8265301Y-9509436D01*
X8265301Y-9509436D02*
X8255777Y-9490389D01*
X8255777Y-9490389D02*
X8246253Y-9452293D01*
X8246253Y-9452293D02*
X8246253Y-9404674D01*
X8246253Y-9404674D02*
X8255777Y-9366579D01*
X8255777Y-9366579D02*
X8265301Y-9347531D01*
X8265301Y-9347531D02*
X8274824Y-9338008D01*
X8274824Y-9338008D02*
X8293872Y-9328484D01*
X8446253Y-9509436D02*
X8455777Y-9518960D01*
X8455777Y-9518960D02*
X8446253Y-9528484D01*
X8446253Y-9528484D02*
X8436729Y-9518960D01*
X8436729Y-9518960D02*
X8446253Y-9509436D01*
X8446253Y-9509436D02*
X8446253Y-9528484D01*
X8636729Y-9328484D02*
X8541491Y-9328484D01*
X8541491Y-9328484D02*
X8531967Y-9423722D01*
X8531967Y-9423722D02*
X8541491Y-9414198D01*
X8541491Y-9414198D02*
X8560539Y-9404674D01*
X8560539Y-9404674D02*
X8608158Y-9404674D01*
X8608158Y-9404674D02*
X8627205Y-9414198D01*
X8627205Y-9414198D02*
X8636729Y-9423722D01*
X8636729Y-9423722D02*
X8646253Y-9442770D01*
X8646253Y-9442770D02*
X8646253Y-9490389D01*
X8646253Y-9490389D02*
X8636729Y-9509436D01*
X8636729Y-9509436D02*
X8627205Y-9518960D01*
X8627205Y-9518960D02*
X8608158Y-9528484D01*
X8608158Y-9528484D02*
X8560539Y-9528484D01*
X8560539Y-9528484D02*
X8541491Y-9518960D01*
X8541491Y-9518960D02*
X8531967Y-9509436D01*
X8827205Y-9328484D02*
X8731967Y-9328484D01*
X8731967Y-9328484D02*
X8722444Y-9423722D01*
X8722444Y-9423722D02*
X8731967Y-9414198D01*
X8731967Y-9414198D02*
X8751015Y-9404674D01*
X8751015Y-9404674D02*
X8798634Y-9404674D01*
X8798634Y-9404674D02*
X8817682Y-9414198D01*
X8817682Y-9414198D02*
X8827205Y-9423722D01*
X8827205Y-9423722D02*
X8836729Y-9442770D01*
X8836729Y-9442770D02*
X8836729Y-9490389D01*
X8836729Y-9490389D02*
X8827205Y-9509436D01*
X8827205Y-9509436D02*
X8817682Y-9518960D01*
X8817682Y-9518960D02*
X8798634Y-9528484D01*
X8798634Y-9528484D02*
X8751015Y-9528484D01*
X8751015Y-9528484D02*
X8731967Y-9518960D01*
X8731967Y-9518960D02*
X8722444Y-9509436D01*
X8960539Y-9328484D02*
X8979586Y-9328484D01*
X8979586Y-9328484D02*
X8998634Y-9338008D01*
X8998634Y-9338008D02*
X9008158Y-9347531D01*
X9008158Y-9347531D02*
X9017682Y-9366579D01*
X9017682Y-9366579D02*
X9027205Y-9404674D01*
X9027205Y-9404674D02*
X9027205Y-9452293D01*
X9027205Y-9452293D02*
X9017682Y-9490389D01*
X9017682Y-9490389D02*
X9008158Y-9509436D01*
X9008158Y-9509436D02*
X8998634Y-9518960D01*
X8998634Y-9518960D02*
X8979586Y-9528484D01*
X8979586Y-9528484D02*
X8960539Y-9528484D01*
X8960539Y-9528484D02*
X8941491Y-9518960D01*
X8941491Y-9518960D02*
X8931967Y-9509436D01*
X8931967Y-9509436D02*
X8922444Y-9490389D01*
X8922444Y-9490389D02*
X8912920Y-9452293D01*
X8912920Y-9452293D02*
X8912920Y-9404674D01*
X8912920Y-9404674D02*
X8922444Y-9366579D01*
X8922444Y-9366579D02*
X8931967Y-9347531D01*
X8931967Y-9347531D02*
X8941491Y-9338008D01*
X8941491Y-9338008D02*
X8960539Y-9328484D01*
X9112920Y-9528484D02*
X9112920Y-9395150D01*
X9112920Y-9414198D02*
X9122444Y-9404674D01*
X9122444Y-9404674D02*
X9141491Y-9395150D01*
X9141491Y-9395150D02*
X9170063Y-9395150D01*
X9170063Y-9395150D02*
X9189110Y-9404674D01*
X9189110Y-9404674D02*
X9198634Y-9423722D01*
X9198634Y-9423722D02*
X9198634Y-9528484D01*
X9198634Y-9423722D02*
X9208158Y-9404674D01*
X9208158Y-9404674D02*
X9227205Y-9395150D01*
X9227205Y-9395150D02*
X9255777Y-9395150D01*
X9255777Y-9395150D02*
X9274825Y-9404674D01*
X9274825Y-9404674D02*
X9284348Y-9423722D01*
X9284348Y-9423722D02*
X9284348Y-9528484D01*
X9379586Y-9528484D02*
X9379586Y-9395150D01*
X9379586Y-9414198D02*
X9389110Y-9404674D01*
X9389110Y-9404674D02*
X9408158Y-9395150D01*
X9408158Y-9395150D02*
X9436729Y-9395150D01*
X9436729Y-9395150D02*
X9455777Y-9404674D01*
X9455777Y-9404674D02*
X9465301Y-9423722D01*
X9465301Y-9423722D02*
X9465301Y-9528484D01*
X9465301Y-9423722D02*
X9474825Y-9404674D01*
X9474825Y-9404674D02*
X9493872Y-9395150D01*
X9493872Y-9395150D02*
X9522444Y-9395150D01*
X9522444Y-9395150D02*
X9541491Y-9404674D01*
X9541491Y-9404674D02*
X9551015Y-9423722D01*
X9551015Y-9423722D02*
X9551015Y-9528484D01*
X9941491Y-9318960D02*
X9770063Y-9576103D01*
X10198634Y-9328484D02*
X10217682Y-9328484D01*
X10217682Y-9328484D02*
X10236729Y-9338008D01*
X10236729Y-9338008D02*
X10246253Y-9347531D01*
X10246253Y-9347531D02*
X10255777Y-9366579D01*
X10255777Y-9366579D02*
X10265301Y-9404674D01*
X10265301Y-9404674D02*
X10265301Y-9452293D01*
X10265301Y-9452293D02*
X10255777Y-9490389D01*
X10255777Y-9490389D02*
X10246253Y-9509436D01*
X10246253Y-9509436D02*
X10236729Y-9518960D01*
X10236729Y-9518960D02*
X10217682Y-9528484D01*
X10217682Y-9528484D02*
X10198634Y-9528484D01*
X10198634Y-9528484D02*
X10179587Y-9518960D01*
X10179587Y-9518960D02*
X10170063Y-9509436D01*
X10170063Y-9509436D02*
X10160539Y-9490389D01*
X10160539Y-9490389D02*
X10151015Y-9452293D01*
X10151015Y-9452293D02*
X10151015Y-9404674D01*
X10151015Y-9404674D02*
X10160539Y-9366579D01*
X10160539Y-9366579D02*
X10170063Y-9347531D01*
X10170063Y-9347531D02*
X10179587Y-9338008D01*
X10179587Y-9338008D02*
X10198634Y-9328484D01*
X10351015Y-9509436D02*
X10360539Y-9518960D01*
X10360539Y-9518960D02*
X10351015Y-9528484D01*
X10351015Y-9528484D02*
X10341491Y-9518960D01*
X10341491Y-9518960D02*
X10351015Y-9509436D01*
X10351015Y-9509436D02*
X10351015Y-9528484D01*
X10484348Y-9328484D02*
X10503396Y-9328484D01*
X10503396Y-9328484D02*
X10522444Y-9338008D01*
X10522444Y-9338008D02*
X10531968Y-9347531D01*
X10531968Y-9347531D02*
X10541491Y-9366579D01*
X10541491Y-9366579D02*
X10551015Y-9404674D01*
X10551015Y-9404674D02*
X10551015Y-9452293D01*
X10551015Y-9452293D02*
X10541491Y-9490389D01*
X10541491Y-9490389D02*
X10531968Y-9509436D01*
X10531968Y-9509436D02*
X10522444Y-9518960D01*
X10522444Y-9518960D02*
X10503396Y-9528484D01*
X10503396Y-9528484D02*
X10484348Y-9528484D01*
X10484348Y-9528484D02*
X10465301Y-9518960D01*
X10465301Y-9518960D02*
X10455777Y-9509436D01*
X10455777Y-9509436D02*
X10446253Y-9490389D01*
X10446253Y-9490389D02*
X10436729Y-9452293D01*
X10436729Y-9452293D02*
X10436729Y-9404674D01*
X10436729Y-9404674D02*
X10446253Y-9366579D01*
X10446253Y-9366579D02*
X10455777Y-9347531D01*
X10455777Y-9347531D02*
X10465301Y-9338008D01*
X10465301Y-9338008D02*
X10484348Y-9328484D01*
X10627206Y-9347531D02*
X10636729Y-9338008D01*
X10636729Y-9338008D02*
X10655777Y-9328484D01*
X10655777Y-9328484D02*
X10703396Y-9328484D01*
X10703396Y-9328484D02*
X10722444Y-9338008D01*
X10722444Y-9338008D02*
X10731968Y-9347531D01*
X10731968Y-9347531D02*
X10741491Y-9366579D01*
X10741491Y-9366579D02*
X10741491Y-9385627D01*
X10741491Y-9385627D02*
X10731968Y-9414198D01*
X10731968Y-9414198D02*
X10617682Y-9528484D01*
X10617682Y-9528484D02*
X10741491Y-9528484D01*
X10931968Y-9528484D02*
X10817682Y-9528484D01*
X10874825Y-9528484D02*
X10874825Y-9328484D01*
X10874825Y-9328484D02*
X10855777Y-9357055D01*
X10855777Y-9357055D02*
X10836729Y-9376103D01*
X10836729Y-9376103D02*
X10817682Y-9385627D01*
X10998634Y-9328484D02*
X11131968Y-9328484D01*
X11131968Y-9328484D02*
X11046253Y-9528484D01*
X11198634Y-9328484D02*
X11198634Y-9366579D01*
X11274825Y-9328484D02*
X11274825Y-9366579D01*
X11570063Y-9604674D02*
X11560539Y-9595150D01*
X11560539Y-9595150D02*
X11541491Y-9566579D01*
X11541491Y-9566579D02*
X11531968Y-9547531D01*
X11531968Y-9547531D02*
X11522444Y-9518960D01*
X11522444Y-9518960D02*
X11512920Y-9471341D01*
X11512920Y-9471341D02*
X11512920Y-9433246D01*
X11512920Y-9433246D02*
X11522444Y-9385627D01*
X11522444Y-9385627D02*
X11531968Y-9357055D01*
X11531968Y-9357055D02*
X11541491Y-9338008D01*
X11541491Y-9338008D02*
X11560539Y-9309436D01*
X11560539Y-9309436D02*
X11570063Y-9299912D01*
X11684348Y-9328484D02*
X11703396Y-9328484D01*
X11703396Y-9328484D02*
X11722444Y-9338008D01*
X11722444Y-9338008D02*
X11731968Y-9347531D01*
X11731968Y-9347531D02*
X11741491Y-9366579D01*
X11741491Y-9366579D02*
X11751015Y-9404674D01*
X11751015Y-9404674D02*
X11751015Y-9452293D01*
X11751015Y-9452293D02*
X11741491Y-9490389D01*
X11741491Y-9490389D02*
X11731968Y-9509436D01*
X11731968Y-9509436D02*
X11722444Y-9518960D01*
X11722444Y-9518960D02*
X11703396Y-9528484D01*
X11703396Y-9528484D02*
X11684348Y-9528484D01*
X11684348Y-9528484D02*
X11665301Y-9518960D01*
X11665301Y-9518960D02*
X11655777Y-9509436D01*
X11655777Y-9509436D02*
X11646253Y-9490389D01*
X11646253Y-9490389D02*
X11636729Y-9452293D01*
X11636729Y-9452293D02*
X11636729Y-9404674D01*
X11636729Y-9404674D02*
X11646253Y-9366579D01*
X11646253Y-9366579D02*
X11655777Y-9347531D01*
X11655777Y-9347531D02*
X11665301Y-9338008D01*
X11665301Y-9338008D02*
X11684348Y-9328484D01*
X11989110Y-9528484D02*
X11989110Y-9328484D01*
X12074825Y-9528484D02*
X12074825Y-9423722D01*
X12074825Y-9423722D02*
X12065301Y-9404674D01*
X12065301Y-9404674D02*
X12046253Y-9395150D01*
X12046253Y-9395150D02*
X12017682Y-9395150D01*
X12017682Y-9395150D02*
X11998634Y-9404674D01*
X11998634Y-9404674D02*
X11989110Y-9414198D01*
X12198634Y-9528484D02*
X12179587Y-9518960D01*
X12179587Y-9518960D02*
X12170063Y-9509436D01*
X12170063Y-9509436D02*
X12160539Y-9490389D01*
X12160539Y-9490389D02*
X12160539Y-9433246D01*
X12160539Y-9433246D02*
X12170063Y-9414198D01*
X12170063Y-9414198D02*
X12179587Y-9404674D01*
X12179587Y-9404674D02*
X12198634Y-9395150D01*
X12198634Y-9395150D02*
X12227206Y-9395150D01*
X12227206Y-9395150D02*
X12246253Y-9404674D01*
X12246253Y-9404674D02*
X12255777Y-9414198D01*
X12255777Y-9414198D02*
X12265301Y-9433246D01*
X12265301Y-9433246D02*
X12265301Y-9490389D01*
X12265301Y-9490389D02*
X12255777Y-9509436D01*
X12255777Y-9509436D02*
X12246253Y-9518960D01*
X12246253Y-9518960D02*
X12227206Y-9528484D01*
X12227206Y-9528484D02*
X12198634Y-9528484D01*
X12379587Y-9528484D02*
X12360539Y-9518960D01*
X12360539Y-9518960D02*
X12351015Y-9499912D01*
X12351015Y-9499912D02*
X12351015Y-9328484D01*
X12531968Y-9518960D02*
X12512920Y-9528484D01*
X12512920Y-9528484D02*
X12474825Y-9528484D01*
X12474825Y-9528484D02*
X12455777Y-9518960D01*
X12455777Y-9518960D02*
X12446253Y-9499912D01*
X12446253Y-9499912D02*
X12446253Y-9423722D01*
X12446253Y-9423722D02*
X12455777Y-9404674D01*
X12455777Y-9404674D02*
X12474825Y-9395150D01*
X12474825Y-9395150D02*
X12512920Y-9395150D01*
X12512920Y-9395150D02*
X12531968Y-9404674D01*
X12531968Y-9404674D02*
X12541491Y-9423722D01*
X12541491Y-9423722D02*
X12541491Y-9442770D01*
X12541491Y-9442770D02*
X12446253Y-9461817D01*
X12617682Y-9518960D02*
X12636730Y-9528484D01*
X12636730Y-9528484D02*
X12674825Y-9528484D01*
X12674825Y-9528484D02*
X12693872Y-9518960D01*
X12693872Y-9518960D02*
X12703396Y-9499912D01*
X12703396Y-9499912D02*
X12703396Y-9490389D01*
X12703396Y-9490389D02*
X12693872Y-9471341D01*
X12693872Y-9471341D02*
X12674825Y-9461817D01*
X12674825Y-9461817D02*
X12646253Y-9461817D01*
X12646253Y-9461817D02*
X12627206Y-9452293D01*
X12627206Y-9452293D02*
X12617682Y-9433246D01*
X12617682Y-9433246D02*
X12617682Y-9423722D01*
X12617682Y-9423722D02*
X12627206Y-9404674D01*
X12627206Y-9404674D02*
X12646253Y-9395150D01*
X12646253Y-9395150D02*
X12674825Y-9395150D01*
X12674825Y-9395150D02*
X12693872Y-9404674D01*
X12941492Y-9452293D02*
X13093873Y-9452293D01*
X13017682Y-9528484D02*
X13017682Y-9376103D01*
X13331968Y-9347531D02*
X13341492Y-9338008D01*
X13341492Y-9338008D02*
X13360539Y-9328484D01*
X13360539Y-9328484D02*
X13408158Y-9328484D01*
X13408158Y-9328484D02*
X13427206Y-9338008D01*
X13427206Y-9338008D02*
X13436730Y-9347531D01*
X13436730Y-9347531D02*
X13446253Y-9366579D01*
X13446253Y-9366579D02*
X13446253Y-9385627D01*
X13446253Y-9385627D02*
X13436730Y-9414198D01*
X13436730Y-9414198D02*
X13322444Y-9528484D01*
X13322444Y-9528484D02*
X13446253Y-9528484D01*
X13674825Y-9518960D02*
X13693873Y-9528484D01*
X13693873Y-9528484D02*
X13731968Y-9528484D01*
X13731968Y-9528484D02*
X13751015Y-9518960D01*
X13751015Y-9518960D02*
X13760539Y-9499912D01*
X13760539Y-9499912D02*
X13760539Y-9490389D01*
X13760539Y-9490389D02*
X13751015Y-9471341D01*
X13751015Y-9471341D02*
X13731968Y-9461817D01*
X13731968Y-9461817D02*
X13703396Y-9461817D01*
X13703396Y-9461817D02*
X13684349Y-9452293D01*
X13684349Y-9452293D02*
X13674825Y-9433246D01*
X13674825Y-9433246D02*
X13674825Y-9423722D01*
X13674825Y-9423722D02*
X13684349Y-9404674D01*
X13684349Y-9404674D02*
X13703396Y-9395150D01*
X13703396Y-9395150D02*
X13731968Y-9395150D01*
X13731968Y-9395150D02*
X13751015Y-9404674D01*
X13874825Y-9528484D02*
X13855777Y-9518960D01*
X13855777Y-9518960D02*
X13846254Y-9499912D01*
X13846254Y-9499912D02*
X13846254Y-9328484D01*
X13979587Y-9528484D02*
X13960539Y-9518960D01*
X13960539Y-9518960D02*
X13951015Y-9509436D01*
X13951015Y-9509436D02*
X13941492Y-9490389D01*
X13941492Y-9490389D02*
X13941492Y-9433246D01*
X13941492Y-9433246D02*
X13951015Y-9414198D01*
X13951015Y-9414198D02*
X13960539Y-9404674D01*
X13960539Y-9404674D02*
X13979587Y-9395150D01*
X13979587Y-9395150D02*
X14008158Y-9395150D01*
X14008158Y-9395150D02*
X14027206Y-9404674D01*
X14027206Y-9404674D02*
X14036730Y-9414198D01*
X14036730Y-9414198D02*
X14046254Y-9433246D01*
X14046254Y-9433246D02*
X14046254Y-9490389D01*
X14046254Y-9490389D02*
X14036730Y-9509436D01*
X14036730Y-9509436D02*
X14027206Y-9518960D01*
X14027206Y-9518960D02*
X14008158Y-9528484D01*
X14008158Y-9528484D02*
X13979587Y-9528484D01*
X14103396Y-9395150D02*
X14179587Y-9395150D01*
X14131968Y-9328484D02*
X14131968Y-9499912D01*
X14131968Y-9499912D02*
X14141492Y-9518960D01*
X14141492Y-9518960D02*
X14160539Y-9528484D01*
X14160539Y-9528484D02*
X14179587Y-9528484D01*
X14236730Y-9518960D02*
X14255777Y-9528484D01*
X14255777Y-9528484D02*
X14293873Y-9528484D01*
X14293873Y-9528484D02*
X14312920Y-9518960D01*
X14312920Y-9518960D02*
X14322444Y-9499912D01*
X14322444Y-9499912D02*
X14322444Y-9490389D01*
X14322444Y-9490389D02*
X14312920Y-9471341D01*
X14312920Y-9471341D02*
X14293873Y-9461817D01*
X14293873Y-9461817D02*
X14265301Y-9461817D01*
X14265301Y-9461817D02*
X14246254Y-9452293D01*
X14246254Y-9452293D02*
X14236730Y-9433246D01*
X14236730Y-9433246D02*
X14236730Y-9423722D01*
X14236730Y-9423722D02*
X14246254Y-9404674D01*
X14246254Y-9404674D02*
X14265301Y-9395150D01*
X14265301Y-9395150D02*
X14293873Y-9395150D01*
X14293873Y-9395150D02*
X14312920Y-9404674D01*
X14389111Y-9604674D02*
X14398635Y-9595150D01*
X14398635Y-9595150D02*
X14417682Y-9566579D01*
X14417682Y-9566579D02*
X14427206Y-9547531D01*
X14427206Y-9547531D02*
X14436730Y-9518960D01*
X14436730Y-9518960D02*
X14446254Y-9471341D01*
X14446254Y-9471341D02*
X14446254Y-9433246D01*
X14446254Y-9433246D02*
X14436730Y-9385627D01*
X14436730Y-9385627D02*
X14427206Y-9357055D01*
X14427206Y-9357055D02*
X14417682Y-9338008D01*
X14417682Y-9338008D02*
X14398635Y-9309436D01*
X14398635Y-9309436D02*
X14389111Y-9299912D01*
D10*
X7947500Y-9748500D02*
X7995000Y-9701000D01*
X7947500Y-9653500D01*
X7900000Y-9701000D01*
X7947500Y-9748500D01*
D11*
X8293872Y-9592484D02*
X8312920Y-9592484D01*
X8312920Y-9592484D02*
X8331967Y-9602008D01*
X8331967Y-9602008D02*
X8341491Y-9611531D01*
X8341491Y-9611531D02*
X8351015Y-9630579D01*
X8351015Y-9630579D02*
X8360539Y-9668674D01*
X8360539Y-9668674D02*
X8360539Y-9716293D01*
X8360539Y-9716293D02*
X8351015Y-9754389D01*
X8351015Y-9754389D02*
X8341491Y-9773436D01*
X8341491Y-9773436D02*
X8331967Y-9782960D01*
X8331967Y-9782960D02*
X8312920Y-9792484D01*
X8312920Y-9792484D02*
X8293872Y-9792484D01*
X8293872Y-9792484D02*
X8274824Y-9782960D01*
X8274824Y-9782960D02*
X8265301Y-9773436D01*
X8265301Y-9773436D02*
X8255777Y-9754389D01*
X8255777Y-9754389D02*
X8246253Y-9716293D01*
X8246253Y-9716293D02*
X8246253Y-9668674D01*
X8246253Y-9668674D02*
X8255777Y-9630579D01*
X8255777Y-9630579D02*
X8265301Y-9611531D01*
X8265301Y-9611531D02*
X8274824Y-9602008D01*
X8274824Y-9602008D02*
X8293872Y-9592484D01*
X8446253Y-9773436D02*
X8455777Y-9782960D01*
X8455777Y-9782960D02*
X8446253Y-9792484D01*
X8446253Y-9792484D02*
X8436729Y-9782960D01*
X8436729Y-9782960D02*
X8446253Y-9773436D01*
X8446253Y-9773436D02*
X8446253Y-9792484D01*
X8551015Y-9792484D02*
X8589110Y-9792484D01*
X8589110Y-9792484D02*
X8608158Y-9782960D01*
X8608158Y-9782960D02*
X8617682Y-9773436D01*
X8617682Y-9773436D02*
X8636729Y-9744865D01*
X8636729Y-9744865D02*
X8646253Y-9706770D01*
X8646253Y-9706770D02*
X8646253Y-9630579D01*
X8646253Y-9630579D02*
X8636729Y-9611531D01*
X8636729Y-9611531D02*
X8627205Y-9602008D01*
X8627205Y-9602008D02*
X8608158Y-9592484D01*
X8608158Y-9592484D02*
X8570063Y-9592484D01*
X8570063Y-9592484D02*
X8551015Y-9602008D01*
X8551015Y-9602008D02*
X8541491Y-9611531D01*
X8541491Y-9611531D02*
X8531967Y-9630579D01*
X8531967Y-9630579D02*
X8531967Y-9678198D01*
X8531967Y-9678198D02*
X8541491Y-9697246D01*
X8541491Y-9697246D02*
X8551015Y-9706770D01*
X8551015Y-9706770D02*
X8570063Y-9716293D01*
X8570063Y-9716293D02*
X8608158Y-9716293D01*
X8608158Y-9716293D02*
X8627205Y-9706770D01*
X8627205Y-9706770D02*
X8636729Y-9697246D01*
X8636729Y-9697246D02*
X8646253Y-9678198D01*
X8827205Y-9592484D02*
X8731967Y-9592484D01*
X8731967Y-9592484D02*
X8722444Y-9687722D01*
X8722444Y-9687722D02*
X8731967Y-9678198D01*
X8731967Y-9678198D02*
X8751015Y-9668674D01*
X8751015Y-9668674D02*
X8798634Y-9668674D01*
X8798634Y-9668674D02*
X8817682Y-9678198D01*
X8817682Y-9678198D02*
X8827205Y-9687722D01*
X8827205Y-9687722D02*
X8836729Y-9706770D01*
X8836729Y-9706770D02*
X8836729Y-9754389D01*
X8836729Y-9754389D02*
X8827205Y-9773436D01*
X8827205Y-9773436D02*
X8817682Y-9782960D01*
X8817682Y-9782960D02*
X8798634Y-9792484D01*
X8798634Y-9792484D02*
X8751015Y-9792484D01*
X8751015Y-9792484D02*
X8731967Y-9782960D01*
X8731967Y-9782960D02*
X8722444Y-9773436D01*
X8960539Y-9592484D02*
X8979586Y-9592484D01*
X8979586Y-9592484D02*
X8998634Y-9602008D01*
X8998634Y-9602008D02*
X9008158Y-9611531D01*
X9008158Y-9611531D02*
X9017682Y-9630579D01*
X9017682Y-9630579D02*
X9027205Y-9668674D01*
X9027205Y-9668674D02*
X9027205Y-9716293D01*
X9027205Y-9716293D02*
X9017682Y-9754389D01*
X9017682Y-9754389D02*
X9008158Y-9773436D01*
X9008158Y-9773436D02*
X8998634Y-9782960D01*
X8998634Y-9782960D02*
X8979586Y-9792484D01*
X8979586Y-9792484D02*
X8960539Y-9792484D01*
X8960539Y-9792484D02*
X8941491Y-9782960D01*
X8941491Y-9782960D02*
X8931967Y-9773436D01*
X8931967Y-9773436D02*
X8922444Y-9754389D01*
X8922444Y-9754389D02*
X8912920Y-9716293D01*
X8912920Y-9716293D02*
X8912920Y-9668674D01*
X8912920Y-9668674D02*
X8922444Y-9630579D01*
X8922444Y-9630579D02*
X8931967Y-9611531D01*
X8931967Y-9611531D02*
X8941491Y-9602008D01*
X8941491Y-9602008D02*
X8960539Y-9592484D01*
X9112920Y-9792484D02*
X9112920Y-9659150D01*
X9112920Y-9678198D02*
X9122444Y-9668674D01*
X9122444Y-9668674D02*
X9141491Y-9659150D01*
X9141491Y-9659150D02*
X9170063Y-9659150D01*
X9170063Y-9659150D02*
X9189110Y-9668674D01*
X9189110Y-9668674D02*
X9198634Y-9687722D01*
X9198634Y-9687722D02*
X9198634Y-9792484D01*
X9198634Y-9687722D02*
X9208158Y-9668674D01*
X9208158Y-9668674D02*
X9227205Y-9659150D01*
X9227205Y-9659150D02*
X9255777Y-9659150D01*
X9255777Y-9659150D02*
X9274825Y-9668674D01*
X9274825Y-9668674D02*
X9284348Y-9687722D01*
X9284348Y-9687722D02*
X9284348Y-9792484D01*
X9379586Y-9792484D02*
X9379586Y-9659150D01*
X9379586Y-9678198D02*
X9389110Y-9668674D01*
X9389110Y-9668674D02*
X9408158Y-9659150D01*
X9408158Y-9659150D02*
X9436729Y-9659150D01*
X9436729Y-9659150D02*
X9455777Y-9668674D01*
X9455777Y-9668674D02*
X9465301Y-9687722D01*
X9465301Y-9687722D02*
X9465301Y-9792484D01*
X9465301Y-9687722D02*
X9474825Y-9668674D01*
X9474825Y-9668674D02*
X9493872Y-9659150D01*
X9493872Y-9659150D02*
X9522444Y-9659150D01*
X9522444Y-9659150D02*
X9541491Y-9668674D01*
X9541491Y-9668674D02*
X9551015Y-9687722D01*
X9551015Y-9687722D02*
X9551015Y-9792484D01*
X9941491Y-9582960D02*
X9770063Y-9840103D01*
X10198634Y-9592484D02*
X10217682Y-9592484D01*
X10217682Y-9592484D02*
X10236729Y-9602008D01*
X10236729Y-9602008D02*
X10246253Y-9611531D01*
X10246253Y-9611531D02*
X10255777Y-9630579D01*
X10255777Y-9630579D02*
X10265301Y-9668674D01*
X10265301Y-9668674D02*
X10265301Y-9716293D01*
X10265301Y-9716293D02*
X10255777Y-9754389D01*
X10255777Y-9754389D02*
X10246253Y-9773436D01*
X10246253Y-9773436D02*
X10236729Y-9782960D01*
X10236729Y-9782960D02*
X10217682Y-9792484D01*
X10217682Y-9792484D02*
X10198634Y-9792484D01*
X10198634Y-9792484D02*
X10179587Y-9782960D01*
X10179587Y-9782960D02*
X10170063Y-9773436D01*
X10170063Y-9773436D02*
X10160539Y-9754389D01*
X10160539Y-9754389D02*
X10151015Y-9716293D01*
X10151015Y-9716293D02*
X10151015Y-9668674D01*
X10151015Y-9668674D02*
X10160539Y-9630579D01*
X10160539Y-9630579D02*
X10170063Y-9611531D01*
X10170063Y-9611531D02*
X10179587Y-9602008D01*
X10179587Y-9602008D02*
X10198634Y-9592484D01*
X10351015Y-9773436D02*
X10360539Y-9782960D01*
X10360539Y-9782960D02*
X10351015Y-9792484D01*
X10351015Y-9792484D02*
X10341491Y-9782960D01*
X10341491Y-9782960D02*
X10351015Y-9773436D01*
X10351015Y-9773436D02*
X10351015Y-9792484D01*
X10484348Y-9592484D02*
X10503396Y-9592484D01*
X10503396Y-9592484D02*
X10522444Y-9602008D01*
X10522444Y-9602008D02*
X10531968Y-9611531D01*
X10531968Y-9611531D02*
X10541491Y-9630579D01*
X10541491Y-9630579D02*
X10551015Y-9668674D01*
X10551015Y-9668674D02*
X10551015Y-9716293D01*
X10551015Y-9716293D02*
X10541491Y-9754389D01*
X10541491Y-9754389D02*
X10531968Y-9773436D01*
X10531968Y-9773436D02*
X10522444Y-9782960D01*
X10522444Y-9782960D02*
X10503396Y-9792484D01*
X10503396Y-9792484D02*
X10484348Y-9792484D01*
X10484348Y-9792484D02*
X10465301Y-9782960D01*
X10465301Y-9782960D02*
X10455777Y-9773436D01*
X10455777Y-9773436D02*
X10446253Y-9754389D01*
X10446253Y-9754389D02*
X10436729Y-9716293D01*
X10436729Y-9716293D02*
X10436729Y-9668674D01*
X10436729Y-9668674D02*
X10446253Y-9630579D01*
X10446253Y-9630579D02*
X10455777Y-9611531D01*
X10455777Y-9611531D02*
X10465301Y-9602008D01*
X10465301Y-9602008D02*
X10484348Y-9592484D01*
X10617682Y-9592484D02*
X10741491Y-9592484D01*
X10741491Y-9592484D02*
X10674825Y-9668674D01*
X10674825Y-9668674D02*
X10703396Y-9668674D01*
X10703396Y-9668674D02*
X10722444Y-9678198D01*
X10722444Y-9678198D02*
X10731968Y-9687722D01*
X10731968Y-9687722D02*
X10741491Y-9706770D01*
X10741491Y-9706770D02*
X10741491Y-9754389D01*
X10741491Y-9754389D02*
X10731968Y-9773436D01*
X10731968Y-9773436D02*
X10722444Y-9782960D01*
X10722444Y-9782960D02*
X10703396Y-9792484D01*
X10703396Y-9792484D02*
X10646253Y-9792484D01*
X10646253Y-9792484D02*
X10627206Y-9782960D01*
X10627206Y-9782960D02*
X10617682Y-9773436D01*
X10808158Y-9592484D02*
X10941491Y-9592484D01*
X10941491Y-9592484D02*
X10855777Y-9792484D01*
X11103396Y-9659150D02*
X11103396Y-9792484D01*
X11055777Y-9582960D02*
X11008158Y-9725817D01*
X11008158Y-9725817D02*
X11131968Y-9725817D01*
X11198634Y-9592484D02*
X11198634Y-9630579D01*
X11274825Y-9592484D02*
X11274825Y-9630579D01*
X11570063Y-9868674D02*
X11560539Y-9859150D01*
X11560539Y-9859150D02*
X11541491Y-9830579D01*
X11541491Y-9830579D02*
X11531968Y-9811531D01*
X11531968Y-9811531D02*
X11522444Y-9782960D01*
X11522444Y-9782960D02*
X11512920Y-9735341D01*
X11512920Y-9735341D02*
X11512920Y-9697246D01*
X11512920Y-9697246D02*
X11522444Y-9649627D01*
X11522444Y-9649627D02*
X11531968Y-9621055D01*
X11531968Y-9621055D02*
X11541491Y-9602008D01*
X11541491Y-9602008D02*
X11560539Y-9573436D01*
X11560539Y-9573436D02*
X11570063Y-9563912D01*
X11636729Y-9611531D02*
X11646253Y-9602008D01*
X11646253Y-9602008D02*
X11665301Y-9592484D01*
X11665301Y-9592484D02*
X11712920Y-9592484D01*
X11712920Y-9592484D02*
X11731968Y-9602008D01*
X11731968Y-9602008D02*
X11741491Y-9611531D01*
X11741491Y-9611531D02*
X11751015Y-9630579D01*
X11751015Y-9630579D02*
X11751015Y-9649627D01*
X11751015Y-9649627D02*
X11741491Y-9678198D01*
X11741491Y-9678198D02*
X11627206Y-9792484D01*
X11627206Y-9792484D02*
X11751015Y-9792484D01*
X11941491Y-9792484D02*
X11827206Y-9792484D01*
X11884348Y-9792484D02*
X11884348Y-9592484D01*
X11884348Y-9592484D02*
X11865301Y-9621055D01*
X11865301Y-9621055D02*
X11846253Y-9640103D01*
X11846253Y-9640103D02*
X11827206Y-9649627D01*
X12179587Y-9792484D02*
X12179587Y-9592484D01*
X12265301Y-9792484D02*
X12265301Y-9687722D01*
X12265301Y-9687722D02*
X12255777Y-9668674D01*
X12255777Y-9668674D02*
X12236730Y-9659150D01*
X12236730Y-9659150D02*
X12208158Y-9659150D01*
X12208158Y-9659150D02*
X12189110Y-9668674D01*
X12189110Y-9668674D02*
X12179587Y-9678198D01*
X12389110Y-9792484D02*
X12370063Y-9782960D01*
X12370063Y-9782960D02*
X12360539Y-9773436D01*
X12360539Y-9773436D02*
X12351015Y-9754389D01*
X12351015Y-9754389D02*
X12351015Y-9697246D01*
X12351015Y-9697246D02*
X12360539Y-9678198D01*
X12360539Y-9678198D02*
X12370063Y-9668674D01*
X12370063Y-9668674D02*
X12389110Y-9659150D01*
X12389110Y-9659150D02*
X12417682Y-9659150D01*
X12417682Y-9659150D02*
X12436730Y-9668674D01*
X12436730Y-9668674D02*
X12446253Y-9678198D01*
X12446253Y-9678198D02*
X12455777Y-9697246D01*
X12455777Y-9697246D02*
X12455777Y-9754389D01*
X12455777Y-9754389D02*
X12446253Y-9773436D01*
X12446253Y-9773436D02*
X12436730Y-9782960D01*
X12436730Y-9782960D02*
X12417682Y-9792484D01*
X12417682Y-9792484D02*
X12389110Y-9792484D01*
X12570063Y-9792484D02*
X12551015Y-9782960D01*
X12551015Y-9782960D02*
X12541491Y-9763912D01*
X12541491Y-9763912D02*
X12541491Y-9592484D01*
X12722444Y-9782960D02*
X12703396Y-9792484D01*
X12703396Y-9792484D02*
X12665301Y-9792484D01*
X12665301Y-9792484D02*
X12646253Y-9782960D01*
X12646253Y-9782960D02*
X12636730Y-9763912D01*
X12636730Y-9763912D02*
X12636730Y-9687722D01*
X12636730Y-9687722D02*
X12646253Y-9668674D01*
X12646253Y-9668674D02*
X12665301Y-9659150D01*
X12665301Y-9659150D02*
X12703396Y-9659150D01*
X12703396Y-9659150D02*
X12722444Y-9668674D01*
X12722444Y-9668674D02*
X12731968Y-9687722D01*
X12731968Y-9687722D02*
X12731968Y-9706770D01*
X12731968Y-9706770D02*
X12636730Y-9725817D01*
X12808158Y-9782960D02*
X12827206Y-9792484D01*
X12827206Y-9792484D02*
X12865301Y-9792484D01*
X12865301Y-9792484D02*
X12884349Y-9782960D01*
X12884349Y-9782960D02*
X12893872Y-9763912D01*
X12893872Y-9763912D02*
X12893872Y-9754389D01*
X12893872Y-9754389D02*
X12884349Y-9735341D01*
X12884349Y-9735341D02*
X12865301Y-9725817D01*
X12865301Y-9725817D02*
X12836730Y-9725817D01*
X12836730Y-9725817D02*
X12817682Y-9716293D01*
X12817682Y-9716293D02*
X12808158Y-9697246D01*
X12808158Y-9697246D02*
X12808158Y-9687722D01*
X12808158Y-9687722D02*
X12817682Y-9668674D01*
X12817682Y-9668674D02*
X12836730Y-9659150D01*
X12836730Y-9659150D02*
X12865301Y-9659150D01*
X12865301Y-9659150D02*
X12884349Y-9668674D01*
X12960539Y-9868674D02*
X12970063Y-9859150D01*
X12970063Y-9859150D02*
X12989111Y-9830579D01*
X12989111Y-9830579D02*
X12998634Y-9811531D01*
X12998634Y-9811531D02*
X13008158Y-9782960D01*
X13008158Y-9782960D02*
X13017682Y-9735341D01*
X13017682Y-9735341D02*
X13017682Y-9697246D01*
X13017682Y-9697246D02*
X13008158Y-9649627D01*
X13008158Y-9649627D02*
X12998634Y-9621055D01*
X12998634Y-9621055D02*
X12989111Y-9602008D01*
X12989111Y-9602008D02*
X12970063Y-9573436D01*
X12970063Y-9573436D02*
X12960539Y-9563912D01*
D10*
X7895000Y-9915000D02*
X7995000Y-10015000D01*
X7995000Y-9915000D02*
X7895000Y-10015000D01*
X7995000Y-9965000D02*
G75*
G02*
X7895000Y-9965000I-50000J0D01*
G01*
X7895000Y-9965000D02*
G75*
G02*
X7995000Y-9965000I50000J0D01*
G01*
D11*
X8360539Y-10056484D02*
X8246253Y-10056484D01*
X8303396Y-10056484D02*
X8303396Y-9856484D01*
X8303396Y-9856484D02*
X8284348Y-9885055D01*
X8284348Y-9885055D02*
X8265301Y-9904103D01*
X8265301Y-9904103D02*
X8246253Y-9913627D01*
X8446253Y-10037436D02*
X8455777Y-10046960D01*
X8455777Y-10046960D02*
X8446253Y-10056484D01*
X8446253Y-10056484D02*
X8436729Y-10046960D01*
X8436729Y-10046960D02*
X8446253Y-10037436D01*
X8446253Y-10037436D02*
X8446253Y-10056484D01*
X8579586Y-9856484D02*
X8598634Y-9856484D01*
X8598634Y-9856484D02*
X8617682Y-9866008D01*
X8617682Y-9866008D02*
X8627205Y-9875531D01*
X8627205Y-9875531D02*
X8636729Y-9894579D01*
X8636729Y-9894579D02*
X8646253Y-9932674D01*
X8646253Y-9932674D02*
X8646253Y-9980293D01*
X8646253Y-9980293D02*
X8636729Y-10018389D01*
X8636729Y-10018389D02*
X8627205Y-10037436D01*
X8627205Y-10037436D02*
X8617682Y-10046960D01*
X8617682Y-10046960D02*
X8598634Y-10056484D01*
X8598634Y-10056484D02*
X8579586Y-10056484D01*
X8579586Y-10056484D02*
X8560539Y-10046960D01*
X8560539Y-10046960D02*
X8551015Y-10037436D01*
X8551015Y-10037436D02*
X8541491Y-10018389D01*
X8541491Y-10018389D02*
X8531967Y-9980293D01*
X8531967Y-9980293D02*
X8531967Y-9932674D01*
X8531967Y-9932674D02*
X8541491Y-9894579D01*
X8541491Y-9894579D02*
X8551015Y-9875531D01*
X8551015Y-9875531D02*
X8560539Y-9866008D01*
X8560539Y-9866008D02*
X8579586Y-9856484D01*
X8770063Y-9856484D02*
X8789110Y-9856484D01*
X8789110Y-9856484D02*
X8808158Y-9866008D01*
X8808158Y-9866008D02*
X8817682Y-9875531D01*
X8817682Y-9875531D02*
X8827205Y-9894579D01*
X8827205Y-9894579D02*
X8836729Y-9932674D01*
X8836729Y-9932674D02*
X8836729Y-9980293D01*
X8836729Y-9980293D02*
X8827205Y-10018389D01*
X8827205Y-10018389D02*
X8817682Y-10037436D01*
X8817682Y-10037436D02*
X8808158Y-10046960D01*
X8808158Y-10046960D02*
X8789110Y-10056484D01*
X8789110Y-10056484D02*
X8770063Y-10056484D01*
X8770063Y-10056484D02*
X8751015Y-10046960D01*
X8751015Y-10046960D02*
X8741491Y-10037436D01*
X8741491Y-10037436D02*
X8731967Y-10018389D01*
X8731967Y-10018389D02*
X8722444Y-9980293D01*
X8722444Y-9980293D02*
X8722444Y-9932674D01*
X8722444Y-9932674D02*
X8731967Y-9894579D01*
X8731967Y-9894579D02*
X8741491Y-9875531D01*
X8741491Y-9875531D02*
X8751015Y-9866008D01*
X8751015Y-9866008D02*
X8770063Y-9856484D01*
X8960539Y-9856484D02*
X8979586Y-9856484D01*
X8979586Y-9856484D02*
X8998634Y-9866008D01*
X8998634Y-9866008D02*
X9008158Y-9875531D01*
X9008158Y-9875531D02*
X9017682Y-9894579D01*
X9017682Y-9894579D02*
X9027205Y-9932674D01*
X9027205Y-9932674D02*
X9027205Y-9980293D01*
X9027205Y-9980293D02*
X9017682Y-10018389D01*
X9017682Y-10018389D02*
X9008158Y-10037436D01*
X9008158Y-10037436D02*
X8998634Y-10046960D01*
X8998634Y-10046960D02*
X8979586Y-10056484D01*
X8979586Y-10056484D02*
X8960539Y-10056484D01*
X8960539Y-10056484D02*
X8941491Y-10046960D01*
X8941491Y-10046960D02*
X8931967Y-10037436D01*
X8931967Y-10037436D02*
X8922444Y-10018389D01*
X8922444Y-10018389D02*
X8912920Y-9980293D01*
X8912920Y-9980293D02*
X8912920Y-9932674D01*
X8912920Y-9932674D02*
X8922444Y-9894579D01*
X8922444Y-9894579D02*
X8931967Y-9875531D01*
X8931967Y-9875531D02*
X8941491Y-9866008D01*
X8941491Y-9866008D02*
X8960539Y-9856484D01*
X9112920Y-10056484D02*
X9112920Y-9923150D01*
X9112920Y-9942198D02*
X9122444Y-9932674D01*
X9122444Y-9932674D02*
X9141491Y-9923150D01*
X9141491Y-9923150D02*
X9170063Y-9923150D01*
X9170063Y-9923150D02*
X9189110Y-9932674D01*
X9189110Y-9932674D02*
X9198634Y-9951722D01*
X9198634Y-9951722D02*
X9198634Y-10056484D01*
X9198634Y-9951722D02*
X9208158Y-9932674D01*
X9208158Y-9932674D02*
X9227205Y-9923150D01*
X9227205Y-9923150D02*
X9255777Y-9923150D01*
X9255777Y-9923150D02*
X9274825Y-9932674D01*
X9274825Y-9932674D02*
X9284348Y-9951722D01*
X9284348Y-9951722D02*
X9284348Y-10056484D01*
X9379586Y-10056484D02*
X9379586Y-9923150D01*
X9379586Y-9942198D02*
X9389110Y-9932674D01*
X9389110Y-9932674D02*
X9408158Y-9923150D01*
X9408158Y-9923150D02*
X9436729Y-9923150D01*
X9436729Y-9923150D02*
X9455777Y-9932674D01*
X9455777Y-9932674D02*
X9465301Y-9951722D01*
X9465301Y-9951722D02*
X9465301Y-10056484D01*
X9465301Y-9951722D02*
X9474825Y-9932674D01*
X9474825Y-9932674D02*
X9493872Y-9923150D01*
X9493872Y-9923150D02*
X9522444Y-9923150D01*
X9522444Y-9923150D02*
X9541491Y-9932674D01*
X9541491Y-9932674D02*
X9551015Y-9951722D01*
X9551015Y-9951722D02*
X9551015Y-10056484D01*
X9941491Y-9846960D02*
X9770063Y-10104103D01*
X10198634Y-9856484D02*
X10217682Y-9856484D01*
X10217682Y-9856484D02*
X10236729Y-9866008D01*
X10236729Y-9866008D02*
X10246253Y-9875531D01*
X10246253Y-9875531D02*
X10255777Y-9894579D01*
X10255777Y-9894579D02*
X10265301Y-9932674D01*
X10265301Y-9932674D02*
X10265301Y-9980293D01*
X10265301Y-9980293D02*
X10255777Y-10018389D01*
X10255777Y-10018389D02*
X10246253Y-10037436D01*
X10246253Y-10037436D02*
X10236729Y-10046960D01*
X10236729Y-10046960D02*
X10217682Y-10056484D01*
X10217682Y-10056484D02*
X10198634Y-10056484D01*
X10198634Y-10056484D02*
X10179587Y-10046960D01*
X10179587Y-10046960D02*
X10170063Y-10037436D01*
X10170063Y-10037436D02*
X10160539Y-10018389D01*
X10160539Y-10018389D02*
X10151015Y-9980293D01*
X10151015Y-9980293D02*
X10151015Y-9932674D01*
X10151015Y-9932674D02*
X10160539Y-9894579D01*
X10160539Y-9894579D02*
X10170063Y-9875531D01*
X10170063Y-9875531D02*
X10179587Y-9866008D01*
X10179587Y-9866008D02*
X10198634Y-9856484D01*
X10351015Y-10037436D02*
X10360539Y-10046960D01*
X10360539Y-10046960D02*
X10351015Y-10056484D01*
X10351015Y-10056484D02*
X10341491Y-10046960D01*
X10341491Y-10046960D02*
X10351015Y-10037436D01*
X10351015Y-10037436D02*
X10351015Y-10056484D01*
X10484348Y-9856484D02*
X10503396Y-9856484D01*
X10503396Y-9856484D02*
X10522444Y-9866008D01*
X10522444Y-9866008D02*
X10531968Y-9875531D01*
X10531968Y-9875531D02*
X10541491Y-9894579D01*
X10541491Y-9894579D02*
X10551015Y-9932674D01*
X10551015Y-9932674D02*
X10551015Y-9980293D01*
X10551015Y-9980293D02*
X10541491Y-10018389D01*
X10541491Y-10018389D02*
X10531968Y-10037436D01*
X10531968Y-10037436D02*
X10522444Y-10046960D01*
X10522444Y-10046960D02*
X10503396Y-10056484D01*
X10503396Y-10056484D02*
X10484348Y-10056484D01*
X10484348Y-10056484D02*
X10465301Y-10046960D01*
X10465301Y-10046960D02*
X10455777Y-10037436D01*
X10455777Y-10037436D02*
X10446253Y-10018389D01*
X10446253Y-10018389D02*
X10436729Y-9980293D01*
X10436729Y-9980293D02*
X10436729Y-9932674D01*
X10436729Y-9932674D02*
X10446253Y-9894579D01*
X10446253Y-9894579D02*
X10455777Y-9875531D01*
X10455777Y-9875531D02*
X10465301Y-9866008D01*
X10465301Y-9866008D02*
X10484348Y-9856484D01*
X10617682Y-9856484D02*
X10741491Y-9856484D01*
X10741491Y-9856484D02*
X10674825Y-9932674D01*
X10674825Y-9932674D02*
X10703396Y-9932674D01*
X10703396Y-9932674D02*
X10722444Y-9942198D01*
X10722444Y-9942198D02*
X10731968Y-9951722D01*
X10731968Y-9951722D02*
X10741491Y-9970770D01*
X10741491Y-9970770D02*
X10741491Y-10018389D01*
X10741491Y-10018389D02*
X10731968Y-10037436D01*
X10731968Y-10037436D02*
X10722444Y-10046960D01*
X10722444Y-10046960D02*
X10703396Y-10056484D01*
X10703396Y-10056484D02*
X10646253Y-10056484D01*
X10646253Y-10056484D02*
X10627206Y-10046960D01*
X10627206Y-10046960D02*
X10617682Y-10037436D01*
X10836729Y-10056484D02*
X10874825Y-10056484D01*
X10874825Y-10056484D02*
X10893872Y-10046960D01*
X10893872Y-10046960D02*
X10903396Y-10037436D01*
X10903396Y-10037436D02*
X10922444Y-10008865D01*
X10922444Y-10008865D02*
X10931968Y-9970770D01*
X10931968Y-9970770D02*
X10931968Y-9894579D01*
X10931968Y-9894579D02*
X10922444Y-9875531D01*
X10922444Y-9875531D02*
X10912920Y-9866008D01*
X10912920Y-9866008D02*
X10893872Y-9856484D01*
X10893872Y-9856484D02*
X10855777Y-9856484D01*
X10855777Y-9856484D02*
X10836729Y-9866008D01*
X10836729Y-9866008D02*
X10827206Y-9875531D01*
X10827206Y-9875531D02*
X10817682Y-9894579D01*
X10817682Y-9894579D02*
X10817682Y-9942198D01*
X10817682Y-9942198D02*
X10827206Y-9961246D01*
X10827206Y-9961246D02*
X10836729Y-9970770D01*
X10836729Y-9970770D02*
X10855777Y-9980293D01*
X10855777Y-9980293D02*
X10893872Y-9980293D01*
X10893872Y-9980293D02*
X10912920Y-9970770D01*
X10912920Y-9970770D02*
X10922444Y-9961246D01*
X10922444Y-9961246D02*
X10931968Y-9942198D01*
X11103396Y-9923150D02*
X11103396Y-10056484D01*
X11055777Y-9846960D02*
X11008158Y-9989817D01*
X11008158Y-9989817D02*
X11131968Y-9989817D01*
X11198634Y-9856484D02*
X11198634Y-9894579D01*
X11274825Y-9856484D02*
X11274825Y-9894579D01*
X11570063Y-10132674D02*
X11560539Y-10123150D01*
X11560539Y-10123150D02*
X11541491Y-10094579D01*
X11541491Y-10094579D02*
X11531968Y-10075531D01*
X11531968Y-10075531D02*
X11522444Y-10046960D01*
X11522444Y-10046960D02*
X11512920Y-9999341D01*
X11512920Y-9999341D02*
X11512920Y-9961246D01*
X11512920Y-9961246D02*
X11522444Y-9913627D01*
X11522444Y-9913627D02*
X11531968Y-9885055D01*
X11531968Y-9885055D02*
X11541491Y-9866008D01*
X11541491Y-9866008D02*
X11560539Y-9837436D01*
X11560539Y-9837436D02*
X11570063Y-9827912D01*
X11751015Y-10056484D02*
X11636729Y-10056484D01*
X11693872Y-10056484D02*
X11693872Y-9856484D01*
X11693872Y-9856484D02*
X11674825Y-9885055D01*
X11674825Y-9885055D02*
X11655777Y-9904103D01*
X11655777Y-9904103D02*
X11636729Y-9913627D01*
X11874825Y-9856484D02*
X11893872Y-9856484D01*
X11893872Y-9856484D02*
X11912920Y-9866008D01*
X11912920Y-9866008D02*
X11922444Y-9875531D01*
X11922444Y-9875531D02*
X11931968Y-9894579D01*
X11931968Y-9894579D02*
X11941491Y-9932674D01*
X11941491Y-9932674D02*
X11941491Y-9980293D01*
X11941491Y-9980293D02*
X11931968Y-10018389D01*
X11931968Y-10018389D02*
X11922444Y-10037436D01*
X11922444Y-10037436D02*
X11912920Y-10046960D01*
X11912920Y-10046960D02*
X11893872Y-10056484D01*
X11893872Y-10056484D02*
X11874825Y-10056484D01*
X11874825Y-10056484D02*
X11855777Y-10046960D01*
X11855777Y-10046960D02*
X11846253Y-10037436D01*
X11846253Y-10037436D02*
X11836729Y-10018389D01*
X11836729Y-10018389D02*
X11827206Y-9980293D01*
X11827206Y-9980293D02*
X11827206Y-9932674D01*
X11827206Y-9932674D02*
X11836729Y-9894579D01*
X11836729Y-9894579D02*
X11846253Y-9875531D01*
X11846253Y-9875531D02*
X11855777Y-9866008D01*
X11855777Y-9866008D02*
X11874825Y-9856484D01*
X12179587Y-10056484D02*
X12179587Y-9856484D01*
X12265301Y-10056484D02*
X12265301Y-9951722D01*
X12265301Y-9951722D02*
X12255777Y-9932674D01*
X12255777Y-9932674D02*
X12236730Y-9923150D01*
X12236730Y-9923150D02*
X12208158Y-9923150D01*
X12208158Y-9923150D02*
X12189110Y-9932674D01*
X12189110Y-9932674D02*
X12179587Y-9942198D01*
X12389110Y-10056484D02*
X12370063Y-10046960D01*
X12370063Y-10046960D02*
X12360539Y-10037436D01*
X12360539Y-10037436D02*
X12351015Y-10018389D01*
X12351015Y-10018389D02*
X12351015Y-9961246D01*
X12351015Y-9961246D02*
X12360539Y-9942198D01*
X12360539Y-9942198D02*
X12370063Y-9932674D01*
X12370063Y-9932674D02*
X12389110Y-9923150D01*
X12389110Y-9923150D02*
X12417682Y-9923150D01*
X12417682Y-9923150D02*
X12436730Y-9932674D01*
X12436730Y-9932674D02*
X12446253Y-9942198D01*
X12446253Y-9942198D02*
X12455777Y-9961246D01*
X12455777Y-9961246D02*
X12455777Y-10018389D01*
X12455777Y-10018389D02*
X12446253Y-10037436D01*
X12446253Y-10037436D02*
X12436730Y-10046960D01*
X12436730Y-10046960D02*
X12417682Y-10056484D01*
X12417682Y-10056484D02*
X12389110Y-10056484D01*
X12570063Y-10056484D02*
X12551015Y-10046960D01*
X12551015Y-10046960D02*
X12541491Y-10027912D01*
X12541491Y-10027912D02*
X12541491Y-9856484D01*
X12722444Y-10046960D02*
X12703396Y-10056484D01*
X12703396Y-10056484D02*
X12665301Y-10056484D01*
X12665301Y-10056484D02*
X12646253Y-10046960D01*
X12646253Y-10046960D02*
X12636730Y-10027912D01*
X12636730Y-10027912D02*
X12636730Y-9951722D01*
X12636730Y-9951722D02*
X12646253Y-9932674D01*
X12646253Y-9932674D02*
X12665301Y-9923150D01*
X12665301Y-9923150D02*
X12703396Y-9923150D01*
X12703396Y-9923150D02*
X12722444Y-9932674D01*
X12722444Y-9932674D02*
X12731968Y-9951722D01*
X12731968Y-9951722D02*
X12731968Y-9970770D01*
X12731968Y-9970770D02*
X12636730Y-9989817D01*
X12808158Y-10046960D02*
X12827206Y-10056484D01*
X12827206Y-10056484D02*
X12865301Y-10056484D01*
X12865301Y-10056484D02*
X12884349Y-10046960D01*
X12884349Y-10046960D02*
X12893872Y-10027912D01*
X12893872Y-10027912D02*
X12893872Y-10018389D01*
X12893872Y-10018389D02*
X12884349Y-9999341D01*
X12884349Y-9999341D02*
X12865301Y-9989817D01*
X12865301Y-9989817D02*
X12836730Y-9989817D01*
X12836730Y-9989817D02*
X12817682Y-9980293D01*
X12817682Y-9980293D02*
X12808158Y-9961246D01*
X12808158Y-9961246D02*
X12808158Y-9951722D01*
X12808158Y-9951722D02*
X12817682Y-9932674D01*
X12817682Y-9932674D02*
X12836730Y-9923150D01*
X12836730Y-9923150D02*
X12865301Y-9923150D01*
X12865301Y-9923150D02*
X12884349Y-9932674D01*
X12960539Y-10132674D02*
X12970063Y-10123150D01*
X12970063Y-10123150D02*
X12989111Y-10094579D01*
X12989111Y-10094579D02*
X12998634Y-10075531D01*
X12998634Y-10075531D02*
X13008158Y-10046960D01*
X13008158Y-10046960D02*
X13017682Y-9999341D01*
X13017682Y-9999341D02*
X13017682Y-9961246D01*
X13017682Y-9961246D02*
X13008158Y-9913627D01*
X13008158Y-9913627D02*
X12998634Y-9885055D01*
X12998634Y-9885055D02*
X12989111Y-9866008D01*
X12989111Y-9866008D02*
X12970063Y-9837436D01*
X12970063Y-9837436D02*
X12960539Y-9827912D01*
X7795000Y-10129000D02*
X7995000Y-10329000D01*
X7995000Y-10129000D02*
X7795000Y-10329000D01*
X7895000Y-10129000D02*
X7895000Y-10329000D01*
X7795000Y-10229000D02*
X7995000Y-10229000D01*
X8236729Y-10120484D02*
X8360539Y-10120484D01*
X8360539Y-10120484D02*
X8293872Y-10196674D01*
X8293872Y-10196674D02*
X8322443Y-10196674D01*
X8322443Y-10196674D02*
X8341491Y-10206198D01*
X8341491Y-10206198D02*
X8351015Y-10215722D01*
X8351015Y-10215722D02*
X8360539Y-10234770D01*
X8360539Y-10234770D02*
X8360539Y-10282389D01*
X8360539Y-10282389D02*
X8351015Y-10301436D01*
X8351015Y-10301436D02*
X8341491Y-10310960D01*
X8341491Y-10310960D02*
X8322443Y-10320484D01*
X8322443Y-10320484D02*
X8265301Y-10320484D01*
X8265301Y-10320484D02*
X8246253Y-10310960D01*
X8246253Y-10310960D02*
X8236729Y-10301436D01*
X8446253Y-10301436D02*
X8455777Y-10310960D01*
X8455777Y-10310960D02*
X8446253Y-10320484D01*
X8446253Y-10320484D02*
X8436729Y-10310960D01*
X8436729Y-10310960D02*
X8446253Y-10301436D01*
X8446253Y-10301436D02*
X8446253Y-10320484D01*
X8531967Y-10139531D02*
X8541491Y-10130008D01*
X8541491Y-10130008D02*
X8560539Y-10120484D01*
X8560539Y-10120484D02*
X8608158Y-10120484D01*
X8608158Y-10120484D02*
X8627205Y-10130008D01*
X8627205Y-10130008D02*
X8636729Y-10139531D01*
X8636729Y-10139531D02*
X8646253Y-10158579D01*
X8646253Y-10158579D02*
X8646253Y-10177627D01*
X8646253Y-10177627D02*
X8636729Y-10206198D01*
X8636729Y-10206198D02*
X8522444Y-10320484D01*
X8522444Y-10320484D02*
X8646253Y-10320484D01*
X8770063Y-10120484D02*
X8789110Y-10120484D01*
X8789110Y-10120484D02*
X8808158Y-10130008D01*
X8808158Y-10130008D02*
X8817682Y-10139531D01*
X8817682Y-10139531D02*
X8827205Y-10158579D01*
X8827205Y-10158579D02*
X8836729Y-10196674D01*
X8836729Y-10196674D02*
X8836729Y-10244293D01*
X8836729Y-10244293D02*
X8827205Y-10282389D01*
X8827205Y-10282389D02*
X8817682Y-10301436D01*
X8817682Y-10301436D02*
X8808158Y-10310960D01*
X8808158Y-10310960D02*
X8789110Y-10320484D01*
X8789110Y-10320484D02*
X8770063Y-10320484D01*
X8770063Y-10320484D02*
X8751015Y-10310960D01*
X8751015Y-10310960D02*
X8741491Y-10301436D01*
X8741491Y-10301436D02*
X8731967Y-10282389D01*
X8731967Y-10282389D02*
X8722444Y-10244293D01*
X8722444Y-10244293D02*
X8722444Y-10196674D01*
X8722444Y-10196674D02*
X8731967Y-10158579D01*
X8731967Y-10158579D02*
X8741491Y-10139531D01*
X8741491Y-10139531D02*
X8751015Y-10130008D01*
X8751015Y-10130008D02*
X8770063Y-10120484D01*
X8960539Y-10120484D02*
X8979586Y-10120484D01*
X8979586Y-10120484D02*
X8998634Y-10130008D01*
X8998634Y-10130008D02*
X9008158Y-10139531D01*
X9008158Y-10139531D02*
X9017682Y-10158579D01*
X9017682Y-10158579D02*
X9027205Y-10196674D01*
X9027205Y-10196674D02*
X9027205Y-10244293D01*
X9027205Y-10244293D02*
X9017682Y-10282389D01*
X9017682Y-10282389D02*
X9008158Y-10301436D01*
X9008158Y-10301436D02*
X8998634Y-10310960D01*
X8998634Y-10310960D02*
X8979586Y-10320484D01*
X8979586Y-10320484D02*
X8960539Y-10320484D01*
X8960539Y-10320484D02*
X8941491Y-10310960D01*
X8941491Y-10310960D02*
X8931967Y-10301436D01*
X8931967Y-10301436D02*
X8922444Y-10282389D01*
X8922444Y-10282389D02*
X8912920Y-10244293D01*
X8912920Y-10244293D02*
X8912920Y-10196674D01*
X8912920Y-10196674D02*
X8922444Y-10158579D01*
X8922444Y-10158579D02*
X8931967Y-10139531D01*
X8931967Y-10139531D02*
X8941491Y-10130008D01*
X8941491Y-10130008D02*
X8960539Y-10120484D01*
X9112920Y-10320484D02*
X9112920Y-10187150D01*
X9112920Y-10206198D02*
X9122444Y-10196674D01*
X9122444Y-10196674D02*
X9141491Y-10187150D01*
X9141491Y-10187150D02*
X9170063Y-10187150D01*
X9170063Y-10187150D02*
X9189110Y-10196674D01*
X9189110Y-10196674D02*
X9198634Y-10215722D01*
X9198634Y-10215722D02*
X9198634Y-10320484D01*
X9198634Y-10215722D02*
X9208158Y-10196674D01*
X9208158Y-10196674D02*
X9227205Y-10187150D01*
X9227205Y-10187150D02*
X9255777Y-10187150D01*
X9255777Y-10187150D02*
X9274825Y-10196674D01*
X9274825Y-10196674D02*
X9284348Y-10215722D01*
X9284348Y-10215722D02*
X9284348Y-10320484D01*
X9379586Y-10320484D02*
X9379586Y-10187150D01*
X9379586Y-10206198D02*
X9389110Y-10196674D01*
X9389110Y-10196674D02*
X9408158Y-10187150D01*
X9408158Y-10187150D02*
X9436729Y-10187150D01*
X9436729Y-10187150D02*
X9455777Y-10196674D01*
X9455777Y-10196674D02*
X9465301Y-10215722D01*
X9465301Y-10215722D02*
X9465301Y-10320484D01*
X9465301Y-10215722D02*
X9474825Y-10196674D01*
X9474825Y-10196674D02*
X9493872Y-10187150D01*
X9493872Y-10187150D02*
X9522444Y-10187150D01*
X9522444Y-10187150D02*
X9541491Y-10196674D01*
X9541491Y-10196674D02*
X9551015Y-10215722D01*
X9551015Y-10215722D02*
X9551015Y-10320484D01*
X9941491Y-10110960D02*
X9770063Y-10368103D01*
X10198634Y-10120484D02*
X10217682Y-10120484D01*
X10217682Y-10120484D02*
X10236729Y-10130008D01*
X10236729Y-10130008D02*
X10246253Y-10139531D01*
X10246253Y-10139531D02*
X10255777Y-10158579D01*
X10255777Y-10158579D02*
X10265301Y-10196674D01*
X10265301Y-10196674D02*
X10265301Y-10244293D01*
X10265301Y-10244293D02*
X10255777Y-10282389D01*
X10255777Y-10282389D02*
X10246253Y-10301436D01*
X10246253Y-10301436D02*
X10236729Y-10310960D01*
X10236729Y-10310960D02*
X10217682Y-10320484D01*
X10217682Y-10320484D02*
X10198634Y-10320484D01*
X10198634Y-10320484D02*
X10179587Y-10310960D01*
X10179587Y-10310960D02*
X10170063Y-10301436D01*
X10170063Y-10301436D02*
X10160539Y-10282389D01*
X10160539Y-10282389D02*
X10151015Y-10244293D01*
X10151015Y-10244293D02*
X10151015Y-10196674D01*
X10151015Y-10196674D02*
X10160539Y-10158579D01*
X10160539Y-10158579D02*
X10170063Y-10139531D01*
X10170063Y-10139531D02*
X10179587Y-10130008D01*
X10179587Y-10130008D02*
X10198634Y-10120484D01*
X10351015Y-10301436D02*
X10360539Y-10310960D01*
X10360539Y-10310960D02*
X10351015Y-10320484D01*
X10351015Y-10320484D02*
X10341491Y-10310960D01*
X10341491Y-10310960D02*
X10351015Y-10301436D01*
X10351015Y-10301436D02*
X10351015Y-10320484D01*
X10551015Y-10320484D02*
X10436729Y-10320484D01*
X10493872Y-10320484D02*
X10493872Y-10120484D01*
X10493872Y-10120484D02*
X10474825Y-10149055D01*
X10474825Y-10149055D02*
X10455777Y-10168103D01*
X10455777Y-10168103D02*
X10436729Y-10177627D01*
X10627206Y-10139531D02*
X10636729Y-10130008D01*
X10636729Y-10130008D02*
X10655777Y-10120484D01*
X10655777Y-10120484D02*
X10703396Y-10120484D01*
X10703396Y-10120484D02*
X10722444Y-10130008D01*
X10722444Y-10130008D02*
X10731968Y-10139531D01*
X10731968Y-10139531D02*
X10741491Y-10158579D01*
X10741491Y-10158579D02*
X10741491Y-10177627D01*
X10741491Y-10177627D02*
X10731968Y-10206198D01*
X10731968Y-10206198D02*
X10617682Y-10320484D01*
X10617682Y-10320484D02*
X10741491Y-10320484D01*
X10912920Y-10120484D02*
X10874825Y-10120484D01*
X10874825Y-10120484D02*
X10855777Y-10130008D01*
X10855777Y-10130008D02*
X10846253Y-10139531D01*
X10846253Y-10139531D02*
X10827206Y-10168103D01*
X10827206Y-10168103D02*
X10817682Y-10206198D01*
X10817682Y-10206198D02*
X10817682Y-10282389D01*
X10817682Y-10282389D02*
X10827206Y-10301436D01*
X10827206Y-10301436D02*
X10836729Y-10310960D01*
X10836729Y-10310960D02*
X10855777Y-10320484D01*
X10855777Y-10320484D02*
X10893872Y-10320484D01*
X10893872Y-10320484D02*
X10912920Y-10310960D01*
X10912920Y-10310960D02*
X10922444Y-10301436D01*
X10922444Y-10301436D02*
X10931968Y-10282389D01*
X10931968Y-10282389D02*
X10931968Y-10234770D01*
X10931968Y-10234770D02*
X10922444Y-10215722D01*
X10922444Y-10215722D02*
X10912920Y-10206198D01*
X10912920Y-10206198D02*
X10893872Y-10196674D01*
X10893872Y-10196674D02*
X10855777Y-10196674D01*
X10855777Y-10196674D02*
X10836729Y-10206198D01*
X10836729Y-10206198D02*
X10827206Y-10215722D01*
X10827206Y-10215722D02*
X10817682Y-10234770D01*
X11055777Y-10120484D02*
X11074825Y-10120484D01*
X11074825Y-10120484D02*
X11093872Y-10130008D01*
X11093872Y-10130008D02*
X11103396Y-10139531D01*
X11103396Y-10139531D02*
X11112920Y-10158579D01*
X11112920Y-10158579D02*
X11122444Y-10196674D01*
X11122444Y-10196674D02*
X11122444Y-10244293D01*
X11122444Y-10244293D02*
X11112920Y-10282389D01*
X11112920Y-10282389D02*
X11103396Y-10301436D01*
X11103396Y-10301436D02*
X11093872Y-10310960D01*
X11093872Y-10310960D02*
X11074825Y-10320484D01*
X11074825Y-10320484D02*
X11055777Y-10320484D01*
X11055777Y-10320484D02*
X11036729Y-10310960D01*
X11036729Y-10310960D02*
X11027206Y-10301436D01*
X11027206Y-10301436D02*
X11017682Y-10282389D01*
X11017682Y-10282389D02*
X11008158Y-10244293D01*
X11008158Y-10244293D02*
X11008158Y-10196674D01*
X11008158Y-10196674D02*
X11017682Y-10158579D01*
X11017682Y-10158579D02*
X11027206Y-10139531D01*
X11027206Y-10139531D02*
X11036729Y-10130008D01*
X11036729Y-10130008D02*
X11055777Y-10120484D01*
X11198634Y-10120484D02*
X11198634Y-10158579D01*
X11274825Y-10120484D02*
X11274825Y-10158579D01*
X11570063Y-10396674D02*
X11560539Y-10387150D01*
X11560539Y-10387150D02*
X11541491Y-10358579D01*
X11541491Y-10358579D02*
X11531968Y-10339531D01*
X11531968Y-10339531D02*
X11522444Y-10310960D01*
X11522444Y-10310960D02*
X11512920Y-10263341D01*
X11512920Y-10263341D02*
X11512920Y-10225246D01*
X11512920Y-10225246D02*
X11522444Y-10177627D01*
X11522444Y-10177627D02*
X11531968Y-10149055D01*
X11531968Y-10149055D02*
X11541491Y-10130008D01*
X11541491Y-10130008D02*
X11560539Y-10101436D01*
X11560539Y-10101436D02*
X11570063Y-10091912D01*
X11731968Y-10187150D02*
X11731968Y-10320484D01*
X11684348Y-10110960D02*
X11636729Y-10253817D01*
X11636729Y-10253817D02*
X11760539Y-10253817D01*
X11989110Y-10320484D02*
X11989110Y-10120484D01*
X12074825Y-10320484D02*
X12074825Y-10215722D01*
X12074825Y-10215722D02*
X12065301Y-10196674D01*
X12065301Y-10196674D02*
X12046253Y-10187150D01*
X12046253Y-10187150D02*
X12017682Y-10187150D01*
X12017682Y-10187150D02*
X11998634Y-10196674D01*
X11998634Y-10196674D02*
X11989110Y-10206198D01*
X12198634Y-10320484D02*
X12179587Y-10310960D01*
X12179587Y-10310960D02*
X12170063Y-10301436D01*
X12170063Y-10301436D02*
X12160539Y-10282389D01*
X12160539Y-10282389D02*
X12160539Y-10225246D01*
X12160539Y-10225246D02*
X12170063Y-10206198D01*
X12170063Y-10206198D02*
X12179587Y-10196674D01*
X12179587Y-10196674D02*
X12198634Y-10187150D01*
X12198634Y-10187150D02*
X12227206Y-10187150D01*
X12227206Y-10187150D02*
X12246253Y-10196674D01*
X12246253Y-10196674D02*
X12255777Y-10206198D01*
X12255777Y-10206198D02*
X12265301Y-10225246D01*
X12265301Y-10225246D02*
X12265301Y-10282389D01*
X12265301Y-10282389D02*
X12255777Y-10301436D01*
X12255777Y-10301436D02*
X12246253Y-10310960D01*
X12246253Y-10310960D02*
X12227206Y-10320484D01*
X12227206Y-10320484D02*
X12198634Y-10320484D01*
X12379587Y-10320484D02*
X12360539Y-10310960D01*
X12360539Y-10310960D02*
X12351015Y-10291912D01*
X12351015Y-10291912D02*
X12351015Y-10120484D01*
X12531968Y-10310960D02*
X12512920Y-10320484D01*
X12512920Y-10320484D02*
X12474825Y-10320484D01*
X12474825Y-10320484D02*
X12455777Y-10310960D01*
X12455777Y-10310960D02*
X12446253Y-10291912D01*
X12446253Y-10291912D02*
X12446253Y-10215722D01*
X12446253Y-10215722D02*
X12455777Y-10196674D01*
X12455777Y-10196674D02*
X12474825Y-10187150D01*
X12474825Y-10187150D02*
X12512920Y-10187150D01*
X12512920Y-10187150D02*
X12531968Y-10196674D01*
X12531968Y-10196674D02*
X12541491Y-10215722D01*
X12541491Y-10215722D02*
X12541491Y-10234770D01*
X12541491Y-10234770D02*
X12446253Y-10253817D01*
X12617682Y-10310960D02*
X12636730Y-10320484D01*
X12636730Y-10320484D02*
X12674825Y-10320484D01*
X12674825Y-10320484D02*
X12693872Y-10310960D01*
X12693872Y-10310960D02*
X12703396Y-10291912D01*
X12703396Y-10291912D02*
X12703396Y-10282389D01*
X12703396Y-10282389D02*
X12693872Y-10263341D01*
X12693872Y-10263341D02*
X12674825Y-10253817D01*
X12674825Y-10253817D02*
X12646253Y-10253817D01*
X12646253Y-10253817D02*
X12627206Y-10244293D01*
X12627206Y-10244293D02*
X12617682Y-10225246D01*
X12617682Y-10225246D02*
X12617682Y-10215722D01*
X12617682Y-10215722D02*
X12627206Y-10196674D01*
X12627206Y-10196674D02*
X12646253Y-10187150D01*
X12646253Y-10187150D02*
X12674825Y-10187150D01*
X12674825Y-10187150D02*
X12693872Y-10196674D01*
X12770063Y-10396674D02*
X12779587Y-10387150D01*
X12779587Y-10387150D02*
X12798634Y-10358579D01*
X12798634Y-10358579D02*
X12808158Y-10339531D01*
X12808158Y-10339531D02*
X12817682Y-10310960D01*
X12817682Y-10310960D02*
X12827206Y-10263341D01*
X12827206Y-10263341D02*
X12827206Y-10225246D01*
X12827206Y-10225246D02*
X12817682Y-10177627D01*
X12817682Y-10177627D02*
X12808158Y-10149055D01*
X12808158Y-10149055D02*
X12798634Y-10130008D01*
X12798634Y-10130008D02*
X12779587Y-10101436D01*
X12779587Y-10101436D02*
X12770063Y-10091912D01*
M02*
