%TF.GenerationSoftware,KiCad,Pcbnew,9.0.2-9.0.2-0~ubuntu24.04.1*%
%TF.CreationDate,2026-05-25T11:48:44-04:00*%
%TF.ProjectId,sirius_v1,73697269-7573-45f7-9631-2e6b69636164,rev?*%
%TF.SameCoordinates,Original*%
%TF.FileFunction,Soldermask,Top*%
%TF.FilePolarity,Negative*%
%FSLAX46Y46*%
G04 Gerber Fmt 4.6, Leading zero omitted, Abs format (unit mm)*
G04 Created by KiCad (PCBNEW 9.0.2-9.0.2-0~ubuntu24.04.1) date 2026-05-25 11:48:44*
%MOMM*%
%LPD*%
G01*
G04 APERTURE LIST*
G04 Aperture macros list*
%AMRoundRect*
0 Rectangle with rounded corners*
0 $1 Rounding radius*
0 $2 $3 $4 $5 $6 $7 $8 $9 X,Y pos of 4 corners*
0 Add a 4 corners polygon primitive as box body*
4,1,4,$2,$3,$4,$5,$6,$7,$8,$9,$2,$3,0*
0 Add four circle primitives for the rounded corners*
1,1,$1+$1,$2,$3*
1,1,$1+$1,$4,$5*
1,1,$1+$1,$6,$7*
1,1,$1+$1,$8,$9*
0 Add four rect primitives between the rounded corners*
20,1,$1+$1,$2,$3,$4,$5,0*
20,1,$1+$1,$4,$5,$6,$7,0*
20,1,$1+$1,$6,$7,$8,$9,0*
20,1,$1+$1,$8,$9,$2,$3,0*%
%AMFreePoly0*
4,1,23,0.500000,-0.750000,0.000000,-0.750000,0.000000,-0.745722,-0.065263,-0.745722,-0.191342,-0.711940,-0.304381,-0.646677,-0.396677,-0.554381,-0.461940,-0.441342,-0.495722,-0.315263,-0.495722,-0.250000,-0.500000,-0.250000,-0.500000,0.250000,-0.495722,0.250000,-0.495722,0.315263,-0.461940,0.441342,-0.396677,0.554381,-0.304381,0.646677,-0.191342,0.711940,-0.065263,0.745722,0.000000,0.745722,
0.000000,0.750000,0.500000,0.750000,0.500000,-0.750000,0.500000,-0.750000,$1*%
%AMFreePoly1*
4,1,23,0.000000,0.745722,0.065263,0.745722,0.191342,0.711940,0.304381,0.646677,0.396677,0.554381,0.461940,0.441342,0.495722,0.315263,0.495722,0.250000,0.500000,0.250000,0.500000,-0.250000,0.495722,-0.250000,0.495722,-0.315263,0.461940,-0.441342,0.396677,-0.554381,0.304381,-0.646677,0.191342,-0.711940,0.065263,-0.745722,0.000000,-0.745722,0.000000,-0.750000,-0.500000,-0.750000,
-0.500000,0.750000,0.000000,0.750000,0.000000,0.745722,0.000000,0.745722,$1*%
G04 Aperture macros list end*
%ADD10FreePoly0,270.000000*%
%ADD11FreePoly1,270.000000*%
%ADD12FreePoly0,0.000000*%
%ADD13FreePoly1,0.000000*%
%ADD14RoundRect,0.218750X-0.218750X-0.256250X0.218750X-0.256250X0.218750X0.256250X-0.218750X0.256250X0*%
%ADD15RoundRect,0.200000X0.200000X0.275000X-0.200000X0.275000X-0.200000X-0.275000X0.200000X-0.275000X0*%
%ADD16RoundRect,0.200000X-0.200000X-0.275000X0.200000X-0.275000X0.200000X0.275000X-0.200000X0.275000X0*%
%ADD17RoundRect,0.150000X-0.150000X0.825000X-0.150000X-0.825000X0.150000X-0.825000X0.150000X0.825000X0*%
%ADD18RoundRect,0.250000X-1.000000X-0.650000X1.000000X-0.650000X1.000000X0.650000X-1.000000X0.650000X0*%
%ADD19RoundRect,0.200000X0.275000X-0.200000X0.275000X0.200000X-0.275000X0.200000X-0.275000X-0.200000X0*%
%ADD20RoundRect,0.243750X-0.243750X-0.456250X0.243750X-0.456250X0.243750X0.456250X-0.243750X0.456250X0*%
%ADD21RoundRect,0.150000X-0.587500X-0.150000X0.587500X-0.150000X0.587500X0.150000X-0.587500X0.150000X0*%
%ADD22O,1.700000X1.700000*%
%ADD23R,1.700000X1.700000*%
%ADD24RoundRect,0.100000X-0.100000X-0.575000X0.100000X-0.575000X0.100000X0.575000X-0.100000X0.575000X0*%
%ADD25O,0.890000X1.550000*%
%ADD26RoundRect,0.250000X-0.475000X-0.525000X0.475000X-0.525000X0.475000X0.525000X-0.475000X0.525000X0*%
%ADD27O,1.250000X0.950000*%
%ADD28RoundRect,0.250000X-0.500000X-0.525000X0.500000X-0.525000X0.500000X0.525000X-0.500000X0.525000X0*%
%ADD29RoundRect,0.200000X-0.275000X0.200000X-0.275000X-0.200000X0.275000X-0.200000X0.275000X0.200000X0*%
%ADD30RoundRect,0.225000X-0.250000X0.225000X-0.250000X-0.225000X0.250000X-0.225000X0.250000X0.225000X0*%
%ADD31RoundRect,0.225000X-0.225000X-0.250000X0.225000X-0.250000X0.225000X0.250000X-0.225000X0.250000X0*%
%ADD32RoundRect,0.100000X-0.100000X0.650000X-0.100000X-0.650000X0.100000X-0.650000X0.100000X0.650000X0*%
%ADD33RoundRect,0.150000X0.512500X0.150000X-0.512500X0.150000X-0.512500X-0.150000X0.512500X-0.150000X0*%
%ADD34RoundRect,0.250000X-0.250000X-0.475000X0.250000X-0.475000X0.250000X0.475000X-0.250000X0.475000X0*%
%ADD35RoundRect,0.150000X0.587500X0.150000X-0.587500X0.150000X-0.587500X-0.150000X0.587500X-0.150000X0*%
%ADD36RoundRect,0.250000X0.600000X0.750000X-0.600000X0.750000X-0.600000X-0.750000X0.600000X-0.750000X0*%
%ADD37O,1.700000X2.000000*%
%ADD38R,1.250000X0.900000*%
%ADD39RoundRect,0.225000X0.250000X-0.225000X0.250000X0.225000X-0.250000X0.225000X-0.250000X-0.225000X0*%
%ADD40R,0.900000X1.500000*%
%ADD41R,1.500000X0.900000*%
%ADD42R,4.200000X4.200000*%
%ADD43RoundRect,0.218750X0.256250X-0.218750X0.256250X0.218750X-0.256250X0.218750X-0.256250X-0.218750X0*%
%ADD44RoundRect,0.250000X-0.600000X-0.725000X0.600000X-0.725000X0.600000X0.725000X-0.600000X0.725000X0*%
%ADD45O,1.700000X1.950000*%
%ADD46RoundRect,0.250000X0.725000X-0.600000X0.725000X0.600000X-0.725000X0.600000X-0.725000X-0.600000X0*%
%ADD47O,1.950000X1.700000*%
%ADD48RoundRect,0.250000X0.625000X-0.375000X0.625000X0.375000X-0.625000X0.375000X-0.625000X-0.375000X0*%
%ADD49RoundRect,0.250000X0.600000X0.725000X-0.600000X0.725000X-0.600000X-0.725000X0.600000X-0.725000X0*%
%ADD50RoundRect,0.250000X0.475000X-0.250000X0.475000X0.250000X-0.475000X0.250000X-0.475000X-0.250000X0*%
%ADD51RoundRect,0.100000X-0.400000X0.400000X-0.400000X-0.400000X0.400000X-0.400000X0.400000X0.400000X0*%
%ADD52RoundRect,0.105000X-0.995000X0.420000X-0.995000X-0.420000X0.995000X-0.420000X0.995000X0.420000X0*%
%ADD53RoundRect,0.218750X0.218750X0.256250X-0.218750X0.256250X-0.218750X-0.256250X0.218750X-0.256250X0*%
%ADD54RoundRect,0.150000X-0.150000X0.587500X-0.150000X-0.587500X0.150000X-0.587500X0.150000X0.587500X0*%
G04 APERTURE END LIST*
D10*
%TO.C,JP5*%
X109950000Y-52350000D03*
D11*
X109950000Y-53650000D03*
%TD*%
D12*
%TO.C,JP4*%
X115150000Y-63000000D03*
D13*
X116450000Y-63000000D03*
%TD*%
D14*
%TO.C,D2*%
X107316310Y-61200000D03*
X108891310Y-61200000D03*
%TD*%
D15*
%TO.C,R39*%
X94300000Y-43200000D03*
X92650000Y-43200000D03*
%TD*%
D14*
%TO.C,D7*%
X131637500Y-31400000D03*
X133212500Y-31400000D03*
%TD*%
D16*
%TO.C,R23*%
X89812500Y-69800000D03*
X91462500Y-69800000D03*
%TD*%
D17*
%TO.C,U9*%
X138045000Y-67125000D03*
X136775000Y-67125000D03*
X135505000Y-67125000D03*
X134235000Y-67125000D03*
X132965000Y-67125000D03*
X131695000Y-67125000D03*
X130425000Y-67125000D03*
X129155000Y-67125000D03*
X129155000Y-72075000D03*
X130425000Y-72075000D03*
X131695000Y-72075000D03*
X132965000Y-72075000D03*
X134235000Y-72075000D03*
X135505000Y-72075000D03*
X136775000Y-72075000D03*
X138045000Y-72075000D03*
%TD*%
D18*
%TO.C,D9*%
X115300000Y-66000000D03*
X119300000Y-66000000D03*
%TD*%
D19*
%TO.C,R22*%
X144000000Y-69775000D03*
X144000000Y-68125000D03*
%TD*%
D20*
%TO.C,D15*%
X91162500Y-71700000D03*
X93037500Y-71700000D03*
%TD*%
D21*
%TO.C,Q4*%
X92700000Y-66100000D03*
X92700000Y-68000000D03*
X94575000Y-67050000D03*
%TD*%
D22*
%TO.C,J2*%
X113050000Y-54465000D03*
D23*
X113050000Y-51925000D03*
%TD*%
D24*
%TO.C,J12*%
X122900000Y-75600000D03*
X123550000Y-75600000D03*
X124200000Y-75600000D03*
X124850000Y-75600000D03*
X125500000Y-75600000D03*
D25*
X120700000Y-78300000D03*
D26*
X121175000Y-78300000D03*
D27*
X121700000Y-75600000D03*
D28*
X123200000Y-78300000D03*
X125200000Y-78300000D03*
D27*
X126700000Y-75600000D03*
D26*
X127225000Y-78300000D03*
D25*
X127700000Y-78300000D03*
%TD*%
D29*
%TO.C,R35*%
X93000000Y-39750000D03*
X93000000Y-41400000D03*
%TD*%
D30*
%TO.C,C9*%
X140600000Y-38525000D03*
X140600000Y-40075000D03*
%TD*%
D16*
%TO.C,R42*%
X92650000Y-44725000D03*
X94300000Y-44725000D03*
%TD*%
D19*
%TO.C,R25*%
X149450000Y-69575000D03*
X149450000Y-67925000D03*
%TD*%
D31*
%TO.C,C16*%
X150725000Y-40000000D03*
X152275000Y-40000000D03*
%TD*%
D32*
%TO.C,Q3*%
X147750000Y-67390000D03*
X147100000Y-67390000D03*
X146450000Y-67390000D03*
X146450000Y-70050000D03*
X147100000Y-70050000D03*
X147750000Y-70050000D03*
%TD*%
D33*
%TO.C,U6*%
X141175000Y-36700000D03*
X141175000Y-35750000D03*
X141175000Y-34800000D03*
X138900000Y-34800000D03*
X138900000Y-36700000D03*
%TD*%
D34*
%TO.C,C17*%
X150550000Y-42300000D03*
X152450000Y-42300000D03*
%TD*%
D14*
%TO.C,D1*%
X107316310Y-59600000D03*
X108891310Y-59600000D03*
%TD*%
%TO.C,D6*%
X140012500Y-31325000D03*
X141587500Y-31325000D03*
%TD*%
D35*
%TO.C,Q9*%
X90975000Y-45100000D03*
X90975000Y-43200000D03*
X89100000Y-44150000D03*
%TD*%
D33*
%TO.C,U5*%
X148537500Y-36650000D03*
X148537500Y-35700000D03*
X148537500Y-34750000D03*
X146262500Y-34750000D03*
X146262500Y-36650000D03*
%TD*%
%TO.C,U8*%
X132937500Y-36750000D03*
X132937500Y-35800000D03*
X132937500Y-34850000D03*
X130662500Y-34850000D03*
X130662500Y-36750000D03*
%TD*%
D30*
%TO.C,C11*%
X132300000Y-38625000D03*
X132300000Y-40175000D03*
%TD*%
D36*
%TO.C,J18*%
X99650000Y-77125000D03*
D37*
X97150000Y-77125000D03*
%TD*%
D15*
%TO.C,R12*%
X133225000Y-33000000D03*
X131575000Y-33000000D03*
%TD*%
D38*
%TO.C,SW2*%
X141775000Y-78750000D03*
X145625000Y-78750000D03*
X141775000Y-77250000D03*
X145625000Y-77250000D03*
%TD*%
D19*
%TO.C,R8*%
X116250000Y-57625000D03*
X116250000Y-55975000D03*
%TD*%
D30*
%TO.C,C7*%
X147400000Y-38525000D03*
X147400000Y-40075000D03*
%TD*%
D14*
%TO.C,D10*%
X129712500Y-58300000D03*
X131287500Y-58300000D03*
%TD*%
D39*
%TO.C,C13*%
X139700000Y-72075000D03*
X139700000Y-70525000D03*
%TD*%
D40*
%TO.C,U10*%
X152400000Y-45450000D03*
X151130000Y-45450000D03*
X149860000Y-45450000D03*
X148590000Y-45450000D03*
X147320000Y-45450000D03*
X146050000Y-45450000D03*
X144780000Y-45450000D03*
X143510000Y-45450000D03*
X142240000Y-45450000D03*
X140970000Y-45450000D03*
X139700000Y-45450000D03*
X138430000Y-45450000D03*
X137160000Y-45450000D03*
X135890000Y-45450000D03*
D41*
X134640000Y-48490000D03*
X134640000Y-49760000D03*
X134640000Y-51030000D03*
X134640000Y-52300000D03*
X134640000Y-53570000D03*
X134640000Y-54840000D03*
X134640000Y-56110000D03*
X134640000Y-57380000D03*
X134640000Y-58650000D03*
X134640000Y-59920000D03*
D40*
X135890000Y-62950000D03*
X137160000Y-62950000D03*
X138430000Y-62950000D03*
X139700000Y-62950000D03*
X140970000Y-62950000D03*
X142240000Y-62950000D03*
X143510000Y-62950000D03*
X144780000Y-62950000D03*
X146050000Y-62950000D03*
X147320000Y-62950000D03*
X148590000Y-62950000D03*
X149860000Y-62950000D03*
X151130000Y-62950000D03*
X152400000Y-62950000D03*
D42*
X145060000Y-53520000D03*
%TD*%
D43*
%TO.C,D4*%
X118100000Y-57600000D03*
X118100000Y-56025000D03*
%TD*%
D35*
%TO.C,Q7*%
X100987500Y-41637500D03*
X100987500Y-39737500D03*
X99112500Y-40687500D03*
%TD*%
D29*
%TO.C,R21*%
X90537500Y-66175000D03*
X90537500Y-67825000D03*
%TD*%
D44*
%TO.C,J7*%
X91700000Y-32900000D03*
D45*
X94200000Y-32900000D03*
X96700000Y-32900000D03*
X99200000Y-32900000D03*
%TD*%
D46*
%TO.C,J5*%
X82900000Y-56275000D03*
D47*
X82900000Y-53775000D03*
X82900000Y-51275000D03*
%TD*%
D15*
%TO.C,R24*%
X145750000Y-72700000D03*
X144100000Y-72700000D03*
%TD*%
D29*
%TO.C,R36*%
X102862500Y-39800000D03*
X102862500Y-41450000D03*
%TD*%
D30*
%TO.C,C12*%
X130700000Y-38625000D03*
X130700000Y-40175000D03*
%TD*%
%TO.C,C8*%
X145800000Y-38525000D03*
X145800000Y-40075000D03*
%TD*%
D15*
%TO.C,R27*%
X131200000Y-60000000D03*
X129550000Y-60000000D03*
%TD*%
D46*
%TO.C,J4*%
X82850000Y-45375000D03*
D47*
X82850000Y-42875000D03*
X82850000Y-40375000D03*
%TD*%
D16*
%TO.C,R43*%
X103087500Y-45050000D03*
X104737500Y-45050000D03*
%TD*%
D48*
%TO.C,F1*%
X120900000Y-71900000D03*
X120900000Y-69100000D03*
%TD*%
D49*
%TO.C,J10*%
X99600000Y-60000000D03*
D45*
X97100000Y-60000000D03*
X94600000Y-60000000D03*
X92100000Y-60000000D03*
%TD*%
D14*
%TO.C,D5*%
X147812500Y-31200000D03*
X149387500Y-31200000D03*
%TD*%
D16*
%TO.C,R1*%
X107178810Y-58000000D03*
X108828810Y-58000000D03*
%TD*%
D35*
%TO.C,Q10*%
X100962500Y-45125000D03*
X100962500Y-43225000D03*
X99087500Y-44175000D03*
%TD*%
D30*
%TO.C,C10*%
X139000000Y-38525000D03*
X139000000Y-40075000D03*
%TD*%
D36*
%TO.C,J19*%
X91250000Y-77125000D03*
D37*
X88750000Y-77125000D03*
%TD*%
D35*
%TO.C,Q6*%
X90987500Y-41637500D03*
X90987500Y-39737500D03*
X89112500Y-40687500D03*
%TD*%
D36*
%TO.C,J1*%
X108050000Y-77125000D03*
D37*
X105550000Y-77125000D03*
%TD*%
D50*
%TO.C,C6*%
X114800000Y-70650000D03*
X114800000Y-68750000D03*
%TD*%
D31*
%TO.C,C14*%
X144150000Y-74600000D03*
X145700000Y-74600000D03*
%TD*%
D36*
%TO.C,J3*%
X116450000Y-77175000D03*
D37*
X113950000Y-77175000D03*
%TD*%
D29*
%TO.C,R14*%
X121800000Y-65475000D03*
X121800000Y-67125000D03*
%TD*%
D15*
%TO.C,R40*%
X104687500Y-43475000D03*
X103037500Y-43475000D03*
%TD*%
D51*
%TO.C,J17*%
X121750000Y-34200000D03*
D52*
X120250000Y-35675000D03*
D51*
X118750000Y-34200000D03*
D52*
X120250000Y-32725000D03*
%TD*%
D16*
%TO.C,R10*%
X147675000Y-32900000D03*
X149325000Y-32900000D03*
%TD*%
D31*
%TO.C,C15*%
X150800000Y-74600000D03*
X152350000Y-74600000D03*
%TD*%
D16*
%TO.C,R11*%
X139975000Y-32900000D03*
X141625000Y-32900000D03*
%TD*%
D29*
%TO.C,R15*%
X88450000Y-52100000D03*
X88450000Y-53750000D03*
%TD*%
D38*
%TO.C,SW3*%
X148775000Y-78750000D03*
X152625000Y-78750000D03*
X148775000Y-77250000D03*
X152625000Y-77250000D03*
%TD*%
D46*
%TO.C,J6*%
X82875000Y-69700000D03*
D47*
X82875000Y-67200000D03*
X82875000Y-64700000D03*
X82875000Y-62200000D03*
%TD*%
D53*
%TO.C,D12*%
X94425000Y-69800000D03*
X92850000Y-69800000D03*
%TD*%
D54*
%TO.C,Q2*%
X118650000Y-68962500D03*
X116750000Y-68962500D03*
X117700000Y-70837500D03*
%TD*%
D15*
%TO.C,R26*%
X152500000Y-72700000D03*
X150850000Y-72700000D03*
%TD*%
M02*
