G04 #@! TF.GenerationSoftware,KiCad,Pcbnew,8.0.9-8.0.9-0~ubuntu20.04.1*
G04 #@! TF.CreationDate,2025-09-01T23:09:40-04:00*
G04 #@! TF.ProjectId,sirius_v1,73697269-7573-45f7-9631-2e6b69636164,rev?*
G04 #@! TF.SameCoordinates,Original*
G04 #@! TF.FileFunction,Legend,Bot*
G04 #@! TF.FilePolarity,Positive*
%FSLAX46Y46*%
G04 Gerber Fmt 4.6, Leading zero omitted, Abs format (unit mm)*
G04 Created by KiCad (PCBNEW 8.0.9-8.0.9-0~ubuntu20.04.1) date 2025-09-01 23:09:40*
%MOMM*%
%LPD*%
G01*
G04 APERTURE LIST*
G04 Aperture macros list*
%AMRoundRect*
0 Rectangle with rounded corners*
0 $1 Rounding radius*
0 $2 $3 $4 $5 $6 $7 $8 $9 X,Y pos of 4 corners*
0 Add a 4 corners polygon primitive as box body*
4,1,4,$2,$3,$4,$5,$6,$7,$8,$9,$2,$3,0*
0 Add four circle primitives for the rounded corners*
1,1,$1+$1,$2,$3*
1,1,$1+$1,$4,$5*
1,1,$1+$1,$6,$7*
1,1,$1+$1,$8,$9*
0 Add four rect primitives between the rounded corners*
20,1,$1+$1,$2,$3,$4,$5,0*
20,1,$1+$1,$4,$5,$6,$7,0*
20,1,$1+$1,$6,$7,$8,$9,0*
20,1,$1+$1,$8,$9,$2,$3,0*%
%AMFreePoly0*
4,1,19,0.550000,-0.750000,0.000000,-0.750000,0.000000,-0.744911,-0.071157,-0.744911,-0.207708,-0.704816,-0.327430,-0.627875,-0.420627,-0.520320,-0.479746,-0.390866,-0.500000,-0.250000,-0.500000,0.250000,-0.479746,0.390866,-0.420627,0.520320,-0.327430,0.627875,-0.207708,0.704816,-0.071157,0.744911,0.000000,0.744911,0.000000,0.750000,0.550000,0.750000,0.550000,-0.750000,0.550000,-0.750000,
$1*%
%AMFreePoly1*
4,1,19,0.000000,0.744911,0.071157,0.744911,0.207708,0.704816,0.327430,0.627875,0.420627,0.520320,0.479746,0.390866,0.500000,0.250000,0.500000,-0.250000,0.479746,-0.390866,0.420627,-0.520320,0.327430,-0.627875,0.207708,-0.704816,0.071157,-0.744911,0.000000,-0.744911,0.000000,-0.750000,-0.550000,-0.750000,-0.550000,0.750000,0.000000,0.750000,0.000000,0.744911,0.000000,0.744911,
$1*%
%AMFreePoly2*
4,1,19,0.500000,-0.750000,0.000000,-0.750000,0.000000,-0.744911,-0.071157,-0.744911,-0.207708,-0.704816,-0.327430,-0.627875,-0.420627,-0.520320,-0.479746,-0.390866,-0.500000,-0.250000,-0.500000,0.250000,-0.479746,0.390866,-0.420627,0.520320,-0.327430,0.627875,-0.207708,0.704816,-0.071157,0.744911,0.000000,0.744911,0.000000,0.750000,0.500000,0.750000,0.500000,-0.750000,0.500000,-0.750000,
$1*%
%AMFreePoly3*
4,1,19,0.000000,0.744911,0.071157,0.744911,0.207708,0.704816,0.327430,0.627875,0.420627,0.520320,0.479746,0.390866,0.500000,0.250000,0.500000,-0.250000,0.479746,-0.390866,0.420627,-0.520320,0.327430,-0.627875,0.207708,-0.704816,0.071157,-0.744911,0.000000,-0.744911,0.000000,-0.750000,-0.500000,-0.750000,-0.500000,0.750000,0.000000,0.750000,0.000000,0.744911,0.000000,0.744911,
$1*%
G04 Aperture macros list end*
%ADD10C,0.298607*%
%ADD11C,0.150000*%
%ADD12C,0.100000*%
%ADD13C,0.000000*%
%ADD14C,0.120000*%
%ADD15C,0.010000*%
%ADD16R,1.700000X1.700000*%
%ADD17O,1.700000X1.700000*%
%ADD18O,0.890000X1.550000*%
%ADD19O,1.250000X0.950000*%
%ADD20RoundRect,0.250000X0.600000X0.750000X-0.600000X0.750000X-0.600000X-0.750000X0.600000X-0.750000X0*%
%ADD21O,1.700000X2.000000*%
%ADD22RoundRect,0.250000X-0.600000X-0.725000X0.600000X-0.725000X0.600000X0.725000X-0.600000X0.725000X0*%
%ADD23O,1.700000X1.950000*%
%ADD24RoundRect,0.250000X0.725000X-0.600000X0.725000X0.600000X-0.725000X0.600000X-0.725000X-0.600000X0*%
%ADD25O,1.950000X1.700000*%
%ADD26RoundRect,0.250000X0.600000X0.725000X-0.600000X0.725000X-0.600000X-0.725000X0.600000X-0.725000X0*%
%ADD27RoundRect,0.200000X0.275000X-0.200000X0.275000X0.200000X-0.275000X0.200000X-0.275000X-0.200000X0*%
%ADD28RoundRect,0.200000X0.200000X0.275000X-0.200000X0.275000X-0.200000X-0.275000X0.200000X-0.275000X0*%
%ADD29RoundRect,0.175000X0.175000X0.625000X-0.175000X0.625000X-0.175000X-0.625000X0.175000X-0.625000X0*%
%ADD30RoundRect,0.300000X0.300000X0.800000X-0.300000X0.800000X-0.300000X-0.800000X0.300000X-0.800000X0*%
%ADD31RoundRect,0.300000X0.300000X0.400000X-0.300000X0.400000X-0.300000X-0.400000X0.300000X-0.400000X0*%
%ADD32RoundRect,0.350000X0.450000X0.350000X-0.450000X0.350000X-0.450000X-0.350000X0.450000X-0.350000X0*%
%ADD33RoundRect,0.200000X-0.275000X0.200000X-0.275000X-0.200000X0.275000X-0.200000X0.275000X0.200000X0*%
%ADD34FreePoly0,180.000000*%
%ADD35R,1.000000X1.500000*%
%ADD36FreePoly1,180.000000*%
%ADD37R,1.500000X0.650000*%
%ADD38R,2.700000X3.600000*%
%ADD39RoundRect,0.200000X-0.200000X-0.275000X0.200000X-0.275000X0.200000X0.275000X-0.200000X0.275000X0*%
%ADD40RoundRect,0.225000X-0.225000X-0.250000X0.225000X-0.250000X0.225000X0.250000X-0.225000X0.250000X0*%
%ADD41RoundRect,0.225000X-0.250000X0.225000X-0.250000X-0.225000X0.250000X-0.225000X0.250000X0.225000X0*%
%ADD42FreePoly2,0.000000*%
%ADD43FreePoly3,0.000000*%
%ADD44FreePoly2,270.000000*%
%ADD45FreePoly3,270.000000*%
%ADD46RoundRect,0.317500X-1.157500X-0.317500X1.157500X-0.317500X1.157500X0.317500X-1.157500X0.317500X0*%
%ADD47RoundRect,0.250000X-0.475000X0.250000X-0.475000X-0.250000X0.475000X-0.250000X0.475000X0.250000X0*%
%ADD48RoundRect,0.150000X0.512500X0.150000X-0.512500X0.150000X-0.512500X-0.150000X0.512500X-0.150000X0*%
%ADD49FreePoly0,0.000000*%
%ADD50FreePoly1,0.000000*%
%ADD51RoundRect,0.150000X-0.150000X0.587500X-0.150000X-0.587500X0.150000X-0.587500X0.150000X0.587500X0*%
%ADD52RoundRect,0.250000X0.650000X-1.000000X0.650000X1.000000X-0.650000X1.000000X-0.650000X-1.000000X0*%
%ADD53R,3.300000X3.500000*%
%ADD54C,10.200000*%
%ADD55R,1.250000X0.900000*%
%ADD56RoundRect,0.250000X-0.250000X-0.475000X0.250000X-0.475000X0.250000X0.475000X-0.250000X0.475000X0*%
%ADD57R,0.500000X0.800000*%
%ADD58RoundRect,0.250000X0.250000X0.475000X-0.250000X0.475000X-0.250000X-0.475000X0.250000X-0.475000X0*%
%ADD59RoundRect,0.150000X-0.512500X-0.150000X0.512500X-0.150000X0.512500X0.150000X-0.512500X0.150000X0*%
%ADD60RoundRect,0.250000X-0.650000X1.000000X-0.650000X-1.000000X0.650000X-1.000000X0.650000X1.000000X0*%
%ADD61FreePoly2,180.000000*%
%ADD62FreePoly3,180.000000*%
%ADD63R,3.500000X2.950000*%
%ADD64RoundRect,0.150000X0.587500X0.150000X-0.587500X0.150000X-0.587500X-0.150000X0.587500X-0.150000X0*%
G04 APERTURE END LIST*
D10*
X127249303Y-61350000D02*
G75*
G02*
X126950697Y-61350000I-149303J0D01*
G01*
X126950697Y-61350000D02*
G75*
G02*
X127249303Y-61350000I149303J0D01*
G01*
D11*
X147954057Y-68450000D02*
G75*
G02*
X147795943Y-68450000I-79057J0D01*
G01*
X147795943Y-68450000D02*
G75*
G02*
X147954057Y-68450000I79057J0D01*
G01*
D10*
X112099303Y-57000000D02*
G75*
G02*
X111800697Y-57000000I-149303J0D01*
G01*
X111800697Y-57000000D02*
G75*
G02*
X112099303Y-57000000I149303J0D01*
G01*
D11*
X88513483Y-69774844D02*
X87894436Y-69774844D01*
X87894436Y-69774844D02*
X88227769Y-70155796D01*
X88227769Y-70155796D02*
X88084912Y-70155796D01*
X88084912Y-70155796D02*
X87989674Y-70203415D01*
X87989674Y-70203415D02*
X87942055Y-70251034D01*
X87942055Y-70251034D02*
X87894436Y-70346272D01*
X87894436Y-70346272D02*
X87894436Y-70584367D01*
X87894436Y-70584367D02*
X87942055Y-70679605D01*
X87942055Y-70679605D02*
X87989674Y-70727225D01*
X87989674Y-70727225D02*
X88084912Y-70774844D01*
X88084912Y-70774844D02*
X88370626Y-70774844D01*
X88370626Y-70774844D02*
X88465864Y-70727225D01*
X88465864Y-70727225D02*
X88513483Y-70679605D01*
X87465864Y-70679605D02*
X87418245Y-70727225D01*
X87418245Y-70727225D02*
X87465864Y-70774844D01*
X87465864Y-70774844D02*
X87513483Y-70727225D01*
X87513483Y-70727225D02*
X87465864Y-70679605D01*
X87465864Y-70679605D02*
X87465864Y-70774844D01*
X87084912Y-69774844D02*
X86465865Y-69774844D01*
X86465865Y-69774844D02*
X86799198Y-70155796D01*
X86799198Y-70155796D02*
X86656341Y-70155796D01*
X86656341Y-70155796D02*
X86561103Y-70203415D01*
X86561103Y-70203415D02*
X86513484Y-70251034D01*
X86513484Y-70251034D02*
X86465865Y-70346272D01*
X86465865Y-70346272D02*
X86465865Y-70584367D01*
X86465865Y-70584367D02*
X86513484Y-70679605D01*
X86513484Y-70679605D02*
X86561103Y-70727225D01*
X86561103Y-70727225D02*
X86656341Y-70774844D01*
X86656341Y-70774844D02*
X86942055Y-70774844D01*
X86942055Y-70774844D02*
X87037293Y-70727225D01*
X87037293Y-70727225D02*
X87084912Y-70679605D01*
X86132531Y-70108177D02*
X85894436Y-70774844D01*
X85894436Y-70774844D02*
X85656341Y-70108177D01*
X93487030Y-69469819D02*
X93963220Y-69469819D01*
X93963220Y-69469819D02*
X94010839Y-69946009D01*
X94010839Y-69946009D02*
X93963220Y-69898390D01*
X93963220Y-69898390D02*
X93867982Y-69850771D01*
X93867982Y-69850771D02*
X93629887Y-69850771D01*
X93629887Y-69850771D02*
X93534649Y-69898390D01*
X93534649Y-69898390D02*
X93487030Y-69946009D01*
X93487030Y-69946009D02*
X93439411Y-70041247D01*
X93439411Y-70041247D02*
X93439411Y-70279342D01*
X93439411Y-70279342D02*
X93487030Y-70374580D01*
X93487030Y-70374580D02*
X93534649Y-70422200D01*
X93534649Y-70422200D02*
X93629887Y-70469819D01*
X93629887Y-70469819D02*
X93867982Y-70469819D01*
X93867982Y-70469819D02*
X93963220Y-70422200D01*
X93963220Y-70422200D02*
X94010839Y-70374580D01*
X93106077Y-69803152D02*
X92867982Y-70469819D01*
X92867982Y-70469819D02*
X92629887Y-69803152D01*
X145674819Y-52697142D02*
X145198628Y-52363809D01*
X145674819Y-52125714D02*
X144674819Y-52125714D01*
X144674819Y-52125714D02*
X144674819Y-52506666D01*
X144674819Y-52506666D02*
X144722438Y-52601904D01*
X144722438Y-52601904D02*
X144770057Y-52649523D01*
X144770057Y-52649523D02*
X144865295Y-52697142D01*
X144865295Y-52697142D02*
X145008152Y-52697142D01*
X145008152Y-52697142D02*
X145103390Y-52649523D01*
X145103390Y-52649523D02*
X145151009Y-52601904D01*
X145151009Y-52601904D02*
X145198628Y-52506666D01*
X145198628Y-52506666D02*
X145198628Y-52125714D01*
X144674819Y-53030476D02*
X144674819Y-53649523D01*
X144674819Y-53649523D02*
X145055771Y-53316190D01*
X145055771Y-53316190D02*
X145055771Y-53459047D01*
X145055771Y-53459047D02*
X145103390Y-53554285D01*
X145103390Y-53554285D02*
X145151009Y-53601904D01*
X145151009Y-53601904D02*
X145246247Y-53649523D01*
X145246247Y-53649523D02*
X145484342Y-53649523D01*
X145484342Y-53649523D02*
X145579580Y-53601904D01*
X145579580Y-53601904D02*
X145627200Y-53554285D01*
X145627200Y-53554285D02*
X145674819Y-53459047D01*
X145674819Y-53459047D02*
X145674819Y-53173333D01*
X145674819Y-53173333D02*
X145627200Y-53078095D01*
X145627200Y-53078095D02*
X145579580Y-53030476D01*
X144770057Y-54030476D02*
X144722438Y-54078095D01*
X144722438Y-54078095D02*
X144674819Y-54173333D01*
X144674819Y-54173333D02*
X144674819Y-54411428D01*
X144674819Y-54411428D02*
X144722438Y-54506666D01*
X144722438Y-54506666D02*
X144770057Y-54554285D01*
X144770057Y-54554285D02*
X144865295Y-54601904D01*
X144865295Y-54601904D02*
X144960533Y-54601904D01*
X144960533Y-54601904D02*
X145103390Y-54554285D01*
X145103390Y-54554285D02*
X145674819Y-53982857D01*
X145674819Y-53982857D02*
X145674819Y-54601904D01*
X144074819Y-52997142D02*
X143598628Y-52663809D01*
X144074819Y-52425714D02*
X143074819Y-52425714D01*
X143074819Y-52425714D02*
X143074819Y-52806666D01*
X143074819Y-52806666D02*
X143122438Y-52901904D01*
X143122438Y-52901904D02*
X143170057Y-52949523D01*
X143170057Y-52949523D02*
X143265295Y-52997142D01*
X143265295Y-52997142D02*
X143408152Y-52997142D01*
X143408152Y-52997142D02*
X143503390Y-52949523D01*
X143503390Y-52949523D02*
X143551009Y-52901904D01*
X143551009Y-52901904D02*
X143598628Y-52806666D01*
X143598628Y-52806666D02*
X143598628Y-52425714D01*
X143074819Y-53330476D02*
X143074819Y-53949523D01*
X143074819Y-53949523D02*
X143455771Y-53616190D01*
X143455771Y-53616190D02*
X143455771Y-53759047D01*
X143455771Y-53759047D02*
X143503390Y-53854285D01*
X143503390Y-53854285D02*
X143551009Y-53901904D01*
X143551009Y-53901904D02*
X143646247Y-53949523D01*
X143646247Y-53949523D02*
X143884342Y-53949523D01*
X143884342Y-53949523D02*
X143979580Y-53901904D01*
X143979580Y-53901904D02*
X144027200Y-53854285D01*
X144027200Y-53854285D02*
X144074819Y-53759047D01*
X144074819Y-53759047D02*
X144074819Y-53473333D01*
X144074819Y-53473333D02*
X144027200Y-53378095D01*
X144027200Y-53378095D02*
X143979580Y-53330476D01*
X144074819Y-54901904D02*
X144074819Y-54330476D01*
X144074819Y-54616190D02*
X143074819Y-54616190D01*
X143074819Y-54616190D02*
X143217676Y-54520952D01*
X143217676Y-54520952D02*
X143312914Y-54425714D01*
X143312914Y-54425714D02*
X143360533Y-54330476D01*
X131166666Y-55654819D02*
X131499999Y-55178628D01*
X131738094Y-55654819D02*
X131738094Y-54654819D01*
X131738094Y-54654819D02*
X131357142Y-54654819D01*
X131357142Y-54654819D02*
X131261904Y-54702438D01*
X131261904Y-54702438D02*
X131214285Y-54750057D01*
X131214285Y-54750057D02*
X131166666Y-54845295D01*
X131166666Y-54845295D02*
X131166666Y-54988152D01*
X131166666Y-54988152D02*
X131214285Y-55083390D01*
X131214285Y-55083390D02*
X131261904Y-55131009D01*
X131261904Y-55131009D02*
X131357142Y-55178628D01*
X131357142Y-55178628D02*
X131738094Y-55178628D01*
X130261904Y-54654819D02*
X130738094Y-54654819D01*
X130738094Y-54654819D02*
X130785713Y-55131009D01*
X130785713Y-55131009D02*
X130738094Y-55083390D01*
X130738094Y-55083390D02*
X130642856Y-55035771D01*
X130642856Y-55035771D02*
X130404761Y-55035771D01*
X130404761Y-55035771D02*
X130309523Y-55083390D01*
X130309523Y-55083390D02*
X130261904Y-55131009D01*
X130261904Y-55131009D02*
X130214285Y-55226247D01*
X130214285Y-55226247D02*
X130214285Y-55464342D01*
X130214285Y-55464342D02*
X130261904Y-55559580D01*
X130261904Y-55559580D02*
X130309523Y-55607200D01*
X130309523Y-55607200D02*
X130404761Y-55654819D01*
X130404761Y-55654819D02*
X130642856Y-55654819D01*
X130642856Y-55654819D02*
X130738094Y-55607200D01*
X130738094Y-55607200D02*
X130785713Y-55559580D01*
D12*
X152689523Y-48657419D02*
X152689523Y-49371704D01*
X152689523Y-49371704D02*
X152737142Y-49514561D01*
X152737142Y-49514561D02*
X152832380Y-49609800D01*
X152832380Y-49609800D02*
X152975237Y-49657419D01*
X152975237Y-49657419D02*
X153070475Y-49657419D01*
X151689523Y-49657419D02*
X152260951Y-49657419D01*
X151975237Y-49657419D02*
X151975237Y-48657419D01*
X151975237Y-48657419D02*
X152070475Y-48800276D01*
X152070475Y-48800276D02*
X152165713Y-48895514D01*
X152165713Y-48895514D02*
X152260951Y-48943133D01*
X150784761Y-48657419D02*
X151260951Y-48657419D01*
X151260951Y-48657419D02*
X151308570Y-49133609D01*
X151308570Y-49133609D02*
X151260951Y-49085990D01*
X151260951Y-49085990D02*
X151165713Y-49038371D01*
X151165713Y-49038371D02*
X150927618Y-49038371D01*
X150927618Y-49038371D02*
X150832380Y-49085990D01*
X150832380Y-49085990D02*
X150784761Y-49133609D01*
X150784761Y-49133609D02*
X150737142Y-49228847D01*
X150737142Y-49228847D02*
X150737142Y-49466942D01*
X150737142Y-49466942D02*
X150784761Y-49562180D01*
X150784761Y-49562180D02*
X150832380Y-49609800D01*
X150832380Y-49609800D02*
X150927618Y-49657419D01*
X150927618Y-49657419D02*
X151165713Y-49657419D01*
X151165713Y-49657419D02*
X151260951Y-49609800D01*
X151260951Y-49609800D02*
X151308570Y-49562180D01*
D11*
X101854819Y-73833333D02*
X101378628Y-73500000D01*
X101854819Y-73261905D02*
X100854819Y-73261905D01*
X100854819Y-73261905D02*
X100854819Y-73642857D01*
X100854819Y-73642857D02*
X100902438Y-73738095D01*
X100902438Y-73738095D02*
X100950057Y-73785714D01*
X100950057Y-73785714D02*
X101045295Y-73833333D01*
X101045295Y-73833333D02*
X101188152Y-73833333D01*
X101188152Y-73833333D02*
X101283390Y-73785714D01*
X101283390Y-73785714D02*
X101331009Y-73738095D01*
X101331009Y-73738095D02*
X101378628Y-73642857D01*
X101378628Y-73642857D02*
X101378628Y-73261905D01*
X100854819Y-74166667D02*
X100854819Y-74833333D01*
X100854819Y-74833333D02*
X101854819Y-74404762D01*
X104166666Y-71554819D02*
X104499999Y-71078628D01*
X104738094Y-71554819D02*
X104738094Y-70554819D01*
X104738094Y-70554819D02*
X104357142Y-70554819D01*
X104357142Y-70554819D02*
X104261904Y-70602438D01*
X104261904Y-70602438D02*
X104214285Y-70650057D01*
X104214285Y-70650057D02*
X104166666Y-70745295D01*
X104166666Y-70745295D02*
X104166666Y-70888152D01*
X104166666Y-70888152D02*
X104214285Y-70983390D01*
X104214285Y-70983390D02*
X104261904Y-71031009D01*
X104261904Y-71031009D02*
X104357142Y-71078628D01*
X104357142Y-71078628D02*
X104738094Y-71078628D01*
X103309523Y-70888152D02*
X103309523Y-71554819D01*
X103547618Y-70507200D02*
X103785713Y-71221485D01*
X103785713Y-71221485D02*
X103166666Y-71221485D01*
X91433333Y-69354819D02*
X91433333Y-70069104D01*
X91433333Y-70069104D02*
X91480952Y-70211961D01*
X91480952Y-70211961D02*
X91576190Y-70307200D01*
X91576190Y-70307200D02*
X91719047Y-70354819D01*
X91719047Y-70354819D02*
X91814285Y-70354819D01*
X90957142Y-70354819D02*
X90957142Y-69354819D01*
X90957142Y-69354819D02*
X90576190Y-69354819D01*
X90576190Y-69354819D02*
X90480952Y-69402438D01*
X90480952Y-69402438D02*
X90433333Y-69450057D01*
X90433333Y-69450057D02*
X90385714Y-69545295D01*
X90385714Y-69545295D02*
X90385714Y-69688152D01*
X90385714Y-69688152D02*
X90433333Y-69783390D01*
X90433333Y-69783390D02*
X90480952Y-69831009D01*
X90480952Y-69831009D02*
X90576190Y-69878628D01*
X90576190Y-69878628D02*
X90957142Y-69878628D01*
X89433333Y-70354819D02*
X90004761Y-70354819D01*
X89719047Y-70354819D02*
X89719047Y-69354819D01*
X89719047Y-69354819D02*
X89814285Y-69497676D01*
X89814285Y-69497676D02*
X89909523Y-69592914D01*
X89909523Y-69592914D02*
X90004761Y-69640533D01*
X108861904Y-55754819D02*
X108861904Y-56564342D01*
X108861904Y-56564342D02*
X108814285Y-56659580D01*
X108814285Y-56659580D02*
X108766666Y-56707200D01*
X108766666Y-56707200D02*
X108671428Y-56754819D01*
X108671428Y-56754819D02*
X108480952Y-56754819D01*
X108480952Y-56754819D02*
X108385714Y-56707200D01*
X108385714Y-56707200D02*
X108338095Y-56659580D01*
X108338095Y-56659580D02*
X108290476Y-56564342D01*
X108290476Y-56564342D02*
X108290476Y-55754819D01*
X107861904Y-55850057D02*
X107814285Y-55802438D01*
X107814285Y-55802438D02*
X107719047Y-55754819D01*
X107719047Y-55754819D02*
X107480952Y-55754819D01*
X107480952Y-55754819D02*
X107385714Y-55802438D01*
X107385714Y-55802438D02*
X107338095Y-55850057D01*
X107338095Y-55850057D02*
X107290476Y-55945295D01*
X107290476Y-55945295D02*
X107290476Y-56040533D01*
X107290476Y-56040533D02*
X107338095Y-56183390D01*
X107338095Y-56183390D02*
X107909523Y-56754819D01*
X107909523Y-56754819D02*
X107290476Y-56754819D01*
X107179819Y-34407142D02*
X106703628Y-34073809D01*
X107179819Y-33835714D02*
X106179819Y-33835714D01*
X106179819Y-33835714D02*
X106179819Y-34216666D01*
X106179819Y-34216666D02*
X106227438Y-34311904D01*
X106227438Y-34311904D02*
X106275057Y-34359523D01*
X106275057Y-34359523D02*
X106370295Y-34407142D01*
X106370295Y-34407142D02*
X106513152Y-34407142D01*
X106513152Y-34407142D02*
X106608390Y-34359523D01*
X106608390Y-34359523D02*
X106656009Y-34311904D01*
X106656009Y-34311904D02*
X106703628Y-34216666D01*
X106703628Y-34216666D02*
X106703628Y-33835714D01*
X106179819Y-34740476D02*
X106179819Y-35359523D01*
X106179819Y-35359523D02*
X106560771Y-35026190D01*
X106560771Y-35026190D02*
X106560771Y-35169047D01*
X106560771Y-35169047D02*
X106608390Y-35264285D01*
X106608390Y-35264285D02*
X106656009Y-35311904D01*
X106656009Y-35311904D02*
X106751247Y-35359523D01*
X106751247Y-35359523D02*
X106989342Y-35359523D01*
X106989342Y-35359523D02*
X107084580Y-35311904D01*
X107084580Y-35311904D02*
X107132200Y-35264285D01*
X107132200Y-35264285D02*
X107179819Y-35169047D01*
X107179819Y-35169047D02*
X107179819Y-34883333D01*
X107179819Y-34883333D02*
X107132200Y-34788095D01*
X107132200Y-34788095D02*
X107084580Y-34740476D01*
X106179819Y-35692857D02*
X106179819Y-36359523D01*
X106179819Y-36359523D02*
X107179819Y-35930952D01*
X154642857Y-66604819D02*
X154976190Y-66128628D01*
X155214285Y-66604819D02*
X155214285Y-65604819D01*
X155214285Y-65604819D02*
X154833333Y-65604819D01*
X154833333Y-65604819D02*
X154738095Y-65652438D01*
X154738095Y-65652438D02*
X154690476Y-65700057D01*
X154690476Y-65700057D02*
X154642857Y-65795295D01*
X154642857Y-65795295D02*
X154642857Y-65938152D01*
X154642857Y-65938152D02*
X154690476Y-66033390D01*
X154690476Y-66033390D02*
X154738095Y-66081009D01*
X154738095Y-66081009D02*
X154833333Y-66128628D01*
X154833333Y-66128628D02*
X155214285Y-66128628D01*
X154261904Y-65700057D02*
X154214285Y-65652438D01*
X154214285Y-65652438D02*
X154119047Y-65604819D01*
X154119047Y-65604819D02*
X153880952Y-65604819D01*
X153880952Y-65604819D02*
X153785714Y-65652438D01*
X153785714Y-65652438D02*
X153738095Y-65700057D01*
X153738095Y-65700057D02*
X153690476Y-65795295D01*
X153690476Y-65795295D02*
X153690476Y-65890533D01*
X153690476Y-65890533D02*
X153738095Y-66033390D01*
X153738095Y-66033390D02*
X154309523Y-66604819D01*
X154309523Y-66604819D02*
X153690476Y-66604819D01*
X153214285Y-66604819D02*
X153023809Y-66604819D01*
X153023809Y-66604819D02*
X152928571Y-66557200D01*
X152928571Y-66557200D02*
X152880952Y-66509580D01*
X152880952Y-66509580D02*
X152785714Y-66366723D01*
X152785714Y-66366723D02*
X152738095Y-66176247D01*
X152738095Y-66176247D02*
X152738095Y-65795295D01*
X152738095Y-65795295D02*
X152785714Y-65700057D01*
X152785714Y-65700057D02*
X152833333Y-65652438D01*
X152833333Y-65652438D02*
X152928571Y-65604819D01*
X152928571Y-65604819D02*
X153119047Y-65604819D01*
X153119047Y-65604819D02*
X153214285Y-65652438D01*
X153214285Y-65652438D02*
X153261904Y-65700057D01*
X153261904Y-65700057D02*
X153309523Y-65795295D01*
X153309523Y-65795295D02*
X153309523Y-66033390D01*
X153309523Y-66033390D02*
X153261904Y-66128628D01*
X153261904Y-66128628D02*
X153214285Y-66176247D01*
X153214285Y-66176247D02*
X153119047Y-66223866D01*
X153119047Y-66223866D02*
X152928571Y-66223866D01*
X152928571Y-66223866D02*
X152833333Y-66176247D01*
X152833333Y-66176247D02*
X152785714Y-66128628D01*
X152785714Y-66128628D02*
X152738095Y-66033390D01*
X150154819Y-75932142D02*
X149678628Y-75598809D01*
X150154819Y-75360714D02*
X149154819Y-75360714D01*
X149154819Y-75360714D02*
X149154819Y-75741666D01*
X149154819Y-75741666D02*
X149202438Y-75836904D01*
X149202438Y-75836904D02*
X149250057Y-75884523D01*
X149250057Y-75884523D02*
X149345295Y-75932142D01*
X149345295Y-75932142D02*
X149488152Y-75932142D01*
X149488152Y-75932142D02*
X149583390Y-75884523D01*
X149583390Y-75884523D02*
X149631009Y-75836904D01*
X149631009Y-75836904D02*
X149678628Y-75741666D01*
X149678628Y-75741666D02*
X149678628Y-75360714D01*
X149154819Y-76265476D02*
X149154819Y-76884523D01*
X149154819Y-76884523D02*
X149535771Y-76551190D01*
X149535771Y-76551190D02*
X149535771Y-76694047D01*
X149535771Y-76694047D02*
X149583390Y-76789285D01*
X149583390Y-76789285D02*
X149631009Y-76836904D01*
X149631009Y-76836904D02*
X149726247Y-76884523D01*
X149726247Y-76884523D02*
X149964342Y-76884523D01*
X149964342Y-76884523D02*
X150059580Y-76836904D01*
X150059580Y-76836904D02*
X150107200Y-76789285D01*
X150107200Y-76789285D02*
X150154819Y-76694047D01*
X150154819Y-76694047D02*
X150154819Y-76408333D01*
X150154819Y-76408333D02*
X150107200Y-76313095D01*
X150107200Y-76313095D02*
X150059580Y-76265476D01*
X149154819Y-77217857D02*
X149154819Y-77836904D01*
X149154819Y-77836904D02*
X149535771Y-77503571D01*
X149535771Y-77503571D02*
X149535771Y-77646428D01*
X149535771Y-77646428D02*
X149583390Y-77741666D01*
X149583390Y-77741666D02*
X149631009Y-77789285D01*
X149631009Y-77789285D02*
X149726247Y-77836904D01*
X149726247Y-77836904D02*
X149964342Y-77836904D01*
X149964342Y-77836904D02*
X150059580Y-77789285D01*
X150059580Y-77789285D02*
X150107200Y-77741666D01*
X150107200Y-77741666D02*
X150154819Y-77646428D01*
X150154819Y-77646428D02*
X150154819Y-77360714D01*
X150154819Y-77360714D02*
X150107200Y-77265476D01*
X150107200Y-77265476D02*
X150059580Y-77217857D01*
X154142857Y-68009580D02*
X154190476Y-68057200D01*
X154190476Y-68057200D02*
X154333333Y-68104819D01*
X154333333Y-68104819D02*
X154428571Y-68104819D01*
X154428571Y-68104819D02*
X154571428Y-68057200D01*
X154571428Y-68057200D02*
X154666666Y-67961961D01*
X154666666Y-67961961D02*
X154714285Y-67866723D01*
X154714285Y-67866723D02*
X154761904Y-67676247D01*
X154761904Y-67676247D02*
X154761904Y-67533390D01*
X154761904Y-67533390D02*
X154714285Y-67342914D01*
X154714285Y-67342914D02*
X154666666Y-67247676D01*
X154666666Y-67247676D02*
X154571428Y-67152438D01*
X154571428Y-67152438D02*
X154428571Y-67104819D01*
X154428571Y-67104819D02*
X154333333Y-67104819D01*
X154333333Y-67104819D02*
X154190476Y-67152438D01*
X154190476Y-67152438D02*
X154142857Y-67200057D01*
X153190476Y-68104819D02*
X153761904Y-68104819D01*
X153476190Y-68104819D02*
X153476190Y-67104819D01*
X153476190Y-67104819D02*
X153571428Y-67247676D01*
X153571428Y-67247676D02*
X153666666Y-67342914D01*
X153666666Y-67342914D02*
X153761904Y-67390533D01*
X152714285Y-68104819D02*
X152523809Y-68104819D01*
X152523809Y-68104819D02*
X152428571Y-68057200D01*
X152428571Y-68057200D02*
X152380952Y-68009580D01*
X152380952Y-68009580D02*
X152285714Y-67866723D01*
X152285714Y-67866723D02*
X152238095Y-67676247D01*
X152238095Y-67676247D02*
X152238095Y-67295295D01*
X152238095Y-67295295D02*
X152285714Y-67200057D01*
X152285714Y-67200057D02*
X152333333Y-67152438D01*
X152333333Y-67152438D02*
X152428571Y-67104819D01*
X152428571Y-67104819D02*
X152619047Y-67104819D01*
X152619047Y-67104819D02*
X152714285Y-67152438D01*
X152714285Y-67152438D02*
X152761904Y-67200057D01*
X152761904Y-67200057D02*
X152809523Y-67295295D01*
X152809523Y-67295295D02*
X152809523Y-67533390D01*
X152809523Y-67533390D02*
X152761904Y-67628628D01*
X152761904Y-67628628D02*
X152714285Y-67676247D01*
X152714285Y-67676247D02*
X152619047Y-67723866D01*
X152619047Y-67723866D02*
X152428571Y-67723866D01*
X152428571Y-67723866D02*
X152333333Y-67676247D01*
X152333333Y-67676247D02*
X152285714Y-67628628D01*
X152285714Y-67628628D02*
X152238095Y-67533390D01*
X136679580Y-53691190D02*
X136727200Y-53643571D01*
X136727200Y-53643571D02*
X136774819Y-53500714D01*
X136774819Y-53500714D02*
X136774819Y-53405476D01*
X136774819Y-53405476D02*
X136727200Y-53262619D01*
X136727200Y-53262619D02*
X136631961Y-53167381D01*
X136631961Y-53167381D02*
X136536723Y-53119762D01*
X136536723Y-53119762D02*
X136346247Y-53072143D01*
X136346247Y-53072143D02*
X136203390Y-53072143D01*
X136203390Y-53072143D02*
X136012914Y-53119762D01*
X136012914Y-53119762D02*
X135917676Y-53167381D01*
X135917676Y-53167381D02*
X135822438Y-53262619D01*
X135822438Y-53262619D02*
X135774819Y-53405476D01*
X135774819Y-53405476D02*
X135774819Y-53500714D01*
X135774819Y-53500714D02*
X135822438Y-53643571D01*
X135822438Y-53643571D02*
X135870057Y-53691190D01*
X135870057Y-54072143D02*
X135822438Y-54119762D01*
X135822438Y-54119762D02*
X135774819Y-54215000D01*
X135774819Y-54215000D02*
X135774819Y-54453095D01*
X135774819Y-54453095D02*
X135822438Y-54548333D01*
X135822438Y-54548333D02*
X135870057Y-54595952D01*
X135870057Y-54595952D02*
X135965295Y-54643571D01*
X135965295Y-54643571D02*
X136060533Y-54643571D01*
X136060533Y-54643571D02*
X136203390Y-54595952D01*
X136203390Y-54595952D02*
X136774819Y-54024524D01*
X136774819Y-54024524D02*
X136774819Y-54643571D01*
X135774819Y-55262619D02*
X135774819Y-55357857D01*
X135774819Y-55357857D02*
X135822438Y-55453095D01*
X135822438Y-55453095D02*
X135870057Y-55500714D01*
X135870057Y-55500714D02*
X135965295Y-55548333D01*
X135965295Y-55548333D02*
X136155771Y-55595952D01*
X136155771Y-55595952D02*
X136393866Y-55595952D01*
X136393866Y-55595952D02*
X136584342Y-55548333D01*
X136584342Y-55548333D02*
X136679580Y-55500714D01*
X136679580Y-55500714D02*
X136727200Y-55453095D01*
X136727200Y-55453095D02*
X136774819Y-55357857D01*
X136774819Y-55357857D02*
X136774819Y-55262619D01*
X136774819Y-55262619D02*
X136727200Y-55167381D01*
X136727200Y-55167381D02*
X136679580Y-55119762D01*
X136679580Y-55119762D02*
X136584342Y-55072143D01*
X136584342Y-55072143D02*
X136393866Y-55024524D01*
X136393866Y-55024524D02*
X136155771Y-55024524D01*
X136155771Y-55024524D02*
X135965295Y-55072143D01*
X135965295Y-55072143D02*
X135870057Y-55119762D01*
X135870057Y-55119762D02*
X135822438Y-55167381D01*
X135822438Y-55167381D02*
X135774819Y-55262619D01*
X95433333Y-75754819D02*
X95433333Y-76469104D01*
X95433333Y-76469104D02*
X95480952Y-76611961D01*
X95480952Y-76611961D02*
X95576190Y-76707200D01*
X95576190Y-76707200D02*
X95719047Y-76754819D01*
X95719047Y-76754819D02*
X95814285Y-76754819D01*
X94957142Y-76754819D02*
X94957142Y-75754819D01*
X94957142Y-75754819D02*
X94576190Y-75754819D01*
X94576190Y-75754819D02*
X94480952Y-75802438D01*
X94480952Y-75802438D02*
X94433333Y-75850057D01*
X94433333Y-75850057D02*
X94385714Y-75945295D01*
X94385714Y-75945295D02*
X94385714Y-76088152D01*
X94385714Y-76088152D02*
X94433333Y-76183390D01*
X94433333Y-76183390D02*
X94480952Y-76231009D01*
X94480952Y-76231009D02*
X94576190Y-76278628D01*
X94576190Y-76278628D02*
X94957142Y-76278628D01*
X94004761Y-75850057D02*
X93957142Y-75802438D01*
X93957142Y-75802438D02*
X93861904Y-75754819D01*
X93861904Y-75754819D02*
X93623809Y-75754819D01*
X93623809Y-75754819D02*
X93528571Y-75802438D01*
X93528571Y-75802438D02*
X93480952Y-75850057D01*
X93480952Y-75850057D02*
X93433333Y-75945295D01*
X93433333Y-75945295D02*
X93433333Y-76040533D01*
X93433333Y-76040533D02*
X93480952Y-76183390D01*
X93480952Y-76183390D02*
X94052380Y-76754819D01*
X94052380Y-76754819D02*
X93433333Y-76754819D01*
X100254819Y-73833333D02*
X99778628Y-73500000D01*
X100254819Y-73261905D02*
X99254819Y-73261905D01*
X99254819Y-73261905D02*
X99254819Y-73642857D01*
X99254819Y-73642857D02*
X99302438Y-73738095D01*
X99302438Y-73738095D02*
X99350057Y-73785714D01*
X99350057Y-73785714D02*
X99445295Y-73833333D01*
X99445295Y-73833333D02*
X99588152Y-73833333D01*
X99588152Y-73833333D02*
X99683390Y-73785714D01*
X99683390Y-73785714D02*
X99731009Y-73738095D01*
X99731009Y-73738095D02*
X99778628Y-73642857D01*
X99778628Y-73642857D02*
X99778628Y-73261905D01*
X100254819Y-74309524D02*
X100254819Y-74500000D01*
X100254819Y-74500000D02*
X100207200Y-74595238D01*
X100207200Y-74595238D02*
X100159580Y-74642857D01*
X100159580Y-74642857D02*
X100016723Y-74738095D01*
X100016723Y-74738095D02*
X99826247Y-74785714D01*
X99826247Y-74785714D02*
X99445295Y-74785714D01*
X99445295Y-74785714D02*
X99350057Y-74738095D01*
X99350057Y-74738095D02*
X99302438Y-74690476D01*
X99302438Y-74690476D02*
X99254819Y-74595238D01*
X99254819Y-74595238D02*
X99254819Y-74404762D01*
X99254819Y-74404762D02*
X99302438Y-74309524D01*
X99302438Y-74309524D02*
X99350057Y-74261905D01*
X99350057Y-74261905D02*
X99445295Y-74214286D01*
X99445295Y-74214286D02*
X99683390Y-74214286D01*
X99683390Y-74214286D02*
X99778628Y-74261905D01*
X99778628Y-74261905D02*
X99826247Y-74309524D01*
X99826247Y-74309524D02*
X99873866Y-74404762D01*
X99873866Y-74404762D02*
X99873866Y-74595238D01*
X99873866Y-74595238D02*
X99826247Y-74690476D01*
X99826247Y-74690476D02*
X99778628Y-74738095D01*
X99778628Y-74738095D02*
X99683390Y-74785714D01*
X150074819Y-50330476D02*
X150789104Y-50330476D01*
X150789104Y-50330476D02*
X150931961Y-50282857D01*
X150931961Y-50282857D02*
X151027200Y-50187619D01*
X151027200Y-50187619D02*
X151074819Y-50044762D01*
X151074819Y-50044762D02*
X151074819Y-49949524D01*
X151074819Y-51330476D02*
X151074819Y-50759048D01*
X151074819Y-51044762D02*
X150074819Y-51044762D01*
X150074819Y-51044762D02*
X150217676Y-50949524D01*
X150217676Y-50949524D02*
X150312914Y-50854286D01*
X150312914Y-50854286D02*
X150360533Y-50759048D01*
X150074819Y-51663810D02*
X150074819Y-52282857D01*
X150074819Y-52282857D02*
X150455771Y-51949524D01*
X150455771Y-51949524D02*
X150455771Y-52092381D01*
X150455771Y-52092381D02*
X150503390Y-52187619D01*
X150503390Y-52187619D02*
X150551009Y-52235238D01*
X150551009Y-52235238D02*
X150646247Y-52282857D01*
X150646247Y-52282857D02*
X150884342Y-52282857D01*
X150884342Y-52282857D02*
X150979580Y-52235238D01*
X150979580Y-52235238D02*
X151027200Y-52187619D01*
X151027200Y-52187619D02*
X151074819Y-52092381D01*
X151074819Y-52092381D02*
X151074819Y-51806667D01*
X151074819Y-51806667D02*
X151027200Y-51711429D01*
X151027200Y-51711429D02*
X150979580Y-51663810D01*
X119738094Y-47654819D02*
X119738094Y-48464342D01*
X119738094Y-48464342D02*
X119690475Y-48559580D01*
X119690475Y-48559580D02*
X119642856Y-48607200D01*
X119642856Y-48607200D02*
X119547618Y-48654819D01*
X119547618Y-48654819D02*
X119357142Y-48654819D01*
X119357142Y-48654819D02*
X119261904Y-48607200D01*
X119261904Y-48607200D02*
X119214285Y-48559580D01*
X119214285Y-48559580D02*
X119166666Y-48464342D01*
X119166666Y-48464342D02*
X119166666Y-47654819D01*
X118166666Y-48654819D02*
X118738094Y-48654819D01*
X118452380Y-48654819D02*
X118452380Y-47654819D01*
X118452380Y-47654819D02*
X118547618Y-47797676D01*
X118547618Y-47797676D02*
X118642856Y-47892914D01*
X118642856Y-47892914D02*
X118738094Y-47940533D01*
X117785713Y-47750057D02*
X117738094Y-47702438D01*
X117738094Y-47702438D02*
X117642856Y-47654819D01*
X117642856Y-47654819D02*
X117404761Y-47654819D01*
X117404761Y-47654819D02*
X117309523Y-47702438D01*
X117309523Y-47702438D02*
X117261904Y-47750057D01*
X117261904Y-47750057D02*
X117214285Y-47845295D01*
X117214285Y-47845295D02*
X117214285Y-47940533D01*
X117214285Y-47940533D02*
X117261904Y-48083390D01*
X117261904Y-48083390D02*
X117833332Y-48654819D01*
X117833332Y-48654819D02*
X117214285Y-48654819D01*
X133059580Y-35207142D02*
X133107200Y-35159523D01*
X133107200Y-35159523D02*
X133154819Y-35016666D01*
X133154819Y-35016666D02*
X133154819Y-34921428D01*
X133154819Y-34921428D02*
X133107200Y-34778571D01*
X133107200Y-34778571D02*
X133011961Y-34683333D01*
X133011961Y-34683333D02*
X132916723Y-34635714D01*
X132916723Y-34635714D02*
X132726247Y-34588095D01*
X132726247Y-34588095D02*
X132583390Y-34588095D01*
X132583390Y-34588095D02*
X132392914Y-34635714D01*
X132392914Y-34635714D02*
X132297676Y-34683333D01*
X132297676Y-34683333D02*
X132202438Y-34778571D01*
X132202438Y-34778571D02*
X132154819Y-34921428D01*
X132154819Y-34921428D02*
X132154819Y-35016666D01*
X132154819Y-35016666D02*
X132202438Y-35159523D01*
X132202438Y-35159523D02*
X132250057Y-35207142D01*
X132250057Y-35588095D02*
X132202438Y-35635714D01*
X132202438Y-35635714D02*
X132154819Y-35730952D01*
X132154819Y-35730952D02*
X132154819Y-35969047D01*
X132154819Y-35969047D02*
X132202438Y-36064285D01*
X132202438Y-36064285D02*
X132250057Y-36111904D01*
X132250057Y-36111904D02*
X132345295Y-36159523D01*
X132345295Y-36159523D02*
X132440533Y-36159523D01*
X132440533Y-36159523D02*
X132583390Y-36111904D01*
X132583390Y-36111904D02*
X133154819Y-35540476D01*
X133154819Y-35540476D02*
X133154819Y-36159523D01*
X133154819Y-37111904D02*
X133154819Y-36540476D01*
X133154819Y-36826190D02*
X132154819Y-36826190D01*
X132154819Y-36826190D02*
X132297676Y-36730952D01*
X132297676Y-36730952D02*
X132392914Y-36635714D01*
X132392914Y-36635714D02*
X132440533Y-36540476D01*
X108259580Y-73033333D02*
X108307200Y-72985714D01*
X108307200Y-72985714D02*
X108354819Y-72842857D01*
X108354819Y-72842857D02*
X108354819Y-72747619D01*
X108354819Y-72747619D02*
X108307200Y-72604762D01*
X108307200Y-72604762D02*
X108211961Y-72509524D01*
X108211961Y-72509524D02*
X108116723Y-72461905D01*
X108116723Y-72461905D02*
X107926247Y-72414286D01*
X107926247Y-72414286D02*
X107783390Y-72414286D01*
X107783390Y-72414286D02*
X107592914Y-72461905D01*
X107592914Y-72461905D02*
X107497676Y-72509524D01*
X107497676Y-72509524D02*
X107402438Y-72604762D01*
X107402438Y-72604762D02*
X107354819Y-72747619D01*
X107354819Y-72747619D02*
X107354819Y-72842857D01*
X107354819Y-72842857D02*
X107402438Y-72985714D01*
X107402438Y-72985714D02*
X107450057Y-73033333D01*
X107450057Y-73414286D02*
X107402438Y-73461905D01*
X107402438Y-73461905D02*
X107354819Y-73557143D01*
X107354819Y-73557143D02*
X107354819Y-73795238D01*
X107354819Y-73795238D02*
X107402438Y-73890476D01*
X107402438Y-73890476D02*
X107450057Y-73938095D01*
X107450057Y-73938095D02*
X107545295Y-73985714D01*
X107545295Y-73985714D02*
X107640533Y-73985714D01*
X107640533Y-73985714D02*
X107783390Y-73938095D01*
X107783390Y-73938095D02*
X108354819Y-73366667D01*
X108354819Y-73366667D02*
X108354819Y-73985714D01*
X138379580Y-53597142D02*
X138427200Y-53549523D01*
X138427200Y-53549523D02*
X138474819Y-53406666D01*
X138474819Y-53406666D02*
X138474819Y-53311428D01*
X138474819Y-53311428D02*
X138427200Y-53168571D01*
X138427200Y-53168571D02*
X138331961Y-53073333D01*
X138331961Y-53073333D02*
X138236723Y-53025714D01*
X138236723Y-53025714D02*
X138046247Y-52978095D01*
X138046247Y-52978095D02*
X137903390Y-52978095D01*
X137903390Y-52978095D02*
X137712914Y-53025714D01*
X137712914Y-53025714D02*
X137617676Y-53073333D01*
X137617676Y-53073333D02*
X137522438Y-53168571D01*
X137522438Y-53168571D02*
X137474819Y-53311428D01*
X137474819Y-53311428D02*
X137474819Y-53406666D01*
X137474819Y-53406666D02*
X137522438Y-53549523D01*
X137522438Y-53549523D02*
X137570057Y-53597142D01*
X138474819Y-54549523D02*
X138474819Y-53978095D01*
X138474819Y-54263809D02*
X137474819Y-54263809D01*
X137474819Y-54263809D02*
X137617676Y-54168571D01*
X137617676Y-54168571D02*
X137712914Y-54073333D01*
X137712914Y-54073333D02*
X137760533Y-53978095D01*
X137903390Y-55120952D02*
X137855771Y-55025714D01*
X137855771Y-55025714D02*
X137808152Y-54978095D01*
X137808152Y-54978095D02*
X137712914Y-54930476D01*
X137712914Y-54930476D02*
X137665295Y-54930476D01*
X137665295Y-54930476D02*
X137570057Y-54978095D01*
X137570057Y-54978095D02*
X137522438Y-55025714D01*
X137522438Y-55025714D02*
X137474819Y-55120952D01*
X137474819Y-55120952D02*
X137474819Y-55311428D01*
X137474819Y-55311428D02*
X137522438Y-55406666D01*
X137522438Y-55406666D02*
X137570057Y-55454285D01*
X137570057Y-55454285D02*
X137665295Y-55501904D01*
X137665295Y-55501904D02*
X137712914Y-55501904D01*
X137712914Y-55501904D02*
X137808152Y-55454285D01*
X137808152Y-55454285D02*
X137855771Y-55406666D01*
X137855771Y-55406666D02*
X137903390Y-55311428D01*
X137903390Y-55311428D02*
X137903390Y-55120952D01*
X137903390Y-55120952D02*
X137951009Y-55025714D01*
X137951009Y-55025714D02*
X137998628Y-54978095D01*
X137998628Y-54978095D02*
X138093866Y-54930476D01*
X138093866Y-54930476D02*
X138284342Y-54930476D01*
X138284342Y-54930476D02*
X138379580Y-54978095D01*
X138379580Y-54978095D02*
X138427200Y-55025714D01*
X138427200Y-55025714D02*
X138474819Y-55120952D01*
X138474819Y-55120952D02*
X138474819Y-55311428D01*
X138474819Y-55311428D02*
X138427200Y-55406666D01*
X138427200Y-55406666D02*
X138379580Y-55454285D01*
X138379580Y-55454285D02*
X138284342Y-55501904D01*
X138284342Y-55501904D02*
X138093866Y-55501904D01*
X138093866Y-55501904D02*
X137998628Y-55454285D01*
X137998628Y-55454285D02*
X137951009Y-55406666D01*
X137951009Y-55406666D02*
X137903390Y-55311428D01*
X111124404Y-65454819D02*
X111124404Y-66264342D01*
X111124404Y-66264342D02*
X111076785Y-66359580D01*
X111076785Y-66359580D02*
X111029166Y-66407200D01*
X111029166Y-66407200D02*
X110933928Y-66454819D01*
X110933928Y-66454819D02*
X110743452Y-66454819D01*
X110743452Y-66454819D02*
X110648214Y-66407200D01*
X110648214Y-66407200D02*
X110600595Y-66359580D01*
X110600595Y-66359580D02*
X110552976Y-66264342D01*
X110552976Y-66264342D02*
X110552976Y-65454819D01*
X109648214Y-65788152D02*
X109648214Y-66454819D01*
X109886309Y-65407200D02*
X110124404Y-66121485D01*
X110124404Y-66121485D02*
X109505357Y-66121485D01*
X133233333Y-41454819D02*
X133233333Y-42169104D01*
X133233333Y-42169104D02*
X133280952Y-42311961D01*
X133280952Y-42311961D02*
X133376190Y-42407200D01*
X133376190Y-42407200D02*
X133519047Y-42454819D01*
X133519047Y-42454819D02*
X133614285Y-42454819D01*
X132709523Y-42454819D02*
X132519047Y-42454819D01*
X132519047Y-42454819D02*
X132423809Y-42407200D01*
X132423809Y-42407200D02*
X132376190Y-42359580D01*
X132376190Y-42359580D02*
X132280952Y-42216723D01*
X132280952Y-42216723D02*
X132233333Y-42026247D01*
X132233333Y-42026247D02*
X132233333Y-41645295D01*
X132233333Y-41645295D02*
X132280952Y-41550057D01*
X132280952Y-41550057D02*
X132328571Y-41502438D01*
X132328571Y-41502438D02*
X132423809Y-41454819D01*
X132423809Y-41454819D02*
X132614285Y-41454819D01*
X132614285Y-41454819D02*
X132709523Y-41502438D01*
X132709523Y-41502438D02*
X132757142Y-41550057D01*
X132757142Y-41550057D02*
X132804761Y-41645295D01*
X132804761Y-41645295D02*
X132804761Y-41883390D01*
X132804761Y-41883390D02*
X132757142Y-41978628D01*
X132757142Y-41978628D02*
X132709523Y-42026247D01*
X132709523Y-42026247D02*
X132614285Y-42073866D01*
X132614285Y-42073866D02*
X132423809Y-42073866D01*
X132423809Y-42073866D02*
X132328571Y-42026247D01*
X132328571Y-42026247D02*
X132280952Y-41978628D01*
X132280952Y-41978628D02*
X132233333Y-41883390D01*
X135833332Y-39654819D02*
X135214285Y-39654819D01*
X135214285Y-39654819D02*
X135547618Y-40035771D01*
X135547618Y-40035771D02*
X135404761Y-40035771D01*
X135404761Y-40035771D02*
X135309523Y-40083390D01*
X135309523Y-40083390D02*
X135261904Y-40131009D01*
X135261904Y-40131009D02*
X135214285Y-40226247D01*
X135214285Y-40226247D02*
X135214285Y-40464342D01*
X135214285Y-40464342D02*
X135261904Y-40559580D01*
X135261904Y-40559580D02*
X135309523Y-40607200D01*
X135309523Y-40607200D02*
X135404761Y-40654819D01*
X135404761Y-40654819D02*
X135690475Y-40654819D01*
X135690475Y-40654819D02*
X135785713Y-40607200D01*
X135785713Y-40607200D02*
X135833332Y-40559580D01*
X130014285Y-40654819D02*
X130585713Y-40654819D01*
X130299999Y-40654819D02*
X130299999Y-39654819D01*
X130299999Y-39654819D02*
X130395237Y-39797676D01*
X130395237Y-39797676D02*
X130490475Y-39892914D01*
X130490475Y-39892914D02*
X130585713Y-39940533D01*
X103954819Y-73133333D02*
X103478628Y-72800000D01*
X103954819Y-72561905D02*
X102954819Y-72561905D01*
X102954819Y-72561905D02*
X102954819Y-72942857D01*
X102954819Y-72942857D02*
X103002438Y-73038095D01*
X103002438Y-73038095D02*
X103050057Y-73085714D01*
X103050057Y-73085714D02*
X103145295Y-73133333D01*
X103145295Y-73133333D02*
X103288152Y-73133333D01*
X103288152Y-73133333D02*
X103383390Y-73085714D01*
X103383390Y-73085714D02*
X103431009Y-73038095D01*
X103431009Y-73038095D02*
X103478628Y-72942857D01*
X103478628Y-72942857D02*
X103478628Y-72561905D01*
X103050057Y-73514286D02*
X103002438Y-73561905D01*
X103002438Y-73561905D02*
X102954819Y-73657143D01*
X102954819Y-73657143D02*
X102954819Y-73895238D01*
X102954819Y-73895238D02*
X103002438Y-73990476D01*
X103002438Y-73990476D02*
X103050057Y-74038095D01*
X103050057Y-74038095D02*
X103145295Y-74085714D01*
X103145295Y-74085714D02*
X103240533Y-74085714D01*
X103240533Y-74085714D02*
X103383390Y-74038095D01*
X103383390Y-74038095D02*
X103954819Y-73466667D01*
X103954819Y-73466667D02*
X103954819Y-74085714D01*
X148554819Y-75757142D02*
X148078628Y-75423809D01*
X148554819Y-75185714D02*
X147554819Y-75185714D01*
X147554819Y-75185714D02*
X147554819Y-75566666D01*
X147554819Y-75566666D02*
X147602438Y-75661904D01*
X147602438Y-75661904D02*
X147650057Y-75709523D01*
X147650057Y-75709523D02*
X147745295Y-75757142D01*
X147745295Y-75757142D02*
X147888152Y-75757142D01*
X147888152Y-75757142D02*
X147983390Y-75709523D01*
X147983390Y-75709523D02*
X148031009Y-75661904D01*
X148031009Y-75661904D02*
X148078628Y-75566666D01*
X148078628Y-75566666D02*
X148078628Y-75185714D01*
X147554819Y-76090476D02*
X147554819Y-76709523D01*
X147554819Y-76709523D02*
X147935771Y-76376190D01*
X147935771Y-76376190D02*
X147935771Y-76519047D01*
X147935771Y-76519047D02*
X147983390Y-76614285D01*
X147983390Y-76614285D02*
X148031009Y-76661904D01*
X148031009Y-76661904D02*
X148126247Y-76709523D01*
X148126247Y-76709523D02*
X148364342Y-76709523D01*
X148364342Y-76709523D02*
X148459580Y-76661904D01*
X148459580Y-76661904D02*
X148507200Y-76614285D01*
X148507200Y-76614285D02*
X148554819Y-76519047D01*
X148554819Y-76519047D02*
X148554819Y-76233333D01*
X148554819Y-76233333D02*
X148507200Y-76138095D01*
X148507200Y-76138095D02*
X148459580Y-76090476D01*
X147888152Y-77566666D02*
X148554819Y-77566666D01*
X147507200Y-77328571D02*
X148221485Y-77090476D01*
X148221485Y-77090476D02*
X148221485Y-77709523D01*
X143654819Y-72690476D02*
X144369104Y-72690476D01*
X144369104Y-72690476D02*
X144511961Y-72642857D01*
X144511961Y-72642857D02*
X144607200Y-72547619D01*
X144607200Y-72547619D02*
X144654819Y-72404762D01*
X144654819Y-72404762D02*
X144654819Y-72309524D01*
X144654819Y-73690476D02*
X144654819Y-73119048D01*
X144654819Y-73404762D02*
X143654819Y-73404762D01*
X143654819Y-73404762D02*
X143797676Y-73309524D01*
X143797676Y-73309524D02*
X143892914Y-73214286D01*
X143892914Y-73214286D02*
X143940533Y-73119048D01*
X143988152Y-74547619D02*
X144654819Y-74547619D01*
X143607200Y-74309524D02*
X144321485Y-74071429D01*
X144321485Y-74071429D02*
X144321485Y-74690476D01*
X144854819Y-64110714D02*
X143854819Y-64110714D01*
X143854819Y-64110714D02*
X143854819Y-64348809D01*
X143854819Y-64348809D02*
X143902438Y-64491666D01*
X143902438Y-64491666D02*
X143997676Y-64586904D01*
X143997676Y-64586904D02*
X144092914Y-64634523D01*
X144092914Y-64634523D02*
X144283390Y-64682142D01*
X144283390Y-64682142D02*
X144426247Y-64682142D01*
X144426247Y-64682142D02*
X144616723Y-64634523D01*
X144616723Y-64634523D02*
X144711961Y-64586904D01*
X144711961Y-64586904D02*
X144807200Y-64491666D01*
X144807200Y-64491666D02*
X144854819Y-64348809D01*
X144854819Y-64348809D02*
X144854819Y-64110714D01*
X144854819Y-65634523D02*
X144854819Y-65063095D01*
X144854819Y-65348809D02*
X143854819Y-65348809D01*
X143854819Y-65348809D02*
X143997676Y-65253571D01*
X143997676Y-65253571D02*
X144092914Y-65158333D01*
X144092914Y-65158333D02*
X144140533Y-65063095D01*
X144854819Y-66586904D02*
X144854819Y-66015476D01*
X144854819Y-66301190D02*
X143854819Y-66301190D01*
X143854819Y-66301190D02*
X143997676Y-66205952D01*
X143997676Y-66205952D02*
X144092914Y-66110714D01*
X144092914Y-66110714D02*
X144140533Y-66015476D01*
X124017319Y-67061905D02*
X123017319Y-67061905D01*
X123017319Y-67061905D02*
X123017319Y-67300000D01*
X123017319Y-67300000D02*
X123064938Y-67442857D01*
X123064938Y-67442857D02*
X123160176Y-67538095D01*
X123160176Y-67538095D02*
X123255414Y-67585714D01*
X123255414Y-67585714D02*
X123445890Y-67633333D01*
X123445890Y-67633333D02*
X123588747Y-67633333D01*
X123588747Y-67633333D02*
X123779223Y-67585714D01*
X123779223Y-67585714D02*
X123874461Y-67538095D01*
X123874461Y-67538095D02*
X123969700Y-67442857D01*
X123969700Y-67442857D02*
X124017319Y-67300000D01*
X124017319Y-67300000D02*
X124017319Y-67061905D01*
X123445890Y-68204762D02*
X123398271Y-68109524D01*
X123398271Y-68109524D02*
X123350652Y-68061905D01*
X123350652Y-68061905D02*
X123255414Y-68014286D01*
X123255414Y-68014286D02*
X123207795Y-68014286D01*
X123207795Y-68014286D02*
X123112557Y-68061905D01*
X123112557Y-68061905D02*
X123064938Y-68109524D01*
X123064938Y-68109524D02*
X123017319Y-68204762D01*
X123017319Y-68204762D02*
X123017319Y-68395238D01*
X123017319Y-68395238D02*
X123064938Y-68490476D01*
X123064938Y-68490476D02*
X123112557Y-68538095D01*
X123112557Y-68538095D02*
X123207795Y-68585714D01*
X123207795Y-68585714D02*
X123255414Y-68585714D01*
X123255414Y-68585714D02*
X123350652Y-68538095D01*
X123350652Y-68538095D02*
X123398271Y-68490476D01*
X123398271Y-68490476D02*
X123445890Y-68395238D01*
X123445890Y-68395238D02*
X123445890Y-68204762D01*
X123445890Y-68204762D02*
X123493509Y-68109524D01*
X123493509Y-68109524D02*
X123541128Y-68061905D01*
X123541128Y-68061905D02*
X123636366Y-68014286D01*
X123636366Y-68014286D02*
X123826842Y-68014286D01*
X123826842Y-68014286D02*
X123922080Y-68061905D01*
X123922080Y-68061905D02*
X123969700Y-68109524D01*
X123969700Y-68109524D02*
X124017319Y-68204762D01*
X124017319Y-68204762D02*
X124017319Y-68395238D01*
X124017319Y-68395238D02*
X123969700Y-68490476D01*
X123969700Y-68490476D02*
X123922080Y-68538095D01*
X123922080Y-68538095D02*
X123826842Y-68585714D01*
X123826842Y-68585714D02*
X123636366Y-68585714D01*
X123636366Y-68585714D02*
X123541128Y-68538095D01*
X123541128Y-68538095D02*
X123493509Y-68490476D01*
X123493509Y-68490476D02*
X123445890Y-68395238D01*
X142431009Y-68614285D02*
X142478628Y-68757142D01*
X142478628Y-68757142D02*
X142526247Y-68804761D01*
X142526247Y-68804761D02*
X142621485Y-68852380D01*
X142621485Y-68852380D02*
X142764342Y-68852380D01*
X142764342Y-68852380D02*
X142859580Y-68804761D01*
X142859580Y-68804761D02*
X142907200Y-68757142D01*
X142907200Y-68757142D02*
X142954819Y-68661904D01*
X142954819Y-68661904D02*
X142954819Y-68280952D01*
X142954819Y-68280952D02*
X141954819Y-68280952D01*
X141954819Y-68280952D02*
X141954819Y-68614285D01*
X141954819Y-68614285D02*
X142002438Y-68709523D01*
X142002438Y-68709523D02*
X142050057Y-68757142D01*
X142050057Y-68757142D02*
X142145295Y-68804761D01*
X142145295Y-68804761D02*
X142240533Y-68804761D01*
X142240533Y-68804761D02*
X142335771Y-68757142D01*
X142335771Y-68757142D02*
X142383390Y-68709523D01*
X142383390Y-68709523D02*
X142431009Y-68614285D01*
X142431009Y-68614285D02*
X142431009Y-68280952D01*
X141954819Y-69138095D02*
X141954819Y-69709523D01*
X142954819Y-69423809D02*
X141954819Y-69423809D01*
X142954819Y-70566666D02*
X142954819Y-69995238D01*
X142954819Y-70280952D02*
X141954819Y-70280952D01*
X141954819Y-70280952D02*
X142097676Y-70185714D01*
X142097676Y-70185714D02*
X142192914Y-70090476D01*
X142192914Y-70090476D02*
X142240533Y-69995238D01*
X141074819Y-52897142D02*
X140598628Y-52563809D01*
X141074819Y-52325714D02*
X140074819Y-52325714D01*
X140074819Y-52325714D02*
X140074819Y-52706666D01*
X140074819Y-52706666D02*
X140122438Y-52801904D01*
X140122438Y-52801904D02*
X140170057Y-52849523D01*
X140170057Y-52849523D02*
X140265295Y-52897142D01*
X140265295Y-52897142D02*
X140408152Y-52897142D01*
X140408152Y-52897142D02*
X140503390Y-52849523D01*
X140503390Y-52849523D02*
X140551009Y-52801904D01*
X140551009Y-52801904D02*
X140598628Y-52706666D01*
X140598628Y-52706666D02*
X140598628Y-52325714D01*
X140170057Y-53278095D02*
X140122438Y-53325714D01*
X140122438Y-53325714D02*
X140074819Y-53420952D01*
X140074819Y-53420952D02*
X140074819Y-53659047D01*
X140074819Y-53659047D02*
X140122438Y-53754285D01*
X140122438Y-53754285D02*
X140170057Y-53801904D01*
X140170057Y-53801904D02*
X140265295Y-53849523D01*
X140265295Y-53849523D02*
X140360533Y-53849523D01*
X140360533Y-53849523D02*
X140503390Y-53801904D01*
X140503390Y-53801904D02*
X141074819Y-53230476D01*
X141074819Y-53230476D02*
X141074819Y-53849523D01*
X140503390Y-54420952D02*
X140455771Y-54325714D01*
X140455771Y-54325714D02*
X140408152Y-54278095D01*
X140408152Y-54278095D02*
X140312914Y-54230476D01*
X140312914Y-54230476D02*
X140265295Y-54230476D01*
X140265295Y-54230476D02*
X140170057Y-54278095D01*
X140170057Y-54278095D02*
X140122438Y-54325714D01*
X140122438Y-54325714D02*
X140074819Y-54420952D01*
X140074819Y-54420952D02*
X140074819Y-54611428D01*
X140074819Y-54611428D02*
X140122438Y-54706666D01*
X140122438Y-54706666D02*
X140170057Y-54754285D01*
X140170057Y-54754285D02*
X140265295Y-54801904D01*
X140265295Y-54801904D02*
X140312914Y-54801904D01*
X140312914Y-54801904D02*
X140408152Y-54754285D01*
X140408152Y-54754285D02*
X140455771Y-54706666D01*
X140455771Y-54706666D02*
X140503390Y-54611428D01*
X140503390Y-54611428D02*
X140503390Y-54420952D01*
X140503390Y-54420952D02*
X140551009Y-54325714D01*
X140551009Y-54325714D02*
X140598628Y-54278095D01*
X140598628Y-54278095D02*
X140693866Y-54230476D01*
X140693866Y-54230476D02*
X140884342Y-54230476D01*
X140884342Y-54230476D02*
X140979580Y-54278095D01*
X140979580Y-54278095D02*
X141027200Y-54325714D01*
X141027200Y-54325714D02*
X141074819Y-54420952D01*
X141074819Y-54420952D02*
X141074819Y-54611428D01*
X141074819Y-54611428D02*
X141027200Y-54706666D01*
X141027200Y-54706666D02*
X140979580Y-54754285D01*
X140979580Y-54754285D02*
X140884342Y-54801904D01*
X140884342Y-54801904D02*
X140693866Y-54801904D01*
X140693866Y-54801904D02*
X140598628Y-54754285D01*
X140598628Y-54754285D02*
X140551009Y-54706666D01*
X140551009Y-54706666D02*
X140503390Y-54611428D01*
X113033332Y-74907200D02*
X112890475Y-74954819D01*
X112890475Y-74954819D02*
X112652380Y-74954819D01*
X112652380Y-74954819D02*
X112557142Y-74907200D01*
X112557142Y-74907200D02*
X112509523Y-74859580D01*
X112509523Y-74859580D02*
X112461904Y-74764342D01*
X112461904Y-74764342D02*
X112461904Y-74669104D01*
X112461904Y-74669104D02*
X112509523Y-74573866D01*
X112509523Y-74573866D02*
X112557142Y-74526247D01*
X112557142Y-74526247D02*
X112652380Y-74478628D01*
X112652380Y-74478628D02*
X112842856Y-74431009D01*
X112842856Y-74431009D02*
X112938094Y-74383390D01*
X112938094Y-74383390D02*
X112985713Y-74335771D01*
X112985713Y-74335771D02*
X113033332Y-74240533D01*
X113033332Y-74240533D02*
X113033332Y-74145295D01*
X113033332Y-74145295D02*
X112985713Y-74050057D01*
X112985713Y-74050057D02*
X112938094Y-74002438D01*
X112938094Y-74002438D02*
X112842856Y-73954819D01*
X112842856Y-73954819D02*
X112604761Y-73954819D01*
X112604761Y-73954819D02*
X112461904Y-74002438D01*
X112128570Y-73954819D02*
X111890475Y-74954819D01*
X111890475Y-74954819D02*
X111699999Y-74240533D01*
X111699999Y-74240533D02*
X111509523Y-74954819D01*
X111509523Y-74954819D02*
X111271428Y-73954819D01*
X110366666Y-74954819D02*
X110938094Y-74954819D01*
X110652380Y-74954819D02*
X110652380Y-73954819D01*
X110652380Y-73954819D02*
X110747618Y-74097676D01*
X110747618Y-74097676D02*
X110842856Y-74192914D01*
X110842856Y-74192914D02*
X110938094Y-74240533D01*
X107366666Y-65474580D02*
X107414285Y-65522200D01*
X107414285Y-65522200D02*
X107557142Y-65569819D01*
X107557142Y-65569819D02*
X107652380Y-65569819D01*
X107652380Y-65569819D02*
X107795237Y-65522200D01*
X107795237Y-65522200D02*
X107890475Y-65426961D01*
X107890475Y-65426961D02*
X107938094Y-65331723D01*
X107938094Y-65331723D02*
X107985713Y-65141247D01*
X107985713Y-65141247D02*
X107985713Y-64998390D01*
X107985713Y-64998390D02*
X107938094Y-64807914D01*
X107938094Y-64807914D02*
X107890475Y-64712676D01*
X107890475Y-64712676D02*
X107795237Y-64617438D01*
X107795237Y-64617438D02*
X107652380Y-64569819D01*
X107652380Y-64569819D02*
X107557142Y-64569819D01*
X107557142Y-64569819D02*
X107414285Y-64617438D01*
X107414285Y-64617438D02*
X107366666Y-64665057D01*
X107033332Y-64569819D02*
X106414285Y-64569819D01*
X106414285Y-64569819D02*
X106747618Y-64950771D01*
X106747618Y-64950771D02*
X106604761Y-64950771D01*
X106604761Y-64950771D02*
X106509523Y-64998390D01*
X106509523Y-64998390D02*
X106461904Y-65046009D01*
X106461904Y-65046009D02*
X106414285Y-65141247D01*
X106414285Y-65141247D02*
X106414285Y-65379342D01*
X106414285Y-65379342D02*
X106461904Y-65474580D01*
X106461904Y-65474580D02*
X106509523Y-65522200D01*
X106509523Y-65522200D02*
X106604761Y-65569819D01*
X106604761Y-65569819D02*
X106890475Y-65569819D01*
X106890475Y-65569819D02*
X106985713Y-65522200D01*
X106985713Y-65522200D02*
X107033332Y-65474580D01*
X146104819Y-68686905D02*
X146914342Y-68686905D01*
X146914342Y-68686905D02*
X147009580Y-68734524D01*
X147009580Y-68734524D02*
X147057200Y-68782143D01*
X147057200Y-68782143D02*
X147104819Y-68877381D01*
X147104819Y-68877381D02*
X147104819Y-69067857D01*
X147104819Y-69067857D02*
X147057200Y-69163095D01*
X147057200Y-69163095D02*
X147009580Y-69210714D01*
X147009580Y-69210714D02*
X146914342Y-69258333D01*
X146914342Y-69258333D02*
X146104819Y-69258333D01*
X147104819Y-70258333D02*
X147104819Y-69686905D01*
X147104819Y-69972619D02*
X146104819Y-69972619D01*
X146104819Y-69972619D02*
X146247676Y-69877381D01*
X146247676Y-69877381D02*
X146342914Y-69782143D01*
X146342914Y-69782143D02*
X146390533Y-69686905D01*
X147104819Y-71210714D02*
X147104819Y-70639286D01*
X147104819Y-70925000D02*
X146104819Y-70925000D01*
X146104819Y-70925000D02*
X146247676Y-70829762D01*
X146247676Y-70829762D02*
X146342914Y-70734524D01*
X146342914Y-70734524D02*
X146390533Y-70639286D01*
X117716666Y-49959580D02*
X117764285Y-50007200D01*
X117764285Y-50007200D02*
X117907142Y-50054819D01*
X117907142Y-50054819D02*
X118002380Y-50054819D01*
X118002380Y-50054819D02*
X118145237Y-50007200D01*
X118145237Y-50007200D02*
X118240475Y-49911961D01*
X118240475Y-49911961D02*
X118288094Y-49816723D01*
X118288094Y-49816723D02*
X118335713Y-49626247D01*
X118335713Y-49626247D02*
X118335713Y-49483390D01*
X118335713Y-49483390D02*
X118288094Y-49292914D01*
X118288094Y-49292914D02*
X118240475Y-49197676D01*
X118240475Y-49197676D02*
X118145237Y-49102438D01*
X118145237Y-49102438D02*
X118002380Y-49054819D01*
X118002380Y-49054819D02*
X117907142Y-49054819D01*
X117907142Y-49054819D02*
X117764285Y-49102438D01*
X117764285Y-49102438D02*
X117716666Y-49150057D01*
X116811904Y-49054819D02*
X117288094Y-49054819D01*
X117288094Y-49054819D02*
X117335713Y-49531009D01*
X117335713Y-49531009D02*
X117288094Y-49483390D01*
X117288094Y-49483390D02*
X117192856Y-49435771D01*
X117192856Y-49435771D02*
X116954761Y-49435771D01*
X116954761Y-49435771D02*
X116859523Y-49483390D01*
X116859523Y-49483390D02*
X116811904Y-49531009D01*
X116811904Y-49531009D02*
X116764285Y-49626247D01*
X116764285Y-49626247D02*
X116764285Y-49864342D01*
X116764285Y-49864342D02*
X116811904Y-49959580D01*
X116811904Y-49959580D02*
X116859523Y-50007200D01*
X116859523Y-50007200D02*
X116954761Y-50054819D01*
X116954761Y-50054819D02*
X117192856Y-50054819D01*
X117192856Y-50054819D02*
X117288094Y-50007200D01*
X117288094Y-50007200D02*
X117335713Y-49959580D01*
X114066666Y-63209580D02*
X114114285Y-63257200D01*
X114114285Y-63257200D02*
X114257142Y-63304819D01*
X114257142Y-63304819D02*
X114352380Y-63304819D01*
X114352380Y-63304819D02*
X114495237Y-63257200D01*
X114495237Y-63257200D02*
X114590475Y-63161961D01*
X114590475Y-63161961D02*
X114638094Y-63066723D01*
X114638094Y-63066723D02*
X114685713Y-62876247D01*
X114685713Y-62876247D02*
X114685713Y-62733390D01*
X114685713Y-62733390D02*
X114638094Y-62542914D01*
X114638094Y-62542914D02*
X114590475Y-62447676D01*
X114590475Y-62447676D02*
X114495237Y-62352438D01*
X114495237Y-62352438D02*
X114352380Y-62304819D01*
X114352380Y-62304819D02*
X114257142Y-62304819D01*
X114257142Y-62304819D02*
X114114285Y-62352438D01*
X114114285Y-62352438D02*
X114066666Y-62400057D01*
X113209523Y-62638152D02*
X113209523Y-63304819D01*
X113447618Y-62257200D02*
X113685713Y-62971485D01*
X113685713Y-62971485D02*
X113066666Y-62971485D01*
X132961904Y-57854819D02*
X132961904Y-58664342D01*
X132961904Y-58664342D02*
X132914285Y-58759580D01*
X132914285Y-58759580D02*
X132866666Y-58807200D01*
X132866666Y-58807200D02*
X132771428Y-58854819D01*
X132771428Y-58854819D02*
X132580952Y-58854819D01*
X132580952Y-58854819D02*
X132485714Y-58807200D01*
X132485714Y-58807200D02*
X132438095Y-58759580D01*
X132438095Y-58759580D02*
X132390476Y-58664342D01*
X132390476Y-58664342D02*
X132390476Y-57854819D01*
X132009523Y-57854819D02*
X131390476Y-57854819D01*
X131390476Y-57854819D02*
X131723809Y-58235771D01*
X131723809Y-58235771D02*
X131580952Y-58235771D01*
X131580952Y-58235771D02*
X131485714Y-58283390D01*
X131485714Y-58283390D02*
X131438095Y-58331009D01*
X131438095Y-58331009D02*
X131390476Y-58426247D01*
X131390476Y-58426247D02*
X131390476Y-58664342D01*
X131390476Y-58664342D02*
X131438095Y-58759580D01*
X131438095Y-58759580D02*
X131485714Y-58807200D01*
X131485714Y-58807200D02*
X131580952Y-58854819D01*
X131580952Y-58854819D02*
X131866666Y-58854819D01*
X131866666Y-58854819D02*
X131961904Y-58807200D01*
X131961904Y-58807200D02*
X132009523Y-58759580D01*
X121616666Y-50059580D02*
X121664285Y-50107200D01*
X121664285Y-50107200D02*
X121807142Y-50154819D01*
X121807142Y-50154819D02*
X121902380Y-50154819D01*
X121902380Y-50154819D02*
X122045237Y-50107200D01*
X122045237Y-50107200D02*
X122140475Y-50011961D01*
X122140475Y-50011961D02*
X122188094Y-49916723D01*
X122188094Y-49916723D02*
X122235713Y-49726247D01*
X122235713Y-49726247D02*
X122235713Y-49583390D01*
X122235713Y-49583390D02*
X122188094Y-49392914D01*
X122188094Y-49392914D02*
X122140475Y-49297676D01*
X122140475Y-49297676D02*
X122045237Y-49202438D01*
X122045237Y-49202438D02*
X121902380Y-49154819D01*
X121902380Y-49154819D02*
X121807142Y-49154819D01*
X121807142Y-49154819D02*
X121664285Y-49202438D01*
X121664285Y-49202438D02*
X121616666Y-49250057D01*
X120664285Y-50154819D02*
X121235713Y-50154819D01*
X120949999Y-50154819D02*
X120949999Y-49154819D01*
X120949999Y-49154819D02*
X121045237Y-49297676D01*
X121045237Y-49297676D02*
X121140475Y-49392914D01*
X121140475Y-49392914D02*
X121235713Y-49440533D01*
X105061904Y-65454819D02*
X105061904Y-66264342D01*
X105061904Y-66264342D02*
X105014285Y-66359580D01*
X105014285Y-66359580D02*
X104966666Y-66407200D01*
X104966666Y-66407200D02*
X104871428Y-66454819D01*
X104871428Y-66454819D02*
X104680952Y-66454819D01*
X104680952Y-66454819D02*
X104585714Y-66407200D01*
X104585714Y-66407200D02*
X104538095Y-66359580D01*
X104538095Y-66359580D02*
X104490476Y-66264342D01*
X104490476Y-66264342D02*
X104490476Y-65454819D01*
X103490476Y-66454819D02*
X104061904Y-66454819D01*
X103776190Y-66454819D02*
X103776190Y-65454819D01*
X103776190Y-65454819D02*
X103871428Y-65597676D01*
X103871428Y-65597676D02*
X103966666Y-65692914D01*
X103966666Y-65692914D02*
X104061904Y-65740533D01*
X142574819Y-52897142D02*
X142098628Y-52563809D01*
X142574819Y-52325714D02*
X141574819Y-52325714D01*
X141574819Y-52325714D02*
X141574819Y-52706666D01*
X141574819Y-52706666D02*
X141622438Y-52801904D01*
X141622438Y-52801904D02*
X141670057Y-52849523D01*
X141670057Y-52849523D02*
X141765295Y-52897142D01*
X141765295Y-52897142D02*
X141908152Y-52897142D01*
X141908152Y-52897142D02*
X142003390Y-52849523D01*
X142003390Y-52849523D02*
X142051009Y-52801904D01*
X142051009Y-52801904D02*
X142098628Y-52706666D01*
X142098628Y-52706666D02*
X142098628Y-52325714D01*
X141574819Y-53230476D02*
X141574819Y-53849523D01*
X141574819Y-53849523D02*
X141955771Y-53516190D01*
X141955771Y-53516190D02*
X141955771Y-53659047D01*
X141955771Y-53659047D02*
X142003390Y-53754285D01*
X142003390Y-53754285D02*
X142051009Y-53801904D01*
X142051009Y-53801904D02*
X142146247Y-53849523D01*
X142146247Y-53849523D02*
X142384342Y-53849523D01*
X142384342Y-53849523D02*
X142479580Y-53801904D01*
X142479580Y-53801904D02*
X142527200Y-53754285D01*
X142527200Y-53754285D02*
X142574819Y-53659047D01*
X142574819Y-53659047D02*
X142574819Y-53373333D01*
X142574819Y-53373333D02*
X142527200Y-53278095D01*
X142527200Y-53278095D02*
X142479580Y-53230476D01*
X141574819Y-54468571D02*
X141574819Y-54563809D01*
X141574819Y-54563809D02*
X141622438Y-54659047D01*
X141622438Y-54659047D02*
X141670057Y-54706666D01*
X141670057Y-54706666D02*
X141765295Y-54754285D01*
X141765295Y-54754285D02*
X141955771Y-54801904D01*
X141955771Y-54801904D02*
X142193866Y-54801904D01*
X142193866Y-54801904D02*
X142384342Y-54754285D01*
X142384342Y-54754285D02*
X142479580Y-54706666D01*
X142479580Y-54706666D02*
X142527200Y-54659047D01*
X142527200Y-54659047D02*
X142574819Y-54563809D01*
X142574819Y-54563809D02*
X142574819Y-54468571D01*
X142574819Y-54468571D02*
X142527200Y-54373333D01*
X142527200Y-54373333D02*
X142479580Y-54325714D01*
X142479580Y-54325714D02*
X142384342Y-54278095D01*
X142384342Y-54278095D02*
X142193866Y-54230476D01*
X142193866Y-54230476D02*
X141955771Y-54230476D01*
X141955771Y-54230476D02*
X141765295Y-54278095D01*
X141765295Y-54278095D02*
X141670057Y-54325714D01*
X141670057Y-54325714D02*
X141622438Y-54373333D01*
X141622438Y-54373333D02*
X141574819Y-54468571D01*
X117438094Y-53704819D02*
X117438094Y-52704819D01*
X117438094Y-52704819D02*
X117199999Y-52704819D01*
X117199999Y-52704819D02*
X117057142Y-52752438D01*
X117057142Y-52752438D02*
X116961904Y-52847676D01*
X116961904Y-52847676D02*
X116914285Y-52942914D01*
X116914285Y-52942914D02*
X116866666Y-53133390D01*
X116866666Y-53133390D02*
X116866666Y-53276247D01*
X116866666Y-53276247D02*
X116914285Y-53466723D01*
X116914285Y-53466723D02*
X116961904Y-53561961D01*
X116961904Y-53561961D02*
X117057142Y-53657200D01*
X117057142Y-53657200D02*
X117199999Y-53704819D01*
X117199999Y-53704819D02*
X117438094Y-53704819D01*
X116533332Y-52704819D02*
X115914285Y-52704819D01*
X115914285Y-52704819D02*
X116247618Y-53085771D01*
X116247618Y-53085771D02*
X116104761Y-53085771D01*
X116104761Y-53085771D02*
X116009523Y-53133390D01*
X116009523Y-53133390D02*
X115961904Y-53181009D01*
X115961904Y-53181009D02*
X115914285Y-53276247D01*
X115914285Y-53276247D02*
X115914285Y-53514342D01*
X115914285Y-53514342D02*
X115961904Y-53609580D01*
X115961904Y-53609580D02*
X116009523Y-53657200D01*
X116009523Y-53657200D02*
X116104761Y-53704819D01*
X116104761Y-53704819D02*
X116390475Y-53704819D01*
X116390475Y-53704819D02*
X116485713Y-53657200D01*
X116485713Y-53657200D02*
X116533332Y-53609580D01*
X116933333Y-74004819D02*
X116933333Y-74719104D01*
X116933333Y-74719104D02*
X116980952Y-74861961D01*
X116980952Y-74861961D02*
X117076190Y-74957200D01*
X117076190Y-74957200D02*
X117219047Y-75004819D01*
X117219047Y-75004819D02*
X117314285Y-75004819D01*
X116457142Y-75004819D02*
X116457142Y-74004819D01*
X116457142Y-74004819D02*
X116076190Y-74004819D01*
X116076190Y-74004819D02*
X115980952Y-74052438D01*
X115980952Y-74052438D02*
X115933333Y-74100057D01*
X115933333Y-74100057D02*
X115885714Y-74195295D01*
X115885714Y-74195295D02*
X115885714Y-74338152D01*
X115885714Y-74338152D02*
X115933333Y-74433390D01*
X115933333Y-74433390D02*
X115980952Y-74481009D01*
X115980952Y-74481009D02*
X116076190Y-74528628D01*
X116076190Y-74528628D02*
X116457142Y-74528628D01*
X115552380Y-74004819D02*
X114933333Y-74004819D01*
X114933333Y-74004819D02*
X115266666Y-74385771D01*
X115266666Y-74385771D02*
X115123809Y-74385771D01*
X115123809Y-74385771D02*
X115028571Y-74433390D01*
X115028571Y-74433390D02*
X114980952Y-74481009D01*
X114980952Y-74481009D02*
X114933333Y-74576247D01*
X114933333Y-74576247D02*
X114933333Y-74814342D01*
X114933333Y-74814342D02*
X114980952Y-74909580D01*
X114980952Y-74909580D02*
X115028571Y-74957200D01*
X115028571Y-74957200D02*
X115123809Y-75004819D01*
X115123809Y-75004819D02*
X115409523Y-75004819D01*
X115409523Y-75004819D02*
X115504761Y-74957200D01*
X115504761Y-74957200D02*
X115552380Y-74909580D01*
X131166666Y-57154819D02*
X131499999Y-56678628D01*
X131738094Y-57154819D02*
X131738094Y-56154819D01*
X131738094Y-56154819D02*
X131357142Y-56154819D01*
X131357142Y-56154819D02*
X131261904Y-56202438D01*
X131261904Y-56202438D02*
X131214285Y-56250057D01*
X131214285Y-56250057D02*
X131166666Y-56345295D01*
X131166666Y-56345295D02*
X131166666Y-56488152D01*
X131166666Y-56488152D02*
X131214285Y-56583390D01*
X131214285Y-56583390D02*
X131261904Y-56631009D01*
X131261904Y-56631009D02*
X131357142Y-56678628D01*
X131357142Y-56678628D02*
X131738094Y-56678628D01*
X130309523Y-56154819D02*
X130499999Y-56154819D01*
X130499999Y-56154819D02*
X130595237Y-56202438D01*
X130595237Y-56202438D02*
X130642856Y-56250057D01*
X130642856Y-56250057D02*
X130738094Y-56392914D01*
X130738094Y-56392914D02*
X130785713Y-56583390D01*
X130785713Y-56583390D02*
X130785713Y-56964342D01*
X130785713Y-56964342D02*
X130738094Y-57059580D01*
X130738094Y-57059580D02*
X130690475Y-57107200D01*
X130690475Y-57107200D02*
X130595237Y-57154819D01*
X130595237Y-57154819D02*
X130404761Y-57154819D01*
X130404761Y-57154819D02*
X130309523Y-57107200D01*
X130309523Y-57107200D02*
X130261904Y-57059580D01*
X130261904Y-57059580D02*
X130214285Y-56964342D01*
X130214285Y-56964342D02*
X130214285Y-56726247D01*
X130214285Y-56726247D02*
X130261904Y-56631009D01*
X130261904Y-56631009D02*
X130309523Y-56583390D01*
X130309523Y-56583390D02*
X130404761Y-56535771D01*
X130404761Y-56535771D02*
X130595237Y-56535771D01*
X130595237Y-56535771D02*
X130690475Y-56583390D01*
X130690475Y-56583390D02*
X130738094Y-56631009D01*
X130738094Y-56631009D02*
X130785713Y-56726247D01*
X124716666Y-63004819D02*
X125192856Y-63004819D01*
X125192856Y-63004819D02*
X125192856Y-62004819D01*
X123859523Y-63004819D02*
X124430951Y-63004819D01*
X124145237Y-63004819D02*
X124145237Y-62004819D01*
X124145237Y-62004819D02*
X124240475Y-62147676D01*
X124240475Y-62147676D02*
X124335713Y-62242914D01*
X124335713Y-62242914D02*
X124430951Y-62290533D01*
X113716666Y-57249819D02*
X114049999Y-56773628D01*
X114288094Y-57249819D02*
X114288094Y-56249819D01*
X114288094Y-56249819D02*
X113907142Y-56249819D01*
X113907142Y-56249819D02*
X113811904Y-56297438D01*
X113811904Y-56297438D02*
X113764285Y-56345057D01*
X113764285Y-56345057D02*
X113716666Y-56440295D01*
X113716666Y-56440295D02*
X113716666Y-56583152D01*
X113716666Y-56583152D02*
X113764285Y-56678390D01*
X113764285Y-56678390D02*
X113811904Y-56726009D01*
X113811904Y-56726009D02*
X113907142Y-56773628D01*
X113907142Y-56773628D02*
X114288094Y-56773628D01*
X113383332Y-56249819D02*
X112764285Y-56249819D01*
X112764285Y-56249819D02*
X113097618Y-56630771D01*
X113097618Y-56630771D02*
X112954761Y-56630771D01*
X112954761Y-56630771D02*
X112859523Y-56678390D01*
X112859523Y-56678390D02*
X112811904Y-56726009D01*
X112811904Y-56726009D02*
X112764285Y-56821247D01*
X112764285Y-56821247D02*
X112764285Y-57059342D01*
X112764285Y-57059342D02*
X112811904Y-57154580D01*
X112811904Y-57154580D02*
X112859523Y-57202200D01*
X112859523Y-57202200D02*
X112954761Y-57249819D01*
X112954761Y-57249819D02*
X113240475Y-57249819D01*
X113240475Y-57249819D02*
X113335713Y-57202200D01*
X113335713Y-57202200D02*
X113383332Y-57154580D01*
X118042857Y-65354819D02*
X118376190Y-64878628D01*
X118614285Y-65354819D02*
X118614285Y-64354819D01*
X118614285Y-64354819D02*
X118233333Y-64354819D01*
X118233333Y-64354819D02*
X118138095Y-64402438D01*
X118138095Y-64402438D02*
X118090476Y-64450057D01*
X118090476Y-64450057D02*
X118042857Y-64545295D01*
X118042857Y-64545295D02*
X118042857Y-64688152D01*
X118042857Y-64688152D02*
X118090476Y-64783390D01*
X118090476Y-64783390D02*
X118138095Y-64831009D01*
X118138095Y-64831009D02*
X118233333Y-64878628D01*
X118233333Y-64878628D02*
X118614285Y-64878628D01*
X117090476Y-65354819D02*
X117661904Y-65354819D01*
X117376190Y-65354819D02*
X117376190Y-64354819D01*
X117376190Y-64354819D02*
X117471428Y-64497676D01*
X117471428Y-64497676D02*
X117566666Y-64592914D01*
X117566666Y-64592914D02*
X117661904Y-64640533D01*
X116757142Y-64354819D02*
X116138095Y-64354819D01*
X116138095Y-64354819D02*
X116471428Y-64735771D01*
X116471428Y-64735771D02*
X116328571Y-64735771D01*
X116328571Y-64735771D02*
X116233333Y-64783390D01*
X116233333Y-64783390D02*
X116185714Y-64831009D01*
X116185714Y-64831009D02*
X116138095Y-64926247D01*
X116138095Y-64926247D02*
X116138095Y-65164342D01*
X116138095Y-65164342D02*
X116185714Y-65259580D01*
X116185714Y-65259580D02*
X116233333Y-65307200D01*
X116233333Y-65307200D02*
X116328571Y-65354819D01*
X116328571Y-65354819D02*
X116614285Y-65354819D01*
X116614285Y-65354819D02*
X116709523Y-65307200D01*
X116709523Y-65307200D02*
X116757142Y-65259580D01*
X114720238Y-68225057D02*
X114815476Y-68177438D01*
X114815476Y-68177438D02*
X114910714Y-68082200D01*
X114910714Y-68082200D02*
X115053571Y-67939342D01*
X115053571Y-67939342D02*
X115148809Y-67891723D01*
X115148809Y-67891723D02*
X115244047Y-67891723D01*
X115196428Y-68129819D02*
X115291666Y-68082200D01*
X115291666Y-68082200D02*
X115386904Y-67986961D01*
X115386904Y-67986961D02*
X115434523Y-67796485D01*
X115434523Y-67796485D02*
X115434523Y-67463152D01*
X115434523Y-67463152D02*
X115386904Y-67272676D01*
X115386904Y-67272676D02*
X115291666Y-67177438D01*
X115291666Y-67177438D02*
X115196428Y-67129819D01*
X115196428Y-67129819D02*
X115005952Y-67129819D01*
X115005952Y-67129819D02*
X114910714Y-67177438D01*
X114910714Y-67177438D02*
X114815476Y-67272676D01*
X114815476Y-67272676D02*
X114767857Y-67463152D01*
X114767857Y-67463152D02*
X114767857Y-67796485D01*
X114767857Y-67796485D02*
X114815476Y-67986961D01*
X114815476Y-67986961D02*
X114910714Y-68082200D01*
X114910714Y-68082200D02*
X115005952Y-68129819D01*
X115005952Y-68129819D02*
X115196428Y-68129819D01*
X113815476Y-68129819D02*
X114386904Y-68129819D01*
X114101190Y-68129819D02*
X114101190Y-67129819D01*
X114101190Y-67129819D02*
X114196428Y-67272676D01*
X114196428Y-67272676D02*
X114291666Y-67367914D01*
X114291666Y-67367914D02*
X114386904Y-67415533D01*
D13*
G36*
X105076000Y-37747723D02*
G01*
X105056199Y-37911449D01*
X105032163Y-38067622D01*
X105004633Y-38206356D01*
X104987903Y-38279307D01*
X104960253Y-38399703D01*
X104933147Y-38517572D01*
X104912490Y-38609198D01*
X104895827Y-38705886D01*
X104898866Y-38770602D01*
X104926025Y-38815478D01*
X104981723Y-38852641D01*
X105070379Y-38894222D01*
X105270477Y-38999028D01*
X105500895Y-39154213D01*
X105717652Y-39335173D01*
X105907535Y-39530720D01*
X106057327Y-39729667D01*
X106070436Y-39750517D01*
X106131501Y-39858677D01*
X106178280Y-39967981D01*
X106217296Y-40095918D01*
X106255068Y-40259977D01*
X106308345Y-40443941D01*
X106328766Y-40487478D01*
X106396675Y-40632257D01*
X106522407Y-40822469D01*
X106689674Y-41020790D01*
X106902609Y-41233435D01*
X106974571Y-41298211D01*
X107109851Y-41411000D01*
X107249164Y-41518296D01*
X107371630Y-41603619D01*
X107606118Y-41754373D01*
X107562387Y-41865701D01*
X107521324Y-41943501D01*
X107460405Y-42027347D01*
X107391778Y-42103092D01*
X107327069Y-42157929D01*
X107277903Y-42179053D01*
X107255305Y-42169017D01*
X107206900Y-42125018D01*
X107152160Y-42057889D01*
X107114693Y-42008520D01*
X107073492Y-41962253D01*
X107052368Y-41949503D01*
X107054081Y-41977874D01*
X107071335Y-42042668D01*
X107100490Y-42129304D01*
X107116015Y-42172057D01*
X107138629Y-42245840D01*
X107138590Y-42286128D01*
X107138580Y-42296942D01*
X107109577Y-42337229D01*
X107045327Y-42378568D01*
X106939538Y-42432822D01*
X106870339Y-42465529D01*
X106708527Y-42522001D01*
X106540650Y-42548088D01*
X106345161Y-42547965D01*
X106259101Y-42542505D01*
X106138196Y-42530875D01*
X106021017Y-42513116D01*
X105893824Y-42486602D01*
X105742876Y-42448704D01*
X105554431Y-42396796D01*
X105419269Y-42360910D01*
X105280682Y-42332408D01*
X105151015Y-42317827D01*
X105007654Y-42313730D01*
X104922721Y-42314911D01*
X104787546Y-42325935D01*
X104683331Y-42352362D01*
X104595306Y-42398813D01*
X104508703Y-42469914D01*
X104486165Y-42494703D01*
X104430176Y-42581728D01*
X104378833Y-42690483D01*
X104341484Y-42799451D01*
X104327475Y-42887116D01*
X104334261Y-42937415D01*
X104359602Y-43034937D01*
X104399044Y-43155070D01*
X104447636Y-43283018D01*
X104500427Y-43403981D01*
X104515173Y-43436633D01*
X104558191Y-43541629D01*
X104606135Y-43668708D01*
X104651103Y-43797249D01*
X104659383Y-43822121D01*
X104690638Y-43919936D01*
X104711510Y-43999915D01*
X104723670Y-44076393D01*
X104728786Y-44163703D01*
X104728526Y-44276178D01*
X104724560Y-44428152D01*
X104723299Y-44466074D01*
X104716391Y-44606261D01*
X104707012Y-44728787D01*
X104696231Y-44821584D01*
X104685120Y-44872584D01*
X104680525Y-44883855D01*
X104652062Y-44960640D01*
X104622840Y-45047664D01*
X104617096Y-45065678D01*
X104588906Y-45151068D01*
X104565575Y-45217631D01*
X104561819Y-45227238D01*
X104540595Y-45259941D01*
X104512985Y-45257236D01*
X104472260Y-45215304D01*
X104411692Y-45130329D01*
X104404133Y-45119077D01*
X104374488Y-45071528D01*
X104353970Y-45025900D01*
X104340556Y-44971036D01*
X104332225Y-44895779D01*
X104326953Y-44788974D01*
X104322719Y-44639463D01*
X104322536Y-44632186D01*
X104317850Y-44484389D01*
X104309007Y-44367650D01*
X104291221Y-44272029D01*
X104259706Y-44187587D01*
X104209675Y-44104384D01*
X104136345Y-44012479D01*
X104034928Y-43901932D01*
X103900639Y-43762803D01*
X103620500Y-43474549D01*
X103606839Y-43304365D01*
X103593178Y-43134182D01*
X103710844Y-43019975D01*
X103755721Y-42974895D01*
X103802707Y-42915779D01*
X103823695Y-42859570D01*
X103828509Y-42786804D01*
X103824943Y-42732554D01*
X103786299Y-42615045D01*
X103710864Y-42530919D01*
X103605737Y-42486245D01*
X103478018Y-42487094D01*
X103438239Y-42498866D01*
X103351812Y-42559315D01*
X103291248Y-42653443D01*
X103266706Y-42767758D01*
X103266930Y-42788097D01*
X103289323Y-42884671D01*
X103351027Y-42995698D01*
X103370485Y-43025038D01*
X103407083Y-43089093D01*
X103427378Y-43150641D01*
X103436092Y-43228460D01*
X103437947Y-43341329D01*
X103437947Y-43558169D01*
X103768851Y-43898887D01*
X103877263Y-44012434D01*
X103993747Y-44143148D01*
X104078142Y-44253785D01*
X104135312Y-44353249D01*
X104170125Y-44450446D01*
X104187444Y-44554282D01*
X104192136Y-44673663D01*
X104192086Y-44684427D01*
X104184289Y-44775346D01*
X104161149Y-44815615D01*
X104119721Y-44806920D01*
X104057058Y-44750948D01*
X104036025Y-44730552D01*
X103961437Y-44670821D01*
X103877283Y-44615136D01*
X103867535Y-44609320D01*
X103787841Y-44547608D01*
X103761171Y-44491692D01*
X103761169Y-44490755D01*
X103751403Y-44428220D01*
X103720136Y-44356036D01*
X103663575Y-44269018D01*
X103577929Y-44161984D01*
X103459405Y-44029751D01*
X103304211Y-43867137D01*
X102939644Y-43492683D01*
X102924574Y-43004214D01*
X102921460Y-42871587D01*
X102920209Y-42708346D01*
X102921844Y-42562581D01*
X102926201Y-42446405D01*
X102933117Y-42371933D01*
X102965936Y-42242382D01*
X103031520Y-42096273D01*
X103131075Y-41943598D01*
X103183962Y-41880354D01*
X104192136Y-41880354D01*
X104194652Y-41882204D01*
X104234622Y-41887716D01*
X104315735Y-41892169D01*
X104428268Y-41895147D01*
X104562496Y-41896232D01*
X104705209Y-41897594D01*
X104839742Y-41903687D01*
X104961818Y-41916953D01*
X105081726Y-41939826D01*
X105209753Y-41974741D01*
X105356188Y-42024130D01*
X105531319Y-42090428D01*
X105745435Y-42176069D01*
X105813310Y-42201287D01*
X105936350Y-42240671D01*
X106055191Y-42272725D01*
X106118018Y-42286369D01*
X106238482Y-42305605D01*
X106336950Y-42312218D01*
X106403390Y-42305846D01*
X106427767Y-42286128D01*
X106413732Y-42262602D01*
X106367162Y-42232999D01*
X106360307Y-42229969D01*
X106301395Y-42200264D01*
X106215268Y-42153531D01*
X106118011Y-42098457D01*
X105994251Y-42027643D01*
X105803216Y-41923210D01*
X105641299Y-41843780D01*
X105498526Y-41786103D01*
X105364922Y-41746930D01*
X105230514Y-41723012D01*
X105085328Y-41711097D01*
X104919389Y-41707938D01*
X104796936Y-41709280D01*
X104651876Y-41716379D01*
X104543450Y-41730464D01*
X104461489Y-41752525D01*
X104406176Y-41773168D01*
X104290076Y-41820419D01*
X104217324Y-41856815D01*
X104192136Y-41880354D01*
X103183962Y-41880354D01*
X103268058Y-41779789D01*
X103445928Y-41600277D01*
X103668140Y-41400491D01*
X103680875Y-41389329D01*
X103734767Y-41333201D01*
X103744049Y-41302853D01*
X103711339Y-41298827D01*
X103639253Y-41321666D01*
X103530409Y-41371913D01*
X103380806Y-41462485D01*
X103212098Y-41594252D01*
X103057975Y-41743401D01*
X102936981Y-41893627D01*
X102905164Y-41943055D01*
X102839549Y-42068804D01*
X102791540Y-42206501D01*
X102758754Y-42366474D01*
X102738813Y-42559051D01*
X102729336Y-42794560D01*
X102727689Y-42866591D01*
X102723154Y-43000777D01*
X102717495Y-43110470D01*
X102711274Y-43185879D01*
X102705054Y-43217213D01*
X102701717Y-43218264D01*
X102668896Y-43200060D01*
X102611858Y-43152656D01*
X102539673Y-43085098D01*
X102461414Y-43006432D01*
X102386152Y-42925705D01*
X102322958Y-42851962D01*
X102280904Y-42794250D01*
X102257357Y-42748672D01*
X102238266Y-42682863D01*
X102228645Y-42593660D01*
X102225959Y-42465914D01*
X102225954Y-42451159D01*
X102226946Y-42341619D01*
X102232725Y-42269698D01*
X102247446Y-42220736D01*
X102275268Y-42180072D01*
X102320349Y-42133046D01*
X102341977Y-42110441D01*
X102417144Y-42000876D01*
X102438739Y-41893775D01*
X102406769Y-41786513D01*
X102321237Y-41676469D01*
X102309167Y-41664757D01*
X102215850Y-41601474D01*
X102119410Y-41589544D01*
X102009494Y-41627335D01*
X101955551Y-41663919D01*
X101886505Y-41753685D01*
X101854133Y-41862472D01*
X101859096Y-41976543D01*
X101902052Y-42082160D01*
X101983660Y-42165586D01*
X102002157Y-42178149D01*
X102032318Y-42203426D01*
X102050733Y-42235316D01*
X102060392Y-42285634D01*
X102064279Y-42366194D01*
X102065383Y-42488809D01*
X102066730Y-42558312D01*
X102073629Y-42676831D01*
X102084951Y-42773297D01*
X102099130Y-42831809D01*
X102130438Y-42885167D01*
X102203028Y-42980802D01*
X102309724Y-43105433D01*
X102447088Y-43255327D01*
X102611680Y-43426749D01*
X102800060Y-43615967D01*
X103008788Y-43819247D01*
X103082646Y-43890370D01*
X103253992Y-44057720D01*
X103385741Y-44190718D01*
X103478442Y-44290344D01*
X103532643Y-44357576D01*
X103548890Y-44393394D01*
X103527732Y-44398777D01*
X103469716Y-44374705D01*
X103375390Y-44322156D01*
X103245302Y-44242111D01*
X103208618Y-44218681D01*
X102972133Y-44057347D01*
X102740186Y-43882557D01*
X102523834Y-43703397D01*
X102334133Y-43528955D01*
X102182141Y-43368318D01*
X102097312Y-43263548D01*
X101919905Y-43003984D01*
X101764519Y-42720879D01*
X101643109Y-42434939D01*
X101641287Y-42429840D01*
X101607722Y-42329620D01*
X101585821Y-42243010D01*
X101573167Y-42153149D01*
X101567346Y-42043177D01*
X101565943Y-41896232D01*
X101566675Y-41815679D01*
X101577530Y-41622132D01*
X101604949Y-41453579D01*
X101653498Y-41293498D01*
X101727745Y-41125365D01*
X101832256Y-40932658D01*
X101844797Y-40910595D01*
X101889443Y-40826595D01*
X101917559Y-40764506D01*
X101923510Y-40736444D01*
X101907609Y-40740291D01*
X101864402Y-40776309D01*
X101803743Y-40838882D01*
X101733971Y-40918405D01*
X101663426Y-41005277D01*
X101600447Y-41089895D01*
X101553373Y-41162656D01*
X101520417Y-41218828D01*
X101490085Y-41261184D01*
X101472007Y-41265743D01*
X101458854Y-41238375D01*
X101455309Y-41215942D01*
X101455053Y-41140955D01*
X101461804Y-41035427D01*
X101473987Y-40914035D01*
X101490022Y-40791453D01*
X101508331Y-40682358D01*
X101527338Y-40601425D01*
X101545036Y-40533152D01*
X101552475Y-40484287D01*
X101556819Y-40456545D01*
X101583003Y-40377895D01*
X101628308Y-40270231D01*
X101687447Y-40144577D01*
X101696944Y-40125970D01*
X105017370Y-40125970D01*
X105017869Y-40131900D01*
X105045423Y-40165876D01*
X105103226Y-40219594D01*
X105181097Y-40284964D01*
X105268850Y-40353894D01*
X105356301Y-40418293D01*
X105433266Y-40470068D01*
X105489561Y-40501129D01*
X105539954Y-40521619D01*
X105658237Y-40560296D01*
X105736379Y-40569090D01*
X105772274Y-40547654D01*
X105779097Y-40487478D01*
X105751348Y-40397381D01*
X105690033Y-40304161D01*
X105603379Y-40219647D01*
X105499613Y-40155663D01*
X105498452Y-40155141D01*
X105425628Y-40132688D01*
X105329576Y-40116023D01*
X105225510Y-40106081D01*
X105128644Y-40103801D01*
X105054193Y-40110118D01*
X105017370Y-40125970D01*
X101696944Y-40125970D01*
X101755133Y-40011959D01*
X101826081Y-39883402D01*
X101895004Y-39769929D01*
X102089442Y-39514130D01*
X102335351Y-39271740D01*
X102622517Y-39055217D01*
X102840152Y-38929789D01*
X104003589Y-38929789D01*
X104005675Y-38981520D01*
X104017846Y-39064633D01*
X104037273Y-39117262D01*
X104042320Y-39123961D01*
X104063690Y-39140850D01*
X104081717Y-39120538D01*
X104104611Y-39055496D01*
X104111950Y-39031294D01*
X104130737Y-38961186D01*
X104138265Y-38919128D01*
X104138670Y-38911952D01*
X104154270Y-38847243D01*
X104188910Y-38748275D01*
X104237646Y-38626494D01*
X104295536Y-38493345D01*
X104357636Y-38360273D01*
X104419004Y-38238725D01*
X104474695Y-38140146D01*
X104569218Y-37983740D01*
X104639223Y-37860885D01*
X104678921Y-37780388D01*
X104688536Y-37741282D01*
X104668291Y-37742604D01*
X104618412Y-37783388D01*
X104539121Y-37862669D01*
X104424402Y-37991133D01*
X104288491Y-38169857D01*
X104179366Y-38346185D01*
X104102766Y-38510558D01*
X104064430Y-38653415D01*
X104061203Y-38674407D01*
X104045028Y-38740290D01*
X104026889Y-38773982D01*
X104018165Y-38789716D01*
X104007680Y-38847473D01*
X104003589Y-38929789D01*
X102840152Y-38929789D01*
X102946032Y-38868768D01*
X103002058Y-38839596D01*
X103080732Y-38788674D01*
X103134528Y-38731883D01*
X103180536Y-38653537D01*
X103272560Y-38494745D01*
X103438007Y-38269499D01*
X103640045Y-38043905D01*
X103869693Y-37825718D01*
X104117966Y-37622693D01*
X104375883Y-37442586D01*
X104634460Y-37293152D01*
X104884716Y-37182148D01*
X104951424Y-37158576D01*
X105018886Y-37140059D01*
X105058483Y-37140451D01*
X105083137Y-37158192D01*
X105085577Y-37161759D01*
X105098054Y-37214979D01*
X105102594Y-37310071D01*
X105099938Y-37437148D01*
X105090827Y-37586328D01*
X105076592Y-37741282D01*
X105076000Y-37747723D01*
G37*
G36*
X103632818Y-42641914D02*
G01*
X103681977Y-42695851D01*
X103701320Y-42769757D01*
X103680893Y-42851448D01*
X103668001Y-42871759D01*
X103626114Y-42899119D01*
X103553388Y-42901094D01*
X103543626Y-42900057D01*
X103473271Y-42880912D01*
X103429975Y-42849871D01*
X103420990Y-42831027D01*
X103417269Y-42757015D01*
X103447150Y-42683129D01*
X103502621Y-42633266D01*
X103563796Y-42620126D01*
X103632818Y-42641914D01*
G37*
G36*
X99525593Y-40165271D02*
G01*
X100407724Y-40172372D01*
X100415507Y-40408056D01*
X100423289Y-40643740D01*
X99910470Y-40643740D01*
X99898844Y-40643744D01*
X99740452Y-40644659D01*
X99602873Y-40646994D01*
X99494370Y-40650489D01*
X99423207Y-40654882D01*
X99397650Y-40659913D01*
X99400400Y-40665420D01*
X99429648Y-40704266D01*
X99485801Y-40772781D01*
X99562537Y-40863344D01*
X99653535Y-40968338D01*
X99909421Y-41260590D01*
X99909421Y-41420320D01*
X99909421Y-41580051D01*
X99659106Y-41590999D01*
X99601639Y-41594152D01*
X99449275Y-41612556D01*
X99334541Y-41647230D01*
X99245825Y-41702764D01*
X99171515Y-41783748D01*
X99151412Y-41816481D01*
X99120436Y-41926161D01*
X99124507Y-42050538D01*
X99164004Y-42170120D01*
X99186694Y-42204958D01*
X99271421Y-42282341D01*
X99383893Y-42343601D01*
X99505751Y-42380127D01*
X99618636Y-42383312D01*
X99717584Y-42357838D01*
X99849613Y-42304455D01*
X99975238Y-42236633D01*
X100071033Y-42165645D01*
X100138371Y-42102229D01*
X100311623Y-42162600D01*
X100400301Y-42197919D01*
X100473984Y-42235857D01*
X100512394Y-42266597D01*
X100523653Y-42304890D01*
X100503701Y-42375788D01*
X100440003Y-42468134D01*
X100331051Y-42584575D01*
X100198641Y-42688708D01*
X100015189Y-42780734D01*
X99815147Y-42834913D01*
X99794718Y-42837200D01*
X99714621Y-42840336D01*
X99605435Y-42839989D01*
X99484641Y-42836095D01*
X99313409Y-42818417D01*
X99100101Y-42760566D01*
X98921459Y-42662986D01*
X98774901Y-42524137D01*
X98657849Y-42342480D01*
X98606422Y-42198404D01*
X98585176Y-42015470D01*
X98603216Y-41828176D01*
X98660477Y-41653717D01*
X98728359Y-41539804D01*
X98835513Y-41415971D01*
X98957839Y-41317600D01*
X99081117Y-41258066D01*
X99104145Y-41250400D01*
X99169092Y-41219363D01*
X99202264Y-41188353D01*
X99202739Y-41186273D01*
X99185582Y-41148303D01*
X99132114Y-41079016D01*
X99045801Y-40982554D01*
X98930107Y-40863060D01*
X98643461Y-40575522D01*
X98643461Y-40366846D01*
X98643461Y-40158169D01*
X99525593Y-40165271D01*
G37*
G36*
X98180279Y-42363897D02*
G01*
X98179228Y-42525990D01*
X98177684Y-42650466D01*
X98175674Y-42731907D01*
X98173221Y-42764896D01*
X98171523Y-42767107D01*
X98132631Y-42778245D01*
X98050401Y-42787078D01*
X97933742Y-42793567D01*
X97791561Y-42797676D01*
X97632765Y-42799367D01*
X97466264Y-42798603D01*
X97300963Y-42795345D01*
X97145772Y-42789558D01*
X97009598Y-42781202D01*
X96901349Y-42770242D01*
X96778993Y-42748340D01*
X96533475Y-42668580D01*
X96313634Y-42547710D01*
X96124497Y-42390367D01*
X95971087Y-42201189D01*
X95858430Y-41984815D01*
X95791551Y-41745882D01*
X95767187Y-41525559D01*
X95768929Y-41478735D01*
X96327024Y-41478735D01*
X96329132Y-41549742D01*
X96364856Y-41760632D01*
X96444033Y-41940036D01*
X96565741Y-42086741D01*
X96729060Y-42199534D01*
X96933069Y-42277203D01*
X96972402Y-42285632D01*
X97079232Y-42299798D01*
X97209793Y-42309641D01*
X97344222Y-42313410D01*
X97620698Y-42313730D01*
X97613575Y-41485469D01*
X97606452Y-40657208D01*
X97371905Y-40649442D01*
X97341610Y-40648661D01*
X97082548Y-40662599D01*
X96858717Y-40713647D01*
X96671803Y-40800470D01*
X96523491Y-40921727D01*
X96415467Y-41076083D01*
X96349416Y-41262198D01*
X96327024Y-41478735D01*
X95768929Y-41478735D01*
X95777276Y-41254362D01*
X95833988Y-41006054D01*
X95936076Y-40783190D01*
X96082290Y-40588323D01*
X96271382Y-40424006D01*
X96502104Y-40292792D01*
X96525052Y-40282823D01*
X96676115Y-40233691D01*
X96863875Y-40197636D01*
X97092324Y-40174222D01*
X97365455Y-40163014D01*
X97687258Y-40163577D01*
X98172093Y-40172372D01*
X98179109Y-41451800D01*
X98180243Y-41706086D01*
X98180812Y-41948527D01*
X98180816Y-42169604D01*
X98180418Y-42313730D01*
X98180279Y-42363897D01*
G37*
G36*
X95377811Y-41486414D02*
G01*
X95384802Y-42800456D01*
X95108458Y-42792777D01*
X94832114Y-42785098D01*
X94824789Y-42280653D01*
X94817463Y-41776208D01*
X94313018Y-41768882D01*
X93808573Y-41761556D01*
X93808573Y-41532606D01*
X93808573Y-41303656D01*
X94311940Y-41296333D01*
X94815308Y-41289011D01*
X94823711Y-40992764D01*
X94826009Y-40891759D01*
X94827015Y-40784365D01*
X94826050Y-40706424D01*
X94823136Y-40670128D01*
X94797909Y-40661737D01*
X94723235Y-40654202D01*
X94604096Y-40648541D01*
X94445381Y-40644978D01*
X94251981Y-40643740D01*
X93689805Y-40643740D01*
X93673430Y-40556201D01*
X93668416Y-40518097D01*
X93663650Y-40422933D01*
X93665475Y-40320517D01*
X93673896Y-40172372D01*
X94522358Y-40172372D01*
X95370821Y-40172372D01*
X95377811Y-41486414D01*
G37*
G36*
X93403785Y-41853307D02*
G01*
X93460061Y-42002485D01*
X93503285Y-42115208D01*
X93535350Y-42196344D01*
X93558151Y-42250762D01*
X93573581Y-42283329D01*
X93583533Y-42298915D01*
X93591310Y-42309784D01*
X93606558Y-42362183D01*
X93606602Y-42364138D01*
X93617918Y-42415732D01*
X93643175Y-42484739D01*
X93689001Y-42592788D01*
X93720554Y-42673203D01*
X93736698Y-42725201D01*
X93741234Y-42759430D01*
X93739918Y-42767261D01*
X93721590Y-42782751D01*
X93674969Y-42792334D01*
X93591545Y-42797207D01*
X93462809Y-42798565D01*
X93184383Y-42798565D01*
X93095901Y-42541872D01*
X93082515Y-42503963D01*
X93034266Y-42382769D01*
X92991189Y-42298259D01*
X92957108Y-42258253D01*
X92925507Y-42250892D01*
X92844197Y-42243326D01*
X92723784Y-42237772D01*
X92572415Y-42234581D01*
X92398239Y-42234106D01*
X92338009Y-42234448D01*
X92175853Y-42235785D01*
X92057672Y-42238142D01*
X91975908Y-42242384D01*
X91923005Y-42249377D01*
X91891403Y-42259985D01*
X91873545Y-42275074D01*
X91861873Y-42295509D01*
X91851954Y-42317588D01*
X91820381Y-42393375D01*
X91780633Y-42492920D01*
X91739848Y-42597957D01*
X91705164Y-42690215D01*
X91683719Y-42751429D01*
X91673684Y-42769767D01*
X91647539Y-42784650D01*
X91596754Y-42793396D01*
X91511593Y-42797527D01*
X91382320Y-42798565D01*
X91095734Y-42798565D01*
X91113997Y-42724493D01*
X91118953Y-42706781D01*
X91143322Y-42633444D01*
X91179821Y-42532898D01*
X91222598Y-42421471D01*
X91237660Y-42383206D01*
X91294147Y-42238647D01*
X91355482Y-42080475D01*
X91410815Y-41936635D01*
X91422329Y-41906548D01*
X91468670Y-41785994D01*
X92064259Y-41785994D01*
X92065757Y-41786917D01*
X92104242Y-41792792D01*
X92184354Y-41797571D01*
X92295413Y-41800783D01*
X92426739Y-41801959D01*
X92520389Y-41801533D01*
X92642918Y-41798498D01*
X92723338Y-41791896D01*
X92769049Y-41780969D01*
X92787453Y-41764957D01*
X92788293Y-41761235D01*
X92782180Y-41713735D01*
X92760038Y-41628824D01*
X92725434Y-41516372D01*
X92681936Y-41386248D01*
X92633112Y-41248322D01*
X92582529Y-41112464D01*
X92533755Y-40988542D01*
X92490358Y-40886427D01*
X92455906Y-40815988D01*
X92433966Y-40787094D01*
X92418625Y-40800640D01*
X92388478Y-40855637D01*
X92349946Y-40943494D01*
X92307732Y-41054260D01*
X92283981Y-41120604D01*
X92229044Y-41273357D01*
X92174287Y-41424841D01*
X92128643Y-41550310D01*
X92113431Y-41593034D01*
X92083237Y-41686755D01*
X92065709Y-41755239D01*
X92064259Y-41785994D01*
X91468670Y-41785994D01*
X91491383Y-41726906D01*
X91546013Y-41586532D01*
X91590053Y-41475644D01*
X91627340Y-41384461D01*
X91636315Y-41362076D01*
X91666251Y-41283201D01*
X91705078Y-41177420D01*
X91746699Y-41061238D01*
X91766856Y-41004669D01*
X91805631Y-40898134D01*
X91837533Y-40813378D01*
X91857140Y-40764949D01*
X91869911Y-40735362D01*
X91900830Y-40660551D01*
X91942292Y-40558292D01*
X91988939Y-40441726D01*
X92096042Y-40172372D01*
X92416375Y-40164841D01*
X92422724Y-40164694D01*
X92570842Y-40163154D01*
X92672261Y-40166805D01*
X92733707Y-40176171D01*
X92761906Y-40191777D01*
X92764286Y-40195394D01*
X92788816Y-40245886D01*
X92830265Y-40343916D01*
X92887568Y-40486759D01*
X92959661Y-40671693D01*
X93045482Y-40895993D01*
X93143966Y-41156936D01*
X93254049Y-41451800D01*
X93332564Y-41662804D01*
X93369363Y-41761235D01*
X93403785Y-41853307D01*
G37*
G36*
X90771872Y-41485469D02*
G01*
X90775106Y-42092932D01*
X90778862Y-42798565D01*
X90085022Y-42798032D01*
X89972927Y-42797755D01*
X89714936Y-42795092D01*
X89502732Y-42789206D01*
X89330510Y-42779572D01*
X89192466Y-42765665D01*
X89082795Y-42746959D01*
X88995695Y-42722928D01*
X88925359Y-42693048D01*
X88871558Y-42660894D01*
X88755260Y-42564869D01*
X88653936Y-42448411D01*
X88585521Y-42330642D01*
X88577026Y-42307690D01*
X88550473Y-42181281D01*
X88543881Y-42036396D01*
X88547984Y-41992701D01*
X89104493Y-41992701D01*
X89122760Y-42106058D01*
X89186897Y-42212297D01*
X89265433Y-42300262D01*
X89752730Y-42308698D01*
X89900149Y-42310804D01*
X90040837Y-42311159D01*
X90139854Y-42308628D01*
X90203945Y-42302825D01*
X90239857Y-42293360D01*
X90254337Y-42279846D01*
X90257875Y-42260148D01*
X90261718Y-42192492D01*
X90262817Y-42092932D01*
X90260879Y-41975121D01*
X90253111Y-41707685D01*
X89835614Y-41699492D01*
X89807510Y-41698997D01*
X89640661Y-41698491D01*
X89496681Y-41702157D01*
X89385876Y-41709579D01*
X89318554Y-41720342D01*
X89293068Y-41728927D01*
X89192832Y-41792236D01*
X89128912Y-41884127D01*
X89104493Y-41992701D01*
X88547984Y-41992701D01*
X88557069Y-41895944D01*
X88589856Y-41782833D01*
X88639544Y-41693170D01*
X88698562Y-41612512D01*
X88755660Y-41554718D01*
X88800073Y-41532606D01*
X88838056Y-41519854D01*
X88892842Y-41484180D01*
X88952645Y-41435755D01*
X88857469Y-41363161D01*
X88835485Y-41345412D01*
X88728955Y-41221648D01*
X88660208Y-41071373D01*
X88637629Y-40946870D01*
X89189166Y-40946870D01*
X89190268Y-40976167D01*
X89222979Y-41092193D01*
X89300392Y-41178530D01*
X89421545Y-41233988D01*
X89425408Y-41235001D01*
X89496102Y-41245906D01*
X89605254Y-41254822D01*
X89738690Y-41260853D01*
X89882238Y-41263102D01*
X89892794Y-41263112D01*
X90042286Y-41263479D01*
X90146356Y-41258835D01*
X90212878Y-41241345D01*
X90249729Y-41203169D01*
X90264783Y-41136472D01*
X90265918Y-41033414D01*
X90261008Y-40886158D01*
X90253111Y-40630273D01*
X89983758Y-40621806D01*
X89929208Y-40620521D01*
X89785243Y-40620360D01*
X89647851Y-40624109D01*
X89540642Y-40631264D01*
X89483061Y-40638055D01*
X89398734Y-40655859D01*
X89337265Y-40686393D01*
X89278022Y-40738044D01*
X89227939Y-40794507D01*
X89196862Y-40860089D01*
X89189166Y-40946870D01*
X88637629Y-40946870D01*
X88630143Y-40905594D01*
X88639657Y-40735318D01*
X88689647Y-40571552D01*
X88781010Y-40425304D01*
X88805754Y-40397412D01*
X88880803Y-40330312D01*
X88970704Y-40276191D01*
X89080990Y-40233979D01*
X89217197Y-40202605D01*
X89384857Y-40180999D01*
X89589505Y-40168092D01*
X89836676Y-40162812D01*
X90131902Y-40164091D01*
X90764882Y-40172372D01*
X90769466Y-41033414D01*
X90771872Y-41485469D01*
G37*
G36*
X102174153Y-41759792D02*
G01*
X102235611Y-41797678D01*
X102272023Y-41860550D01*
X102275312Y-41933607D01*
X102237402Y-42002050D01*
X102219171Y-42017622D01*
X102148878Y-42042608D01*
X102079038Y-42028327D01*
X102022990Y-41983990D01*
X101994077Y-41918810D01*
X102005639Y-41842001D01*
X102040584Y-41796320D01*
X102104818Y-41759107D01*
X102174153Y-41759792D01*
G37*
D14*
X144597500Y-50377258D02*
X144597500Y-49902742D01*
X145642500Y-50377258D02*
X145642500Y-49902742D01*
X143097500Y-50377258D02*
X143097500Y-49902742D01*
X144142500Y-50377258D02*
X144142500Y-49902742D01*
X128737258Y-54677500D02*
X128262742Y-54677500D01*
X128737258Y-55722500D02*
X128262742Y-55722500D01*
D12*
X136680000Y-33000000D02*
X136680000Y-47000000D01*
X136680000Y-47000000D02*
X152180000Y-47000000D01*
X137980000Y-33000000D02*
X148980000Y-33010000D01*
X152180000Y-33000000D02*
X136680000Y-33000000D01*
X152180000Y-33000000D02*
X136680000Y-33000000D01*
X152180000Y-47000000D02*
X152180000Y-33000000D01*
X152180000Y-47000000D02*
X152180000Y-33000000D01*
D14*
X100877500Y-71062742D02*
X100877500Y-71537258D01*
X101922500Y-71062742D02*
X101922500Y-71537258D01*
X106737258Y-70477500D02*
X106262742Y-70477500D01*
X106737258Y-71522500D02*
X106262742Y-71522500D01*
X88550000Y-71400000D02*
X88550000Y-72000000D01*
X89200000Y-72700000D02*
X92000000Y-72700000D01*
X91800000Y-72900000D02*
X91500000Y-73200000D01*
X91800000Y-72900000D02*
X92100000Y-73200000D01*
X92000000Y-70700000D02*
X89200000Y-70700000D01*
X92100000Y-73200000D02*
X91500000Y-73200000D01*
X92650000Y-72000000D02*
X92650000Y-71400000D01*
X88550000Y-71400000D02*
G75*
G02*
X89250000Y-70700000I700000J0D01*
G01*
X89250000Y-72700000D02*
G75*
G02*
X88550000Y-72000000I0J700000D01*
G01*
X91950000Y-70700000D02*
G75*
G02*
X92650000Y-71400000I1J-699999D01*
G01*
X92650000Y-72000000D02*
G75*
G02*
X91950000Y-72700000I-699999J-1D01*
G01*
D11*
X106025000Y-57025000D02*
X106025000Y-57225000D01*
X106025000Y-62175000D02*
X106025000Y-61975000D01*
X110175000Y-57025000D02*
X106025000Y-57025000D01*
X110175000Y-57025000D02*
X110175000Y-57225000D01*
X110175000Y-57225000D02*
X111475000Y-57225000D01*
X110175000Y-62175000D02*
X106025000Y-62175000D01*
X110175000Y-62175000D02*
X110175000Y-61975000D01*
D14*
X107602500Y-34837742D02*
X107602500Y-35312258D01*
X108647500Y-34837742D02*
X108647500Y-35312258D01*
X150262742Y-65627500D02*
X150737258Y-65627500D01*
X150262742Y-66672500D02*
X150737258Y-66672500D01*
X149177500Y-73637258D02*
X149177500Y-73162742D01*
X150222500Y-73637258D02*
X150222500Y-73162742D01*
X150359420Y-67140000D02*
X150640580Y-67140000D01*
X150359420Y-68160000D02*
X150640580Y-68160000D01*
X135610000Y-50499420D02*
X135610000Y-50780580D01*
X136630000Y-50499420D02*
X136630000Y-50780580D01*
X93200000Y-74200000D02*
X93200000Y-74800000D01*
X93900000Y-75500000D02*
X95300000Y-75500000D01*
X95300000Y-73500000D02*
X93900000Y-73500000D01*
X96000000Y-74800000D02*
X96000000Y-74200000D01*
X93200000Y-74200000D02*
G75*
G02*
X93900000Y-73500000I699999J1D01*
G01*
X93900000Y-75500000D02*
G75*
G02*
X93200000Y-74800000I-1J699999D01*
G01*
X95300000Y-73500000D02*
G75*
G02*
X96000000Y-74200000I0J-700000D01*
G01*
X96000000Y-74800000D02*
G75*
G02*
X95300000Y-75500000I-700000J0D01*
G01*
X99277500Y-71062742D02*
X99277500Y-71537258D01*
X100322500Y-71062742D02*
X100322500Y-71537258D01*
D13*
G36*
X96354627Y-46389305D02*
G01*
X96476138Y-46494196D01*
X96565005Y-46743583D01*
X96653988Y-47196484D01*
X96719195Y-47600708D01*
X96811048Y-48228651D01*
X96914675Y-48981879D01*
X97024047Y-49811973D01*
X97133136Y-50670516D01*
X97235910Y-51509090D01*
X97326342Y-52279277D01*
X97398401Y-52932659D01*
X97446058Y-53420817D01*
X97463283Y-53695335D01*
X97441694Y-53909217D01*
X97226508Y-54333164D01*
X96801825Y-54610184D01*
X96715437Y-54643226D01*
X96562652Y-54698391D01*
X96445704Y-54706712D01*
X96353432Y-54637567D01*
X96274674Y-54460340D01*
X96198269Y-54144409D01*
X96113053Y-53659155D01*
X96007866Y-52973960D01*
X95871546Y-52058203D01*
X95762500Y-51345401D01*
X95613489Y-50406059D01*
X95461781Y-49480033D01*
X95327464Y-48691622D01*
X95050279Y-47110979D01*
X95465118Y-46740320D01*
X95551204Y-46668711D01*
X95897952Y-46455472D01*
X96195019Y-46369661D01*
X96354627Y-46389305D01*
G37*
G36*
X104027543Y-46389305D02*
G01*
X104149055Y-46494196D01*
X104237922Y-46743583D01*
X104326905Y-47196484D01*
X104392112Y-47600708D01*
X104483964Y-48228651D01*
X104587592Y-48981879D01*
X104696964Y-49811973D01*
X104806052Y-50670516D01*
X104908827Y-51509090D01*
X104999258Y-52279277D01*
X105071317Y-52932659D01*
X105118974Y-53420817D01*
X105136200Y-53695335D01*
X105114610Y-53909217D01*
X104899425Y-54333164D01*
X104474741Y-54610184D01*
X104388354Y-54643226D01*
X104235569Y-54698391D01*
X104118621Y-54706712D01*
X104026349Y-54637567D01*
X103947591Y-54460340D01*
X103871185Y-54144409D01*
X103785970Y-53659155D01*
X103680783Y-52973960D01*
X103544463Y-52058203D01*
X103435417Y-51345401D01*
X103286406Y-50406059D01*
X103134698Y-49480033D01*
X103000381Y-48691622D01*
X102723196Y-47110979D01*
X103138035Y-46740320D01*
X103224121Y-46668711D01*
X103570868Y-46455472D01*
X103867936Y-46369661D01*
X104027543Y-46389305D01*
G37*
G36*
X91635501Y-46321649D02*
G01*
X91642936Y-46333309D01*
X91701687Y-46540988D01*
X91780376Y-46949272D01*
X91869622Y-47505147D01*
X91960043Y-48155599D01*
X92098434Y-49161673D01*
X92304183Y-50436216D01*
X92514768Y-51492446D01*
X92727708Y-52321131D01*
X92940522Y-52913037D01*
X93150728Y-53258933D01*
X93355846Y-53349586D01*
X93418441Y-53301687D01*
X93507384Y-53034714D01*
X93556248Y-52576003D01*
X93566236Y-51971255D01*
X93538550Y-51266173D01*
X93474394Y-50506459D01*
X93374972Y-49737817D01*
X93241486Y-49005947D01*
X93150765Y-48558015D01*
X93052825Y-47993540D01*
X92994514Y-47547984D01*
X92986156Y-47290701D01*
X93031366Y-47165168D01*
X93239208Y-46893841D01*
X93537517Y-46632370D01*
X93843307Y-46448092D01*
X94073595Y-46408341D01*
X94140584Y-46453708D01*
X94224102Y-46595094D01*
X94313273Y-46861465D01*
X94417299Y-47286863D01*
X94545380Y-47905331D01*
X94706716Y-48750911D01*
X94762647Y-49068580D01*
X94893838Y-50015303D01*
X94976070Y-50949939D01*
X95008420Y-51823086D01*
X94989965Y-52585340D01*
X94919781Y-53187298D01*
X94796946Y-53579557D01*
X94787013Y-53597342D01*
X94481128Y-54025755D01*
X94108572Y-54393238D01*
X93759117Y-54610608D01*
X93343911Y-54687093D01*
X92792060Y-54656930D01*
X92314476Y-54511064D01*
X91997521Y-54236979D01*
X91666052Y-53708458D01*
X91358252Y-52964639D01*
X91084584Y-52031176D01*
X90855510Y-50933724D01*
X90756511Y-50331644D01*
X90646007Y-49585308D01*
X90547750Y-48847058D01*
X90467643Y-48167530D01*
X90411594Y-47597359D01*
X90385508Y-47187182D01*
X90395289Y-46987634D01*
X90399049Y-46978675D01*
X90561169Y-46797986D01*
X90850191Y-46596663D01*
X91181797Y-46419980D01*
X91471673Y-46313217D01*
X91635501Y-46321649D01*
G37*
G36*
X107349635Y-46333012D02*
G01*
X107792925Y-46722249D01*
X108209754Y-47270292D01*
X108564852Y-47920804D01*
X108822946Y-48617443D01*
X108948765Y-49303871D01*
X108958065Y-49606186D01*
X108877129Y-50212150D01*
X108636684Y-50786985D01*
X108211404Y-51381273D01*
X107575961Y-52045596D01*
X107279931Y-52340447D01*
X106908482Y-52779399D01*
X106762944Y-53083454D01*
X106842914Y-53253781D01*
X107147990Y-53291552D01*
X107370765Y-53233021D01*
X107760935Y-53052013D01*
X108182911Y-52795459D01*
X108517119Y-52575588D01*
X108828302Y-52392934D01*
X108996200Y-52322786D01*
X109000042Y-52322808D01*
X109275352Y-52402820D01*
X109525187Y-52582236D01*
X109634117Y-52778582D01*
X109600634Y-52914600D01*
X109409998Y-53241972D01*
X109099016Y-53634691D01*
X108723375Y-54031061D01*
X108338763Y-54369388D01*
X108000869Y-54587979D01*
X107790360Y-54674267D01*
X107105484Y-54794708D01*
X106466895Y-54674535D01*
X105917500Y-54327810D01*
X105500207Y-53768591D01*
X105431571Y-53628480D01*
X105277781Y-53199740D01*
X105265562Y-52816301D01*
X105411436Y-52425846D01*
X105731922Y-51976060D01*
X106243541Y-51414625D01*
X106551650Y-51091968D01*
X106991929Y-50604178D01*
X107276543Y-50230803D01*
X107430567Y-49929280D01*
X107479074Y-49657047D01*
X107447141Y-49371537D01*
X107350718Y-49049500D01*
X107159903Y-48621594D01*
X106929863Y-48226911D01*
X106703528Y-47937365D01*
X106523827Y-47824870D01*
X106439952Y-47858517D01*
X106388889Y-48009220D01*
X106382162Y-48325864D01*
X106414673Y-48856666D01*
X106494240Y-49888462D01*
X106069653Y-50245728D01*
X105952211Y-50342031D01*
X105626996Y-50552712D01*
X105407266Y-50551178D01*
X105252400Y-50320142D01*
X105121781Y-49842317D01*
X105116342Y-49817140D01*
X104975469Y-48933257D01*
X104945846Y-48150050D01*
X105025902Y-47514689D01*
X105214065Y-47074346D01*
X105574753Y-46700893D01*
X106058278Y-46381714D01*
X106557543Y-46190646D01*
X106987445Y-46171040D01*
X107349635Y-46333012D01*
G37*
G36*
X102170703Y-50522062D02*
G01*
X102267666Y-51347514D01*
X102354694Y-52139168D01*
X102425147Y-52839959D01*
X102472384Y-53392823D01*
X102489768Y-53740697D01*
X102469486Y-54082786D01*
X102365308Y-54322619D01*
X102126564Y-54496077D01*
X101901549Y-54609693D01*
X101662147Y-54670250D01*
X101507894Y-54568839D01*
X101401933Y-54271662D01*
X101307408Y-53744922D01*
X101307143Y-53743209D01*
X101219364Y-53208574D01*
X101131946Y-52728097D01*
X101063777Y-52405609D01*
X100968675Y-52025410D01*
X100509367Y-52736338D01*
X100208979Y-53174825D01*
X99777383Y-53726292D01*
X99366857Y-54169461D01*
X99015310Y-54464542D01*
X98760654Y-54571745D01*
X98726838Y-54571015D01*
X98384847Y-54494332D01*
X98107311Y-54330928D01*
X97993656Y-54137142D01*
X98041437Y-54017833D01*
X98217451Y-53716775D01*
X98492600Y-53294757D01*
X98834664Y-52802896D01*
X99674465Y-51629360D01*
X98712788Y-50683157D01*
X98198602Y-50145422D01*
X97845926Y-49673226D01*
X97655375Y-49229646D01*
X97599878Y-48750574D01*
X97641501Y-48291644D01*
X98851162Y-48291644D01*
X98975123Y-48679634D01*
X99278717Y-49139881D01*
X99755903Y-49643880D01*
X100052499Y-49910176D01*
X100367887Y-50153530D01*
X100548272Y-50201368D01*
X100610310Y-50038672D01*
X100570657Y-49650421D01*
X100445968Y-49021595D01*
X100288720Y-48450419D01*
X100079409Y-48074654D01*
X99785986Y-47880256D01*
X99370381Y-47824870D01*
X99166308Y-47846466D01*
X98912877Y-48004419D01*
X98851162Y-48291644D01*
X97641501Y-48291644D01*
X97652362Y-48171897D01*
X97700629Y-47944337D01*
X97906073Y-47400034D01*
X98204546Y-46880073D01*
X98546637Y-46462595D01*
X98882939Y-46225738D01*
X99321775Y-46147849D01*
X99991373Y-46252012D01*
X100791591Y-46578749D01*
X100882640Y-46625697D01*
X101277269Y-46870583D01*
X101533090Y-47150109D01*
X101701942Y-47540746D01*
X101835663Y-48118966D01*
X101886593Y-48413552D01*
X101973527Y-48998017D01*
X102070443Y-49719875D01*
X102110287Y-50038672D01*
X102170703Y-50522062D01*
G37*
G36*
X88269655Y-46196584D02*
G01*
X88740550Y-46617409D01*
X88841694Y-46726326D01*
X89366251Y-47457081D01*
X89724314Y-48263340D01*
X89902759Y-49089108D01*
X89888459Y-49878390D01*
X89668288Y-50575192D01*
X89611663Y-50672222D01*
X89345104Y-51036269D01*
X88968351Y-51477808D01*
X88543809Y-51922089D01*
X88469396Y-51995861D01*
X87995547Y-52508053D01*
X87736268Y-52886719D01*
X87685970Y-53142683D01*
X87839064Y-53286764D01*
X88061406Y-53286684D01*
X88443722Y-53163052D01*
X88878587Y-52940527D01*
X89283175Y-52655325D01*
X89414829Y-52555672D01*
X89803972Y-52372580D01*
X90153697Y-52342357D01*
X90411554Y-52448998D01*
X90525092Y-52676500D01*
X90441863Y-53008861D01*
X90065935Y-53590964D01*
X89532165Y-54163825D01*
X88963269Y-54557951D01*
X88876331Y-54600046D01*
X88342918Y-54793567D01*
X87874105Y-54809350D01*
X87360933Y-54653921D01*
X87346908Y-54647983D01*
X86814529Y-54286003D01*
X86435252Y-53759691D01*
X86244728Y-53140063D01*
X86278612Y-52498131D01*
X86360649Y-52329528D01*
X86603289Y-51987356D01*
X86959121Y-51558368D01*
X87384578Y-51097732D01*
X87570786Y-50905746D01*
X87956803Y-50495213D01*
X88199277Y-50199609D01*
X88330559Y-49966893D01*
X88383000Y-49745020D01*
X88388947Y-49481948D01*
X88385529Y-49414428D01*
X88300191Y-48985861D01*
X88129320Y-48527655D01*
X87909703Y-48111548D01*
X87678125Y-47809277D01*
X87471373Y-47692578D01*
X87392267Y-47718009D01*
X87336085Y-47853608D01*
X87327896Y-48151260D01*
X87362057Y-48660952D01*
X87376983Y-48858505D01*
X87382498Y-49460642D01*
X87292234Y-49880876D01*
X87085618Y-50177159D01*
X86742080Y-50407442D01*
X86711789Y-50423072D01*
X86453845Y-50536047D01*
X86322050Y-50494428D01*
X86218840Y-50273182D01*
X86117929Y-49942022D01*
X85996131Y-49346966D01*
X85907697Y-48690273D01*
X85865884Y-48077248D01*
X85883951Y-47613193D01*
X85994423Y-47215617D01*
X86322842Y-46740513D01*
X86383354Y-46685237D01*
X86945787Y-46232675D01*
X87417498Y-46001914D01*
X87843712Y-45990651D01*
X88269655Y-46196584D01*
G37*
D14*
X147620000Y-48940000D02*
X147620000Y-50340000D01*
X148320000Y-51040000D02*
X148920000Y-51040000D01*
X148920000Y-48240000D02*
X148320000Y-48240000D01*
X149620000Y-50340000D02*
X149620000Y-48940000D01*
X147620000Y-48940000D02*
G75*
G02*
X148320000Y-48240000I699999J1D01*
G01*
X148320000Y-51040000D02*
G75*
G02*
X147620000Y-50340000I0J700000D01*
G01*
X148920000Y-48240000D02*
G75*
G02*
X149620000Y-48940000I1J-699999D01*
G01*
X149620000Y-50340000D02*
G75*
G02*
X148920000Y-51040000I-700000J0D01*
G01*
X110400000Y-30900000D02*
X110400000Y-31300000D01*
X126600000Y-30900000D02*
X110400000Y-30900000D01*
X126600000Y-31300000D02*
X126600000Y-30900000D01*
X126600000Y-46700000D02*
X126600000Y-47100000D01*
X126600000Y-47100000D02*
X110400000Y-47100000D01*
X110140000Y-47236000D02*
X109660000Y-47236000D01*
X109900000Y-46900000D01*
X110140000Y-47236000D01*
G36*
X110140000Y-47236000D02*
G01*
X109660000Y-47236000D01*
X109900000Y-46900000D01*
X110140000Y-47236000D01*
G37*
X130065000Y-35888748D02*
X130065000Y-36411252D01*
X131535000Y-35888748D02*
X131535000Y-36411252D01*
D15*
X94464720Y-67156640D02*
X93103280Y-67156640D01*
X93103280Y-66872160D01*
X94159920Y-66872160D01*
X94159920Y-65053520D01*
X94464720Y-65053520D01*
X94464720Y-67156640D01*
G36*
X94464720Y-67156640D02*
G01*
X93103280Y-67156640D01*
X93103280Y-66872160D01*
X94159920Y-66872160D01*
X94159920Y-65053520D01*
X94464720Y-65053520D01*
X94464720Y-67156640D01*
G37*
X98763175Y-65800215D02*
X98820261Y-65808072D01*
X98865244Y-65821995D01*
X98919890Y-65853437D01*
X98979821Y-65907459D01*
X99029061Y-65977747D01*
X99068405Y-66065251D01*
X99078395Y-66101837D01*
X99087948Y-66160608D01*
X99094268Y-66229130D01*
X99097155Y-66301679D01*
X99096407Y-66372533D01*
X99091822Y-66435969D01*
X99083201Y-66486266D01*
X99058428Y-66564712D01*
X99017975Y-66647537D01*
X98966705Y-66713579D01*
X98904246Y-66763296D01*
X98830227Y-66797146D01*
X98822409Y-66799454D01*
X98773918Y-66807300D01*
X98715867Y-66809057D01*
X98655601Y-66805136D01*
X98600469Y-66795948D01*
X98557817Y-66781904D01*
X98492740Y-66742380D01*
X98432277Y-66684197D01*
X98385423Y-66611391D01*
X98352078Y-66523759D01*
X98332143Y-66421096D01*
X98325520Y-66303200D01*
X98330762Y-66197456D01*
X98349179Y-66093391D01*
X98381001Y-66004248D01*
X98426382Y-65929711D01*
X98485474Y-65869463D01*
X98558433Y-65823188D01*
X98586604Y-65812771D01*
X98639615Y-65802590D01*
X98700716Y-65798396D01*
X98763175Y-65800215D01*
G36*
X98763175Y-65800215D02*
G01*
X98820261Y-65808072D01*
X98865244Y-65821995D01*
X98919890Y-65853437D01*
X98979821Y-65907459D01*
X99029061Y-65977747D01*
X99068405Y-66065251D01*
X99078395Y-66101837D01*
X99087948Y-66160608D01*
X99094268Y-66229130D01*
X99097155Y-66301679D01*
X99096407Y-66372533D01*
X99091822Y-66435969D01*
X99083201Y-66486266D01*
X99058428Y-66564712D01*
X99017975Y-66647537D01*
X98966705Y-66713579D01*
X98904246Y-66763296D01*
X98830227Y-66797146D01*
X98822409Y-66799454D01*
X98773918Y-66807300D01*
X98715867Y-66809057D01*
X98655601Y-66805136D01*
X98600469Y-66795948D01*
X98557817Y-66781904D01*
X98492740Y-66742380D01*
X98432277Y-66684197D01*
X98385423Y-66611391D01*
X98352078Y-66523759D01*
X98332143Y-66421096D01*
X98325520Y-66303200D01*
X98330762Y-66197456D01*
X98349179Y-66093391D01*
X98381001Y-66004248D01*
X98426382Y-65929711D01*
X98485474Y-65869463D01*
X98558433Y-65823188D01*
X98586604Y-65812771D01*
X98639615Y-65802590D01*
X98700716Y-65798396D01*
X98763175Y-65800215D01*
G37*
X91213520Y-67156640D02*
X90918880Y-67156640D01*
X90918880Y-66970711D01*
X90889913Y-67010699D01*
X90863612Y-67042614D01*
X90802458Y-67096678D01*
X90731551Y-67139209D01*
X90657302Y-67165929D01*
X90630339Y-67170336D01*
X90589793Y-67174107D01*
X90546887Y-67175939D01*
X90537385Y-67176008D01*
X90431403Y-67167222D01*
X90335822Y-67141174D01*
X90251418Y-67098482D01*
X90178969Y-67039764D01*
X90119250Y-66965639D01*
X90073038Y-66876723D01*
X90041110Y-66773634D01*
X90036922Y-66752106D01*
X90032731Y-66721085D01*
X90029565Y-66682907D01*
X90027305Y-66634941D01*
X90025836Y-66574556D01*
X90025040Y-66499119D01*
X90024849Y-66425000D01*
X90318199Y-66425000D01*
X90319021Y-66498725D01*
X90321103Y-66567701D01*
X90324449Y-66628046D01*
X90329061Y-66675875D01*
X90334941Y-66707307D01*
X90335932Y-66710575D01*
X90366741Y-66777791D01*
X90412977Y-66833498D01*
X90472277Y-66874812D01*
X90500408Y-66887116D01*
X90569070Y-66904583D01*
X90642046Y-66908977D01*
X90712776Y-66900221D01*
X90774701Y-66878242D01*
X90781219Y-66874545D01*
X90814847Y-66847937D01*
X90849457Y-66810963D01*
X90879227Y-66770454D01*
X90898334Y-66733237D01*
X90899832Y-66728022D01*
X90904384Y-66698937D01*
X90908366Y-66654085D01*
X90911717Y-66596949D01*
X90914380Y-66531012D01*
X90916294Y-66459755D01*
X90917402Y-66386661D01*
X90917644Y-66315213D01*
X90916962Y-66248892D01*
X90915296Y-66191181D01*
X90912588Y-66145563D01*
X90908778Y-66115519D01*
X90903258Y-66092958D01*
X90874680Y-66026237D01*
X90830655Y-65972544D01*
X90771560Y-65932384D01*
X90767208Y-65930223D01*
X90734084Y-65915381D01*
X90704510Y-65906809D01*
X90670542Y-65902865D01*
X90624240Y-65901904D01*
X90623497Y-65901904D01*
X90576873Y-65902931D01*
X90542489Y-65907054D01*
X90512428Y-65915852D01*
X90478773Y-65930903D01*
X90466106Y-65937538D01*
X90408625Y-65980937D01*
X90364761Y-66039032D01*
X90335311Y-66110826D01*
X90332926Y-66121034D01*
X90327478Y-66160263D01*
X90323279Y-66214157D01*
X90320331Y-66278833D01*
X90318637Y-66350408D01*
X90318199Y-66425000D01*
X90024849Y-66425000D01*
X90024800Y-66405998D01*
X90025156Y-66303958D01*
X90026464Y-66219337D01*
X90029084Y-66149518D01*
X90033376Y-66091746D01*
X90039699Y-66043264D01*
X90048413Y-66001318D01*
X90059876Y-65963150D01*
X90074450Y-65926004D01*
X90092493Y-65887126D01*
X90134548Y-65816226D01*
X90195881Y-65746993D01*
X90269232Y-65693882D01*
X90354008Y-65657214D01*
X90449618Y-65637313D01*
X90555469Y-65634502D01*
X90569774Y-65635498D01*
X90659876Y-65652896D01*
X90744614Y-65687985D01*
X90820309Y-65738866D01*
X90883281Y-65803641D01*
X90918880Y-65849334D01*
X90918880Y-65053520D01*
X91213520Y-65053520D01*
X91213520Y-66315213D01*
X91213520Y-67156640D01*
G36*
X91213520Y-67156640D02*
G01*
X90918880Y-67156640D01*
X90918880Y-66970711D01*
X90889913Y-67010699D01*
X90863612Y-67042614D01*
X90802458Y-67096678D01*
X90731551Y-67139209D01*
X90657302Y-67165929D01*
X90630339Y-67170336D01*
X90589793Y-67174107D01*
X90546887Y-67175939D01*
X90537385Y-67176008D01*
X90431403Y-67167222D01*
X90335822Y-67141174D01*
X90251418Y-67098482D01*
X90178969Y-67039764D01*
X90119250Y-66965639D01*
X90073038Y-66876723D01*
X90041110Y-66773634D01*
X90036922Y-66752106D01*
X90032731Y-66721085D01*
X90029565Y-66682907D01*
X90027305Y-66634941D01*
X90025836Y-66574556D01*
X90025040Y-66499119D01*
X90024849Y-66425000D01*
X90318199Y-66425000D01*
X90319021Y-66498725D01*
X90321103Y-66567701D01*
X90324449Y-66628046D01*
X90329061Y-66675875D01*
X90334941Y-66707307D01*
X90335932Y-66710575D01*
X90366741Y-66777791D01*
X90412977Y-66833498D01*
X90472277Y-66874812D01*
X90500408Y-66887116D01*
X90569070Y-66904583D01*
X90642046Y-66908977D01*
X90712776Y-66900221D01*
X90774701Y-66878242D01*
X90781219Y-66874545D01*
X90814847Y-66847937D01*
X90849457Y-66810963D01*
X90879227Y-66770454D01*
X90898334Y-66733237D01*
X90899832Y-66728022D01*
X90904384Y-66698937D01*
X90908366Y-66654085D01*
X90911717Y-66596949D01*
X90914380Y-66531012D01*
X90916294Y-66459755D01*
X90917402Y-66386661D01*
X90917644Y-66315213D01*
X90916962Y-66248892D01*
X90915296Y-66191181D01*
X90912588Y-66145563D01*
X90908778Y-66115519D01*
X90903258Y-66092958D01*
X90874680Y-66026237D01*
X90830655Y-65972544D01*
X90771560Y-65932384D01*
X90767208Y-65930223D01*
X90734084Y-65915381D01*
X90704510Y-65906809D01*
X90670542Y-65902865D01*
X90624240Y-65901904D01*
X90623497Y-65901904D01*
X90576873Y-65902931D01*
X90542489Y-65907054D01*
X90512428Y-65915852D01*
X90478773Y-65930903D01*
X90466106Y-65937538D01*
X90408625Y-65980937D01*
X90364761Y-66039032D01*
X90335311Y-66110826D01*
X90332926Y-66121034D01*
X90327478Y-66160263D01*
X90323279Y-66214157D01*
X90320331Y-66278833D01*
X90318637Y-66350408D01*
X90318199Y-66425000D01*
X90024849Y-66425000D01*
X90024800Y-66405998D01*
X90025156Y-66303958D01*
X90026464Y-66219337D01*
X90029084Y-66149518D01*
X90033376Y-66091746D01*
X90039699Y-66043264D01*
X90048413Y-66001318D01*
X90059876Y-65963150D01*
X90074450Y-65926004D01*
X90092493Y-65887126D01*
X90134548Y-65816226D01*
X90195881Y-65746993D01*
X90269232Y-65693882D01*
X90354008Y-65657214D01*
X90449618Y-65637313D01*
X90555469Y-65634502D01*
X90569774Y-65635498D01*
X90659876Y-65652896D01*
X90744614Y-65687985D01*
X90820309Y-65738866D01*
X90883281Y-65803641D01*
X90918880Y-65849334D01*
X90918880Y-65053520D01*
X91213520Y-65053520D01*
X91213520Y-66315213D01*
X91213520Y-67156640D01*
G37*
X92857095Y-66746523D02*
X92853069Y-66803381D01*
X92842067Y-66872414D01*
X92823401Y-66929885D01*
X92795341Y-66980645D01*
X92756156Y-67029548D01*
X92756127Y-67029580D01*
X92711805Y-67071601D01*
X92662010Y-67105097D01*
X92603051Y-67131736D01*
X92531238Y-67153187D01*
X92442880Y-67171116D01*
X92442704Y-67171146D01*
X92422641Y-67172577D01*
X92387291Y-67173298D01*
X92341591Y-67173266D01*
X92290480Y-67172438D01*
X92216880Y-67168773D01*
X92153087Y-67160146D01*
X92098670Y-67145129D01*
X92048141Y-67122183D01*
X91996013Y-67089766D01*
X91945040Y-67054703D01*
X91945040Y-67156640D01*
X91660560Y-67156640D01*
X91660560Y-66639373D01*
X91660600Y-66549230D01*
X91660703Y-66506400D01*
X91945040Y-66506400D01*
X91945040Y-66666699D01*
X91945041Y-66668699D01*
X91945462Y-66735170D01*
X91947369Y-66784665D01*
X91951764Y-66820436D01*
X91959652Y-66845739D01*
X91972034Y-66863825D01*
X91989913Y-66877949D01*
X92014292Y-66891364D01*
X92028174Y-66897639D01*
X92066157Y-66911185D01*
X92105561Y-66921708D01*
X92147682Y-66927879D01*
X92205924Y-66931574D01*
X92269895Y-66932046D01*
X92333126Y-66929423D01*
X92389153Y-66923829D01*
X92431509Y-66915389D01*
X92463628Y-66903183D01*
X92513199Y-66871994D01*
X92551403Y-66831512D01*
X92573780Y-66785800D01*
X92579495Y-66761424D01*
X92584374Y-66694891D01*
X92573287Y-66634712D01*
X92547395Y-66583517D01*
X92507860Y-66543936D01*
X92455841Y-66518599D01*
X92443957Y-66516001D01*
X92406033Y-66511849D01*
X92348926Y-66508843D01*
X92273366Y-66507016D01*
X92180082Y-66506400D01*
X91945040Y-66506400D01*
X91660703Y-66506400D01*
X91660878Y-66433970D01*
X91661565Y-66335919D01*
X91662829Y-66253234D01*
X91664834Y-66184071D01*
X91667748Y-66126587D01*
X91671737Y-66078938D01*
X91676966Y-66039281D01*
X91683602Y-66005773D01*
X91691811Y-65976570D01*
X91701760Y-65949828D01*
X91713613Y-65923704D01*
X91727539Y-65896355D01*
X91728151Y-65895194D01*
X91781112Y-65816035D01*
X91848689Y-65750695D01*
X91930370Y-65699429D01*
X92025643Y-65662494D01*
X92133997Y-65640146D01*
X92254921Y-65632639D01*
X92354059Y-65637594D01*
X92474711Y-65659018D01*
X92584490Y-65697267D01*
X92682959Y-65752220D01*
X92707301Y-65769565D01*
X92741503Y-65796590D01*
X92768371Y-65821000D01*
X92784758Y-65839847D01*
X92787514Y-65850181D01*
X92787293Y-65850380D01*
X92776367Y-65858302D01*
X92752267Y-65875067D01*
X92718353Y-65898351D01*
X92677991Y-65925831D01*
X92572741Y-65997219D01*
X92535751Y-65972994D01*
X92531996Y-65970646D01*
X92501667Y-65955056D01*
X92460963Y-65937631D01*
X92417603Y-65921721D01*
X92395594Y-65914583D01*
X92358414Y-65904391D01*
X92324411Y-65899019D01*
X92285781Y-65897490D01*
X92234723Y-65898827D01*
X92186146Y-65902031D01*
X92130207Y-65911188D01*
X92085827Y-65927549D01*
X92048056Y-65953139D01*
X92011943Y-65989985D01*
X91977103Y-66043177D01*
X91953101Y-66114323D01*
X91945040Y-66197113D01*
X91945040Y-66260057D01*
X92221900Y-66265252D01*
X92267867Y-66266189D01*
X92356912Y-66268698D01*
X92429648Y-66272136D01*
X92488846Y-66276936D01*
X92537274Y-66283530D01*
X92577701Y-66292349D01*
X92612895Y-66303825D01*
X92645624Y-66318389D01*
X92678658Y-66336475D01*
X92713260Y-66359136D01*
X92770482Y-66411816D01*
X92812978Y-66475748D01*
X92841246Y-66552079D01*
X92855786Y-66641956D01*
X92856449Y-66694891D01*
X92857095Y-66746523D01*
G36*
X92857095Y-66746523D02*
G01*
X92853069Y-66803381D01*
X92842067Y-66872414D01*
X92823401Y-66929885D01*
X92795341Y-66980645D01*
X92756156Y-67029548D01*
X92756127Y-67029580D01*
X92711805Y-67071601D01*
X92662010Y-67105097D01*
X92603051Y-67131736D01*
X92531238Y-67153187D01*
X92442880Y-67171116D01*
X92442704Y-67171146D01*
X92422641Y-67172577D01*
X92387291Y-67173298D01*
X92341591Y-67173266D01*
X92290480Y-67172438D01*
X92216880Y-67168773D01*
X92153087Y-67160146D01*
X92098670Y-67145129D01*
X92048141Y-67122183D01*
X91996013Y-67089766D01*
X91945040Y-67054703D01*
X91945040Y-67156640D01*
X91660560Y-67156640D01*
X91660560Y-66639373D01*
X91660600Y-66549230D01*
X91660703Y-66506400D01*
X91945040Y-66506400D01*
X91945040Y-66666699D01*
X91945041Y-66668699D01*
X91945462Y-66735170D01*
X91947369Y-66784665D01*
X91951764Y-66820436D01*
X91959652Y-66845739D01*
X91972034Y-66863825D01*
X91989913Y-66877949D01*
X92014292Y-66891364D01*
X92028174Y-66897639D01*
X92066157Y-66911185D01*
X92105561Y-66921708D01*
X92147682Y-66927879D01*
X92205924Y-66931574D01*
X92269895Y-66932046D01*
X92333126Y-66929423D01*
X92389153Y-66923829D01*
X92431509Y-66915389D01*
X92463628Y-66903183D01*
X92513199Y-66871994D01*
X92551403Y-66831512D01*
X92573780Y-66785800D01*
X92579495Y-66761424D01*
X92584374Y-66694891D01*
X92573287Y-66634712D01*
X92547395Y-66583517D01*
X92507860Y-66543936D01*
X92455841Y-66518599D01*
X92443957Y-66516001D01*
X92406033Y-66511849D01*
X92348926Y-66508843D01*
X92273366Y-66507016D01*
X92180082Y-66506400D01*
X91945040Y-66506400D01*
X91660703Y-66506400D01*
X91660878Y-66433970D01*
X91661565Y-66335919D01*
X91662829Y-66253234D01*
X91664834Y-66184071D01*
X91667748Y-66126587D01*
X91671737Y-66078938D01*
X91676966Y-66039281D01*
X91683602Y-66005773D01*
X91691811Y-65976570D01*
X91701760Y-65949828D01*
X91713613Y-65923704D01*
X91727539Y-65896355D01*
X91728151Y-65895194D01*
X91781112Y-65816035D01*
X91848689Y-65750695D01*
X91930370Y-65699429D01*
X92025643Y-65662494D01*
X92133997Y-65640146D01*
X92254921Y-65632639D01*
X92354059Y-65637594D01*
X92474711Y-65659018D01*
X92584490Y-65697267D01*
X92682959Y-65752220D01*
X92707301Y-65769565D01*
X92741503Y-65796590D01*
X92768371Y-65821000D01*
X92784758Y-65839847D01*
X92787514Y-65850181D01*
X92787293Y-65850380D01*
X92776367Y-65858302D01*
X92752267Y-65875067D01*
X92718353Y-65898351D01*
X92677991Y-65925831D01*
X92572741Y-65997219D01*
X92535751Y-65972994D01*
X92531996Y-65970646D01*
X92501667Y-65955056D01*
X92460963Y-65937631D01*
X92417603Y-65921721D01*
X92395594Y-65914583D01*
X92358414Y-65904391D01*
X92324411Y-65899019D01*
X92285781Y-65897490D01*
X92234723Y-65898827D01*
X92186146Y-65902031D01*
X92130207Y-65911188D01*
X92085827Y-65927549D01*
X92048056Y-65953139D01*
X92011943Y-65989985D01*
X91977103Y-66043177D01*
X91953101Y-66114323D01*
X91945040Y-66197113D01*
X91945040Y-66260057D01*
X92221900Y-66265252D01*
X92267867Y-66266189D01*
X92356912Y-66268698D01*
X92429648Y-66272136D01*
X92488846Y-66276936D01*
X92537274Y-66283530D01*
X92577701Y-66292349D01*
X92612895Y-66303825D01*
X92645624Y-66318389D01*
X92678658Y-66336475D01*
X92713260Y-66359136D01*
X92770482Y-66411816D01*
X92812978Y-66475748D01*
X92841246Y-66552079D01*
X92855786Y-66641956D01*
X92856449Y-66694891D01*
X92857095Y-66746523D01*
G37*
X89105320Y-65635908D02*
X89171439Y-65639806D01*
X89269067Y-65652134D01*
X89351738Y-65672529D01*
X89422146Y-65701966D01*
X89482982Y-65741417D01*
X89536938Y-65791854D01*
X89562265Y-65821332D01*
X89591298Y-65863552D01*
X89611525Y-65908096D01*
X89624333Y-65959396D01*
X89631106Y-66021886D01*
X89633231Y-66100000D01*
X89633232Y-66100653D01*
X89632690Y-66165558D01*
X89629898Y-66214943D01*
X89623742Y-66253535D01*
X89613112Y-66286058D01*
X89596895Y-66317241D01*
X89573978Y-66351809D01*
X89554065Y-66377435D01*
X89519746Y-66410909D01*
X89478474Y-66438581D01*
X89428029Y-66461207D01*
X89366188Y-66479543D01*
X89290730Y-66494344D01*
X89199435Y-66506365D01*
X89090080Y-66516362D01*
X88997654Y-66524910D01*
X88915356Y-66536332D01*
X88850191Y-66550769D01*
X88800531Y-66569022D01*
X88764743Y-66591893D01*
X88741199Y-66620185D01*
X88728269Y-66654698D01*
X88724320Y-66696234D01*
X88724446Y-66705801D01*
X88731697Y-66757540D01*
X88752387Y-66799856D01*
X88789698Y-66839735D01*
X88801469Y-66849195D01*
X88855127Y-66878087D01*
X88925916Y-66898132D01*
X89014516Y-66909544D01*
X89018533Y-66909825D01*
X89131181Y-66907219D01*
X89244534Y-66884594D01*
X89357773Y-66842181D01*
X89470080Y-66780213D01*
X89478835Y-66774615D01*
X89515155Y-66752435D01*
X89539015Y-66740524D01*
X89553763Y-66737500D01*
X89562749Y-66741982D01*
X89570521Y-66750612D01*
X89592698Y-66776721D01*
X89619457Y-66809544D01*
X89647883Y-66845347D01*
X89675064Y-66880392D01*
X89698087Y-66910944D01*
X89714036Y-66933267D01*
X89720000Y-66943626D01*
X89716050Y-66950514D01*
X89698239Y-66967454D01*
X89669596Y-66990090D01*
X89633988Y-67015570D01*
X89595285Y-67041038D01*
X89557355Y-67063640D01*
X89536106Y-67075145D01*
X89492122Y-67096282D01*
X89444967Y-67114699D01*
X89389025Y-67132465D01*
X89318680Y-67151651D01*
X89272565Y-67162340D01*
X89222347Y-67170248D01*
X89166785Y-67174577D01*
X89098436Y-67176157D01*
X89048155Y-67175823D01*
X88918661Y-67167796D01*
X88805824Y-67149085D01*
X88709004Y-67119393D01*
X88627558Y-67078423D01*
X88560846Y-67025879D01*
X88508226Y-66961464D01*
X88469057Y-66884881D01*
X88468449Y-66883334D01*
X88458722Y-66855566D01*
X88452230Y-66827881D01*
X88448357Y-66795184D01*
X88446485Y-66752376D01*
X88445998Y-66694360D01*
X88446622Y-66648055D01*
X88451347Y-66579320D01*
X88461875Y-66523851D01*
X88479579Y-66477348D01*
X88505833Y-66435514D01*
X88542012Y-66394053D01*
X88575576Y-66363315D01*
X88619319Y-66333304D01*
X88670300Y-66309011D01*
X88731120Y-66289634D01*
X88804382Y-66274366D01*
X88892688Y-66262405D01*
X88998640Y-66252946D01*
X89052546Y-66248736D01*
X89134802Y-66240734D01*
X89200147Y-66231602D01*
X89250773Y-66220668D01*
X89288870Y-66207264D01*
X89316630Y-66190719D01*
X89336241Y-66170362D01*
X89349896Y-66145525D01*
X89359939Y-66109351D01*
X89357774Y-66058384D01*
X89337490Y-66010162D01*
X89300336Y-65967286D01*
X89247560Y-65932360D01*
X89230834Y-65924163D01*
X89206507Y-65913798D01*
X89183017Y-65907287D01*
X89155074Y-65903755D01*
X89117392Y-65902328D01*
X89064680Y-65902132D01*
X89052858Y-65902169D01*
X89000888Y-65903021D01*
X88961149Y-65905732D01*
X88926852Y-65911340D01*
X88891207Y-65920887D01*
X88847426Y-65935412D01*
X88830165Y-65941594D01*
X88777999Y-65962177D01*
X88727467Y-65984455D01*
X88687461Y-66004584D01*
X88622829Y-66040728D01*
X88594835Y-66007579D01*
X88575641Y-65984742D01*
X88535497Y-65936215D01*
X88500954Y-65893422D01*
X88473918Y-65858786D01*
X88456298Y-65834729D01*
X88450000Y-65823672D01*
X88450141Y-65822838D01*
X88460820Y-65811927D01*
X88485793Y-65795086D01*
X88521245Y-65774368D01*
X88563363Y-65751822D01*
X88608334Y-65729500D01*
X88652343Y-65709453D01*
X88691577Y-65693734D01*
X88703542Y-65689472D01*
X88797997Y-65661160D01*
X88892235Y-65643384D01*
X88992572Y-65635261D01*
X89105320Y-65635908D01*
G36*
X89105320Y-65635908D02*
G01*
X89171439Y-65639806D01*
X89269067Y-65652134D01*
X89351738Y-65672529D01*
X89422146Y-65701966D01*
X89482982Y-65741417D01*
X89536938Y-65791854D01*
X89562265Y-65821332D01*
X89591298Y-65863552D01*
X89611525Y-65908096D01*
X89624333Y-65959396D01*
X89631106Y-66021886D01*
X89633231Y-66100000D01*
X89633232Y-66100653D01*
X89632690Y-66165558D01*
X89629898Y-66214943D01*
X89623742Y-66253535D01*
X89613112Y-66286058D01*
X89596895Y-66317241D01*
X89573978Y-66351809D01*
X89554065Y-66377435D01*
X89519746Y-66410909D01*
X89478474Y-66438581D01*
X89428029Y-66461207D01*
X89366188Y-66479543D01*
X89290730Y-66494344D01*
X89199435Y-66506365D01*
X89090080Y-66516362D01*
X88997654Y-66524910D01*
X88915356Y-66536332D01*
X88850191Y-66550769D01*
X88800531Y-66569022D01*
X88764743Y-66591893D01*
X88741199Y-66620185D01*
X88728269Y-66654698D01*
X88724320Y-66696234D01*
X88724446Y-66705801D01*
X88731697Y-66757540D01*
X88752387Y-66799856D01*
X88789698Y-66839735D01*
X88801469Y-66849195D01*
X88855127Y-66878087D01*
X88925916Y-66898132D01*
X89014516Y-66909544D01*
X89018533Y-66909825D01*
X89131181Y-66907219D01*
X89244534Y-66884594D01*
X89357773Y-66842181D01*
X89470080Y-66780213D01*
X89478835Y-66774615D01*
X89515155Y-66752435D01*
X89539015Y-66740524D01*
X89553763Y-66737500D01*
X89562749Y-66741982D01*
X89570521Y-66750612D01*
X89592698Y-66776721D01*
X89619457Y-66809544D01*
X89647883Y-66845347D01*
X89675064Y-66880392D01*
X89698087Y-66910944D01*
X89714036Y-66933267D01*
X89720000Y-66943626D01*
X89716050Y-66950514D01*
X89698239Y-66967454D01*
X89669596Y-66990090D01*
X89633988Y-67015570D01*
X89595285Y-67041038D01*
X89557355Y-67063640D01*
X89536106Y-67075145D01*
X89492122Y-67096282D01*
X89444967Y-67114699D01*
X89389025Y-67132465D01*
X89318680Y-67151651D01*
X89272565Y-67162340D01*
X89222347Y-67170248D01*
X89166785Y-67174577D01*
X89098436Y-67176157D01*
X89048155Y-67175823D01*
X88918661Y-67167796D01*
X88805824Y-67149085D01*
X88709004Y-67119393D01*
X88627558Y-67078423D01*
X88560846Y-67025879D01*
X88508226Y-66961464D01*
X88469057Y-66884881D01*
X88468449Y-66883334D01*
X88458722Y-66855566D01*
X88452230Y-66827881D01*
X88448357Y-66795184D01*
X88446485Y-66752376D01*
X88445998Y-66694360D01*
X88446622Y-66648055D01*
X88451347Y-66579320D01*
X88461875Y-66523851D01*
X88479579Y-66477348D01*
X88505833Y-66435514D01*
X88542012Y-66394053D01*
X88575576Y-66363315D01*
X88619319Y-66333304D01*
X88670300Y-66309011D01*
X88731120Y-66289634D01*
X88804382Y-66274366D01*
X88892688Y-66262405D01*
X88998640Y-66252946D01*
X89052546Y-66248736D01*
X89134802Y-66240734D01*
X89200147Y-66231602D01*
X89250773Y-66220668D01*
X89288870Y-66207264D01*
X89316630Y-66190719D01*
X89336241Y-66170362D01*
X89349896Y-66145525D01*
X89359939Y-66109351D01*
X89357774Y-66058384D01*
X89337490Y-66010162D01*
X89300336Y-65967286D01*
X89247560Y-65932360D01*
X89230834Y-65924163D01*
X89206507Y-65913798D01*
X89183017Y-65907287D01*
X89155074Y-65903755D01*
X89117392Y-65902328D01*
X89064680Y-65902132D01*
X89052858Y-65902169D01*
X89000888Y-65903021D01*
X88961149Y-65905732D01*
X88926852Y-65911340D01*
X88891207Y-65920887D01*
X88847426Y-65935412D01*
X88830165Y-65941594D01*
X88777999Y-65962177D01*
X88727467Y-65984455D01*
X88687461Y-66004584D01*
X88622829Y-66040728D01*
X88594835Y-66007579D01*
X88575641Y-65984742D01*
X88535497Y-65936215D01*
X88500954Y-65893422D01*
X88473918Y-65858786D01*
X88456298Y-65834729D01*
X88450000Y-65823672D01*
X88450141Y-65822838D01*
X88460820Y-65811927D01*
X88485793Y-65795086D01*
X88521245Y-65774368D01*
X88563363Y-65751822D01*
X88608334Y-65729500D01*
X88652343Y-65709453D01*
X88691577Y-65693734D01*
X88703542Y-65689472D01*
X88797997Y-65661160D01*
X88892235Y-65643384D01*
X88992572Y-65635261D01*
X89105320Y-65635908D01*
G37*
X101297320Y-66304462D02*
X101297320Y-67700200D01*
X101267300Y-67759501D01*
X101242453Y-67800389D01*
X101192875Y-67858075D01*
X101133834Y-67906437D01*
X101071227Y-67940045D01*
X101057302Y-67945235D01*
X101034879Y-67952044D01*
X101009792Y-67957102D01*
X100978510Y-67960778D01*
X100937501Y-67963443D01*
X100883235Y-67965467D01*
X100812180Y-67967222D01*
X100611520Y-67971560D01*
X100611520Y-68085496D01*
X100609805Y-68153655D01*
X100602809Y-68218950D01*
X100589549Y-68270759D01*
X100569099Y-68312507D01*
X100540531Y-68347620D01*
X100502151Y-68386000D01*
X100231358Y-68386000D01*
X100177685Y-68385993D01*
X100102518Y-68385714D01*
X100043715Y-68384604D01*
X99998797Y-68382096D01*
X99965287Y-68377621D01*
X99940706Y-68370609D01*
X99922577Y-68360491D01*
X99908423Y-68346700D01*
X99895764Y-68328665D01*
X99882124Y-68305818D01*
X99881420Y-68304619D01*
X99870661Y-68284944D01*
X99863097Y-68266081D01*
X99858044Y-68243803D01*
X99854817Y-68213884D01*
X99852733Y-68172098D01*
X99851108Y-68114220D01*
X99847615Y-67969440D01*
X99148480Y-67969440D01*
X99148381Y-68104060D01*
X99148303Y-68131059D01*
X99147485Y-68180604D01*
X99145280Y-68216591D01*
X99141080Y-68243728D01*
X99134275Y-68266722D01*
X99124254Y-68290281D01*
X99115235Y-68309556D01*
X99103255Y-68332647D01*
X99090409Y-68350547D01*
X99074264Y-68363917D01*
X99052391Y-68373418D01*
X99022356Y-68379709D01*
X98981728Y-68383452D01*
X98928075Y-68385308D01*
X98858967Y-68385937D01*
X98771970Y-68386000D01*
X98499800Y-68386000D01*
X98469332Y-68360362D01*
X98457586Y-68349843D01*
X98432435Y-68320258D01*
X98414095Y-68284579D01*
X98401452Y-68239281D01*
X98393392Y-68180844D01*
X98388800Y-68105746D01*
X98383599Y-67969440D01*
X97697136Y-67969440D01*
X97693828Y-68109140D01*
X97693124Y-68136362D01*
X97691125Y-68187468D01*
X97688097Y-68224689D01*
X97683384Y-68252529D01*
X97676328Y-68275495D01*
X97666274Y-68298092D01*
X97660686Y-68309333D01*
X97648335Y-68331835D01*
X97635068Y-68349434D01*
X97618462Y-68362731D01*
X97596090Y-68372331D01*
X97565526Y-68378835D01*
X97524344Y-68382847D01*
X97470120Y-68384970D01*
X97400427Y-68385807D01*
X97312840Y-68385962D01*
X97046920Y-68386000D01*
X97015215Y-68359321D01*
X96993358Y-68339066D01*
X96971296Y-68310961D01*
X96955684Y-68277687D01*
X96945319Y-68235473D01*
X96939000Y-68180547D01*
X96935527Y-68109140D01*
X96931295Y-67969440D01*
X96242720Y-67969440D01*
X96242720Y-68084435D01*
X96240881Y-68155389D01*
X96233805Y-68220070D01*
X96220538Y-68271382D01*
X96200155Y-68312755D01*
X96171731Y-68347620D01*
X96133351Y-68386000D01*
X95862558Y-68386000D01*
X95808885Y-68385993D01*
X95733718Y-68385714D01*
X95674915Y-68384604D01*
X95629997Y-68382096D01*
X95596487Y-68377621D01*
X95571906Y-68370609D01*
X95553777Y-68360491D01*
X95539623Y-68346700D01*
X95526964Y-68328665D01*
X95513324Y-68305818D01*
X95512997Y-68305262D01*
X95502096Y-68285421D01*
X95494433Y-68266517D01*
X95489316Y-68244299D01*
X95486054Y-68214515D01*
X95483956Y-68172915D01*
X95482330Y-68115247D01*
X95478859Y-67971495D01*
X95274050Y-67967850D01*
X95069240Y-67964204D01*
X95001664Y-67932265D01*
X94993123Y-67928124D01*
X94920097Y-67881787D01*
X94861939Y-67822188D01*
X94816777Y-67747456D01*
X94784760Y-67679880D01*
X94784760Y-65692713D01*
X95483689Y-65692713D01*
X95484423Y-65697125D01*
X95490716Y-65721633D01*
X95502732Y-65762569D01*
X95519791Y-65817894D01*
X95541216Y-65885570D01*
X95566328Y-65963557D01*
X95594447Y-66049817D01*
X95624897Y-66142310D01*
X95656997Y-66238997D01*
X95690069Y-66337840D01*
X95723434Y-66436799D01*
X95756414Y-66533835D01*
X95788331Y-66626909D01*
X95818504Y-66713983D01*
X95846257Y-66793016D01*
X95870909Y-66861971D01*
X95891783Y-66918808D01*
X95908156Y-66957778D01*
X95946927Y-67022511D01*
X95993463Y-67068603D01*
X96047966Y-67096228D01*
X96110640Y-67105560D01*
X96118125Y-67105517D01*
X96186438Y-67096979D01*
X96242221Y-67072947D01*
X96287171Y-67032370D01*
X96322989Y-66974196D01*
X96328982Y-66959290D01*
X96341180Y-66924399D01*
X96357739Y-66873990D01*
X96377952Y-66810325D01*
X96401113Y-66735666D01*
X96426513Y-66652274D01*
X96453445Y-66562411D01*
X96481201Y-66468338D01*
X96505668Y-66385381D01*
X96531157Y-66300349D01*
X96554557Y-66223715D01*
X96575282Y-66157336D01*
X96592744Y-66103066D01*
X96606353Y-66062760D01*
X96615524Y-66038272D01*
X96619667Y-66031458D01*
X96620642Y-66033923D01*
X96626768Y-66053038D01*
X96637552Y-66088753D01*
X96652369Y-66138926D01*
X96670593Y-66201415D01*
X96691598Y-66274080D01*
X96714759Y-66354776D01*
X96739448Y-66441364D01*
X96746850Y-66467381D01*
X96771909Y-66555100D01*
X96795738Y-66637981D01*
X96817623Y-66713572D01*
X96836847Y-66779420D01*
X96852696Y-66833071D01*
X96864454Y-66872073D01*
X96871406Y-66893973D01*
X96878314Y-66913381D01*
X96908738Y-66983546D01*
X96942186Y-67035804D01*
X96980124Y-67072081D01*
X97024017Y-67094297D01*
X97037109Y-67097936D01*
X97084345Y-67104069D01*
X97135883Y-67103288D01*
X97180641Y-67095508D01*
X97223850Y-67074539D01*
X97267509Y-67037514D01*
X97303208Y-66990187D01*
X97304126Y-66988608D01*
X97310102Y-66977675D01*
X97316589Y-66964356D01*
X97324044Y-66947351D01*
X97332924Y-66925362D01*
X97343688Y-66897091D01*
X97356793Y-66861240D01*
X97372697Y-66816509D01*
X97391856Y-66761601D01*
X97414729Y-66695218D01*
X97441773Y-66616060D01*
X97473447Y-66522829D01*
X97510206Y-66414228D01*
X97547700Y-66303200D01*
X97934360Y-66303200D01*
X97934543Y-66353311D01*
X97935611Y-66408008D01*
X97938029Y-66450528D01*
X97942239Y-66485580D01*
X97948687Y-66517874D01*
X97957815Y-66552120D01*
X97975273Y-66606527D01*
X98026041Y-66722143D01*
X98091137Y-66823525D01*
X98170224Y-66910341D01*
X98262967Y-66982257D01*
X98369031Y-67038938D01*
X98488080Y-67080051D01*
X98488529Y-67080169D01*
X98525783Y-67087180D01*
X98577337Y-67093268D01*
X98637454Y-67098128D01*
X98700394Y-67101457D01*
X98760417Y-67102948D01*
X98811786Y-67102298D01*
X98848760Y-67099201D01*
X98944547Y-67077268D01*
X99045461Y-67040905D01*
X99140221Y-66993725D01*
X99222057Y-66938641D01*
X99281657Y-66884439D01*
X99353082Y-66796643D01*
X99412027Y-66694360D01*
X99416269Y-66685455D01*
X99442582Y-66625926D01*
X99461883Y-66571468D01*
X99475167Y-66517024D01*
X99483425Y-66457537D01*
X99487652Y-66387948D01*
X99488840Y-66303200D01*
X99488723Y-66272391D01*
X99486721Y-66194515D01*
X99482513Y-66143295D01*
X99809508Y-66143295D01*
X99809701Y-66243703D01*
X99810015Y-66303200D01*
X99810238Y-66345702D01*
X99811105Y-66447100D01*
X99812287Y-66545708D01*
X99813771Y-66639332D01*
X99815542Y-66725784D01*
X99817585Y-66802871D01*
X99819888Y-66868404D01*
X99822434Y-66920190D01*
X99825210Y-66956039D01*
X99828202Y-66973760D01*
X99834491Y-66987699D01*
X99862681Y-67030034D01*
X99899465Y-67067155D01*
X99938094Y-67091811D01*
X99987382Y-67104884D01*
X100045366Y-67102797D01*
X100100110Y-67083639D01*
X100146306Y-67048513D01*
X100149188Y-67045443D01*
X100160375Y-67033139D01*
X100169961Y-67020839D01*
X100178069Y-67006979D01*
X100184824Y-66989996D01*
X100190348Y-66968326D01*
X100194765Y-66940407D01*
X100198198Y-66904675D01*
X100200772Y-66859567D01*
X100202609Y-66803518D01*
X100203832Y-66734967D01*
X100204566Y-66652349D01*
X100204934Y-66554101D01*
X100205058Y-66438660D01*
X100205064Y-66304462D01*
X100204978Y-66204408D01*
X100204536Y-66063642D01*
X100203720Y-65942750D01*
X100202532Y-65841805D01*
X100200971Y-65760880D01*
X100199040Y-65700051D01*
X100196740Y-65659391D01*
X100194071Y-65638973D01*
X100188960Y-65625105D01*
X100170156Y-65591453D01*
X100145868Y-65560462D01*
X100124150Y-65540789D01*
X100074627Y-65513352D01*
X100021543Y-65502771D01*
X99968242Y-65507973D01*
X99918062Y-65527886D01*
X99874347Y-65561438D01*
X99840435Y-65607556D01*
X99819670Y-65665167D01*
X99818994Y-65669014D01*
X99816378Y-65696941D01*
X99814206Y-65741796D01*
X99812463Y-65801387D01*
X99811137Y-65873523D01*
X99810212Y-65956014D01*
X99809673Y-66046668D01*
X99809508Y-66143295D01*
X99482513Y-66143295D01*
X99481405Y-66129805D01*
X99471692Y-66073006D01*
X99456501Y-66018857D01*
X99434748Y-65962103D01*
X99405354Y-65897485D01*
X99398142Y-65882585D01*
X99373958Y-65836981D01*
X99349012Y-65799209D01*
X99318318Y-65762363D01*
X99276892Y-65719541D01*
X99240825Y-65685999D01*
X99143472Y-65614476D01*
X99035932Y-65560166D01*
X98919144Y-65523398D01*
X98794045Y-65504499D01*
X98661574Y-65503800D01*
X98553492Y-65516228D01*
X98430092Y-65546484D01*
X98318723Y-65592859D01*
X98219829Y-65655008D01*
X98201690Y-65671374D01*
X98133852Y-65732585D01*
X98061235Y-65825242D01*
X98002419Y-65932634D01*
X97957849Y-66054415D01*
X97950839Y-66079962D01*
X97943723Y-66112208D01*
X97938961Y-66145951D01*
X97936109Y-66185895D01*
X97934724Y-66236743D01*
X97934360Y-66303200D01*
X97547700Y-66303200D01*
X97552510Y-66288958D01*
X97600815Y-66145720D01*
X97603214Y-66138602D01*
X97638149Y-66034659D01*
X97667022Y-65947983D01*
X97690369Y-65876749D01*
X97708724Y-65819131D01*
X97722623Y-65773303D01*
X97732600Y-65737439D01*
X97739192Y-65709714D01*
X97742932Y-65688301D01*
X97744356Y-65671374D01*
X97743999Y-65657108D01*
X97742980Y-65646952D01*
X97728142Y-65593854D01*
X97697281Y-65552370D01*
X97648965Y-65520436D01*
X97624631Y-65511066D01*
X97571915Y-65502888D01*
X97519391Y-65508144D01*
X97474818Y-65526560D01*
X97473977Y-65527121D01*
X97462620Y-65536848D01*
X97451105Y-65551468D01*
X97438907Y-65572451D01*
X97425502Y-65601267D01*
X97410365Y-65639384D01*
X97392973Y-65688273D01*
X97372799Y-65749402D01*
X97349320Y-65824242D01*
X97322012Y-65914262D01*
X97290349Y-66020931D01*
X97253807Y-66145720D01*
X97250325Y-66157663D01*
X97222907Y-66251573D01*
X97197270Y-66339140D01*
X97173970Y-66418482D01*
X97153561Y-66487719D01*
X97136601Y-66544968D01*
X97123645Y-66588348D01*
X97115248Y-66615979D01*
X97111966Y-66625978D01*
X97110588Y-66622722D01*
X97104226Y-66602830D01*
X97093266Y-66566586D01*
X97078290Y-66515970D01*
X97059878Y-66452965D01*
X97038611Y-66379550D01*
X97015069Y-66297707D01*
X96989834Y-66209418D01*
X96977920Y-66167608D01*
X96944650Y-66051004D01*
X96916239Y-65951880D01*
X96892159Y-65868680D01*
X96871884Y-65799842D01*
X96854889Y-65743810D01*
X96840647Y-65699022D01*
X96828633Y-65663921D01*
X96818319Y-65636947D01*
X96809180Y-65616541D01*
X96800689Y-65601145D01*
X96792321Y-65589198D01*
X96783549Y-65579142D01*
X96773847Y-65569418D01*
X96747333Y-65546698D01*
X96689921Y-65514637D01*
X96629371Y-65500569D01*
X96568776Y-65504520D01*
X96511226Y-65526519D01*
X96459814Y-65566594D01*
X96453591Y-65573188D01*
X96442540Y-65586070D01*
X96432173Y-65600633D01*
X96421929Y-65618505D01*
X96411249Y-65641312D01*
X96399572Y-65670679D01*
X96386339Y-65708232D01*
X96370990Y-65755597D01*
X96352965Y-65814401D01*
X96331705Y-65886269D01*
X96306648Y-65972827D01*
X96277236Y-66075702D01*
X96242908Y-66196520D01*
X96233940Y-66228106D01*
X96209738Y-66313084D01*
X96187263Y-66391620D01*
X96167148Y-66461530D01*
X96150024Y-66520627D01*
X96136524Y-66566727D01*
X96127281Y-66597642D01*
X96122928Y-66611188D01*
X96122050Y-66611844D01*
X96115840Y-66601484D01*
X96104492Y-66571924D01*
X96087983Y-66523095D01*
X96066291Y-66454926D01*
X96039393Y-66367346D01*
X96007267Y-66260283D01*
X95969889Y-66133668D01*
X95963968Y-66113502D01*
X95935228Y-66016225D01*
X95907728Y-65924107D01*
X95882099Y-65839200D01*
X95858973Y-65763554D01*
X95838979Y-65699222D01*
X95822748Y-65648253D01*
X95810912Y-65612699D01*
X95804101Y-65594610D01*
X95789537Y-65568126D01*
X95756843Y-65532294D01*
X95714075Y-65512175D01*
X95657986Y-65505798D01*
X95649536Y-65505911D01*
X95588797Y-65516048D01*
X95540317Y-65541433D01*
X95505622Y-65580429D01*
X95486238Y-65631401D01*
X95483689Y-65692713D01*
X94784760Y-65692713D01*
X94784760Y-65128088D01*
X99816277Y-65128088D01*
X99820599Y-65174978D01*
X99832275Y-65212329D01*
X99857035Y-65247550D01*
X99899936Y-65284280D01*
X99948896Y-65307072D01*
X99960379Y-65309974D01*
X100023461Y-65315624D01*
X100081244Y-65304329D01*
X100131003Y-65277995D01*
X100170015Y-65238531D01*
X100195555Y-65187844D01*
X100204897Y-65127841D01*
X100201313Y-65087325D01*
X100180887Y-65031608D01*
X100142982Y-64985775D01*
X100088280Y-64950861D01*
X100087953Y-64950710D01*
X100029703Y-64934284D01*
X99970857Y-64936222D01*
X99915509Y-64955130D01*
X99867751Y-64989614D01*
X99831674Y-65038280D01*
X99829822Y-65042087D01*
X99819341Y-65080759D01*
X99816277Y-65128088D01*
X94784760Y-65128088D01*
X94784760Y-64530280D01*
X94808167Y-64472351D01*
X94816899Y-64452646D01*
X94860867Y-64383518D01*
X94920023Y-64324456D01*
X94990895Y-64279130D01*
X95058546Y-64245800D01*
X95480720Y-64239248D01*
X95480720Y-64104646D01*
X95480891Y-64056621D01*
X95481931Y-64014379D01*
X95484535Y-63983791D01*
X95489396Y-63960150D01*
X95497207Y-63938752D01*
X95508660Y-63914892D01*
X95511526Y-63909251D01*
X95526504Y-63881325D01*
X95541328Y-63859471D01*
X95558557Y-63842944D01*
X95580751Y-63831000D01*
X95610469Y-63822896D01*
X95650270Y-63817888D01*
X95702713Y-63815232D01*
X95770357Y-63814184D01*
X95855762Y-63814000D01*
X95873760Y-63814003D01*
X95956315Y-63814290D01*
X96021571Y-63815514D01*
X96072060Y-63818344D01*
X96110319Y-63823445D01*
X96138881Y-63831485D01*
X96160280Y-63843129D01*
X96177051Y-63859045D01*
X96191728Y-63879899D01*
X96206845Y-63906359D01*
X96218905Y-63929419D01*
X96227476Y-63950391D01*
X96233174Y-63973489D01*
X96236799Y-64003261D01*
X96239147Y-64044255D01*
X96241018Y-64101019D01*
X96245026Y-64240719D01*
X96931652Y-64240719D01*
X96935166Y-64100711D01*
X96936194Y-64063975D01*
X96938289Y-64016067D01*
X96941446Y-63981322D01*
X96946351Y-63955260D01*
X96953688Y-63933400D01*
X96964143Y-63911260D01*
X96970345Y-63899249D01*
X96983547Y-63875346D01*
X96996966Y-63856731D01*
X97013115Y-63842709D01*
X97034506Y-63832584D01*
X97063653Y-63825660D01*
X97103067Y-63821243D01*
X97155262Y-63818635D01*
X97222750Y-63817143D01*
X97308043Y-63816071D01*
X97366659Y-63815412D01*
X97433343Y-63814828D01*
X97484210Y-63814806D01*
X97521891Y-63815531D01*
X97549013Y-63817187D01*
X97568207Y-63819956D01*
X97582100Y-63824023D01*
X97593322Y-63829571D01*
X97604503Y-63836784D01*
X97614989Y-63844905D01*
X97642381Y-63873365D01*
X97665120Y-63905833D01*
X97673848Y-63922453D01*
X97681510Y-63941865D01*
X97686715Y-63964694D01*
X97690106Y-63995166D01*
X97692324Y-64037506D01*
X97694013Y-64095940D01*
X97697506Y-64240720D01*
X98383830Y-64240720D01*
X98388471Y-64103864D01*
X98390128Y-64059577D01*
X98392669Y-64015073D01*
X98396370Y-63982554D01*
X98402068Y-63957266D01*
X98410604Y-63934457D01*
X98422817Y-63909371D01*
X98429949Y-63895660D01*
X98443856Y-63871291D01*
X98458397Y-63852287D01*
X98476032Y-63838012D01*
X98499222Y-63827835D01*
X98530427Y-63821122D01*
X98572108Y-63817239D01*
X98626726Y-63815554D01*
X98696740Y-63815431D01*
X98784611Y-63816240D01*
X99045582Y-63819080D01*
X99077619Y-63849560D01*
X99087616Y-63859272D01*
X99108909Y-63882856D01*
X99124178Y-63907010D01*
X99134595Y-63935683D01*
X99141332Y-63972826D01*
X99145561Y-64022388D01*
X99148454Y-64088320D01*
X99153560Y-64235640D01*
X99849520Y-64240986D01*
X99849520Y-64105515D01*
X99849702Y-64055989D01*
X99850757Y-64013971D01*
X99853375Y-63983530D01*
X99858241Y-63959989D01*
X99866041Y-63938668D01*
X99877460Y-63914892D01*
X99880326Y-63909251D01*
X99895304Y-63881325D01*
X99910128Y-63859471D01*
X99927357Y-63842944D01*
X99949551Y-63831000D01*
X99979269Y-63822896D01*
X100019070Y-63817888D01*
X100071513Y-63815232D01*
X100139157Y-63814184D01*
X100224562Y-63814000D01*
X100242560Y-63814003D01*
X100325115Y-63814290D01*
X100390371Y-63815514D01*
X100440860Y-63818344D01*
X100479119Y-63823445D01*
X100507681Y-63831485D01*
X100529080Y-63843129D01*
X100545851Y-63859045D01*
X100560528Y-63879899D01*
X100575645Y-63906359D01*
X100587464Y-63928922D01*
X100596137Y-63949973D01*
X100601901Y-63973047D01*
X100605561Y-64002719D01*
X100607923Y-64043561D01*
X100609794Y-64100147D01*
X100613779Y-64238974D01*
X100823470Y-64242533D01*
X100873903Y-64243421D01*
X100932469Y-64244735D01*
X100976323Y-64246428D01*
X101008788Y-64248898D01*
X101033189Y-64252540D01*
X101052849Y-64257750D01*
X101071092Y-64264926D01*
X101091243Y-64274464D01*
X101159815Y-64317481D01*
X101221341Y-64377679D01*
X101267602Y-64449432D01*
X101297320Y-64509960D01*
X101297320Y-65127841D01*
X101297320Y-66304462D01*
G36*
X101297320Y-66304462D02*
G01*
X101297320Y-67700200D01*
X101267300Y-67759501D01*
X101242453Y-67800389D01*
X101192875Y-67858075D01*
X101133834Y-67906437D01*
X101071227Y-67940045D01*
X101057302Y-67945235D01*
X101034879Y-67952044D01*
X101009792Y-67957102D01*
X100978510Y-67960778D01*
X100937501Y-67963443D01*
X100883235Y-67965467D01*
X100812180Y-67967222D01*
X100611520Y-67971560D01*
X100611520Y-68085496D01*
X100609805Y-68153655D01*
X100602809Y-68218950D01*
X100589549Y-68270759D01*
X100569099Y-68312507D01*
X100540531Y-68347620D01*
X100502151Y-68386000D01*
X100231358Y-68386000D01*
X100177685Y-68385993D01*
X100102518Y-68385714D01*
X100043715Y-68384604D01*
X99998797Y-68382096D01*
X99965287Y-68377621D01*
X99940706Y-68370609D01*
X99922577Y-68360491D01*
X99908423Y-68346700D01*
X99895764Y-68328665D01*
X99882124Y-68305818D01*
X99881420Y-68304619D01*
X99870661Y-68284944D01*
X99863097Y-68266081D01*
X99858044Y-68243803D01*
X99854817Y-68213884D01*
X99852733Y-68172098D01*
X99851108Y-68114220D01*
X99847615Y-67969440D01*
X99148480Y-67969440D01*
X99148381Y-68104060D01*
X99148303Y-68131059D01*
X99147485Y-68180604D01*
X99145280Y-68216591D01*
X99141080Y-68243728D01*
X99134275Y-68266722D01*
X99124254Y-68290281D01*
X99115235Y-68309556D01*
X99103255Y-68332647D01*
X99090409Y-68350547D01*
X99074264Y-68363917D01*
X99052391Y-68373418D01*
X99022356Y-68379709D01*
X98981728Y-68383452D01*
X98928075Y-68385308D01*
X98858967Y-68385937D01*
X98771970Y-68386000D01*
X98499800Y-68386000D01*
X98469332Y-68360362D01*
X98457586Y-68349843D01*
X98432435Y-68320258D01*
X98414095Y-68284579D01*
X98401452Y-68239281D01*
X98393392Y-68180844D01*
X98388800Y-68105746D01*
X98383599Y-67969440D01*
X97697136Y-67969440D01*
X97693828Y-68109140D01*
X97693124Y-68136362D01*
X97691125Y-68187468D01*
X97688097Y-68224689D01*
X97683384Y-68252529D01*
X97676328Y-68275495D01*
X97666274Y-68298092D01*
X97660686Y-68309333D01*
X97648335Y-68331835D01*
X97635068Y-68349434D01*
X97618462Y-68362731D01*
X97596090Y-68372331D01*
X97565526Y-68378835D01*
X97524344Y-68382847D01*
X97470120Y-68384970D01*
X97400427Y-68385807D01*
X97312840Y-68385962D01*
X97046920Y-68386000D01*
X97015215Y-68359321D01*
X96993358Y-68339066D01*
X96971296Y-68310961D01*
X96955684Y-68277687D01*
X96945319Y-68235473D01*
X96939000Y-68180547D01*
X96935527Y-68109140D01*
X96931295Y-67969440D01*
X96242720Y-67969440D01*
X96242720Y-68084435D01*
X96240881Y-68155389D01*
X96233805Y-68220070D01*
X96220538Y-68271382D01*
X96200155Y-68312755D01*
X96171731Y-68347620D01*
X96133351Y-68386000D01*
X95862558Y-68386000D01*
X95808885Y-68385993D01*
X95733718Y-68385714D01*
X95674915Y-68384604D01*
X95629997Y-68382096D01*
X95596487Y-68377621D01*
X95571906Y-68370609D01*
X95553777Y-68360491D01*
X95539623Y-68346700D01*
X95526964Y-68328665D01*
X95513324Y-68305818D01*
X95512997Y-68305262D01*
X95502096Y-68285421D01*
X95494433Y-68266517D01*
X95489316Y-68244299D01*
X95486054Y-68214515D01*
X95483956Y-68172915D01*
X95482330Y-68115247D01*
X95478859Y-67971495D01*
X95274050Y-67967850D01*
X95069240Y-67964204D01*
X95001664Y-67932265D01*
X94993123Y-67928124D01*
X94920097Y-67881787D01*
X94861939Y-67822188D01*
X94816777Y-67747456D01*
X94784760Y-67679880D01*
X94784760Y-65692713D01*
X95483689Y-65692713D01*
X95484423Y-65697125D01*
X95490716Y-65721633D01*
X95502732Y-65762569D01*
X95519791Y-65817894D01*
X95541216Y-65885570D01*
X95566328Y-65963557D01*
X95594447Y-66049817D01*
X95624897Y-66142310D01*
X95656997Y-66238997D01*
X95690069Y-66337840D01*
X95723434Y-66436799D01*
X95756414Y-66533835D01*
X95788331Y-66626909D01*
X95818504Y-66713983D01*
X95846257Y-66793016D01*
X95870909Y-66861971D01*
X95891783Y-66918808D01*
X95908156Y-66957778D01*
X95946927Y-67022511D01*
X95993463Y-67068603D01*
X96047966Y-67096228D01*
X96110640Y-67105560D01*
X96118125Y-67105517D01*
X96186438Y-67096979D01*
X96242221Y-67072947D01*
X96287171Y-67032370D01*
X96322989Y-66974196D01*
X96328982Y-66959290D01*
X96341180Y-66924399D01*
X96357739Y-66873990D01*
X96377952Y-66810325D01*
X96401113Y-66735666D01*
X96426513Y-66652274D01*
X96453445Y-66562411D01*
X96481201Y-66468338D01*
X96505668Y-66385381D01*
X96531157Y-66300349D01*
X96554557Y-66223715D01*
X96575282Y-66157336D01*
X96592744Y-66103066D01*
X96606353Y-66062760D01*
X96615524Y-66038272D01*
X96619667Y-66031458D01*
X96620642Y-66033923D01*
X96626768Y-66053038D01*
X96637552Y-66088753D01*
X96652369Y-66138926D01*
X96670593Y-66201415D01*
X96691598Y-66274080D01*
X96714759Y-66354776D01*
X96739448Y-66441364D01*
X96746850Y-66467381D01*
X96771909Y-66555100D01*
X96795738Y-66637981D01*
X96817623Y-66713572D01*
X96836847Y-66779420D01*
X96852696Y-66833071D01*
X96864454Y-66872073D01*
X96871406Y-66893973D01*
X96878314Y-66913381D01*
X96908738Y-66983546D01*
X96942186Y-67035804D01*
X96980124Y-67072081D01*
X97024017Y-67094297D01*
X97037109Y-67097936D01*
X97084345Y-67104069D01*
X97135883Y-67103288D01*
X97180641Y-67095508D01*
X97223850Y-67074539D01*
X97267509Y-67037514D01*
X97303208Y-66990187D01*
X97304126Y-66988608D01*
X97310102Y-66977675D01*
X97316589Y-66964356D01*
X97324044Y-66947351D01*
X97332924Y-66925362D01*
X97343688Y-66897091D01*
X97356793Y-66861240D01*
X97372697Y-66816509D01*
X97391856Y-66761601D01*
X97414729Y-66695218D01*
X97441773Y-66616060D01*
X97473447Y-66522829D01*
X97510206Y-66414228D01*
X97547700Y-66303200D01*
X97934360Y-66303200D01*
X97934543Y-66353311D01*
X97935611Y-66408008D01*
X97938029Y-66450528D01*
X97942239Y-66485580D01*
X97948687Y-66517874D01*
X97957815Y-66552120D01*
X97975273Y-66606527D01*
X98026041Y-66722143D01*
X98091137Y-66823525D01*
X98170224Y-66910341D01*
X98262967Y-66982257D01*
X98369031Y-67038938D01*
X98488080Y-67080051D01*
X98488529Y-67080169D01*
X98525783Y-67087180D01*
X98577337Y-67093268D01*
X98637454Y-67098128D01*
X98700394Y-67101457D01*
X98760417Y-67102948D01*
X98811786Y-67102298D01*
X98848760Y-67099201D01*
X98944547Y-67077268D01*
X99045461Y-67040905D01*
X99140221Y-66993725D01*
X99222057Y-66938641D01*
X99281657Y-66884439D01*
X99353082Y-66796643D01*
X99412027Y-66694360D01*
X99416269Y-66685455D01*
X99442582Y-66625926D01*
X99461883Y-66571468D01*
X99475167Y-66517024D01*
X99483425Y-66457537D01*
X99487652Y-66387948D01*
X99488840Y-66303200D01*
X99488723Y-66272391D01*
X99486721Y-66194515D01*
X99482513Y-66143295D01*
X99809508Y-66143295D01*
X99809701Y-66243703D01*
X99810015Y-66303200D01*
X99810238Y-66345702D01*
X99811105Y-66447100D01*
X99812287Y-66545708D01*
X99813771Y-66639332D01*
X99815542Y-66725784D01*
X99817585Y-66802871D01*
X99819888Y-66868404D01*
X99822434Y-66920190D01*
X99825210Y-66956039D01*
X99828202Y-66973760D01*
X99834491Y-66987699D01*
X99862681Y-67030034D01*
X99899465Y-67067155D01*
X99938094Y-67091811D01*
X99987382Y-67104884D01*
X100045366Y-67102797D01*
X100100110Y-67083639D01*
X100146306Y-67048513D01*
X100149188Y-67045443D01*
X100160375Y-67033139D01*
X100169961Y-67020839D01*
X100178069Y-67006979D01*
X100184824Y-66989996D01*
X100190348Y-66968326D01*
X100194765Y-66940407D01*
X100198198Y-66904675D01*
X100200772Y-66859567D01*
X100202609Y-66803518D01*
X100203832Y-66734967D01*
X100204566Y-66652349D01*
X100204934Y-66554101D01*
X100205058Y-66438660D01*
X100205064Y-66304462D01*
X100204978Y-66204408D01*
X100204536Y-66063642D01*
X100203720Y-65942750D01*
X100202532Y-65841805D01*
X100200971Y-65760880D01*
X100199040Y-65700051D01*
X100196740Y-65659391D01*
X100194071Y-65638973D01*
X100188960Y-65625105D01*
X100170156Y-65591453D01*
X100145868Y-65560462D01*
X100124150Y-65540789D01*
X100074627Y-65513352D01*
X100021543Y-65502771D01*
X99968242Y-65507973D01*
X99918062Y-65527886D01*
X99874347Y-65561438D01*
X99840435Y-65607556D01*
X99819670Y-65665167D01*
X99818994Y-65669014D01*
X99816378Y-65696941D01*
X99814206Y-65741796D01*
X99812463Y-65801387D01*
X99811137Y-65873523D01*
X99810212Y-65956014D01*
X99809673Y-66046668D01*
X99809508Y-66143295D01*
X99482513Y-66143295D01*
X99481405Y-66129805D01*
X99471692Y-66073006D01*
X99456501Y-66018857D01*
X99434748Y-65962103D01*
X99405354Y-65897485D01*
X99398142Y-65882585D01*
X99373958Y-65836981D01*
X99349012Y-65799209D01*
X99318318Y-65762363D01*
X99276892Y-65719541D01*
X99240825Y-65685999D01*
X99143472Y-65614476D01*
X99035932Y-65560166D01*
X98919144Y-65523398D01*
X98794045Y-65504499D01*
X98661574Y-65503800D01*
X98553492Y-65516228D01*
X98430092Y-65546484D01*
X98318723Y-65592859D01*
X98219829Y-65655008D01*
X98201690Y-65671374D01*
X98133852Y-65732585D01*
X98061235Y-65825242D01*
X98002419Y-65932634D01*
X97957849Y-66054415D01*
X97950839Y-66079962D01*
X97943723Y-66112208D01*
X97938961Y-66145951D01*
X97936109Y-66185895D01*
X97934724Y-66236743D01*
X97934360Y-66303200D01*
X97547700Y-66303200D01*
X97552510Y-66288958D01*
X97600815Y-66145720D01*
X97603214Y-66138602D01*
X97638149Y-66034659D01*
X97667022Y-65947983D01*
X97690369Y-65876749D01*
X97708724Y-65819131D01*
X97722623Y-65773303D01*
X97732600Y-65737439D01*
X97739192Y-65709714D01*
X97742932Y-65688301D01*
X97744356Y-65671374D01*
X97743999Y-65657108D01*
X97742980Y-65646952D01*
X97728142Y-65593854D01*
X97697281Y-65552370D01*
X97648965Y-65520436D01*
X97624631Y-65511066D01*
X97571915Y-65502888D01*
X97519391Y-65508144D01*
X97474818Y-65526560D01*
X97473977Y-65527121D01*
X97462620Y-65536848D01*
X97451105Y-65551468D01*
X97438907Y-65572451D01*
X97425502Y-65601267D01*
X97410365Y-65639384D01*
X97392973Y-65688273D01*
X97372799Y-65749402D01*
X97349320Y-65824242D01*
X97322012Y-65914262D01*
X97290349Y-66020931D01*
X97253807Y-66145720D01*
X97250325Y-66157663D01*
X97222907Y-66251573D01*
X97197270Y-66339140D01*
X97173970Y-66418482D01*
X97153561Y-66487719D01*
X97136601Y-66544968D01*
X97123645Y-66588348D01*
X97115248Y-66615979D01*
X97111966Y-66625978D01*
X97110588Y-66622722D01*
X97104226Y-66602830D01*
X97093266Y-66566586D01*
X97078290Y-66515970D01*
X97059878Y-66452965D01*
X97038611Y-66379550D01*
X97015069Y-66297707D01*
X96989834Y-66209418D01*
X96977920Y-66167608D01*
X96944650Y-66051004D01*
X96916239Y-65951880D01*
X96892159Y-65868680D01*
X96871884Y-65799842D01*
X96854889Y-65743810D01*
X96840647Y-65699022D01*
X96828633Y-65663921D01*
X96818319Y-65636947D01*
X96809180Y-65616541D01*
X96800689Y-65601145D01*
X96792321Y-65589198D01*
X96783549Y-65579142D01*
X96773847Y-65569418D01*
X96747333Y-65546698D01*
X96689921Y-65514637D01*
X96629371Y-65500569D01*
X96568776Y-65504520D01*
X96511226Y-65526519D01*
X96459814Y-65566594D01*
X96453591Y-65573188D01*
X96442540Y-65586070D01*
X96432173Y-65600633D01*
X96421929Y-65618505D01*
X96411249Y-65641312D01*
X96399572Y-65670679D01*
X96386339Y-65708232D01*
X96370990Y-65755597D01*
X96352965Y-65814401D01*
X96331705Y-65886269D01*
X96306648Y-65972827D01*
X96277236Y-66075702D01*
X96242908Y-66196520D01*
X96233940Y-66228106D01*
X96209738Y-66313084D01*
X96187263Y-66391620D01*
X96167148Y-66461530D01*
X96150024Y-66520627D01*
X96136524Y-66566727D01*
X96127281Y-66597642D01*
X96122928Y-66611188D01*
X96122050Y-66611844D01*
X96115840Y-66601484D01*
X96104492Y-66571924D01*
X96087983Y-66523095D01*
X96066291Y-66454926D01*
X96039393Y-66367346D01*
X96007267Y-66260283D01*
X95969889Y-66133668D01*
X95963968Y-66113502D01*
X95935228Y-66016225D01*
X95907728Y-65924107D01*
X95882099Y-65839200D01*
X95858973Y-65763554D01*
X95838979Y-65699222D01*
X95822748Y-65648253D01*
X95810912Y-65612699D01*
X95804101Y-65594610D01*
X95789537Y-65568126D01*
X95756843Y-65532294D01*
X95714075Y-65512175D01*
X95657986Y-65505798D01*
X95649536Y-65505911D01*
X95588797Y-65516048D01*
X95540317Y-65541433D01*
X95505622Y-65580429D01*
X95486238Y-65631401D01*
X95483689Y-65692713D01*
X94784760Y-65692713D01*
X94784760Y-65128088D01*
X99816277Y-65128088D01*
X99820599Y-65174978D01*
X99832275Y-65212329D01*
X99857035Y-65247550D01*
X99899936Y-65284280D01*
X99948896Y-65307072D01*
X99960379Y-65309974D01*
X100023461Y-65315624D01*
X100081244Y-65304329D01*
X100131003Y-65277995D01*
X100170015Y-65238531D01*
X100195555Y-65187844D01*
X100204897Y-65127841D01*
X100201313Y-65087325D01*
X100180887Y-65031608D01*
X100142982Y-64985775D01*
X100088280Y-64950861D01*
X100087953Y-64950710D01*
X100029703Y-64934284D01*
X99970857Y-64936222D01*
X99915509Y-64955130D01*
X99867751Y-64989614D01*
X99831674Y-65038280D01*
X99829822Y-65042087D01*
X99819341Y-65080759D01*
X99816277Y-65128088D01*
X94784760Y-65128088D01*
X94784760Y-64530280D01*
X94808167Y-64472351D01*
X94816899Y-64452646D01*
X94860867Y-64383518D01*
X94920023Y-64324456D01*
X94990895Y-64279130D01*
X95058546Y-64245800D01*
X95480720Y-64239248D01*
X95480720Y-64104646D01*
X95480891Y-64056621D01*
X95481931Y-64014379D01*
X95484535Y-63983791D01*
X95489396Y-63960150D01*
X95497207Y-63938752D01*
X95508660Y-63914892D01*
X95511526Y-63909251D01*
X95526504Y-63881325D01*
X95541328Y-63859471D01*
X95558557Y-63842944D01*
X95580751Y-63831000D01*
X95610469Y-63822896D01*
X95650270Y-63817888D01*
X95702713Y-63815232D01*
X95770357Y-63814184D01*
X95855762Y-63814000D01*
X95873760Y-63814003D01*
X95956315Y-63814290D01*
X96021571Y-63815514D01*
X96072060Y-63818344D01*
X96110319Y-63823445D01*
X96138881Y-63831485D01*
X96160280Y-63843129D01*
X96177051Y-63859045D01*
X96191728Y-63879899D01*
X96206845Y-63906359D01*
X96218905Y-63929419D01*
X96227476Y-63950391D01*
X96233174Y-63973489D01*
X96236799Y-64003261D01*
X96239147Y-64044255D01*
X96241018Y-64101019D01*
X96245026Y-64240719D01*
X96931652Y-64240719D01*
X96935166Y-64100711D01*
X96936194Y-64063975D01*
X96938289Y-64016067D01*
X96941446Y-63981322D01*
X96946351Y-63955260D01*
X96953688Y-63933400D01*
X96964143Y-63911260D01*
X96970345Y-63899249D01*
X96983547Y-63875346D01*
X96996966Y-63856731D01*
X97013115Y-63842709D01*
X97034506Y-63832584D01*
X97063653Y-63825660D01*
X97103067Y-63821243D01*
X97155262Y-63818635D01*
X97222750Y-63817143D01*
X97308043Y-63816071D01*
X97366659Y-63815412D01*
X97433343Y-63814828D01*
X97484210Y-63814806D01*
X97521891Y-63815531D01*
X97549013Y-63817187D01*
X97568207Y-63819956D01*
X97582100Y-63824023D01*
X97593322Y-63829571D01*
X97604503Y-63836784D01*
X97614989Y-63844905D01*
X97642381Y-63873365D01*
X97665120Y-63905833D01*
X97673848Y-63922453D01*
X97681510Y-63941865D01*
X97686715Y-63964694D01*
X97690106Y-63995166D01*
X97692324Y-64037506D01*
X97694013Y-64095940D01*
X97697506Y-64240720D01*
X98383830Y-64240720D01*
X98388471Y-64103864D01*
X98390128Y-64059577D01*
X98392669Y-64015073D01*
X98396370Y-63982554D01*
X98402068Y-63957266D01*
X98410604Y-63934457D01*
X98422817Y-63909371D01*
X98429949Y-63895660D01*
X98443856Y-63871291D01*
X98458397Y-63852287D01*
X98476032Y-63838012D01*
X98499222Y-63827835D01*
X98530427Y-63821122D01*
X98572108Y-63817239D01*
X98626726Y-63815554D01*
X98696740Y-63815431D01*
X98784611Y-63816240D01*
X99045582Y-63819080D01*
X99077619Y-63849560D01*
X99087616Y-63859272D01*
X99108909Y-63882856D01*
X99124178Y-63907010D01*
X99134595Y-63935683D01*
X99141332Y-63972826D01*
X99145561Y-64022388D01*
X99148454Y-64088320D01*
X99153560Y-64235640D01*
X99849520Y-64240986D01*
X99849520Y-64105515D01*
X99849702Y-64055989D01*
X99850757Y-64013971D01*
X99853375Y-63983530D01*
X99858241Y-63959989D01*
X99866041Y-63938668D01*
X99877460Y-63914892D01*
X99880326Y-63909251D01*
X99895304Y-63881325D01*
X99910128Y-63859471D01*
X99927357Y-63842944D01*
X99949551Y-63831000D01*
X99979269Y-63822896D01*
X100019070Y-63817888D01*
X100071513Y-63815232D01*
X100139157Y-63814184D01*
X100224562Y-63814000D01*
X100242560Y-63814003D01*
X100325115Y-63814290D01*
X100390371Y-63815514D01*
X100440860Y-63818344D01*
X100479119Y-63823445D01*
X100507681Y-63831485D01*
X100529080Y-63843129D01*
X100545851Y-63859045D01*
X100560528Y-63879899D01*
X100575645Y-63906359D01*
X100587464Y-63928922D01*
X100596137Y-63949973D01*
X100601901Y-63973047D01*
X100605561Y-64002719D01*
X100607923Y-64043561D01*
X100609794Y-64100147D01*
X100613779Y-64238974D01*
X100823470Y-64242533D01*
X100873903Y-64243421D01*
X100932469Y-64244735D01*
X100976323Y-64246428D01*
X101008788Y-64248898D01*
X101033189Y-64252540D01*
X101052849Y-64257750D01*
X101071092Y-64264926D01*
X101091243Y-64274464D01*
X101159815Y-64317481D01*
X101221341Y-64377679D01*
X101267602Y-64449432D01*
X101297320Y-64509960D01*
X101297320Y-65127841D01*
X101297320Y-66304462D01*
G37*
D14*
X105990000Y-73159420D02*
X105990000Y-73440580D01*
X107010000Y-73159420D02*
X107010000Y-73440580D01*
X137385000Y-50378748D02*
X137385000Y-50901252D01*
X138855000Y-50378748D02*
X138855000Y-50901252D01*
X109562500Y-66840000D02*
X110362500Y-66840000D01*
X109562500Y-69960000D02*
X110362500Y-69960000D01*
X111162500Y-66840000D02*
X110362500Y-66840000D01*
X111162500Y-69960000D02*
X110362500Y-69960000D01*
X111662500Y-66890000D02*
X111422500Y-66560000D01*
X111902500Y-66560000D01*
X111662500Y-66890000D01*
G36*
X111662500Y-66890000D02*
G01*
X111422500Y-66560000D01*
X111902500Y-66560000D01*
X111662500Y-66890000D01*
G37*
X130850000Y-39900000D02*
X130850000Y-40500000D01*
X131500000Y-41200000D02*
X134300000Y-41200000D01*
X134300000Y-39200000D02*
X131500000Y-39200000D01*
X134950000Y-40500000D02*
X134950000Y-39900000D01*
X130850000Y-39900000D02*
G75*
G02*
X131550000Y-39200000I699999J1D01*
G01*
X131550000Y-41200000D02*
G75*
G02*
X130850000Y-40500000I-1J699999D01*
G01*
X134250000Y-39200000D02*
G75*
G02*
X134950000Y-39900000I0J-700000D01*
G01*
X134950000Y-40500000D02*
G75*
G02*
X134250000Y-41200000I-700000J0D01*
G01*
X104377500Y-73537258D02*
X104377500Y-73062742D01*
X105422500Y-73537258D02*
X105422500Y-73062742D01*
X147577500Y-73637258D02*
X147577500Y-73162742D01*
X148622500Y-73637258D02*
X148622500Y-73162742D01*
X145000000Y-72800000D02*
X145000000Y-74200000D01*
X145700000Y-74900000D02*
X146300000Y-74900000D01*
X146300000Y-72100000D02*
X145700000Y-72100000D01*
X147000000Y-74200000D02*
X147000000Y-72800000D01*
X145000000Y-72800000D02*
G75*
G02*
X145700000Y-72100000I699999J1D01*
G01*
X145700000Y-74900000D02*
G75*
G02*
X145000000Y-74200000I0J700000D01*
G01*
X146300000Y-72100000D02*
G75*
G02*
X147000000Y-72800000I1J-699999D01*
G01*
X147000000Y-74200000D02*
G75*
G02*
X146300000Y-74900000I-700000J0D01*
G01*
X145540000Y-64600000D02*
X145540000Y-65250000D01*
X145540000Y-65900000D02*
X145540000Y-65250000D01*
X148660000Y-64600000D02*
X148660000Y-65250000D01*
X148660000Y-65900000D02*
X148660000Y-65250000D01*
X145590000Y-64087500D02*
X145260000Y-64327500D01*
X145260000Y-63847500D01*
X145590000Y-64087500D01*
G36*
X145590000Y-64087500D02*
G01*
X145260000Y-64327500D01*
X145260000Y-63847500D01*
X145590000Y-64087500D01*
G37*
X119412500Y-71310000D02*
X119412500Y-65800000D01*
X122712500Y-71310000D02*
X119412500Y-71310000D01*
X122712500Y-71310000D02*
X122712500Y-65800000D01*
X132500000Y-62650000D02*
X130400000Y-62650000D01*
X132500000Y-76150000D02*
X130400000Y-76150000D01*
X136500000Y-76150000D02*
X137950000Y-76150000D01*
X137950000Y-62650000D02*
X136500000Y-62650000D01*
X137950000Y-76150000D02*
X140550000Y-73550000D01*
X140550000Y-65250000D02*
X137950000Y-62650000D01*
X140550000Y-73550000D02*
X141350000Y-73550000D01*
X141350000Y-65250000D02*
X140550000Y-65250000D01*
X141350000Y-73550000D02*
X141350000Y-65250000D01*
X128900000Y-64100000D02*
G75*
G02*
X130450000Y-62650000I1500000J-50000D01*
G01*
X128915840Y-74814615D02*
G75*
G02*
X129300000Y-73900000I984161J124615D01*
G01*
X129300000Y-64900000D02*
G75*
G02*
X128915840Y-63985385I600000J790000D01*
G01*
X130450000Y-76150000D02*
G75*
G02*
X128900000Y-74700000I-50001J1499999D01*
G01*
X140097500Y-50377258D02*
X140097500Y-49902742D01*
X141142500Y-50377258D02*
X141142500Y-49902742D01*
X110000000Y-70500000D02*
X112800000Y-70500000D01*
X110000000Y-73300000D02*
X112800000Y-73300000D01*
X112035000Y-71925400D02*
G75*
G02*
X110765000Y-71925400I-635000J0D01*
G01*
X110765000Y-71925400D02*
G75*
G02*
X112035000Y-71925400I635000J0D01*
G01*
X106938748Y-62700000D02*
X107461252Y-62700000D01*
X106938748Y-64170000D02*
X107461252Y-64170000D01*
X116761252Y-50665000D02*
X116238748Y-50665000D01*
X116761252Y-52135000D02*
X116238748Y-52135000D01*
X113538748Y-60365000D02*
X114061252Y-60365000D01*
X113538748Y-61835000D02*
X114061252Y-61835000D01*
X128200000Y-57740000D02*
X129000000Y-57740000D01*
X128200000Y-60860000D02*
X129000000Y-60860000D01*
X129800000Y-57740000D02*
X129000000Y-57740000D01*
X129800000Y-60860000D02*
X129000000Y-60860000D01*
X127940000Y-61140000D02*
X127460000Y-61140000D01*
X127700000Y-60810000D01*
X127940000Y-61140000D01*
G36*
X127940000Y-61140000D02*
G01*
X127460000Y-61140000D01*
X127700000Y-60810000D01*
X127940000Y-61140000D01*
G37*
X120961252Y-50665000D02*
X120438748Y-50665000D01*
X120961252Y-52135000D02*
X120438748Y-52135000D01*
X105000000Y-66840000D02*
X105800000Y-66840000D01*
X105000000Y-69960000D02*
X105800000Y-69960000D01*
X106600000Y-66840000D02*
X105800000Y-66840000D01*
X106600000Y-69960000D02*
X105800000Y-69960000D01*
X107100000Y-66890000D02*
X106860000Y-66560000D01*
X107340000Y-66560000D01*
X107100000Y-66890000D01*
G36*
X107100000Y-66890000D02*
G01*
X106860000Y-66560000D01*
X107340000Y-66560000D01*
X107100000Y-66890000D01*
G37*
X141597500Y-50377258D02*
X141597500Y-49902742D01*
X142642500Y-50377258D02*
X142642500Y-49902742D01*
X115750000Y-53990000D02*
X115750000Y-59500000D01*
X115750000Y-53990000D02*
X119050000Y-53990000D01*
X119050000Y-53990000D02*
X119050000Y-59500000D01*
X114475000Y-72925000D02*
X114475000Y-72325000D01*
X115175000Y-71625000D02*
X116575000Y-71625000D01*
X116575000Y-73625000D02*
X115175000Y-73625000D01*
X117275000Y-72325000D02*
X117275000Y-72925000D01*
X114475000Y-72325000D02*
G75*
G02*
X115175000Y-71625000I700000J0D01*
G01*
X115175000Y-73625000D02*
G75*
G02*
X114475000Y-72925000I0J700000D01*
G01*
X116575000Y-71625000D02*
G75*
G02*
X117275000Y-72325000I1J-699999D01*
G01*
X117275000Y-72925000D02*
G75*
G02*
X116575000Y-73625000I-699999J-1D01*
G01*
X128287742Y-56277500D02*
X128762258Y-56277500D01*
X128287742Y-57322500D02*
X128762258Y-57322500D01*
X119590000Y-54450000D02*
X119590000Y-60150000D01*
X120200000Y-60760000D02*
X121050000Y-60760000D01*
X121050000Y-53840000D02*
X120200000Y-53840000D01*
X124950000Y-60760000D02*
X125800000Y-60760000D01*
X125750000Y-53840000D02*
X124950000Y-53840000D01*
X126410000Y-60150000D02*
X126410000Y-54500000D01*
X119590000Y-54450000D02*
G75*
G02*
X120200000Y-53840000I610000J0D01*
G01*
X120200000Y-60760000D02*
G75*
G02*
X119590000Y-60150000I0J610000D01*
G01*
X125750000Y-53840000D02*
G75*
G02*
X126410000Y-54500000I-2J-660002D01*
G01*
X126410000Y-60150000D02*
G75*
G02*
X125800000Y-60760000I-610000J0D01*
G01*
X113787258Y-57702500D02*
X113312742Y-57702500D01*
X113787258Y-58747500D02*
X113312742Y-58747500D01*
X117737258Y-65977500D02*
X117262742Y-65977500D01*
X117737258Y-67022500D02*
X117262742Y-67022500D01*
X116250000Y-67540000D02*
X116900000Y-67540000D01*
X116250000Y-70660000D02*
X116900000Y-70660000D01*
X117550000Y-67540000D02*
X116900000Y-67540000D01*
X117550000Y-70660000D02*
X116900000Y-70660000D01*
X118062500Y-67590000D02*
X117822500Y-67260000D01*
X118302500Y-67260000D01*
X118062500Y-67590000D01*
G36*
X118062500Y-67590000D02*
G01*
X117822500Y-67260000D01*
X118302500Y-67260000D01*
X118062500Y-67590000D01*
G37*
%LPC*%
D16*
X112400000Y-51925000D03*
D17*
X112400000Y-54465000D03*
D18*
X120700000Y-78300000D03*
D19*
X121700000Y-75600000D03*
X126700000Y-75600000D03*
D18*
X127700000Y-78300000D03*
D20*
X99650000Y-77125000D03*
D21*
X97150000Y-77125000D03*
D22*
X91700000Y-32900000D03*
D23*
X94200000Y-32900000D03*
X96700000Y-32900000D03*
X99200000Y-32900000D03*
D24*
X82900000Y-56275000D03*
D25*
X82900000Y-53775000D03*
X82900000Y-51275000D03*
D24*
X82850000Y-45375000D03*
D25*
X82850000Y-42875000D03*
X82850000Y-40375000D03*
D26*
X99600000Y-60000000D03*
D23*
X97100000Y-60000000D03*
X94600000Y-60000000D03*
X92100000Y-60000000D03*
D20*
X91250000Y-77125000D03*
D21*
X88750000Y-77125000D03*
D20*
X108050000Y-77125000D03*
D21*
X105550000Y-77125000D03*
D20*
X116450000Y-77175000D03*
D21*
X113950000Y-77175000D03*
D24*
X82875000Y-69700000D03*
D25*
X82875000Y-67200000D03*
X82875000Y-64700000D03*
X82875000Y-62200000D03*
D27*
X145120000Y-50965000D03*
X145120000Y-49315000D03*
X143620000Y-50965000D03*
X143620000Y-49315000D03*
D28*
X129325000Y-55200000D03*
X127675000Y-55200000D03*
D29*
X146680000Y-47000000D03*
X145580000Y-47000000D03*
X144480000Y-47000000D03*
X143380000Y-47000000D03*
X142280000Y-47000000D03*
X141180000Y-47000000D03*
X140080000Y-47000000D03*
X138980000Y-47000000D03*
X137880000Y-47000000D03*
D30*
X136680000Y-36900000D03*
D31*
X136680000Y-46500000D03*
D32*
X151280000Y-46500000D03*
D30*
X152180000Y-36900000D03*
D33*
X101400000Y-70475000D03*
X101400000Y-72125000D03*
D28*
X107325000Y-71000000D03*
X105675000Y-71000000D03*
D34*
X91900000Y-71700000D03*
D35*
X90600000Y-71700000D03*
D36*
X89300000Y-71700000D03*
D37*
X110800000Y-57695000D03*
X110800000Y-58965000D03*
X110800000Y-60235000D03*
X110800000Y-61505000D03*
X105400000Y-61505000D03*
X105400000Y-60235000D03*
X105400000Y-58965000D03*
X105400000Y-57695000D03*
D38*
X108100000Y-59600000D03*
D33*
X108125000Y-34250000D03*
X108125000Y-35900000D03*
D39*
X149675000Y-66150000D03*
X151325000Y-66150000D03*
D27*
X149700000Y-74225000D03*
X149700000Y-72575000D03*
D40*
X149725000Y-67650000D03*
X151275000Y-67650000D03*
D41*
X136120000Y-49865000D03*
X136120000Y-51415000D03*
D42*
X93950000Y-74500000D03*
D43*
X95250000Y-74500000D03*
D33*
X99800000Y-70475000D03*
X99800000Y-72125000D03*
D44*
X148620000Y-48990000D03*
D45*
X148620000Y-50290000D03*
D46*
X110975000Y-46000000D03*
X110975000Y-44000000D03*
X110975000Y-42000000D03*
X110975000Y-40000000D03*
X110975000Y-38000000D03*
X110975000Y-36000000D03*
X110975000Y-34000000D03*
X110975000Y-32000000D03*
X126025000Y-32000000D03*
X126025000Y-34000000D03*
X126025000Y-36000000D03*
X126025000Y-38000000D03*
X126025000Y-40000000D03*
X126025000Y-42000000D03*
X126025000Y-44000000D03*
X126025000Y-46000000D03*
D47*
X130800000Y-35200000D03*
X130800000Y-37100000D03*
D41*
X106500000Y-72525000D03*
X106500000Y-74075000D03*
D47*
X138120000Y-49690000D03*
X138120000Y-51590000D03*
D48*
X111500000Y-67450000D03*
X111500000Y-68400000D03*
X111500000Y-69350000D03*
X109225000Y-69350000D03*
X109225000Y-68400000D03*
X109225000Y-67450000D03*
D49*
X131600000Y-40200000D03*
D35*
X132900000Y-40200000D03*
D50*
X134200000Y-40200000D03*
D27*
X104900000Y-74125000D03*
X104900000Y-72475000D03*
X148100000Y-74225000D03*
X148100000Y-72575000D03*
D44*
X146000000Y-72850000D03*
D45*
X146000000Y-74150000D03*
D51*
X146150000Y-64312500D03*
X148050000Y-64312500D03*
X147100000Y-66187500D03*
D52*
X121062500Y-69800000D03*
X121062500Y-65800000D03*
D53*
X134500000Y-77300000D03*
X134500000Y-61500000D03*
D54*
X134500000Y-69400000D03*
D27*
X140620000Y-50965000D03*
X140620000Y-49315000D03*
D55*
X109475000Y-71150000D03*
X113325000Y-71150000D03*
X109475000Y-72650000D03*
X113325000Y-72650000D03*
D56*
X106250000Y-63435000D03*
X108150000Y-63435000D03*
D57*
X147950000Y-69250000D03*
X148850000Y-69250000D03*
X149750000Y-69250000D03*
X150650000Y-69250000D03*
X150650000Y-70450000D03*
X149750000Y-70450000D03*
X148850000Y-70450000D03*
X147950000Y-70450000D03*
D58*
X117450000Y-51400000D03*
X115550000Y-51400000D03*
D56*
X112850000Y-61100000D03*
X114750000Y-61100000D03*
D59*
X127862500Y-60250000D03*
X127862500Y-59300000D03*
X127862500Y-58350000D03*
X130137500Y-58350000D03*
X130137500Y-59300000D03*
X130137500Y-60250000D03*
D58*
X121650000Y-51400000D03*
X119750000Y-51400000D03*
D48*
X106937500Y-67450000D03*
X106937500Y-68400000D03*
X106937500Y-69350000D03*
X104662500Y-69350000D03*
X104662500Y-68400000D03*
X104662500Y-67450000D03*
D27*
X142120000Y-50965000D03*
X142120000Y-49315000D03*
D60*
X117400000Y-55500000D03*
X117400000Y-59500000D03*
D61*
X116525000Y-72625000D03*
D62*
X115225000Y-72625000D03*
D39*
X127700000Y-56800000D03*
X129350000Y-56800000D03*
D63*
X123000000Y-54575000D03*
X123000000Y-60025000D03*
D28*
X114375000Y-58225000D03*
X112725000Y-58225000D03*
X118325000Y-66500000D03*
X116675000Y-66500000D03*
D64*
X117837500Y-68150000D03*
X117837500Y-70050000D03*
X115962500Y-69100000D03*
%LPD*%
M02*
