G04 #@! TF.GenerationSoftware,KiCad,Pcbnew,8.0.9-8.0.9-0~ubuntu20.04.1*
G04 #@! TF.CreationDate,2025-09-01T23:09:39-04:00*
G04 #@! TF.ProjectId,sirius_v1,73697269-7573-45f7-9631-2e6b69636164,rev?*
G04 #@! TF.SameCoordinates,Original*
G04 #@! TF.FileFunction,Copper,L2,Bot*
G04 #@! TF.FilePolarity,Positive*
%FSLAX46Y46*%
G04 Gerber Fmt 4.6, Leading zero omitted, Abs format (unit mm)*
G04 Created by KiCad (PCBNEW 8.0.9-8.0.9-0~ubuntu20.04.1) date 2025-09-01 23:09:39*
%MOMM*%
%LPD*%
G01*
G04 APERTURE LIST*
G04 Aperture macros list*
%AMRoundRect*
0 Rectangle with rounded corners*
0 $1 Rounding radius*
0 $2 $3 $4 $5 $6 $7 $8 $9 X,Y pos of 4 corners*
0 Add a 4 corners polygon primitive as box body*
4,1,4,$2,$3,$4,$5,$6,$7,$8,$9,$2,$3,0*
0 Add four circle primitives for the rounded corners*
1,1,$1+$1,$2,$3*
1,1,$1+$1,$4,$5*
1,1,$1+$1,$6,$7*
1,1,$1+$1,$8,$9*
0 Add four rect primitives between the rounded corners*
20,1,$1+$1,$2,$3,$4,$5,0*
20,1,$1+$1,$4,$5,$6,$7,0*
20,1,$1+$1,$6,$7,$8,$9,0*
20,1,$1+$1,$8,$9,$2,$3,0*%
%AMFreePoly0*
4,1,19,0.550000,-0.750000,0.000000,-0.750000,0.000000,-0.744911,-0.071157,-0.744911,-0.207708,-0.704816,-0.327430,-0.627875,-0.420627,-0.520320,-0.479746,-0.390866,-0.500000,-0.250000,-0.500000,0.250000,-0.479746,0.390866,-0.420627,0.520320,-0.327430,0.627875,-0.207708,0.704816,-0.071157,0.744911,0.000000,0.744911,0.000000,0.750000,0.550000,0.750000,0.550000,-0.750000,0.550000,-0.750000,
$1*%
%AMFreePoly1*
4,1,19,0.000000,0.744911,0.071157,0.744911,0.207708,0.704816,0.327430,0.627875,0.420627,0.520320,0.479746,0.390866,0.500000,0.250000,0.500000,-0.250000,0.479746,-0.390866,0.420627,-0.520320,0.327430,-0.627875,0.207708,-0.704816,0.071157,-0.744911,0.000000,-0.744911,0.000000,-0.750000,-0.550000,-0.750000,-0.550000,0.750000,0.000000,0.750000,0.000000,0.744911,0.000000,0.744911,
$1*%
%AMFreePoly2*
4,1,19,0.500000,-0.750000,0.000000,-0.750000,0.000000,-0.744911,-0.071157,-0.744911,-0.207708,-0.704816,-0.327430,-0.627875,-0.420627,-0.520320,-0.479746,-0.390866,-0.500000,-0.250000,-0.500000,0.250000,-0.479746,0.390866,-0.420627,0.520320,-0.327430,0.627875,-0.207708,0.704816,-0.071157,0.744911,0.000000,0.744911,0.000000,0.750000,0.500000,0.750000,0.500000,-0.750000,0.500000,-0.750000,
$1*%
%AMFreePoly3*
4,1,19,0.000000,0.744911,0.071157,0.744911,0.207708,0.704816,0.327430,0.627875,0.420627,0.520320,0.479746,0.390866,0.500000,0.250000,0.500000,-0.250000,0.479746,-0.390866,0.420627,-0.520320,0.327430,-0.627875,0.207708,-0.704816,0.071157,-0.744911,0.000000,-0.744911,0.000000,-0.750000,-0.500000,-0.750000,-0.500000,0.750000,0.000000,0.750000,0.000000,0.744911,0.000000,0.744911,
$1*%
G04 Aperture macros list end*
G04 #@! TA.AperFunction,ComponentPad*
%ADD10R,1.700000X1.700000*%
G04 #@! TD*
G04 #@! TA.AperFunction,ComponentPad*
%ADD11O,1.700000X1.700000*%
G04 #@! TD*
G04 #@! TA.AperFunction,HeatsinkPad*
%ADD12O,0.890000X1.550000*%
G04 #@! TD*
G04 #@! TA.AperFunction,HeatsinkPad*
%ADD13O,1.250000X0.950000*%
G04 #@! TD*
G04 #@! TA.AperFunction,ComponentPad*
%ADD14RoundRect,0.250000X0.600000X0.750000X-0.600000X0.750000X-0.600000X-0.750000X0.600000X-0.750000X0*%
G04 #@! TD*
G04 #@! TA.AperFunction,ComponentPad*
%ADD15O,1.700000X2.000000*%
G04 #@! TD*
G04 #@! TA.AperFunction,ComponentPad*
%ADD16RoundRect,0.250000X-0.600000X-0.725000X0.600000X-0.725000X0.600000X0.725000X-0.600000X0.725000X0*%
G04 #@! TD*
G04 #@! TA.AperFunction,ComponentPad*
%ADD17O,1.700000X1.950000*%
G04 #@! TD*
G04 #@! TA.AperFunction,ComponentPad*
%ADD18RoundRect,0.250000X0.725000X-0.600000X0.725000X0.600000X-0.725000X0.600000X-0.725000X-0.600000X0*%
G04 #@! TD*
G04 #@! TA.AperFunction,ComponentPad*
%ADD19O,1.950000X1.700000*%
G04 #@! TD*
G04 #@! TA.AperFunction,ComponentPad*
%ADD20RoundRect,0.250000X0.600000X0.725000X-0.600000X0.725000X-0.600000X-0.725000X0.600000X-0.725000X0*%
G04 #@! TD*
G04 #@! TA.AperFunction,SMDPad,CuDef*
%ADD21RoundRect,0.200000X0.275000X-0.200000X0.275000X0.200000X-0.275000X0.200000X-0.275000X-0.200000X0*%
G04 #@! TD*
G04 #@! TA.AperFunction,SMDPad,CuDef*
%ADD22RoundRect,0.200000X0.200000X0.275000X-0.200000X0.275000X-0.200000X-0.275000X0.200000X-0.275000X0*%
G04 #@! TD*
G04 #@! TA.AperFunction,SMDPad,CuDef*
%ADD23RoundRect,0.175000X0.175000X0.625000X-0.175000X0.625000X-0.175000X-0.625000X0.175000X-0.625000X0*%
G04 #@! TD*
G04 #@! TA.AperFunction,SMDPad,CuDef*
%ADD24RoundRect,0.300000X0.300000X0.800000X-0.300000X0.800000X-0.300000X-0.800000X0.300000X-0.800000X0*%
G04 #@! TD*
G04 #@! TA.AperFunction,SMDPad,CuDef*
%ADD25RoundRect,0.300000X0.300000X0.400000X-0.300000X0.400000X-0.300000X-0.400000X0.300000X-0.400000X0*%
G04 #@! TD*
G04 #@! TA.AperFunction,SMDPad,CuDef*
%ADD26RoundRect,0.350000X0.450000X0.350000X-0.450000X0.350000X-0.450000X-0.350000X0.450000X-0.350000X0*%
G04 #@! TD*
G04 #@! TA.AperFunction,SMDPad,CuDef*
%ADD27RoundRect,0.200000X-0.275000X0.200000X-0.275000X-0.200000X0.275000X-0.200000X0.275000X0.200000X0*%
G04 #@! TD*
G04 #@! TA.AperFunction,SMDPad,CuDef*
%ADD28FreePoly0,180.000000*%
G04 #@! TD*
G04 #@! TA.AperFunction,SMDPad,CuDef*
%ADD29R,1.000000X1.500000*%
G04 #@! TD*
G04 #@! TA.AperFunction,SMDPad,CuDef*
%ADD30FreePoly1,180.000000*%
G04 #@! TD*
G04 #@! TA.AperFunction,SMDPad,CuDef*
%ADD31R,1.500000X0.650000*%
G04 #@! TD*
G04 #@! TA.AperFunction,SMDPad,CuDef*
%ADD32R,2.700000X3.600000*%
G04 #@! TD*
G04 #@! TA.AperFunction,SMDPad,CuDef*
%ADD33RoundRect,0.200000X-0.200000X-0.275000X0.200000X-0.275000X0.200000X0.275000X-0.200000X0.275000X0*%
G04 #@! TD*
G04 #@! TA.AperFunction,SMDPad,CuDef*
%ADD34RoundRect,0.225000X-0.225000X-0.250000X0.225000X-0.250000X0.225000X0.250000X-0.225000X0.250000X0*%
G04 #@! TD*
G04 #@! TA.AperFunction,SMDPad,CuDef*
%ADD35RoundRect,0.225000X-0.250000X0.225000X-0.250000X-0.225000X0.250000X-0.225000X0.250000X0.225000X0*%
G04 #@! TD*
G04 #@! TA.AperFunction,SMDPad,CuDef*
%ADD36FreePoly2,0.000000*%
G04 #@! TD*
G04 #@! TA.AperFunction,SMDPad,CuDef*
%ADD37FreePoly3,0.000000*%
G04 #@! TD*
G04 #@! TA.AperFunction,SMDPad,CuDef*
%ADD38FreePoly2,270.000000*%
G04 #@! TD*
G04 #@! TA.AperFunction,SMDPad,CuDef*
%ADD39FreePoly3,270.000000*%
G04 #@! TD*
G04 #@! TA.AperFunction,SMDPad,CuDef*
%ADD40RoundRect,0.317500X-1.157500X-0.317500X1.157500X-0.317500X1.157500X0.317500X-1.157500X0.317500X0*%
G04 #@! TD*
G04 #@! TA.AperFunction,SMDPad,CuDef*
%ADD41RoundRect,0.250000X-0.475000X0.250000X-0.475000X-0.250000X0.475000X-0.250000X0.475000X0.250000X0*%
G04 #@! TD*
G04 #@! TA.AperFunction,SMDPad,CuDef*
%ADD42RoundRect,0.150000X0.512500X0.150000X-0.512500X0.150000X-0.512500X-0.150000X0.512500X-0.150000X0*%
G04 #@! TD*
G04 #@! TA.AperFunction,SMDPad,CuDef*
%ADD43FreePoly0,0.000000*%
G04 #@! TD*
G04 #@! TA.AperFunction,SMDPad,CuDef*
%ADD44FreePoly1,0.000000*%
G04 #@! TD*
G04 #@! TA.AperFunction,SMDPad,CuDef*
%ADD45RoundRect,0.150000X-0.150000X0.587500X-0.150000X-0.587500X0.150000X-0.587500X0.150000X0.587500X0*%
G04 #@! TD*
G04 #@! TA.AperFunction,SMDPad,CuDef*
%ADD46RoundRect,0.250000X0.650000X-1.000000X0.650000X1.000000X-0.650000X1.000000X-0.650000X-1.000000X0*%
G04 #@! TD*
G04 #@! TA.AperFunction,SMDPad,CuDef*
%ADD47R,3.300000X3.500000*%
G04 #@! TD*
G04 #@! TA.AperFunction,SMDPad,CuDef*
%ADD48C,10.200000*%
G04 #@! TD*
G04 #@! TA.AperFunction,SMDPad,CuDef*
%ADD49R,1.250000X0.900000*%
G04 #@! TD*
G04 #@! TA.AperFunction,SMDPad,CuDef*
%ADD50RoundRect,0.250000X-0.250000X-0.475000X0.250000X-0.475000X0.250000X0.475000X-0.250000X0.475000X0*%
G04 #@! TD*
G04 #@! TA.AperFunction,SMDPad,CuDef*
%ADD51R,0.500000X0.800000*%
G04 #@! TD*
G04 #@! TA.AperFunction,SMDPad,CuDef*
%ADD52RoundRect,0.250000X0.250000X0.475000X-0.250000X0.475000X-0.250000X-0.475000X0.250000X-0.475000X0*%
G04 #@! TD*
G04 #@! TA.AperFunction,SMDPad,CuDef*
%ADD53RoundRect,0.150000X-0.512500X-0.150000X0.512500X-0.150000X0.512500X0.150000X-0.512500X0.150000X0*%
G04 #@! TD*
G04 #@! TA.AperFunction,SMDPad,CuDef*
%ADD54RoundRect,0.250000X-0.650000X1.000000X-0.650000X-1.000000X0.650000X-1.000000X0.650000X1.000000X0*%
G04 #@! TD*
G04 #@! TA.AperFunction,SMDPad,CuDef*
%ADD55FreePoly2,180.000000*%
G04 #@! TD*
G04 #@! TA.AperFunction,SMDPad,CuDef*
%ADD56FreePoly3,180.000000*%
G04 #@! TD*
G04 #@! TA.AperFunction,SMDPad,CuDef*
%ADD57R,3.500000X2.950000*%
G04 #@! TD*
G04 #@! TA.AperFunction,SMDPad,CuDef*
%ADD58RoundRect,0.150000X0.587500X0.150000X-0.587500X0.150000X-0.587500X-0.150000X0.587500X-0.150000X0*%
G04 #@! TD*
G04 #@! TA.AperFunction,ViaPad*
%ADD59C,3.600000*%
G04 #@! TD*
G04 #@! TA.AperFunction,ViaPad*
%ADD60C,0.600000*%
G04 #@! TD*
G04 #@! TA.AperFunction,Conductor*
%ADD61C,0.254000*%
G04 #@! TD*
G04 #@! TA.AperFunction,Conductor*
%ADD62C,0.250000*%
G04 #@! TD*
G04 #@! TA.AperFunction,Conductor*
%ADD63C,0.609600*%
G04 #@! TD*
G04 APERTURE END LIST*
D10*
X112400000Y-51925000D03*
D11*
X112400000Y-54465000D03*
D12*
X120700000Y-78300000D03*
D13*
X121700000Y-75600000D03*
X126700000Y-75600000D03*
D12*
X127700000Y-78300000D03*
D14*
X99650000Y-77125000D03*
D15*
X97150000Y-77125000D03*
D16*
X91700000Y-32900000D03*
D17*
X94200000Y-32900000D03*
X96700000Y-32900000D03*
X99200000Y-32900000D03*
D18*
X82900000Y-56275000D03*
D19*
X82900000Y-53775000D03*
X82900000Y-51275000D03*
D18*
X82850000Y-45375000D03*
D19*
X82850000Y-42875000D03*
X82850000Y-40375000D03*
D20*
X99600000Y-60000000D03*
D17*
X97100000Y-60000000D03*
X94600000Y-60000000D03*
X92100000Y-60000000D03*
D14*
X91250000Y-77125000D03*
D15*
X88750000Y-77125000D03*
D14*
X108050000Y-77125000D03*
D15*
X105550000Y-77125000D03*
D14*
X116450000Y-77175000D03*
D15*
X113950000Y-77175000D03*
D18*
X82875000Y-69700000D03*
D19*
X82875000Y-67200000D03*
X82875000Y-64700000D03*
X82875000Y-62200000D03*
D21*
X145120000Y-50965000D03*
X145120000Y-49315000D03*
X143620000Y-50965000D03*
X143620000Y-49315000D03*
D22*
X129325000Y-55200000D03*
X127675000Y-55200000D03*
D23*
X146680000Y-47000000D03*
X145580000Y-47000000D03*
X144480000Y-47000000D03*
X143380000Y-47000000D03*
X142280000Y-47000000D03*
X141180000Y-47000000D03*
X140080000Y-47000000D03*
X138980000Y-47000000D03*
X137880000Y-47000000D03*
D24*
X136680000Y-36900000D03*
D25*
X136680000Y-46500000D03*
D26*
X151280000Y-46500000D03*
D24*
X152180000Y-36900000D03*
D27*
X101400000Y-70475000D03*
X101400000Y-72125000D03*
D22*
X107325000Y-71000000D03*
X105675000Y-71000000D03*
D28*
X91900000Y-71700000D03*
D29*
X90600000Y-71700000D03*
D30*
X89300000Y-71700000D03*
D31*
X110800000Y-57695000D03*
X110800000Y-58965000D03*
X110800000Y-60235000D03*
X110800000Y-61505000D03*
X105400000Y-61505000D03*
X105400000Y-60235000D03*
X105400000Y-58965000D03*
X105400000Y-57695000D03*
D32*
X108100000Y-59600000D03*
D27*
X108125000Y-34250000D03*
X108125000Y-35900000D03*
D33*
X149675000Y-66150000D03*
X151325000Y-66150000D03*
D21*
X149700000Y-74225000D03*
X149700000Y-72575000D03*
D34*
X149725000Y-67650000D03*
X151275000Y-67650000D03*
D35*
X136120000Y-49865000D03*
X136120000Y-51415000D03*
D36*
X93950000Y-74500000D03*
D37*
X95250000Y-74500000D03*
D27*
X99800000Y-70475000D03*
X99800000Y-72125000D03*
D38*
X148620000Y-48990000D03*
D39*
X148620000Y-50290000D03*
D40*
X110975000Y-46000000D03*
X110975000Y-44000000D03*
X110975000Y-42000000D03*
X110975000Y-40000000D03*
X110975000Y-38000000D03*
X110975000Y-36000000D03*
X110975000Y-34000000D03*
X110975000Y-32000000D03*
X126025000Y-32000000D03*
X126025000Y-34000000D03*
X126025000Y-36000000D03*
X126025000Y-38000000D03*
X126025000Y-40000000D03*
X126025000Y-42000000D03*
X126025000Y-44000000D03*
X126025000Y-46000000D03*
D41*
X130800000Y-35200000D03*
X130800000Y-37100000D03*
D35*
X106500000Y-72525000D03*
X106500000Y-74075000D03*
D41*
X138120000Y-49690000D03*
X138120000Y-51590000D03*
D42*
X111500000Y-67450000D03*
X111500000Y-68400000D03*
X111500000Y-69350000D03*
X109225000Y-69350000D03*
X109225000Y-68400000D03*
X109225000Y-67450000D03*
D43*
X131600000Y-40200000D03*
D29*
X132900000Y-40200000D03*
D44*
X134200000Y-40200000D03*
D21*
X104900000Y-74125000D03*
X104900000Y-72475000D03*
X148100000Y-74225000D03*
X148100000Y-72575000D03*
D38*
X146000000Y-72850000D03*
D39*
X146000000Y-74150000D03*
D45*
X146150000Y-64312500D03*
X148050000Y-64312500D03*
X147100000Y-66187500D03*
D46*
X121062500Y-69800000D03*
X121062500Y-65800000D03*
D47*
X134500000Y-77300000D03*
X134500000Y-61500000D03*
D48*
X134500000Y-69400000D03*
D21*
X140620000Y-50965000D03*
X140620000Y-49315000D03*
D49*
X109475000Y-71150000D03*
X113325000Y-71150000D03*
X109475000Y-72650000D03*
X113325000Y-72650000D03*
D50*
X106250000Y-63435000D03*
X108150000Y-63435000D03*
D51*
X147950000Y-69250000D03*
X148850000Y-69250000D03*
X149750000Y-69250000D03*
X150650000Y-69250000D03*
X150650000Y-70450000D03*
X149750000Y-70450000D03*
X148850000Y-70450000D03*
X147950000Y-70450000D03*
D52*
X117450000Y-51400000D03*
X115550000Y-51400000D03*
D50*
X112850000Y-61100000D03*
X114750000Y-61100000D03*
D53*
X127862500Y-60250000D03*
X127862500Y-59300000D03*
X127862500Y-58350000D03*
X130137500Y-58350000D03*
X130137500Y-59300000D03*
X130137500Y-60250000D03*
D52*
X121650000Y-51400000D03*
X119750000Y-51400000D03*
D42*
X106937500Y-67450000D03*
X106937500Y-68400000D03*
X106937500Y-69350000D03*
X104662500Y-69350000D03*
X104662500Y-68400000D03*
X104662500Y-67450000D03*
D21*
X142120000Y-50965000D03*
X142120000Y-49315000D03*
D54*
X117400000Y-55500000D03*
X117400000Y-59500000D03*
D55*
X116525000Y-72625000D03*
D56*
X115225000Y-72625000D03*
D33*
X127700000Y-56800000D03*
X129350000Y-56800000D03*
D57*
X123000000Y-54575000D03*
X123000000Y-60025000D03*
D22*
X114375000Y-58225000D03*
X112725000Y-58225000D03*
X118325000Y-66500000D03*
X116675000Y-66500000D03*
D58*
X117837500Y-68150000D03*
X117837500Y-70050000D03*
X115962500Y-69100000D03*
D59*
X157000000Y-77000000D03*
X83000000Y-32900000D03*
X157000000Y-33000000D03*
X83000000Y-77000000D03*
D60*
X94900000Y-45650000D03*
X134275000Y-45900000D03*
X128450000Y-76550000D03*
X104575000Y-45875000D03*
X132650000Y-57400000D03*
X87400000Y-75550000D03*
X142450000Y-75450000D03*
X151050000Y-68250000D03*
X95550000Y-41900000D03*
X122550000Y-68100000D03*
X143250000Y-43800000D03*
X118950000Y-46325000D03*
X118900000Y-71250000D03*
X122975000Y-37650000D03*
X109950000Y-53450000D03*
X122800000Y-39600000D03*
X87175000Y-43000000D03*
X152650000Y-43850000D03*
X117250000Y-37400000D03*
X139650000Y-64650000D03*
X117600000Y-62600000D03*
X119800000Y-67900000D03*
X145050000Y-75500000D03*
X112850000Y-33200000D03*
X126350000Y-61200000D03*
X130075000Y-78225000D03*
X110950000Y-74700000D03*
X141700000Y-40950000D03*
X126550000Y-68150000D03*
X115150000Y-55550000D03*
X89350000Y-55675000D03*
X118500000Y-76000000D03*
X132750000Y-50900000D03*
X98725000Y-57975000D03*
X151200000Y-69900000D03*
X108925000Y-45575000D03*
X153000000Y-38600000D03*
X96675000Y-67400000D03*
X142500000Y-64800000D03*
X126225000Y-58500000D03*
X151650000Y-59350000D03*
X113150000Y-68200000D03*
X87100000Y-36425000D03*
X101675000Y-78425000D03*
X118450000Y-32600000D03*
X147225000Y-79100000D03*
X127050000Y-74050000D03*
X143800000Y-79000000D03*
X120150000Y-58400000D03*
X140500000Y-70000000D03*
X108450000Y-70400000D03*
X144500000Y-36350000D03*
X87375000Y-65425000D03*
X110175000Y-50650000D03*
X97650000Y-41950000D03*
X119725000Y-53250000D03*
X91075000Y-44075000D03*
X147650000Y-51850000D03*
X143150000Y-38925000D03*
X105050000Y-39150000D03*
X138300000Y-75850000D03*
X152650000Y-32500000D03*
X122100000Y-36150000D03*
X132350000Y-74750000D03*
X137450000Y-56625000D03*
X140400000Y-67000000D03*
X126200000Y-63300000D03*
X134800000Y-30950000D03*
X143300000Y-71400000D03*
X144800000Y-67200000D03*
X131325000Y-49475000D03*
X91700000Y-37350000D03*
X85050000Y-46200000D03*
X128950000Y-59000000D03*
X98825000Y-45675000D03*
X146500000Y-41250000D03*
X151550000Y-34850000D03*
X124675000Y-69950000D03*
X100175000Y-54675000D03*
X111800000Y-70750000D03*
X145150000Y-43900000D03*
X87325000Y-40175000D03*
X136100000Y-30700000D03*
X85500000Y-74300000D03*
X107925000Y-40800000D03*
X92525000Y-46450000D03*
X85300000Y-50800000D03*
X151150000Y-31750000D03*
X87050000Y-67625000D03*
X94150000Y-77650000D03*
X102700000Y-32475000D03*
X94550000Y-72900000D03*
X110000000Y-78100000D03*
X121050000Y-63450000D03*
X152950000Y-76100000D03*
X100100000Y-68575000D03*
X152750000Y-47700000D03*
X118900000Y-78950000D03*
X136850000Y-52575500D03*
X102550000Y-74000000D03*
X137400000Y-35000000D03*
X85350000Y-79025000D03*
X113450000Y-57150000D03*
X114600000Y-52750000D03*
X147000000Y-76126500D03*
X85125000Y-55750000D03*
X84500000Y-67650000D03*
X93225000Y-63075000D03*
X150700000Y-64900000D03*
X135675000Y-40300000D03*
X115750000Y-61150000D03*
X138800000Y-78400000D03*
X101375000Y-44075000D03*
X109600000Y-63500000D03*
X95225000Y-54800000D03*
X148300000Y-41300000D03*
X129700000Y-33800000D03*
X140250000Y-60200000D03*
X142500000Y-55350000D03*
X152000000Y-64650000D03*
X150350000Y-51650000D03*
X81250000Y-35850000D03*
X102300000Y-46600000D03*
X150700000Y-79100000D03*
X123150000Y-71650000D03*
X98475000Y-34975000D03*
X114550000Y-46700000D03*
X140400000Y-53800000D03*
X139408411Y-49908411D03*
X85550000Y-31100000D03*
X142650000Y-52900000D03*
X130400000Y-56000000D03*
X116600000Y-33050000D03*
X99300000Y-74750000D03*
X128500000Y-34375000D03*
X131550000Y-64150000D03*
X119650000Y-60850000D03*
X124300000Y-65525000D03*
X113650000Y-64250000D03*
X148200000Y-56600000D03*
X129900000Y-31900000D03*
X149350000Y-38400000D03*
X146200000Y-50600000D03*
X122100000Y-32700000D03*
X120200000Y-73850000D03*
X102725000Y-39100000D03*
X94025000Y-38900000D03*
X142300000Y-37100000D03*
X134200000Y-36700000D03*
X150000000Y-36500000D03*
X152450000Y-49300000D03*
X153550000Y-75150000D03*
X149600000Y-75800000D03*
X145177400Y-71972600D03*
X139000000Y-72950000D03*
X139300000Y-48750000D03*
X150100000Y-49950000D03*
X147950000Y-47450000D03*
X137800000Y-40700000D03*
X108000000Y-32175000D03*
X87400000Y-32200000D03*
X129200000Y-40300000D03*
X141300000Y-65600000D03*
X145300000Y-70674500D03*
X145350000Y-68346500D03*
X103800000Y-59000000D03*
X103800000Y-60300000D03*
X103900000Y-57700000D03*
X111600000Y-62500000D03*
X147000000Y-60500000D03*
X145666589Y-61366589D03*
X122950000Y-33900000D03*
X134325000Y-41675000D03*
X103675000Y-53400000D03*
X116475000Y-47250000D03*
X138550000Y-61150000D03*
X113475000Y-45100000D03*
X139050000Y-60250000D03*
X142874500Y-60975000D03*
X142700000Y-59700000D03*
X139325000Y-56175000D03*
X149900000Y-60000000D03*
X144700000Y-58200000D03*
X131500000Y-42500000D03*
X129125000Y-42000000D03*
X128925000Y-43775000D03*
X88275000Y-41725000D03*
X101300000Y-58450000D03*
X99950000Y-64500000D03*
X136600000Y-48950000D03*
X135300000Y-34650000D03*
X142331274Y-34468726D03*
X108375000Y-46850000D03*
X137750000Y-61300000D03*
X128775000Y-45175000D03*
D61*
X147100000Y-74750000D02*
X142150000Y-79700000D01*
X142150000Y-79700000D02*
X136900000Y-79700000D01*
X134500000Y-61500000D02*
X132000000Y-61500000D01*
X128500000Y-65000000D02*
X128500000Y-72500000D01*
X152150000Y-71600000D02*
X150350000Y-73400000D01*
X133300000Y-77300000D02*
X134500000Y-77300000D01*
X132000000Y-61500000D02*
X128500000Y-65000000D01*
X151325000Y-66150000D02*
X152150000Y-66975000D01*
X152150000Y-66975000D02*
X152150000Y-71600000D01*
X147100000Y-74004709D02*
X147100000Y-74750000D01*
X147704709Y-73400000D02*
X147100000Y-74004709D01*
X128500000Y-72500000D02*
X133300000Y-77300000D01*
X150350000Y-73400000D02*
X147704709Y-73400000D01*
X136900000Y-79700000D02*
X134500000Y-77300000D01*
D62*
X138120000Y-51590000D02*
X138360000Y-51590000D01*
D63*
X142900000Y-43800000D02*
X143250000Y-43800000D01*
X150650000Y-70450000D02*
X150650000Y-69250000D01*
D62*
X138360000Y-51590000D02*
X138360000Y-51140000D01*
D63*
X141180000Y-47000000D02*
X141180000Y-45520000D01*
X151050000Y-70050000D02*
X150650000Y-70450000D01*
X129350000Y-56800000D02*
X129600000Y-56800000D01*
X141180000Y-45520000D02*
X142900000Y-43800000D01*
X134875000Y-46500000D02*
X136680000Y-46500000D01*
D61*
X109350000Y-46000000D02*
X108925000Y-45575000D01*
D63*
X134275000Y-45900000D02*
X134875000Y-46500000D01*
X127862500Y-59300000D02*
X127000000Y-59300000D01*
X151050000Y-68250000D02*
X151050000Y-70050000D01*
D62*
X138360000Y-51140000D02*
X139408411Y-50091589D01*
D63*
X127000000Y-59300000D02*
X126250000Y-58550000D01*
X129600000Y-56800000D02*
X130400000Y-56000000D01*
D61*
X110975000Y-46000000D02*
X109350000Y-46000000D01*
D62*
X139408411Y-50091589D02*
X139408411Y-49908411D01*
D63*
X120812500Y-70050000D02*
X121062500Y-69800000D01*
X122650000Y-54225000D02*
X123000000Y-54575000D01*
X117837500Y-70050000D02*
X120812500Y-70050000D01*
X129190400Y-52990400D02*
X131400000Y-55200000D01*
X130400000Y-58350000D02*
X131400000Y-57350000D01*
X131400000Y-55200000D02*
X131400000Y-57350000D01*
X121650000Y-51400000D02*
X122650000Y-52400000D01*
X131400000Y-61000000D02*
X122600000Y-69800000D01*
X130137500Y-59300000D02*
X130137500Y-58350000D01*
X123000000Y-54575000D02*
X124584600Y-52990400D01*
X131400000Y-57350000D02*
X131400000Y-61000000D01*
X122650000Y-52400000D02*
X122650000Y-54225000D01*
X122600000Y-69800000D02*
X121062500Y-69800000D01*
X130137500Y-58350000D02*
X130400000Y-58350000D01*
X124584600Y-52990400D02*
X129190400Y-52990400D01*
D61*
X104662500Y-68400000D02*
X103900000Y-68400000D01*
X103400000Y-68900000D02*
X103400000Y-70975000D01*
X106500000Y-72525000D02*
X104950000Y-72525000D01*
X103400000Y-70975000D02*
X104900000Y-72475000D01*
X104950000Y-72525000D02*
X104900000Y-72475000D01*
X103900000Y-68400000D02*
X103400000Y-68900000D01*
X113325000Y-72650000D02*
X111800000Y-72650000D01*
X110510500Y-68052420D02*
X110510500Y-71360500D01*
X108050000Y-74075000D02*
X108050000Y-75300000D01*
X111112920Y-67450000D02*
X110510500Y-68052420D01*
X106825000Y-74075000D02*
X108050000Y-75300000D01*
X106500000Y-74075000D02*
X106825000Y-74075000D01*
X115200000Y-72650000D02*
X115225000Y-72625000D01*
X105812500Y-66300000D02*
X110350000Y-66300000D01*
X108050000Y-75300000D02*
X108050000Y-77225000D01*
X113325000Y-72650000D02*
X115200000Y-72650000D01*
X104662500Y-67450000D02*
X105812500Y-66300000D01*
X109475000Y-72650000D02*
X108050000Y-74075000D01*
X110510500Y-71360500D02*
X111800000Y-72650000D01*
X111500000Y-67450000D02*
X111112920Y-67450000D01*
X110350000Y-66300000D02*
X111500000Y-67450000D01*
X111800000Y-72650000D02*
X109475000Y-72650000D01*
D63*
X102768200Y-66916800D02*
X105242500Y-64442500D01*
X102768200Y-71993200D02*
X102768200Y-66916800D01*
X104900000Y-74125000D02*
X102987500Y-72212500D01*
X105550000Y-77225000D02*
X105550000Y-74775000D01*
X112530700Y-65668200D02*
X115962500Y-69100000D01*
X101400000Y-72125000D02*
X102900000Y-72125000D01*
X105242500Y-64442500D02*
X106468200Y-65668200D01*
X105242500Y-64442500D02*
X106250000Y-63435000D01*
X102987500Y-72212500D02*
X102768200Y-71993200D01*
X105400000Y-61505000D02*
X105400000Y-62585000D01*
X102900000Y-72125000D02*
X102987500Y-72212500D01*
X106468200Y-65668200D02*
X112530700Y-65668200D01*
X105550000Y-74775000D02*
X104900000Y-74125000D01*
X105400000Y-62585000D02*
X106250000Y-63435000D01*
X124509600Y-57300000D02*
X125900000Y-55909600D01*
X126800000Y-53800000D02*
X128800000Y-53800000D01*
X117400000Y-55500000D02*
X119200000Y-57300000D01*
X117400000Y-55500000D02*
X117400000Y-51450000D01*
X116365000Y-54465000D02*
X117400000Y-55500000D01*
X128800000Y-53800000D02*
X129325000Y-54325000D01*
X125900000Y-54700000D02*
X126800000Y-53800000D01*
X129325000Y-54325000D02*
X129325000Y-55200000D01*
X125900000Y-55909600D02*
X125900000Y-54700000D01*
X112400000Y-54465000D02*
X116365000Y-54465000D01*
X119200000Y-57300000D02*
X124509600Y-57300000D01*
X134400000Y-36500000D02*
X134200000Y-36700000D01*
X112400000Y-51925000D02*
X103325000Y-51925000D01*
X106200000Y-31675000D02*
X107370200Y-30504800D01*
X102300000Y-52950000D02*
X106200000Y-49050000D01*
X102725000Y-38750000D02*
X104175000Y-37300000D01*
X132304800Y-30504800D02*
X134400000Y-32600000D01*
X142300000Y-37100000D02*
X143700000Y-35700000D01*
D62*
X131600000Y-40200000D02*
X131850000Y-39950000D01*
D63*
X147100000Y-33600000D02*
X150000000Y-36500000D01*
X102725000Y-39100000D02*
X102725000Y-38750000D01*
D62*
X131850000Y-39950000D02*
X131850000Y-37850000D01*
D63*
X104775000Y-37300000D02*
X106200000Y-35875000D01*
X106200000Y-49050000D02*
X106200000Y-48200000D01*
X102300000Y-63900000D02*
X102300000Y-52950000D01*
X106200000Y-35875000D02*
X106200000Y-31675000D01*
X94025000Y-38900000D02*
X95625000Y-37300000D01*
X95625000Y-37300000D02*
X104175000Y-37300000D01*
X103325000Y-51925000D02*
X102600000Y-52650000D01*
X91900000Y-71700000D02*
X94500000Y-71700000D01*
X143700000Y-34700000D02*
X142600000Y-33600000D01*
X107370200Y-30504800D02*
X132304800Y-30504800D01*
X104175000Y-37300000D02*
X104775000Y-37300000D01*
X134400000Y-32600000D02*
X135400000Y-33600000D01*
X135400000Y-33600000D02*
X147100000Y-33600000D01*
X134400000Y-32600000D02*
X134400000Y-35300000D01*
X106200000Y-48200000D02*
X106200000Y-35875000D01*
D62*
X131850000Y-37850000D02*
X134400000Y-35300000D01*
D63*
X134400000Y-35300000D02*
X134400000Y-36500000D01*
X94500000Y-71700000D02*
X102300000Y-63900000D01*
X143700000Y-35700000D02*
X143700000Y-34700000D01*
X145177400Y-71972600D02*
X143950000Y-73200000D01*
X139250000Y-73200000D02*
X139000000Y-72950000D01*
X153645200Y-50495200D02*
X152450000Y-49300000D01*
X149600000Y-75800000D02*
X151650000Y-75800000D01*
X153645200Y-75054800D02*
X153645200Y-73300000D01*
X153645200Y-73300000D02*
X153645200Y-50495200D01*
X151650000Y-75800000D02*
X153645200Y-73804800D01*
X153550000Y-75150000D02*
X153645200Y-75054800D01*
X153645200Y-73804800D02*
X153645200Y-73300000D01*
X143950000Y-73200000D02*
X139250000Y-73200000D01*
D62*
X136120000Y-49865000D02*
X137945000Y-49865000D01*
D63*
X144100000Y-45200000D02*
X146641382Y-45200000D01*
X149975200Y-48825200D02*
X151100000Y-49950000D01*
X150575000Y-74225000D02*
X152835600Y-71964400D01*
X147950000Y-46508618D02*
X147950000Y-47450000D01*
X149700000Y-74225000D02*
X150575000Y-74225000D01*
X143380000Y-45920000D02*
X144100000Y-45200000D01*
D61*
X148050000Y-64312500D02*
X149312500Y-63050000D01*
D63*
X149975200Y-46604528D02*
X149975200Y-48825200D01*
X146641382Y-45200000D02*
X147950000Y-46508618D01*
X145620672Y-42250000D02*
X149975200Y-46604528D01*
X137800000Y-40700000D02*
X139350000Y-42250000D01*
X152835600Y-71964400D02*
X152835600Y-61450000D01*
D61*
X149312500Y-63050000D02*
X152200000Y-63050000D01*
X148100000Y-74225000D02*
X149700000Y-74225000D01*
D62*
X139060000Y-48750000D02*
X138120000Y-49690000D01*
D61*
X146150000Y-64312500D02*
X148050000Y-64312500D01*
X152200000Y-63050000D02*
X152835600Y-62414400D01*
D62*
X137945000Y-49865000D02*
X138120000Y-49690000D01*
X139300000Y-48750000D02*
X139060000Y-48750000D01*
D63*
X139350000Y-42250000D02*
X145620672Y-42250000D01*
X150100000Y-49950000D02*
X151100000Y-49950000D01*
X151100000Y-49950000D02*
X152835600Y-51685600D01*
D61*
X152835600Y-62414400D02*
X152835600Y-61450000D01*
D63*
X152835600Y-51685600D02*
X152835600Y-61450000D01*
X143380000Y-47000000D02*
X143380000Y-45920000D01*
X95620200Y-58520200D02*
X83004800Y-58520200D01*
X80650000Y-68650000D02*
X80650000Y-60875000D01*
X128900000Y-40000000D02*
X126025000Y-40000000D01*
X129200000Y-40300000D02*
X128900000Y-40000000D01*
X84875000Y-71700000D02*
X82875000Y-69700000D01*
X108000000Y-34125000D02*
X108125000Y-34250000D01*
X81700000Y-69700000D02*
X80650000Y-68650000D01*
X97100000Y-60000000D02*
X95620200Y-58520200D01*
X83004800Y-58520200D02*
X80650000Y-60875000D01*
X80650000Y-38950000D02*
X80650000Y-54950000D01*
X80650000Y-60875000D02*
X80650000Y-60300000D01*
X82875000Y-69700000D02*
X81700000Y-69700000D01*
X89300000Y-71700000D02*
X84875000Y-71700000D01*
X82900000Y-53775000D02*
X81825000Y-53775000D01*
X81825000Y-53775000D02*
X80650000Y-54950000D01*
X80650000Y-60300000D02*
X80650000Y-54950000D01*
X130800000Y-37100000D02*
X127900000Y-40000000D01*
X108000000Y-32175000D02*
X108000000Y-34125000D01*
X87400000Y-32200000D02*
X80650000Y-38950000D01*
X127900000Y-40000000D02*
X126025000Y-40000000D01*
D62*
X141300000Y-65600000D02*
X141700000Y-65600000D01*
X144446500Y-68346500D02*
X144750000Y-68346500D01*
X145300000Y-69150000D02*
X144750000Y-68600000D01*
X141700000Y-65600000D02*
X144446500Y-68346500D01*
X144750000Y-68346500D02*
X145350000Y-68346500D01*
X144750000Y-68600000D02*
X144750000Y-68346500D01*
X145300000Y-70674500D02*
X145300000Y-69150000D01*
D61*
X149675000Y-67600000D02*
X149725000Y-67650000D01*
X148262500Y-66187500D02*
X149725000Y-67650000D01*
X149750000Y-67675000D02*
X149725000Y-67650000D01*
X147100000Y-66187500D02*
X148262500Y-66187500D01*
X149675000Y-66150000D02*
X149675000Y-67600000D01*
X149750000Y-69250000D02*
X149750000Y-67675000D01*
X105400000Y-58965000D02*
X103835000Y-58965000D01*
X103835000Y-58965000D02*
X103800000Y-59000000D01*
X103865000Y-60235000D02*
X103800000Y-60300000D01*
X105400000Y-60235000D02*
X103865000Y-60235000D01*
D63*
X117400000Y-59500000D02*
X122475000Y-59500000D01*
X122475000Y-59500000D02*
X123000000Y-60025000D01*
X123225000Y-60250000D02*
X127862500Y-60250000D01*
X123000000Y-60025000D02*
X123225000Y-60250000D01*
X118325000Y-66500000D02*
X118325000Y-67662500D01*
X111600000Y-62305000D02*
X110800000Y-61505000D01*
X111600000Y-62500000D02*
X111600000Y-62305000D01*
D61*
X110800000Y-61505000D02*
X112445000Y-61505000D01*
D63*
X111600000Y-62500000D02*
X115200000Y-62500000D01*
D61*
X105400000Y-57695000D02*
X103905000Y-57695000D01*
X103905000Y-57695000D02*
X103900000Y-57700000D01*
X112445000Y-61505000D02*
X112850000Y-61100000D01*
D63*
X115200000Y-62500000D02*
X118325000Y-65625000D01*
X121062500Y-65800000D02*
X118500000Y-65800000D01*
X118325000Y-65625000D02*
X118325000Y-66500000D01*
X118325000Y-67662500D02*
X117837500Y-68150000D01*
X118500000Y-65800000D02*
X118325000Y-65625000D01*
D61*
X148850000Y-70450000D02*
X148850000Y-71825000D01*
X147825000Y-72850000D02*
X148100000Y-72575000D01*
X146000000Y-72850000D02*
X147825000Y-72850000D01*
X148850000Y-71825000D02*
X148100000Y-72575000D01*
D62*
X145580000Y-48855000D02*
X145120000Y-49315000D01*
X147230000Y-50290000D02*
X148620000Y-50290000D01*
X145580000Y-47000000D02*
X145580000Y-48640000D01*
X145580000Y-48640000D02*
X147230000Y-50290000D01*
X145580000Y-48640000D02*
X145580000Y-48855000D01*
X144480000Y-47000000D02*
X144480000Y-48455000D01*
X144480000Y-48455000D02*
X143620000Y-49315000D01*
X142280000Y-47000000D02*
X142280000Y-49155000D01*
X142280000Y-49155000D02*
X142120000Y-49315000D01*
X140080000Y-48775000D02*
X140620000Y-49315000D01*
X140080000Y-47000000D02*
X140080000Y-48775000D01*
X137880000Y-44520000D02*
X137880000Y-47000000D01*
X148620000Y-46140000D02*
X145359800Y-42879800D01*
X139520200Y-42879800D02*
X137880000Y-44520000D01*
X145359800Y-42879800D02*
X139520200Y-42879800D01*
X148620000Y-48990000D02*
X148620000Y-46140000D01*
X83700000Y-64700000D02*
X85000000Y-63400000D01*
X147450000Y-70450000D02*
X146931802Y-69931802D01*
X144500000Y-61650000D02*
X145650000Y-60500000D01*
X146931802Y-69931802D02*
X146931802Y-68168198D01*
X82600000Y-64700000D02*
X83700000Y-64700000D01*
X147950000Y-70450000D02*
X147450000Y-70450000D01*
X85000000Y-63400000D02*
X91200000Y-63400000D01*
X146931802Y-68168198D02*
X144500000Y-65736396D01*
X91200000Y-63400000D02*
X94600000Y-60000000D01*
X144500000Y-65736396D02*
X144500000Y-61650000D01*
X145650000Y-60500000D02*
X147000000Y-60500000D01*
D61*
X90550000Y-62900000D02*
X92100000Y-61350000D01*
X85075000Y-62900000D02*
X90550000Y-62900000D01*
D62*
X147950000Y-68550000D02*
X147950000Y-69250000D01*
D61*
X82875000Y-62200000D02*
X84375000Y-62200000D01*
D62*
X144950000Y-62083178D02*
X144950000Y-65550000D01*
D61*
X92100000Y-61350000D02*
X92100000Y-60000000D01*
X82600000Y-62200000D02*
X82875000Y-62200000D01*
D62*
X144950000Y-65550000D02*
X147950000Y-68550000D01*
D61*
X84375000Y-62200000D02*
X85075000Y-62900000D01*
D62*
X145666589Y-61366589D02*
X144950000Y-62083178D01*
D61*
X122950000Y-33900000D02*
X124850000Y-32000000D01*
X124850000Y-32000000D02*
X127600000Y-32000000D01*
D62*
X134325000Y-40325000D02*
X134200000Y-40200000D01*
X134325000Y-41675000D02*
X134325000Y-40325000D01*
D61*
X111985000Y-58965000D02*
X112725000Y-58225000D01*
X110800000Y-58965000D02*
X111985000Y-58965000D01*
X105800000Y-70875000D02*
X105800000Y-69150420D01*
X106550420Y-68400000D02*
X106937500Y-68400000D01*
X105675000Y-71000000D02*
X105800000Y-70875000D01*
X105800000Y-69150420D02*
X106550420Y-68400000D01*
D63*
X127700000Y-56800000D02*
X127700000Y-55225000D01*
X127862500Y-58350000D02*
X127862500Y-56962500D01*
X127700000Y-55225000D02*
X127675000Y-55200000D01*
X127862500Y-56962500D02*
X127700000Y-56800000D01*
D61*
X103675000Y-53400000D02*
X102931800Y-54143200D01*
X101400000Y-65944948D02*
X101400000Y-70475000D01*
X102931800Y-64413148D02*
X101400000Y-65944948D01*
X102931800Y-54143200D02*
X102931800Y-64413148D01*
D63*
X101400000Y-70475000D02*
X99800000Y-70475000D01*
D61*
X138550000Y-60814447D02*
X138550000Y-61150000D01*
X128504897Y-50775000D02*
X129680897Y-51951000D01*
X129680897Y-51951000D02*
X129686553Y-51951000D01*
X120692052Y-47200000D02*
X124267052Y-50775000D01*
X116525000Y-47200000D02*
X120692052Y-47200000D01*
X129686553Y-51951000D02*
X138550000Y-60814447D01*
X124267052Y-50775000D02*
X128504897Y-50775000D01*
X116475000Y-47250000D02*
X116525000Y-47200000D01*
X119409104Y-45275000D02*
X124444104Y-50310000D01*
X129874605Y-51497000D02*
X138627605Y-60250000D01*
X124444104Y-50310000D02*
X128681949Y-50310000D01*
X128681949Y-50310000D02*
X129868949Y-51497000D01*
X113650000Y-45275000D02*
X119409104Y-45275000D01*
X138627605Y-60250000D02*
X139050000Y-60250000D01*
X129868949Y-51497000D02*
X129874605Y-51497000D01*
X113475000Y-45100000D02*
X113650000Y-45275000D01*
X118841515Y-44000000D02*
X121953731Y-47112217D01*
D62*
X140416586Y-58966586D02*
X141250000Y-59800000D01*
X142874500Y-60975000D02*
X142425000Y-60975000D01*
D61*
X110975000Y-44000000D02*
X118841515Y-44000000D01*
X128870001Y-49856000D02*
X130057001Y-51043000D01*
D62*
X130015429Y-50998600D02*
X137983415Y-58966586D01*
X140620000Y-51820000D02*
X141250000Y-52450000D01*
X142425000Y-60975000D02*
X141250000Y-59800000D01*
X141250000Y-57200000D02*
X141250000Y-59800000D01*
D61*
X124697514Y-49856000D02*
X128725000Y-49856000D01*
D62*
X141250000Y-52450000D02*
X141250000Y-57200000D01*
X140620000Y-50965000D02*
X140620000Y-51820000D01*
D61*
X121953731Y-47112217D02*
X124697514Y-49856000D01*
D62*
X137983415Y-58966586D02*
X140416586Y-58966586D01*
D61*
X128725000Y-49856000D02*
X128870001Y-49856000D01*
X149750000Y-72525000D02*
X149700000Y-72575000D01*
X149750000Y-70450000D02*
X149750000Y-72525000D01*
X106937500Y-67450000D02*
X109225000Y-67450000D01*
X106937500Y-69350000D02*
X109225000Y-69350000D01*
D62*
X138600000Y-53200000D02*
X133489621Y-53200000D01*
X125072792Y-48950000D02*
X116122792Y-40000000D01*
X142700000Y-59700000D02*
X141700000Y-58700000D01*
X141205000Y-50050000D02*
X140150000Y-50050000D01*
X129239621Y-48950000D02*
X125072792Y-48950000D01*
X116122792Y-40000000D02*
X110975000Y-40000000D01*
X139500000Y-52300000D02*
X138600000Y-53200000D01*
X141700000Y-52300000D02*
X142120000Y-51880000D01*
X141700000Y-58700000D02*
X141700000Y-52300000D01*
X133489621Y-53200000D02*
X129239621Y-48950000D01*
X140150000Y-50050000D02*
X139500000Y-50700000D01*
X142120000Y-50965000D02*
X141205000Y-50050000D01*
X142120000Y-51880000D02*
X142120000Y-50965000D01*
X139500000Y-50700000D02*
X139500000Y-52300000D01*
D61*
X117483568Y-42000000D02*
X122141784Y-46658217D01*
D62*
X133303225Y-53650000D02*
X129055225Y-49402000D01*
X129055225Y-49402000D02*
X129052397Y-49402000D01*
X144800000Y-59350000D02*
X143620000Y-58170000D01*
X149900000Y-60000000D02*
X149250000Y-59350000D01*
D61*
X124885567Y-49402000D02*
X129052397Y-49402000D01*
X122141784Y-46658217D02*
X124885567Y-49402000D01*
D62*
X149250000Y-59350000D02*
X144800000Y-59350000D01*
X143620000Y-58170000D02*
X143620000Y-50965000D01*
X139325000Y-56175000D02*
X136800000Y-53650000D01*
X136800000Y-53650000D02*
X133303225Y-53650000D01*
D61*
X110975000Y-42000000D02*
X117483568Y-42000000D01*
D62*
X144700000Y-58200000D02*
X145300000Y-57600000D01*
X145300000Y-51145000D02*
X145120000Y-50965000D01*
X145300000Y-57600000D02*
X145300000Y-51145000D01*
X113395584Y-36000000D02*
X110975000Y-36000000D01*
D61*
X130000000Y-41000000D02*
X118398412Y-41000000D01*
X131500000Y-42500000D02*
X130000000Y-41000000D01*
X113398412Y-36000000D02*
X110975000Y-36000000D01*
X118398412Y-41000000D02*
X113398412Y-36000000D01*
D62*
X110975000Y-36000000D02*
X108225000Y-36000000D01*
X108225000Y-36000000D02*
X108125000Y-35900000D01*
X126025000Y-42000000D02*
X129125000Y-42000000D01*
D61*
X124950000Y-42400000D02*
X125350000Y-42000000D01*
D62*
X126025000Y-44000000D02*
X128700000Y-44000000D01*
X128700000Y-44000000D02*
X128925000Y-43775000D01*
D61*
X124700000Y-43577500D02*
X125122500Y-44000000D01*
D63*
X86275000Y-41725000D02*
X85125000Y-42875000D01*
X88275000Y-41725000D02*
X86275000Y-41725000D01*
X85125000Y-42875000D02*
X82650000Y-42875000D01*
D62*
X101300000Y-58450000D02*
X101300000Y-63150000D01*
X101300000Y-63150000D02*
X99950000Y-64500000D01*
D61*
X136150000Y-48500000D02*
X130500000Y-48500000D01*
D62*
X125259188Y-48500000D02*
X130500000Y-48500000D01*
D61*
X136600000Y-48950000D02*
X136150000Y-48500000D01*
D62*
X125259188Y-48500000D02*
X114759188Y-38000000D01*
X114759188Y-38000000D02*
X110975000Y-38000000D01*
D63*
X95250000Y-74500000D02*
X96500000Y-74500000D01*
X96500000Y-74500000D02*
X97250000Y-75250000D01*
X97250000Y-75250000D02*
X97250000Y-77125000D01*
X93950000Y-74500000D02*
X90300000Y-74500000D01*
X88750000Y-76050000D02*
X88750000Y-77125000D01*
X90600000Y-74200000D02*
X90600000Y-71700000D01*
X90300000Y-74500000D02*
X90600000Y-74200000D01*
X90300000Y-74500000D02*
X88750000Y-76050000D01*
D61*
X132900000Y-40200000D02*
X132900000Y-39550000D01*
D62*
X137141116Y-34375000D02*
X142237548Y-34375000D01*
X135600000Y-34950000D02*
X135300000Y-34650000D01*
X135200000Y-36316116D02*
X135600000Y-35916116D01*
D61*
X132900000Y-39550000D02*
X135200000Y-37250000D01*
D62*
X135200000Y-36316116D02*
X137141116Y-34375000D01*
X142237548Y-34375000D02*
X142331274Y-34468726D01*
X135200000Y-37250000D02*
X135200000Y-36316116D01*
X135600000Y-35916116D02*
X135600000Y-34950000D01*
D63*
X91700000Y-32150000D02*
X91700000Y-32900000D01*
D61*
X124079000Y-51229000D02*
X128316844Y-51229000D01*
X108375000Y-47300000D02*
X109429000Y-48354000D01*
X128316844Y-51229000D02*
X129492844Y-52405000D01*
X137750000Y-60656500D02*
X137750000Y-61300000D01*
X129492844Y-52405000D02*
X129498500Y-52405000D01*
X121204000Y-48354000D02*
X124079000Y-51229000D01*
X129498500Y-52405000D02*
X137750000Y-60656500D01*
X109429000Y-48354000D02*
X121204000Y-48354000D01*
X108375000Y-46850000D02*
X108375000Y-47300000D01*
D62*
X127950000Y-46000000D02*
X126025000Y-46000000D01*
X128775000Y-45175000D02*
X127950000Y-46000000D01*
G04 #@! TA.AperFunction,Conductor*
G36*
X127791834Y-65849545D02*
G01*
X127847767Y-65891417D01*
X127872184Y-65956881D01*
X127872500Y-65965727D01*
X127872500Y-72561807D01*
X127896612Y-72683028D01*
X127896614Y-72683035D01*
X127919694Y-72738753D01*
X127943913Y-72797225D01*
X127943920Y-72797238D01*
X128008438Y-72893796D01*
X128012585Y-72900003D01*
X128012592Y-72900011D01*
X132313181Y-77200600D01*
X132346666Y-77261923D01*
X132349500Y-77288281D01*
X132349500Y-79097870D01*
X132349501Y-79097876D01*
X132355908Y-79157483D01*
X132406202Y-79292328D01*
X132406206Y-79292335D01*
X132492452Y-79407544D01*
X132492455Y-79407547D01*
X132607664Y-79493793D01*
X132607671Y-79493797D01*
X132742517Y-79544091D01*
X132742516Y-79544091D01*
X132749444Y-79544835D01*
X132802127Y-79550500D01*
X135811718Y-79550499D01*
X135878757Y-79570184D01*
X135899399Y-79586818D01*
X136100900Y-79788319D01*
X136134385Y-79849642D01*
X136129401Y-79919334D01*
X136087529Y-79975267D01*
X136022065Y-79999684D01*
X136013219Y-80000000D01*
X83000882Y-80000000D01*
X82999144Y-79999988D01*
X82837743Y-79997725D01*
X82825597Y-79996957D01*
X82504007Y-79960722D01*
X82490299Y-79958393D01*
X82175633Y-79886573D01*
X82162270Y-79882724D01*
X81857613Y-79776120D01*
X81844766Y-79770798D01*
X81553974Y-79630760D01*
X81541804Y-79624034D01*
X81268513Y-79452314D01*
X81257172Y-79444267D01*
X81004826Y-79243028D01*
X80994458Y-79233762D01*
X80766237Y-79005541D01*
X80756971Y-78995173D01*
X80555730Y-78742824D01*
X80547685Y-78731486D01*
X80481088Y-78625498D01*
X80375964Y-78458193D01*
X80369239Y-78446025D01*
X80301378Y-78305110D01*
X80229199Y-78155228D01*
X80223879Y-78142386D01*
X80185540Y-78032820D01*
X80117273Y-77837725D01*
X80113426Y-77824366D01*
X80041606Y-77509700D01*
X80039277Y-77495992D01*
X80026353Y-77381286D01*
X80003041Y-77174390D01*
X80002274Y-77162269D01*
X80000012Y-77000855D01*
X80000006Y-77000000D01*
X80694564Y-77000000D01*
X80705199Y-77162269D01*
X80714287Y-77300918D01*
X80714288Y-77300930D01*
X80773118Y-77596683D01*
X80773122Y-77596698D01*
X80870053Y-77882247D01*
X80870062Y-77882268D01*
X81003431Y-78152713D01*
X81003435Y-78152720D01*
X81170973Y-78403459D01*
X81369810Y-78630189D01*
X81596540Y-78829026D01*
X81847279Y-78996564D01*
X81847286Y-78996568D01*
X82117731Y-79129937D01*
X82117736Y-79129939D01*
X82117748Y-79129945D01*
X82403309Y-79226880D01*
X82603251Y-79266651D01*
X82699069Y-79285711D01*
X82699070Y-79285711D01*
X82699080Y-79285713D01*
X83000000Y-79305436D01*
X83300920Y-79285713D01*
X83596691Y-79226880D01*
X83882252Y-79129945D01*
X84152718Y-78996566D01*
X84403461Y-78829025D01*
X84630189Y-78630189D01*
X84829025Y-78403461D01*
X84996566Y-78152718D01*
X85129945Y-77882252D01*
X85226880Y-77596691D01*
X85285713Y-77300920D01*
X85305436Y-77000000D01*
X85285713Y-76699080D01*
X85226880Y-76403309D01*
X85129945Y-76117748D01*
X85125061Y-76107845D01*
X84996568Y-75847286D01*
X84996564Y-75847279D01*
X84829026Y-75596540D01*
X84630189Y-75369810D01*
X84403459Y-75170973D01*
X84152720Y-75003435D01*
X84152713Y-75003431D01*
X83882268Y-74870062D01*
X83882247Y-74870053D01*
X83596698Y-74773122D01*
X83596692Y-74773120D01*
X83596691Y-74773120D01*
X83596689Y-74773119D01*
X83596683Y-74773118D01*
X83300930Y-74714288D01*
X83300921Y-74714287D01*
X83300920Y-74714287D01*
X83000000Y-74694564D01*
X82699080Y-74714287D01*
X82699079Y-74714287D01*
X82699069Y-74714288D01*
X82403316Y-74773118D01*
X82403301Y-74773122D01*
X82117752Y-74870053D01*
X82117731Y-74870062D01*
X81847286Y-75003431D01*
X81847279Y-75003435D01*
X81596540Y-75170973D01*
X81369810Y-75369810D01*
X81170973Y-75596540D01*
X81003435Y-75847279D01*
X81003431Y-75847286D01*
X80870062Y-76117731D01*
X80870053Y-76117752D01*
X80773122Y-76403301D01*
X80773118Y-76403316D01*
X80714288Y-76699069D01*
X80714287Y-76699079D01*
X80714287Y-76699080D01*
X80694564Y-77000000D01*
X80000006Y-77000000D01*
X80000000Y-76999117D01*
X80000000Y-69438228D01*
X80019685Y-69371189D01*
X80072489Y-69325434D01*
X80141647Y-69315490D01*
X80205203Y-69344515D01*
X80211681Y-69350547D01*
X81071356Y-70210222D01*
X81071385Y-70210253D01*
X81186647Y-70325515D01*
X81186651Y-70325518D01*
X81318540Y-70413644D01*
X81318552Y-70413651D01*
X81357104Y-70429619D01*
X81411508Y-70473459D01*
X81427357Y-70505174D01*
X81465186Y-70619334D01*
X81557288Y-70768656D01*
X81681344Y-70892712D01*
X81830666Y-70984814D01*
X81997203Y-71039999D01*
X82099991Y-71050500D01*
X83035271Y-71050499D01*
X83102310Y-71070183D01*
X83122952Y-71086818D01*
X84246356Y-72210222D01*
X84246385Y-72210253D01*
X84361650Y-72325518D01*
X84460948Y-72391866D01*
X84493547Y-72413648D01*
X84493549Y-72413649D01*
X84493553Y-72413651D01*
X84549072Y-72436647D01*
X84613170Y-72463197D01*
X84613171Y-72463198D01*
X84640098Y-72474351D01*
X84640103Y-72474353D01*
X84795679Y-72505299D01*
X84795682Y-72505300D01*
X84795684Y-72505300D01*
X84795685Y-72505300D01*
X88394390Y-72505300D01*
X88461429Y-72524985D01*
X88489608Y-72551220D01*
X88490113Y-72550783D01*
X88587152Y-72662773D01*
X88587168Y-72662791D01*
X88587171Y-72662794D01*
X88695909Y-72757015D01*
X88756386Y-72795881D01*
X88816857Y-72834744D01*
X88816863Y-72834747D01*
X88947741Y-72894517D01*
X89085696Y-72935024D01*
X89228111Y-72955500D01*
X89670700Y-72955500D01*
X89737739Y-72975185D01*
X89783494Y-73027989D01*
X89794700Y-73079500D01*
X89794700Y-73815071D01*
X89775015Y-73882110D01*
X89758381Y-73902752D01*
X89674482Y-73986651D01*
X89674479Y-73986654D01*
X88236654Y-75424479D01*
X88236651Y-75424482D01*
X88198360Y-75462773D01*
X88124480Y-75536652D01*
X88047233Y-75652260D01*
X88047234Y-75652261D01*
X88036353Y-75668545D01*
X88036348Y-75668554D01*
X87975649Y-75815096D01*
X87975647Y-75815104D01*
X87972747Y-75829680D01*
X87940359Y-75891589D01*
X87924019Y-75905798D01*
X87870211Y-75944893D01*
X87870205Y-75944898D01*
X87719890Y-76095213D01*
X87594951Y-76267179D01*
X87498444Y-76456585D01*
X87432753Y-76658760D01*
X87399500Y-76868713D01*
X87399500Y-77381286D01*
X87417667Y-77495992D01*
X87432754Y-77591243D01*
X87434526Y-77596698D01*
X87498444Y-77793414D01*
X87594951Y-77982820D01*
X87719890Y-78154786D01*
X87870213Y-78305109D01*
X88042179Y-78430048D01*
X88042181Y-78430049D01*
X88042184Y-78430051D01*
X88231588Y-78526557D01*
X88433757Y-78592246D01*
X88643713Y-78625500D01*
X88643714Y-78625500D01*
X88856286Y-78625500D01*
X88856287Y-78625500D01*
X89066243Y-78592246D01*
X89268412Y-78526557D01*
X89457816Y-78430051D01*
X89560966Y-78355109D01*
X89629784Y-78305110D01*
X89629784Y-78305109D01*
X89629792Y-78305104D01*
X89768604Y-78166291D01*
X89829923Y-78132809D01*
X89899615Y-78137793D01*
X89955549Y-78179664D01*
X89961821Y-78188878D01*
X89965185Y-78194333D01*
X89965186Y-78194334D01*
X90057288Y-78343656D01*
X90181344Y-78467712D01*
X90330666Y-78559814D01*
X90497203Y-78614999D01*
X90599991Y-78625500D01*
X91900008Y-78625499D01*
X92002797Y-78614999D01*
X92169334Y-78559814D01*
X92318656Y-78467712D01*
X92442712Y-78343656D01*
X92534814Y-78194334D01*
X92589999Y-78027797D01*
X92600500Y-77925009D01*
X92600499Y-76324992D01*
X92599701Y-76317184D01*
X92589999Y-76222203D01*
X92589998Y-76222200D01*
X92564485Y-76145208D01*
X92534814Y-76055666D01*
X92442712Y-75906344D01*
X92318656Y-75782288D01*
X92218773Y-75720680D01*
X92169336Y-75690187D01*
X92169331Y-75690185D01*
X92167862Y-75689698D01*
X92002797Y-75635001D01*
X92002795Y-75635000D01*
X91900016Y-75624500D01*
X90613726Y-75624500D01*
X90546687Y-75604815D01*
X90500932Y-75552011D01*
X90490988Y-75482853D01*
X90520013Y-75419297D01*
X90526020Y-75412845D01*
X90597248Y-75341618D01*
X90658572Y-75308133D01*
X90684928Y-75305300D01*
X93044390Y-75305300D01*
X93111429Y-75324985D01*
X93139608Y-75351220D01*
X93140113Y-75350783D01*
X93237152Y-75462773D01*
X93237168Y-75462791D01*
X93237171Y-75462794D01*
X93345909Y-75557015D01*
X93406386Y-75595881D01*
X93466857Y-75634744D01*
X93466863Y-75634747D01*
X93597741Y-75694517D01*
X93735696Y-75735024D01*
X93878111Y-75755500D01*
X93878114Y-75755500D01*
X94450000Y-75755500D01*
X94521940Y-75750355D01*
X94559259Y-75739396D01*
X94611841Y-75735636D01*
X94750000Y-75755500D01*
X94750003Y-75755500D01*
X95321886Y-75755500D01*
X95321889Y-75755500D01*
X95464304Y-75735024D01*
X95602259Y-75694517D01*
X95733137Y-75634747D01*
X95734955Y-75633579D01*
X95848475Y-75560624D01*
X95849915Y-75559804D01*
X95854098Y-75557011D01*
X95908094Y-75510222D01*
X95962832Y-75462791D01*
X96043248Y-75369984D01*
X96102024Y-75332211D01*
X96171894Y-75332211D01*
X96224641Y-75363507D01*
X96408381Y-75547247D01*
X96441866Y-75608570D01*
X96444700Y-75634928D01*
X96444700Y-75754939D01*
X96425015Y-75821978D01*
X96393585Y-75855257D01*
X96270214Y-75944890D01*
X96270209Y-75944894D01*
X96119890Y-76095213D01*
X95994951Y-76267179D01*
X95898444Y-76456585D01*
X95832753Y-76658760D01*
X95799500Y-76868713D01*
X95799500Y-77381286D01*
X95817667Y-77495992D01*
X95832754Y-77591243D01*
X95834526Y-77596698D01*
X95898444Y-77793414D01*
X95994951Y-77982820D01*
X96119890Y-78154786D01*
X96270213Y-78305109D01*
X96442179Y-78430048D01*
X96442181Y-78430049D01*
X96442184Y-78430051D01*
X96631588Y-78526557D01*
X96833757Y-78592246D01*
X97043713Y-78625500D01*
X97043714Y-78625500D01*
X97256286Y-78625500D01*
X97256287Y-78625500D01*
X97466243Y-78592246D01*
X97668412Y-78526557D01*
X97857816Y-78430051D01*
X97960966Y-78355109D01*
X98029786Y-78305109D01*
X98029788Y-78305106D01*
X98029792Y-78305104D01*
X98180104Y-78154792D01*
X98180106Y-78154788D01*
X98180109Y-78154786D01*
X98305048Y-77982820D01*
X98305047Y-77982820D01*
X98305051Y-77982816D01*
X98401557Y-77793412D01*
X98467246Y-77591243D01*
X98500500Y-77381287D01*
X98500500Y-76868713D01*
X98467246Y-76658757D01*
X98401557Y-76456588D01*
X98305051Y-76267184D01*
X98305049Y-76267181D01*
X98305048Y-76267179D01*
X98180109Y-76095213D01*
X98091619Y-76006723D01*
X98058134Y-75945400D01*
X98055300Y-75919042D01*
X98055300Y-75170684D01*
X98055202Y-75170194D01*
X98055200Y-75170184D01*
X98024353Y-75015103D01*
X98003292Y-74964257D01*
X97963648Y-74868547D01*
X97953295Y-74853053D01*
X97875518Y-74736650D01*
X97760253Y-74621385D01*
X97760222Y-74621356D01*
X97129858Y-73990992D01*
X97129838Y-73990970D01*
X97013352Y-73874484D01*
X97013348Y-73874481D01*
X96881459Y-73786355D01*
X96881446Y-73786348D01*
X96734899Y-73725647D01*
X96734897Y-73725646D01*
X96734084Y-73725485D01*
X96579317Y-73694699D01*
X96579315Y-73694699D01*
X96420685Y-73694699D01*
X96414571Y-73694699D01*
X96414551Y-73694700D01*
X96155610Y-73694700D01*
X96088571Y-73675015D01*
X96060391Y-73648779D01*
X96059887Y-73649217D01*
X95962847Y-73537226D01*
X95962830Y-73537207D01*
X95962829Y-73537206D01*
X95854091Y-73442985D01*
X95818126Y-73419872D01*
X95733142Y-73365255D01*
X95733136Y-73365252D01*
X95647969Y-73326358D01*
X95602259Y-73305483D01*
X95484650Y-73270950D01*
X95464308Y-73264977D01*
X95464296Y-73264974D01*
X95321889Y-73244500D01*
X94750000Y-73244500D01*
X94749997Y-73244500D01*
X94678061Y-73249644D01*
X94678056Y-73249645D01*
X94640735Y-73260603D01*
X94588158Y-73264363D01*
X94450001Y-73244500D01*
X94450000Y-73244500D01*
X93878111Y-73244500D01*
X93878110Y-73244500D01*
X93735703Y-73264974D01*
X93735691Y-73264977D01*
X93597741Y-73305483D01*
X93466863Y-73365252D01*
X93466861Y-73365254D01*
X93351523Y-73439376D01*
X93350083Y-73440196D01*
X93345901Y-73442988D01*
X93237169Y-73537207D01*
X93237166Y-73537210D01*
X93140113Y-73649217D01*
X93139151Y-73648383D01*
X93087723Y-73686882D01*
X93044390Y-73694700D01*
X91529300Y-73694700D01*
X91462261Y-73675015D01*
X91416506Y-73622211D01*
X91405300Y-73570700D01*
X91405300Y-73079500D01*
X91424985Y-73012461D01*
X91477789Y-72966706D01*
X91529300Y-72955500D01*
X91971886Y-72955500D01*
X91971889Y-72955500D01*
X92114304Y-72935024D01*
X92252259Y-72894517D01*
X92383137Y-72834747D01*
X92498477Y-72760622D01*
X92499915Y-72759804D01*
X92504098Y-72757011D01*
X92589477Y-72683028D01*
X92612832Y-72662791D01*
X92657835Y-72610853D01*
X92709887Y-72550783D01*
X92710848Y-72551616D01*
X92762277Y-72513118D01*
X92805610Y-72505300D01*
X94414551Y-72505300D01*
X94414571Y-72505301D01*
X94420685Y-72505301D01*
X94579317Y-72505301D01*
X94683982Y-72484480D01*
X94734897Y-72474353D01*
X94881453Y-72413648D01*
X94891208Y-72407130D01*
X95013349Y-72325518D01*
X95125518Y-72213349D01*
X95125519Y-72213347D01*
X95132585Y-72206281D01*
X95132587Y-72206277D01*
X100560821Y-66778044D01*
X100622142Y-66744561D01*
X100691834Y-66749545D01*
X100747767Y-66791417D01*
X100772184Y-66856881D01*
X100772500Y-66865727D01*
X100772500Y-69545700D01*
X100752815Y-69612739D01*
X100700011Y-69658494D01*
X100648500Y-69669700D01*
X100462328Y-69669700D01*
X100398179Y-69651817D01*
X100364608Y-69631523D01*
X100364607Y-69631522D01*
X100364606Y-69631522D01*
X100202196Y-69580914D01*
X100202194Y-69580913D01*
X100202192Y-69580913D01*
X100152778Y-69576423D01*
X100131616Y-69574500D01*
X99468384Y-69574500D01*
X99449145Y-69576248D01*
X99397807Y-69580913D01*
X99235393Y-69631522D01*
X99089811Y-69719530D01*
X98969530Y-69839811D01*
X98881522Y-69985393D01*
X98830913Y-70147807D01*
X98826569Y-70195617D01*
X98824500Y-70218384D01*
X98824500Y-70731616D01*
X98825010Y-70737226D01*
X98830913Y-70802192D01*
X98830913Y-70802194D01*
X98830914Y-70802196D01*
X98881522Y-70964606D01*
X98958732Y-71092327D01*
X98969530Y-71110188D01*
X99089811Y-71230469D01*
X99089813Y-71230470D01*
X99089815Y-71230472D01*
X99235394Y-71318478D01*
X99397804Y-71369086D01*
X99468384Y-71375500D01*
X99468387Y-71375500D01*
X100131613Y-71375500D01*
X100131616Y-71375500D01*
X100202196Y-71369086D01*
X100364606Y-71318478D01*
X100388033Y-71304316D01*
X100398179Y-71298183D01*
X100462328Y-71280300D01*
X100479680Y-71280300D01*
X100546719Y-71299985D01*
X100592474Y-71352789D01*
X100602418Y-71421947D01*
X100574131Y-71483885D01*
X100574157Y-71483906D01*
X100574073Y-71484012D01*
X100573393Y-71485503D01*
X100570323Y-71488799D01*
X100569530Y-71489811D01*
X100481522Y-71635393D01*
X100430913Y-71797807D01*
X100426856Y-71842454D01*
X100424500Y-71868384D01*
X100424500Y-72381616D01*
X100425689Y-72394700D01*
X100430913Y-72452192D01*
X100430913Y-72452194D01*
X100430914Y-72452196D01*
X100481522Y-72614606D01*
X100567613Y-72757018D01*
X100569530Y-72760188D01*
X100689811Y-72880469D01*
X100689813Y-72880470D01*
X100689815Y-72880472D01*
X100835394Y-72968478D01*
X100997804Y-73019086D01*
X101068384Y-73025500D01*
X101068387Y-73025500D01*
X101731613Y-73025500D01*
X101731616Y-73025500D01*
X101802196Y-73019086D01*
X101964606Y-72968478D01*
X101987555Y-72954605D01*
X101998179Y-72948183D01*
X102062328Y-72930300D01*
X102515072Y-72930300D01*
X102582111Y-72949985D01*
X102602753Y-72966619D01*
X103888181Y-74252047D01*
X103921666Y-74313370D01*
X103924500Y-74339728D01*
X103924500Y-74381613D01*
X103930913Y-74452192D01*
X103930913Y-74452194D01*
X103930914Y-74452196D01*
X103981522Y-74614606D01*
X104052058Y-74731287D01*
X104069530Y-74760188D01*
X104189811Y-74880469D01*
X104189813Y-74880470D01*
X104189815Y-74880472D01*
X104335394Y-74968478D01*
X104497804Y-75019086D01*
X104568384Y-75025500D01*
X104610272Y-75025500D01*
X104677311Y-75045185D01*
X104697953Y-75061819D01*
X104708381Y-75072247D01*
X104741866Y-75133570D01*
X104744700Y-75159928D01*
X104744700Y-75827593D01*
X104725015Y-75894632D01*
X104693587Y-75927910D01*
X104670208Y-75944895D01*
X104519890Y-76095213D01*
X104394951Y-76267179D01*
X104298444Y-76456585D01*
X104232753Y-76658760D01*
X104199500Y-76868713D01*
X104199500Y-77381286D01*
X104217667Y-77495992D01*
X104232754Y-77591243D01*
X104234526Y-77596698D01*
X104298444Y-77793414D01*
X104394951Y-77982820D01*
X104519890Y-78154786D01*
X104670213Y-78305109D01*
X104842179Y-78430048D01*
X104842181Y-78430049D01*
X104842184Y-78430051D01*
X105031588Y-78526557D01*
X105233757Y-78592246D01*
X105443713Y-78625500D01*
X105443714Y-78625500D01*
X105656286Y-78625500D01*
X105656287Y-78625500D01*
X105866243Y-78592246D01*
X106068412Y-78526557D01*
X106257816Y-78430051D01*
X106360966Y-78355109D01*
X106429784Y-78305110D01*
X106429784Y-78305109D01*
X106429792Y-78305104D01*
X106568604Y-78166291D01*
X106629923Y-78132809D01*
X106699615Y-78137793D01*
X106755549Y-78179664D01*
X106761821Y-78188878D01*
X106765185Y-78194333D01*
X106765186Y-78194334D01*
X106857288Y-78343656D01*
X106981344Y-78467712D01*
X107130666Y-78559814D01*
X107297203Y-78614999D01*
X107399991Y-78625500D01*
X108700008Y-78625499D01*
X108802797Y-78614999D01*
X108969334Y-78559814D01*
X109118656Y-78467712D01*
X109242712Y-78343656D01*
X109334814Y-78194334D01*
X109389999Y-78027797D01*
X109400500Y-77925009D01*
X109400499Y-76918713D01*
X112599500Y-76918713D01*
X112599500Y-77431286D01*
X112625698Y-77596698D01*
X112632754Y-77641243D01*
X112696595Y-77837725D01*
X112698444Y-77843414D01*
X112794951Y-78032820D01*
X112919890Y-78204786D01*
X113070213Y-78355109D01*
X113242179Y-78480048D01*
X113242181Y-78480049D01*
X113242184Y-78480051D01*
X113431588Y-78576557D01*
X113633757Y-78642246D01*
X113843713Y-78675500D01*
X113843714Y-78675500D01*
X114056286Y-78675500D01*
X114056287Y-78675500D01*
X114266243Y-78642246D01*
X114468412Y-78576557D01*
X114657816Y-78480051D01*
X114763237Y-78403459D01*
X114829786Y-78355109D01*
X114829788Y-78355106D01*
X114829792Y-78355104D01*
X114980104Y-78204792D01*
X114980106Y-78204788D01*
X114980109Y-78204786D01*
X115105048Y-78032820D01*
X115105047Y-78032820D01*
X115105051Y-78032816D01*
X115201557Y-77843412D01*
X115267246Y-77641243D01*
X115300500Y-77431287D01*
X115300500Y-76918713D01*
X115267246Y-76708757D01*
X115201557Y-76506588D01*
X115105051Y-76317184D01*
X115105049Y-76317181D01*
X115105048Y-76317179D01*
X114980109Y-76145213D01*
X114829786Y-75994890D01*
X114657820Y-75869951D01*
X114468414Y-75773444D01*
X114468413Y-75773443D01*
X114468412Y-75773443D01*
X114266243Y-75707754D01*
X114266241Y-75707753D01*
X114266240Y-75707753D01*
X114104957Y-75682208D01*
X114056287Y-75674500D01*
X113843713Y-75674500D01*
X113795042Y-75682208D01*
X113633760Y-75707753D01*
X113431585Y-75773444D01*
X113242179Y-75869951D01*
X113070213Y-75994890D01*
X112919890Y-76145213D01*
X112794951Y-76317179D01*
X112698444Y-76506585D01*
X112632753Y-76708760D01*
X112599500Y-76918713D01*
X109400499Y-76918713D01*
X109400499Y-76324992D01*
X109399701Y-76317184D01*
X109389999Y-76222203D01*
X109389998Y-76222200D01*
X109364485Y-76145208D01*
X109334814Y-76055666D01*
X109242712Y-75906344D01*
X109118656Y-75782288D01*
X109018773Y-75720680D01*
X108969336Y-75690187D01*
X108969331Y-75690185D01*
X108967862Y-75689698D01*
X108802797Y-75635001D01*
X108802793Y-75635000D01*
X108802787Y-75634999D01*
X108788892Y-75633579D01*
X108724201Y-75607180D01*
X108684053Y-75549998D01*
X108677500Y-75510222D01*
X108677500Y-74386280D01*
X108697185Y-74319241D01*
X108713815Y-74298603D01*
X109375600Y-73636817D01*
X109436923Y-73603333D01*
X109463281Y-73600499D01*
X110147871Y-73600499D01*
X110147872Y-73600499D01*
X110207483Y-73594091D01*
X110342331Y-73543796D01*
X110457546Y-73457546D01*
X110543796Y-73342331D01*
X110543798Y-73342323D01*
X110543935Y-73342076D01*
X110544145Y-73341865D01*
X110549112Y-73335231D01*
X110550065Y-73335944D01*
X110593339Y-73292669D01*
X110652769Y-73277500D01*
X111738196Y-73277500D01*
X111738197Y-73277500D01*
X112147231Y-73277500D01*
X112214270Y-73297185D01*
X112250183Y-73335758D01*
X112250888Y-73335231D01*
X112255795Y-73341786D01*
X112256065Y-73342076D01*
X112256207Y-73342336D01*
X112342452Y-73457544D01*
X112342455Y-73457547D01*
X112457664Y-73543793D01*
X112457671Y-73543797D01*
X112592517Y-73594091D01*
X112592516Y-73594091D01*
X112599444Y-73594835D01*
X112652127Y-73600500D01*
X113997872Y-73600499D01*
X114057483Y-73594091D01*
X114192331Y-73543796D01*
X114270785Y-73485064D01*
X114336249Y-73460648D01*
X114404522Y-73475499D01*
X114438809Y-73503130D01*
X114511993Y-73587589D01*
X114512168Y-73587791D01*
X114512171Y-73587794D01*
X114620909Y-73682015D01*
X114658668Y-73706281D01*
X114741857Y-73759744D01*
X114741863Y-73759747D01*
X114872741Y-73819517D01*
X115010696Y-73860024D01*
X115153111Y-73880500D01*
X115153114Y-73880500D01*
X115725000Y-73880500D01*
X115796940Y-73875355D01*
X115934992Y-73834819D01*
X116056032Y-73757031D01*
X116150254Y-73648294D01*
X116200977Y-73537226D01*
X116210023Y-73517419D01*
X116210024Y-73517414D01*
X116212078Y-73503130D01*
X116230500Y-73375000D01*
X116230500Y-72910763D01*
X116230500Y-71875000D01*
X116225355Y-71803060D01*
X116184819Y-71665008D01*
X116165787Y-71635393D01*
X116107032Y-71543969D01*
X116107028Y-71543965D01*
X115998299Y-71449750D01*
X115998297Y-71449748D01*
X115998294Y-71449746D01*
X115998290Y-71449744D01*
X115867419Y-71389976D01*
X115867414Y-71389975D01*
X115725000Y-71369500D01*
X115153111Y-71369500D01*
X115153110Y-71369500D01*
X115010703Y-71389974D01*
X115010691Y-71389977D01*
X114872741Y-71430483D01*
X114741863Y-71490252D01*
X114741861Y-71490254D01*
X114626523Y-71564376D01*
X114625083Y-71565196D01*
X114620901Y-71567988D01*
X114512172Y-71662205D01*
X114512170Y-71662207D01*
X114512168Y-71662209D01*
X114418014Y-71770870D01*
X114418010Y-71770875D01*
X114415115Y-71774217D01*
X114414281Y-71773495D01*
X114362360Y-71812352D01*
X114292668Y-71817327D01*
X114244732Y-71795431D01*
X114192331Y-71756204D01*
X114192328Y-71756202D01*
X114057482Y-71705908D01*
X114057483Y-71705908D01*
X113997883Y-71699501D01*
X113997881Y-71699500D01*
X113997873Y-71699500D01*
X113997864Y-71699500D01*
X112652129Y-71699500D01*
X112652123Y-71699501D01*
X112592516Y-71705908D01*
X112457671Y-71756202D01*
X112457664Y-71756206D01*
X112342455Y-71842452D01*
X112342452Y-71842455D01*
X112256207Y-71957663D01*
X112256065Y-71957924D01*
X112255854Y-71958134D01*
X112250888Y-71964769D01*
X112249934Y-71964055D01*
X112206661Y-72007331D01*
X112147231Y-72022500D01*
X112111281Y-72022500D01*
X112044242Y-72002815D01*
X112023600Y-71986181D01*
X111174319Y-71136900D01*
X111140834Y-71075577D01*
X111138000Y-71049219D01*
X111138000Y-69324500D01*
X111157685Y-69257461D01*
X111210489Y-69211706D01*
X111262000Y-69200500D01*
X112078186Y-69200500D01*
X112078194Y-69200500D01*
X112115069Y-69197598D01*
X112115071Y-69197597D01*
X112115073Y-69197597D01*
X112185929Y-69177011D01*
X112272898Y-69151744D01*
X112414365Y-69068081D01*
X112530581Y-68951865D01*
X112614244Y-68810398D01*
X112660098Y-68652569D01*
X112663000Y-68615694D01*
X112663000Y-68184306D01*
X112660098Y-68147431D01*
X112631646Y-68049501D01*
X112614245Y-67989606D01*
X112614244Y-67989602D01*
X112613371Y-67988126D01*
X112613038Y-67986816D01*
X112611146Y-67982443D01*
X112611851Y-67982137D01*
X112596185Y-67920403D01*
X112611639Y-67867770D01*
X112611146Y-67867557D01*
X112612876Y-67863558D01*
X112613371Y-67861874D01*
X112614244Y-67860398D01*
X112660098Y-67702569D01*
X112663000Y-67665694D01*
X112663000Y-67238728D01*
X112682685Y-67171689D01*
X112735489Y-67125934D01*
X112804647Y-67115990D01*
X112868203Y-67145015D01*
X112874681Y-67151047D01*
X114688181Y-68964547D01*
X114721666Y-69025870D01*
X114724500Y-69052228D01*
X114724500Y-69315701D01*
X114727401Y-69352567D01*
X114727402Y-69352573D01*
X114773254Y-69510393D01*
X114773255Y-69510396D01*
X114773256Y-69510398D01*
X114810681Y-69573681D01*
X114856917Y-69651862D01*
X114856923Y-69651870D01*
X114973129Y-69768076D01*
X114973133Y-69768079D01*
X114973135Y-69768081D01*
X115114602Y-69851744D01*
X115156224Y-69863836D01*
X115272426Y-69897597D01*
X115272429Y-69897597D01*
X115272431Y-69897598D01*
X115309306Y-69900500D01*
X115846836Y-69900500D01*
X115871026Y-69902882D01*
X115883184Y-69905301D01*
X115883185Y-69905301D01*
X116041814Y-69905301D01*
X116041815Y-69905301D01*
X116053973Y-69902882D01*
X116078163Y-69900500D01*
X116475500Y-69900500D01*
X116542539Y-69920185D01*
X116588294Y-69972989D01*
X116599500Y-70024500D01*
X116599500Y-70265701D01*
X116602401Y-70302567D01*
X116602402Y-70302573D01*
X116648254Y-70460393D01*
X116648255Y-70460396D01*
X116648256Y-70460398D01*
X116650964Y-70464977D01*
X116731917Y-70601862D01*
X116731923Y-70601870D01*
X116848129Y-70718076D01*
X116848133Y-70718079D01*
X116848135Y-70718081D01*
X116989602Y-70801744D01*
X116991158Y-70802196D01*
X117147426Y-70847597D01*
X117147429Y-70847597D01*
X117147431Y-70847598D01*
X117184306Y-70850500D01*
X117721842Y-70850500D01*
X117746031Y-70852882D01*
X117758185Y-70855300D01*
X119551365Y-70855300D01*
X119618404Y-70874985D01*
X119664159Y-70927789D01*
X119670315Y-70946388D01*
X119670371Y-70946370D01*
X119701397Y-71039999D01*
X119727686Y-71119334D01*
X119819788Y-71268656D01*
X119943844Y-71392712D01*
X120093166Y-71484814D01*
X120259703Y-71539999D01*
X120362491Y-71550500D01*
X121762508Y-71550499D01*
X121767697Y-71549969D01*
X121780395Y-71548671D01*
X121865297Y-71539999D01*
X122031834Y-71484814D01*
X122181156Y-71392712D01*
X122305212Y-71268656D01*
X122397314Y-71119334D01*
X122452499Y-70952797D01*
X122463000Y-70850009D01*
X122463000Y-70729301D01*
X122482685Y-70662262D01*
X122535489Y-70616507D01*
X122587000Y-70605301D01*
X122679317Y-70605301D01*
X122783982Y-70584480D01*
X122834897Y-70574353D01*
X122981453Y-70513648D01*
X123008994Y-70495246D01*
X123008996Y-70495245D01*
X123107211Y-70429619D01*
X123113349Y-70425518D01*
X123225518Y-70313349D01*
X123225519Y-70313347D01*
X123232585Y-70306281D01*
X123232587Y-70306277D01*
X127660821Y-65878044D01*
X127722142Y-65844561D01*
X127791834Y-65849545D01*
G37*
G04 #@! TD.AperFunction*
G04 #@! TA.AperFunction,Conductor*
G36*
X148943326Y-74949834D02*
G01*
X148983868Y-74975890D01*
X148983906Y-74975843D01*
X148984410Y-74976238D01*
X148987687Y-74978344D01*
X148989815Y-74980472D01*
X149035632Y-75008170D01*
X149082820Y-75059696D01*
X149094659Y-75128556D01*
X149067391Y-75192884D01*
X149059165Y-75201967D01*
X148974481Y-75286651D01*
X148886355Y-75418540D01*
X148886348Y-75418553D01*
X148825647Y-75565101D01*
X148825644Y-75565110D01*
X148794700Y-75720680D01*
X148794700Y-75790686D01*
X148794435Y-75795402D01*
X148794435Y-75804600D01*
X148794700Y-75809319D01*
X148794700Y-75879319D01*
X148825644Y-76034889D01*
X148825647Y-76034898D01*
X148886348Y-76181446D01*
X148886355Y-76181459D01*
X148974481Y-76313348D01*
X148974484Y-76313352D01*
X149086647Y-76425515D01*
X149086651Y-76425518D01*
X149218540Y-76513644D01*
X149218553Y-76513651D01*
X149328464Y-76559176D01*
X149365103Y-76574353D01*
X149365105Y-76574353D01*
X149365110Y-76574355D01*
X149520680Y-76605299D01*
X149520684Y-76605300D01*
X149520685Y-76605300D01*
X149590685Y-76605300D01*
X149595404Y-76605565D01*
X149600000Y-76605565D01*
X149604596Y-76605565D01*
X149609315Y-76605300D01*
X151564551Y-76605300D01*
X151564571Y-76605301D01*
X151570685Y-76605301D01*
X151729317Y-76605301D01*
X151833982Y-76584480D01*
X151884897Y-76574353D01*
X152031453Y-76513648D01*
X152031458Y-76513644D01*
X152031461Y-76513643D01*
X152042023Y-76506585D01*
X152071008Y-76487218D01*
X152163349Y-76425518D01*
X152275518Y-76313349D01*
X152275519Y-76313347D01*
X152282585Y-76306281D01*
X152282587Y-76306277D01*
X152837319Y-75751545D01*
X152898641Y-75718062D01*
X152968333Y-75723046D01*
X153012680Y-75751547D01*
X153036647Y-75775514D01*
X153036651Y-75775517D01*
X153168547Y-75863648D01*
X153168548Y-75863648D01*
X153168549Y-75863649D01*
X153168551Y-75863650D01*
X153270307Y-75905798D01*
X153315103Y-75924353D01*
X153404295Y-75942094D01*
X153408061Y-75942844D01*
X153469972Y-75975229D01*
X153504546Y-76035944D01*
X153507870Y-76064709D01*
X153500247Y-79876248D01*
X153480428Y-79943248D01*
X153427533Y-79988897D01*
X153376247Y-80000000D01*
X143036781Y-80000000D01*
X142969742Y-79980315D01*
X142923987Y-79927511D01*
X142914043Y-79858353D01*
X142943068Y-79794797D01*
X142949100Y-79788319D01*
X147584652Y-75152767D01*
X147645975Y-75119282D01*
X147691234Y-75118879D01*
X147691270Y-75118492D01*
X147695146Y-75118844D01*
X147696530Y-75118832D01*
X147697800Y-75119084D01*
X147697804Y-75119086D01*
X147768384Y-75125500D01*
X147768387Y-75125500D01*
X148431613Y-75125500D01*
X148431616Y-75125500D01*
X148502196Y-75119086D01*
X148664606Y-75068478D01*
X148810185Y-74980472D01*
X148812313Y-74978344D01*
X148814255Y-74977282D01*
X148816094Y-74975843D01*
X148816333Y-74976148D01*
X148873634Y-74944855D01*
X148943326Y-74949834D01*
G37*
G04 #@! TD.AperFunction*
G04 #@! TA.AperFunction,Conductor*
G36*
X142934108Y-51735157D02*
G01*
X142934610Y-51735461D01*
X142981817Y-51786969D01*
X142994500Y-51841601D01*
X142994500Y-58231606D01*
X143018537Y-58352452D01*
X143023786Y-58365123D01*
X143043386Y-58412443D01*
X143065687Y-58466285D01*
X143087882Y-58499500D01*
X143087883Y-58499502D01*
X143134141Y-58568732D01*
X143134144Y-58568736D01*
X143225586Y-58660178D01*
X143225608Y-58660198D01*
X144311016Y-59745606D01*
X144311045Y-59745637D01*
X144401264Y-59835856D01*
X144401267Y-59835858D01*
X144452490Y-59870084D01*
X144503714Y-59904312D01*
X144503715Y-59904312D01*
X144503716Y-59904313D01*
X144540740Y-59919648D01*
X144584207Y-59937652D01*
X144617548Y-59951463D01*
X144677971Y-59963481D01*
X144738393Y-59975500D01*
X144738394Y-59975500D01*
X144990546Y-59975500D01*
X145057585Y-59995185D01*
X145103340Y-60047989D01*
X145113284Y-60117147D01*
X145084259Y-60180703D01*
X145078227Y-60187181D01*
X144588668Y-60676741D01*
X144101269Y-61164140D01*
X144101267Y-61164142D01*
X144078075Y-61187334D01*
X144014142Y-61251266D01*
X143989466Y-61288197D01*
X143989465Y-61288196D01*
X143945689Y-61353712D01*
X143945685Y-61353719D01*
X143919130Y-61417832D01*
X143919130Y-61417833D01*
X143898537Y-61467547D01*
X143898536Y-61467551D01*
X143895718Y-61481712D01*
X143895719Y-61481713D01*
X143886252Y-61529310D01*
X143875269Y-61584530D01*
X143874500Y-61588394D01*
X143874500Y-65798002D01*
X143894786Y-65899992D01*
X143898537Y-65918847D01*
X143898538Y-65918851D01*
X143945685Y-66032676D01*
X143945690Y-66032685D01*
X143979914Y-66083903D01*
X143979915Y-66083905D01*
X144014140Y-66135127D01*
X144014141Y-66135128D01*
X144014142Y-66135129D01*
X144101267Y-66222254D01*
X144101268Y-66222254D01*
X144108335Y-66229321D01*
X144108334Y-66229321D01*
X144108338Y-66229324D01*
X145231435Y-67352421D01*
X145264920Y-67413744D01*
X145259936Y-67483436D01*
X145218064Y-67539369D01*
X145177137Y-67558315D01*
X145177318Y-67558832D01*
X145172011Y-67560688D01*
X145171363Y-67560989D01*
X145170760Y-67561126D01*
X145000476Y-67620711D01*
X144871117Y-67701994D01*
X144805145Y-67721000D01*
X144756953Y-67721000D01*
X144689914Y-67701315D01*
X144669272Y-67684681D01*
X142192928Y-65208338D01*
X142192925Y-65208334D01*
X142192925Y-65208335D01*
X142185858Y-65201268D01*
X142185858Y-65201267D01*
X142098733Y-65114142D01*
X142098732Y-65114141D01*
X142098731Y-65114140D01*
X142047509Y-65079915D01*
X141996287Y-65045689D01*
X141996286Y-65045688D01*
X141996283Y-65045686D01*
X141996280Y-65045685D01*
X141915792Y-65012347D01*
X141882452Y-64998537D01*
X141882444Y-64998535D01*
X141852541Y-64992587D01*
X141809088Y-64972408D01*
X141808158Y-64973889D01*
X141783477Y-64958381D01*
X141757602Y-64942122D01*
X141649523Y-64874211D01*
X141479254Y-64814631D01*
X141479249Y-64814630D01*
X141300004Y-64794435D01*
X141299996Y-64794435D01*
X141120750Y-64814630D01*
X141120745Y-64814631D01*
X140950476Y-64874211D01*
X140797737Y-64970184D01*
X140670184Y-65097737D01*
X140574211Y-65250476D01*
X140514631Y-65420745D01*
X140514630Y-65420750D01*
X140494435Y-65599996D01*
X140494435Y-65600003D01*
X140514630Y-65779249D01*
X140514631Y-65779254D01*
X140574211Y-65949523D01*
X140667383Y-66097804D01*
X140670184Y-66102262D01*
X140797738Y-66229816D01*
X140950478Y-66325789D01*
X141104264Y-66379601D01*
X141120745Y-66385368D01*
X141120750Y-66385369D01*
X141299996Y-66405565D01*
X141300000Y-66405565D01*
X141300004Y-66405565D01*
X141479249Y-66385369D01*
X141479250Y-66385368D01*
X141479255Y-66385368D01*
X141495735Y-66379600D01*
X141565512Y-66376038D01*
X141624371Y-66408961D01*
X144047763Y-68832355D01*
X144047767Y-68832358D01*
X144150212Y-68900810D01*
X144150211Y-68900810D01*
X144150213Y-68900811D01*
X144150215Y-68900812D01*
X144152468Y-68901745D01*
X144182520Y-68914193D01*
X144236923Y-68958034D01*
X144238169Y-68959862D01*
X144243305Y-68967548D01*
X144264142Y-68998733D01*
X144351267Y-69085858D01*
X144351268Y-69085858D01*
X144358335Y-69092925D01*
X144358334Y-69092925D01*
X144358338Y-69092928D01*
X144638181Y-69372771D01*
X144671666Y-69434094D01*
X144674500Y-69460452D01*
X144674500Y-70129645D01*
X144655494Y-70195617D01*
X144574211Y-70324976D01*
X144514631Y-70495245D01*
X144514630Y-70495250D01*
X144494435Y-70674496D01*
X144494435Y-70674503D01*
X144514630Y-70853749D01*
X144514631Y-70853754D01*
X144574211Y-71024023D01*
X144670182Y-71176759D01*
X144673934Y-71181463D01*
X144700345Y-71246149D01*
X144687592Y-71314845D01*
X144664671Y-71346461D01*
X143652753Y-72358381D01*
X143591430Y-72391866D01*
X143565072Y-72394700D01*
X139634928Y-72394700D01*
X139567889Y-72375015D01*
X139547246Y-72358380D01*
X139513352Y-72324485D01*
X139513348Y-72324482D01*
X139381450Y-72236350D01*
X139381448Y-72236349D01*
X139234901Y-72175648D01*
X139234891Y-72175645D01*
X139079317Y-72144699D01*
X139079315Y-72144699D01*
X139009306Y-72144699D01*
X139004605Y-72144435D01*
X138995395Y-72144435D01*
X138990694Y-72144699D01*
X138920683Y-72144699D01*
X138765108Y-72175645D01*
X138765098Y-72175648D01*
X138618551Y-72236349D01*
X138618549Y-72236350D01*
X138486651Y-72324482D01*
X138486647Y-72324485D01*
X138374485Y-72436647D01*
X138374482Y-72436651D01*
X138286350Y-72568549D01*
X138286349Y-72568551D01*
X138225648Y-72715098D01*
X138225645Y-72715108D01*
X138194699Y-72870682D01*
X138194699Y-72940696D01*
X138194435Y-72945403D01*
X138194435Y-72954605D01*
X138194699Y-72959307D01*
X138194699Y-73029315D01*
X138194699Y-73029317D01*
X138194698Y-73029317D01*
X138225645Y-73184891D01*
X138225648Y-73184901D01*
X138286349Y-73331448D01*
X138286350Y-73331450D01*
X138374482Y-73463348D01*
X138374485Y-73463352D01*
X138621357Y-73710223D01*
X138621384Y-73710252D01*
X138736650Y-73825518D01*
X138810983Y-73875185D01*
X138868547Y-73913648D01*
X138939183Y-73942906D01*
X139015102Y-73974353D01*
X139170679Y-74005299D01*
X139170683Y-74005300D01*
X139170684Y-74005300D01*
X139170685Y-74005300D01*
X143864551Y-74005300D01*
X143864571Y-74005301D01*
X143870685Y-74005301D01*
X144029317Y-74005301D01*
X144133982Y-73984480D01*
X144184897Y-73974353D01*
X144331453Y-73913648D01*
X144363904Y-73891965D01*
X144363905Y-73891965D01*
X144449122Y-73835024D01*
X144463349Y-73825518D01*
X144575518Y-73713349D01*
X144575519Y-73713347D01*
X144582585Y-73706281D01*
X144582588Y-73706277D01*
X144657391Y-73631473D01*
X144718712Y-73597990D01*
X144788404Y-73602974D01*
X144844337Y-73644846D01*
X144849385Y-73652115D01*
X144867969Y-73681032D01*
X144867971Y-73681034D01*
X144958810Y-73759747D01*
X144976706Y-73775254D01*
X145001014Y-73786355D01*
X145107580Y-73835023D01*
X145107583Y-73835023D01*
X145107584Y-73835024D01*
X145250000Y-73855500D01*
X145250003Y-73855500D01*
X146285763Y-73855500D01*
X146348500Y-73855500D01*
X146415539Y-73875185D01*
X146461294Y-73927989D01*
X146472500Y-73979500D01*
X146472500Y-74438719D01*
X146452815Y-74505758D01*
X146436181Y-74526400D01*
X141926400Y-79036181D01*
X141865077Y-79069666D01*
X141838719Y-79072500D01*
X137211281Y-79072500D01*
X137144242Y-79052815D01*
X137123600Y-79036181D01*
X136686818Y-78599399D01*
X136653333Y-78538076D01*
X136650499Y-78511718D01*
X136650499Y-75502129D01*
X136650498Y-75502123D01*
X136646270Y-75462792D01*
X136644091Y-75442517D01*
X136637364Y-75424482D01*
X136593797Y-75307671D01*
X136593793Y-75307664D01*
X136507547Y-75192455D01*
X136507544Y-75192452D01*
X136392335Y-75106206D01*
X136392328Y-75106202D01*
X136257482Y-75055908D01*
X136257483Y-75055908D01*
X136197883Y-75049501D01*
X136197881Y-75049500D01*
X136197873Y-75049500D01*
X136197864Y-75049500D01*
X132802129Y-75049500D01*
X132802123Y-75049501D01*
X132742516Y-75055908D01*
X132607671Y-75106202D01*
X132607664Y-75106206D01*
X132492455Y-75192452D01*
X132401580Y-75313845D01*
X132345646Y-75355715D01*
X132275954Y-75360699D01*
X132214633Y-75327214D01*
X129163819Y-72276400D01*
X129130334Y-72215077D01*
X129127500Y-72188719D01*
X129127500Y-65311281D01*
X129147185Y-65244242D01*
X129163819Y-65223600D01*
X132137820Y-62249599D01*
X132199143Y-62216114D01*
X132268835Y-62221098D01*
X132324768Y-62262970D01*
X132349185Y-62328434D01*
X132349501Y-62337280D01*
X132349501Y-63297876D01*
X132355908Y-63357483D01*
X132406202Y-63492328D01*
X132406206Y-63492335D01*
X132492452Y-63607544D01*
X132492455Y-63607547D01*
X132607664Y-63693793D01*
X132607671Y-63693797D01*
X132742517Y-63744091D01*
X132742516Y-63744091D01*
X132749444Y-63744835D01*
X132802127Y-63750500D01*
X136197872Y-63750499D01*
X136257483Y-63744091D01*
X136392331Y-63693796D01*
X136507546Y-63607546D01*
X136593796Y-63492331D01*
X136644091Y-63357483D01*
X136650500Y-63297873D01*
X136650499Y-60743779D01*
X136670184Y-60676741D01*
X136722987Y-60630986D01*
X136792146Y-60621042D01*
X136855702Y-60650067D01*
X136862180Y-60656099D01*
X137005357Y-60799276D01*
X137038842Y-60860599D01*
X137033858Y-60930291D01*
X137027030Y-60944109D01*
X137027231Y-60944206D01*
X137024210Y-60950478D01*
X136964633Y-61120737D01*
X136964630Y-61120750D01*
X136944435Y-61299996D01*
X136944435Y-61300003D01*
X136964630Y-61479249D01*
X136964631Y-61479254D01*
X137024211Y-61649523D01*
X137110187Y-61786352D01*
X137120184Y-61802262D01*
X137247738Y-61929816D01*
X137316446Y-61972988D01*
X137360227Y-62000498D01*
X137400478Y-62025789D01*
X137533499Y-62072335D01*
X137570745Y-62085368D01*
X137570750Y-62085369D01*
X137749996Y-62105565D01*
X137750000Y-62105565D01*
X137750004Y-62105565D01*
X137929249Y-62085369D01*
X137929252Y-62085368D01*
X137929255Y-62085368D01*
X138099522Y-62025789D01*
X138238405Y-61938522D01*
X138305641Y-61919522D01*
X138345327Y-61926473D01*
X138370745Y-61935368D01*
X138370749Y-61935368D01*
X138370751Y-61935369D01*
X138549996Y-61955565D01*
X138550000Y-61955565D01*
X138550004Y-61955565D01*
X138729249Y-61935369D01*
X138729252Y-61935368D01*
X138729255Y-61935368D01*
X138899522Y-61875789D01*
X139052262Y-61779816D01*
X139179816Y-61652262D01*
X139275789Y-61499522D01*
X139335368Y-61329255D01*
X139335901Y-61324523D01*
X139355565Y-61150003D01*
X139355565Y-61149997D01*
X139348864Y-61090525D01*
X139360918Y-61021703D01*
X139406109Y-60971649D01*
X139552262Y-60879816D01*
X139679816Y-60752262D01*
X139775789Y-60599522D01*
X139835368Y-60429255D01*
X139841167Y-60377789D01*
X139855565Y-60250003D01*
X139855565Y-60249996D01*
X139835369Y-60070750D01*
X139835368Y-60070745D01*
X139777131Y-59904313D01*
X139775789Y-59900478D01*
X139735186Y-59835858D01*
X139701381Y-59782058D01*
X139682381Y-59714821D01*
X139702749Y-59647986D01*
X139756017Y-59602772D01*
X139806375Y-59592086D01*
X140106134Y-59592086D01*
X140173173Y-59611771D01*
X140193814Y-59628404D01*
X140764141Y-60198732D01*
X140764142Y-60198733D01*
X140815405Y-60249996D01*
X140855597Y-60290188D01*
X140855608Y-60290198D01*
X141936016Y-61370606D01*
X141936045Y-61370637D01*
X142026266Y-61460858D01*
X142084133Y-61499523D01*
X142096046Y-61507483D01*
X142128715Y-61529312D01*
X142195396Y-61556931D01*
X142195398Y-61556933D01*
X142228635Y-61570700D01*
X142242548Y-61576463D01*
X142244702Y-61576891D01*
X142251027Y-61578150D01*
X142251044Y-61578152D01*
X142251055Y-61578155D01*
X142327718Y-61593404D01*
X142343861Y-61596615D01*
X142385640Y-61613237D01*
X142524978Y-61700789D01*
X142643710Y-61742335D01*
X142695245Y-61760368D01*
X142695250Y-61760369D01*
X142874496Y-61780565D01*
X142874500Y-61780565D01*
X142874504Y-61780565D01*
X143053749Y-61760369D01*
X143053752Y-61760368D01*
X143053755Y-61760368D01*
X143224022Y-61700789D01*
X143376762Y-61604816D01*
X143504316Y-61477262D01*
X143600289Y-61324522D01*
X143659868Y-61154255D01*
X143659868Y-61154252D01*
X143659870Y-61154245D01*
X143680065Y-60975003D01*
X143680065Y-60974996D01*
X143659869Y-60795750D01*
X143659868Y-60795745D01*
X143641685Y-60743780D01*
X143600289Y-60625478D01*
X143588685Y-60607011D01*
X143522867Y-60502262D01*
X143504316Y-60472738D01*
X143376762Y-60345184D01*
X143376760Y-60345183D01*
X143372294Y-60341621D01*
X143332156Y-60284431D01*
X143329309Y-60214619D01*
X143344618Y-60178704D01*
X143425788Y-60049524D01*
X143431819Y-60032288D01*
X143485368Y-59879255D01*
X143485904Y-59874500D01*
X143505565Y-59700003D01*
X143505565Y-59699996D01*
X143485369Y-59520750D01*
X143485368Y-59520745D01*
X143483601Y-59515694D01*
X143425789Y-59350478D01*
X143329816Y-59197738D01*
X143202262Y-59070184D01*
X143166051Y-59047431D01*
X143049521Y-58974210D01*
X142879249Y-58914630D01*
X142832174Y-58909326D01*
X142767760Y-58882259D01*
X142758378Y-58873787D01*
X142361819Y-58477228D01*
X142328334Y-58415905D01*
X142325500Y-58389547D01*
X142325500Y-52610452D01*
X142345185Y-52543413D01*
X142361814Y-52522775D01*
X142605858Y-52278733D01*
X142674312Y-52176285D01*
X142721463Y-52062451D01*
X142723327Y-52053083D01*
X142730196Y-52018547D01*
X142745501Y-51941606D01*
X142745501Y-51841601D01*
X142765186Y-51774562D01*
X142805298Y-51735517D01*
X142805797Y-51735215D01*
X142873342Y-51717344D01*
X142934108Y-51735157D01*
G37*
G04 #@! TD.AperFunction*
G04 #@! TA.AperFunction,Conductor*
G36*
X108285730Y-69997185D02*
G01*
X108306372Y-70013819D01*
X108310629Y-70018076D01*
X108310633Y-70018079D01*
X108310635Y-70018081D01*
X108452102Y-70101744D01*
X108493724Y-70113836D01*
X108609926Y-70147597D01*
X108609929Y-70147597D01*
X108609931Y-70147598D01*
X108646806Y-70150500D01*
X108646814Y-70150500D01*
X109759000Y-70150500D01*
X109826039Y-70170185D01*
X109871794Y-70222989D01*
X109883000Y-70274500D01*
X109883000Y-71422307D01*
X109908302Y-71549510D01*
X109905993Y-71549969D01*
X109906502Y-71609415D01*
X109869232Y-71668515D01*
X109805927Y-71698082D01*
X109787230Y-71699500D01*
X108802129Y-71699500D01*
X108802123Y-71699501D01*
X108742516Y-71705908D01*
X108607671Y-71756202D01*
X108607664Y-71756206D01*
X108492455Y-71842452D01*
X108492452Y-71842455D01*
X108406206Y-71957664D01*
X108406202Y-71957671D01*
X108355908Y-72092517D01*
X108349501Y-72152116D01*
X108349500Y-72152135D01*
X108349500Y-72836718D01*
X108329815Y-72903757D01*
X108313181Y-72924399D01*
X107980915Y-73256666D01*
X107649992Y-73587589D01*
X107643490Y-73594091D01*
X107624905Y-73612675D01*
X107563580Y-73646157D01*
X107493889Y-73641170D01*
X107437957Y-73599296D01*
X107419523Y-73563998D01*
X107412003Y-73541303D01*
X107411998Y-73541296D01*
X107411998Y-73541294D01*
X107322970Y-73396959D01*
X107322967Y-73396955D01*
X107313693Y-73387681D01*
X107280208Y-73326358D01*
X107285192Y-73256666D01*
X107313693Y-73212319D01*
X107322968Y-73203044D01*
X107412003Y-73058697D01*
X107465349Y-72897708D01*
X107475500Y-72798345D01*
X107475499Y-72251656D01*
X107473935Y-72236350D01*
X107465349Y-72152292D01*
X107465348Y-72152289D01*
X107449968Y-72105875D01*
X107412003Y-71991303D01*
X107411999Y-71991297D01*
X107411998Y-71991294D01*
X107322970Y-71846959D01*
X107322967Y-71846955D01*
X107203044Y-71727032D01*
X107203040Y-71727029D01*
X107058705Y-71638001D01*
X107058699Y-71637998D01*
X107058697Y-71637997D01*
X107050839Y-71635393D01*
X106897709Y-71584651D01*
X106798352Y-71574500D01*
X106798345Y-71574500D01*
X106683915Y-71574500D01*
X106616876Y-71554815D01*
X106571121Y-71502011D01*
X106561177Y-71432853D01*
X106565528Y-71413614D01*
X106569086Y-71402196D01*
X106575500Y-71331616D01*
X106575500Y-70668384D01*
X106569086Y-70597804D01*
X106518478Y-70435394D01*
X106459992Y-70338647D01*
X106442157Y-70271096D01*
X106463674Y-70204622D01*
X106517714Y-70160334D01*
X106566110Y-70150500D01*
X107515686Y-70150500D01*
X107515694Y-70150500D01*
X107552569Y-70147598D01*
X107552571Y-70147597D01*
X107552573Y-70147597D01*
X107614363Y-70129645D01*
X107710398Y-70101744D01*
X107851865Y-70018081D01*
X107851870Y-70018076D01*
X107856128Y-70013819D01*
X107917451Y-69980334D01*
X107943809Y-69977500D01*
X108218691Y-69977500D01*
X108285730Y-69997185D01*
G37*
G04 #@! TD.AperFunction*
G04 #@! TA.AperFunction,Conductor*
G36*
X150817583Y-67059331D02*
G01*
X150834125Y-67067711D01*
X150835394Y-67068478D01*
X150997804Y-67119086D01*
X151068384Y-67125500D01*
X151361719Y-67125500D01*
X151428758Y-67145185D01*
X151449400Y-67161819D01*
X151486181Y-67198600D01*
X151519666Y-67259923D01*
X151522500Y-67286281D01*
X151522500Y-71288718D01*
X151502815Y-71355757D01*
X151486181Y-71376399D01*
X150790189Y-72072390D01*
X150728866Y-72105875D01*
X150659174Y-72100891D01*
X150603241Y-72059019D01*
X150596397Y-72048869D01*
X150530472Y-71939815D01*
X150530470Y-71939813D01*
X150530469Y-71939811D01*
X150413819Y-71823161D01*
X150380334Y-71761838D01*
X150377500Y-71735480D01*
X150377500Y-71222161D01*
X150397185Y-71155122D01*
X150402234Y-71147850D01*
X150410431Y-71136900D01*
X150443796Y-71092331D01*
X150494091Y-70957483D01*
X150500500Y-70897873D01*
X150500499Y-70002128D01*
X150494091Y-69942517D01*
X150480210Y-69905301D01*
X150475747Y-69893334D01*
X150470762Y-69823643D01*
X150475747Y-69806665D01*
X150494089Y-69757488D01*
X150494091Y-69757483D01*
X150500500Y-69697873D01*
X150500499Y-68802128D01*
X150494091Y-68742517D01*
X150486625Y-68722500D01*
X150443797Y-68607671D01*
X150443796Y-68607670D01*
X150443796Y-68607669D01*
X150433072Y-68593344D01*
X150408656Y-68527881D01*
X150423507Y-68459608D01*
X150444659Y-68431353D01*
X150473445Y-68402567D01*
X150522968Y-68353044D01*
X150612003Y-68208697D01*
X150665349Y-68047708D01*
X150675500Y-67948345D01*
X150675499Y-67351656D01*
X150668878Y-67286844D01*
X150665349Y-67252292D01*
X150665348Y-67252289D01*
X150652274Y-67212834D01*
X150649872Y-67143006D01*
X150685604Y-67082964D01*
X150748124Y-67051771D01*
X150817583Y-67059331D01*
G37*
G04 #@! TD.AperFunction*
G04 #@! TA.AperFunction,Conductor*
G36*
X106503810Y-30019685D02*
G01*
X106549565Y-30072489D01*
X106559509Y-30141647D01*
X106530484Y-30205203D01*
X106524452Y-30211681D01*
X105686654Y-31049479D01*
X105686651Y-31049482D01*
X105630565Y-31105567D01*
X105574480Y-31161652D01*
X105574478Y-31161655D01*
X105502212Y-31269810D01*
X105502211Y-31269813D01*
X105486353Y-31293544D01*
X105486348Y-31293553D01*
X105425648Y-31440098D01*
X105425645Y-31440108D01*
X105394699Y-31595682D01*
X105394699Y-31760428D01*
X105394700Y-31760449D01*
X105394700Y-35490072D01*
X105375015Y-35557111D01*
X105358381Y-35577753D01*
X104477753Y-36458381D01*
X104416430Y-36491866D01*
X104390072Y-36494700D01*
X104260450Y-36494700D01*
X104260430Y-36494699D01*
X104254316Y-36494699D01*
X104095685Y-36494699D01*
X104089571Y-36494699D01*
X104089551Y-36494700D01*
X95710450Y-36494700D01*
X95710430Y-36494699D01*
X95704316Y-36494699D01*
X95545685Y-36494699D01*
X95545680Y-36494699D01*
X95390110Y-36525644D01*
X95390102Y-36525646D01*
X95260536Y-36579315D01*
X95243551Y-36586350D01*
X95243541Y-36586355D01*
X95111652Y-36674480D01*
X95067586Y-36718547D01*
X94999482Y-36786651D01*
X93399485Y-38386647D01*
X93399482Y-38386651D01*
X93311350Y-38518549D01*
X93311349Y-38518551D01*
X93250648Y-38665098D01*
X93250645Y-38665108D01*
X93219699Y-38820682D01*
X93219699Y-38890696D01*
X93219435Y-38895403D01*
X93219435Y-38904605D01*
X93219699Y-38909307D01*
X93219699Y-38979315D01*
X93219699Y-38979317D01*
X93219698Y-38979317D01*
X93250645Y-39134891D01*
X93250648Y-39134901D01*
X93311349Y-39281448D01*
X93311350Y-39281450D01*
X93399482Y-39413348D01*
X93399485Y-39413352D01*
X93511647Y-39525514D01*
X93511651Y-39525517D01*
X93643547Y-39613648D01*
X93643548Y-39613648D01*
X93643549Y-39613649D01*
X93643551Y-39613650D01*
X93772783Y-39667179D01*
X93790103Y-39674353D01*
X93790107Y-39674353D01*
X93790108Y-39674354D01*
X93945682Y-39705301D01*
X93945685Y-39705301D01*
X94015694Y-39705301D01*
X94020395Y-39705565D01*
X94025000Y-39705565D01*
X94029605Y-39705565D01*
X94034306Y-39705301D01*
X94104317Y-39705301D01*
X94208982Y-39684480D01*
X94259897Y-39674353D01*
X94406453Y-39613648D01*
X94538349Y-39525517D01*
X95922247Y-38141619D01*
X95983570Y-38108134D01*
X96009928Y-38105300D01*
X101955261Y-38105300D01*
X102022300Y-38124985D01*
X102068055Y-38177789D01*
X102077999Y-38246947D01*
X102058363Y-38298189D01*
X102033195Y-38335857D01*
X102011350Y-38368549D01*
X102011349Y-38368551D01*
X101950648Y-38515098D01*
X101950645Y-38515108D01*
X101919699Y-38670682D01*
X101919699Y-38835428D01*
X101919700Y-38835449D01*
X101919700Y-39090686D01*
X101919435Y-39095402D01*
X101919435Y-39104600D01*
X101919700Y-39109319D01*
X101919700Y-39179319D01*
X101950644Y-39334889D01*
X101950647Y-39334898D01*
X102011348Y-39481446D01*
X102011355Y-39481459D01*
X102099481Y-39613348D01*
X102099484Y-39613352D01*
X102211647Y-39725515D01*
X102211651Y-39725518D01*
X102343540Y-39813644D01*
X102343553Y-39813651D01*
X102447207Y-39856585D01*
X102490103Y-39874353D01*
X102490105Y-39874353D01*
X102490110Y-39874355D01*
X102645680Y-39905299D01*
X102645684Y-39905300D01*
X102645685Y-39905300D01*
X102715685Y-39905300D01*
X102720404Y-39905565D01*
X102725000Y-39905565D01*
X102729596Y-39905565D01*
X102734315Y-39905300D01*
X102804316Y-39905300D01*
X102804317Y-39905299D01*
X102858937Y-39894435D01*
X102959889Y-39874355D01*
X102959892Y-39874353D01*
X102959897Y-39874353D01*
X103106453Y-39813648D01*
X103238349Y-39725518D01*
X103350518Y-39613349D01*
X103438648Y-39481453D01*
X103499353Y-39334897D01*
X103501256Y-39325334D01*
X103530299Y-39179319D01*
X103530300Y-39179316D01*
X103530300Y-39134928D01*
X103549985Y-39067889D01*
X103566619Y-39047247D01*
X104472248Y-38141619D01*
X104533571Y-38108134D01*
X104559929Y-38105300D01*
X104689551Y-38105300D01*
X104689571Y-38105301D01*
X104695685Y-38105301D01*
X104854317Y-38105301D01*
X104958982Y-38084480D01*
X105009897Y-38074353D01*
X105156453Y-38013648D01*
X105201810Y-37983341D01*
X105268485Y-37962464D01*
X105335866Y-37980948D01*
X105382556Y-38032926D01*
X105394700Y-38086444D01*
X105394700Y-48665071D01*
X105375015Y-48732110D01*
X105358381Y-48752752D01*
X104100829Y-50010304D01*
X102811654Y-51299479D01*
X102811651Y-51299482D01*
X102699482Y-51411651D01*
X102699479Y-51411654D01*
X101786654Y-52324479D01*
X101786651Y-52324482D01*
X101752720Y-52358413D01*
X101674482Y-52436650D01*
X101643488Y-52483037D01*
X101615450Y-52525000D01*
X101614410Y-52526556D01*
X101614408Y-52526558D01*
X101586356Y-52568538D01*
X101586348Y-52568553D01*
X101525648Y-52715098D01*
X101525645Y-52715108D01*
X101494699Y-52870682D01*
X101494699Y-53035428D01*
X101494700Y-53035449D01*
X101494700Y-57527616D01*
X101475015Y-57594655D01*
X101422211Y-57640410D01*
X101356817Y-57650836D01*
X101300004Y-57644435D01*
X101299996Y-57644435D01*
X101120750Y-57664630D01*
X101120745Y-57664631D01*
X100950476Y-57724211D01*
X100797737Y-57820184D01*
X100670184Y-57947737D01*
X100574211Y-58100476D01*
X100514631Y-58270745D01*
X100514630Y-58270750D01*
X100494435Y-58449996D01*
X100494435Y-58450003D01*
X100514630Y-58629249D01*
X100514631Y-58629254D01*
X100574211Y-58799524D01*
X100626198Y-58882259D01*
X100646539Y-58914632D01*
X100655493Y-58928881D01*
X100674500Y-58994854D01*
X100674500Y-62839547D01*
X100654815Y-62906586D01*
X100638181Y-62927228D01*
X99891621Y-63673787D01*
X99830298Y-63707272D01*
X99817825Y-63709326D01*
X99770750Y-63714630D01*
X99600478Y-63774210D01*
X99447737Y-63870184D01*
X99320184Y-63997737D01*
X99224211Y-64150476D01*
X99164631Y-64320745D01*
X99164630Y-64320750D01*
X99144435Y-64499996D01*
X99144435Y-64500003D01*
X99164630Y-64679249D01*
X99164631Y-64679254D01*
X99224211Y-64849523D01*
X99308391Y-64983494D01*
X99320184Y-65002262D01*
X99447738Y-65129816D01*
X99600478Y-65225789D01*
X99600481Y-65225790D01*
X99601539Y-65226300D01*
X99602107Y-65226813D01*
X99606374Y-65229494D01*
X99605904Y-65230240D01*
X99653402Y-65273118D01*
X99671720Y-65340544D01*
X99650677Y-65407170D01*
X99635427Y-65425705D01*
X94202753Y-70858381D01*
X94141430Y-70891866D01*
X94115072Y-70894700D01*
X92805610Y-70894700D01*
X92738571Y-70875015D01*
X92710391Y-70848779D01*
X92709887Y-70849217D01*
X92612847Y-70737226D01*
X92612830Y-70737207D01*
X92612829Y-70737206D01*
X92504091Y-70642985D01*
X92462890Y-70616507D01*
X92383142Y-70565255D01*
X92383136Y-70565252D01*
X92270144Y-70513651D01*
X92252259Y-70505483D01*
X92143195Y-70473459D01*
X92114308Y-70464977D01*
X92114296Y-70464974D01*
X91971889Y-70444500D01*
X91350000Y-70444500D01*
X91349997Y-70444500D01*
X91278057Y-70449645D01*
X91266267Y-70453107D01*
X91215439Y-70454468D01*
X91215196Y-70456738D01*
X91147883Y-70449501D01*
X91147881Y-70449500D01*
X91147873Y-70449500D01*
X91147864Y-70449500D01*
X90052129Y-70449500D01*
X90052125Y-70449501D01*
X89992511Y-70455909D01*
X89991503Y-70456148D01*
X89989438Y-70456240D01*
X89984807Y-70456738D01*
X89984775Y-70456448D01*
X89945348Y-70458208D01*
X89850000Y-70444500D01*
X89228111Y-70444500D01*
X89228110Y-70444500D01*
X89085703Y-70464974D01*
X89085691Y-70464977D01*
X88947741Y-70505483D01*
X88816863Y-70565252D01*
X88816861Y-70565254D01*
X88701523Y-70639376D01*
X88700083Y-70640196D01*
X88695901Y-70642988D01*
X88587169Y-70737207D01*
X88587166Y-70737210D01*
X88490113Y-70849217D01*
X88489151Y-70848383D01*
X88437723Y-70886882D01*
X88394390Y-70894700D01*
X85259928Y-70894700D01*
X85192889Y-70875015D01*
X85172247Y-70858381D01*
X84386818Y-70072952D01*
X84353333Y-70011629D01*
X84350499Y-69985271D01*
X84350499Y-69049998D01*
X84350498Y-69049981D01*
X84339999Y-68947203D01*
X84339998Y-68947200D01*
X84332427Y-68924353D01*
X84284814Y-68780666D01*
X84192712Y-68631344D01*
X84068656Y-68507288D01*
X83938955Y-68427288D01*
X83919336Y-68415187D01*
X83919331Y-68415185D01*
X83917862Y-68414698D01*
X83752797Y-68360001D01*
X83752795Y-68360000D01*
X83650010Y-68349500D01*
X82099998Y-68349500D01*
X82099981Y-68349501D01*
X81997203Y-68360000D01*
X81997200Y-68360001D01*
X81830668Y-68415185D01*
X81830661Y-68415188D01*
X81743025Y-68469242D01*
X81675633Y-68487681D01*
X81608969Y-68466758D01*
X81590249Y-68451383D01*
X81491619Y-68352753D01*
X81458134Y-68291430D01*
X81455300Y-68265072D01*
X81455300Y-65597239D01*
X81474985Y-65530200D01*
X81527789Y-65484445D01*
X81596947Y-65474501D01*
X81660503Y-65503526D01*
X81679619Y-65524355D01*
X81719892Y-65579788D01*
X81870213Y-65730109D01*
X82042179Y-65855048D01*
X82042181Y-65855049D01*
X82042184Y-65855051D01*
X82231588Y-65951557D01*
X82433757Y-66017246D01*
X82643713Y-66050500D01*
X82643714Y-66050500D01*
X83106286Y-66050500D01*
X83106287Y-66050500D01*
X83316243Y-66017246D01*
X83518412Y-65951557D01*
X83707816Y-65855051D01*
X83729789Y-65839086D01*
X83879786Y-65730109D01*
X83879788Y-65730106D01*
X83879792Y-65730104D01*
X84030104Y-65579792D01*
X84030106Y-65579788D01*
X84030109Y-65579786D01*
X84155048Y-65407820D01*
X84155047Y-65407820D01*
X84155051Y-65407816D01*
X84251557Y-65218412D01*
X84317246Y-65016243D01*
X84320145Y-64997936D01*
X84350071Y-64934803D01*
X84354918Y-64929670D01*
X85222772Y-64061819D01*
X85284095Y-64028334D01*
X85310453Y-64025500D01*
X91261608Y-64025500D01*
X91261608Y-64025499D01*
X91323746Y-64013140D01*
X91323748Y-64013140D01*
X91353299Y-64007261D01*
X91382452Y-64001463D01*
X91435922Y-63979315D01*
X91496286Y-63954312D01*
X91558872Y-63912492D01*
X91598733Y-63885858D01*
X91685858Y-63798733D01*
X91685859Y-63798731D01*
X91692925Y-63791665D01*
X91692928Y-63791661D01*
X94047817Y-61436771D01*
X94109138Y-61403288D01*
X94173813Y-61406522D01*
X94283757Y-61442246D01*
X94493713Y-61475500D01*
X94493714Y-61475500D01*
X94706286Y-61475500D01*
X94706287Y-61475500D01*
X94916243Y-61442246D01*
X95118412Y-61376557D01*
X95307816Y-61280051D01*
X95347434Y-61251267D01*
X95479786Y-61155109D01*
X95479788Y-61155106D01*
X95479792Y-61155104D01*
X95630104Y-61004792D01*
X95749683Y-60840204D01*
X95805011Y-60797540D01*
X95874624Y-60791561D01*
X95936420Y-60824166D01*
X95950313Y-60840199D01*
X96028957Y-60948444D01*
X96069896Y-61004792D01*
X96220213Y-61155109D01*
X96392179Y-61280048D01*
X96392181Y-61280049D01*
X96392184Y-61280051D01*
X96581588Y-61376557D01*
X96783757Y-61442246D01*
X96993713Y-61475500D01*
X96993714Y-61475500D01*
X97206286Y-61475500D01*
X97206287Y-61475500D01*
X97416243Y-61442246D01*
X97618412Y-61376557D01*
X97807816Y-61280051D01*
X97847434Y-61251267D01*
X97979786Y-61155109D01*
X97979788Y-61155106D01*
X97979792Y-61155104D01*
X98130104Y-61004792D01*
X98130106Y-61004788D01*
X98130109Y-61004786D01*
X98255048Y-60832820D01*
X98255047Y-60832820D01*
X98255051Y-60832816D01*
X98351557Y-60643412D01*
X98417246Y-60441243D01*
X98450500Y-60231287D01*
X98450500Y-59768713D01*
X98417246Y-59558757D01*
X98351557Y-59356588D01*
X98255051Y-59167184D01*
X98255049Y-59167181D01*
X98255048Y-59167179D01*
X98130109Y-58995213D01*
X97979786Y-58844890D01*
X97807820Y-58719951D01*
X97618414Y-58623444D01*
X97618413Y-58623443D01*
X97618412Y-58623443D01*
X97416243Y-58557754D01*
X97416241Y-58557753D01*
X97416240Y-58557753D01*
X97254957Y-58532208D01*
X97206287Y-58524500D01*
X96993713Y-58524500D01*
X96993708Y-58524500D01*
X96857264Y-58546111D01*
X96787971Y-58537157D01*
X96750185Y-58511319D01*
X96250058Y-58011192D01*
X96250038Y-58011170D01*
X96133552Y-57894684D01*
X96133548Y-57894681D01*
X96001659Y-57806555D01*
X96001646Y-57806548D01*
X95855101Y-57745848D01*
X95855091Y-57745845D01*
X95699517Y-57714899D01*
X95699515Y-57714899D01*
X95540885Y-57714899D01*
X95534771Y-57714899D01*
X95534751Y-57714900D01*
X83090249Y-57714900D01*
X83090229Y-57714899D01*
X83084115Y-57714899D01*
X82925484Y-57714899D01*
X82925482Y-57714899D01*
X82769908Y-57745845D01*
X82769898Y-57745848D01*
X82623353Y-57806548D01*
X82623340Y-57806555D01*
X82491452Y-57894680D01*
X82460615Y-57925518D01*
X82379282Y-58006851D01*
X81666981Y-58719152D01*
X81605658Y-58752637D01*
X81535966Y-58747653D01*
X81480033Y-58705781D01*
X81455616Y-58640317D01*
X81455300Y-58631471D01*
X81455300Y-55334927D01*
X81474985Y-55267888D01*
X81491615Y-55247250D01*
X81842653Y-54896211D01*
X81903974Y-54862728D01*
X81973665Y-54867712D01*
X82003218Y-54883577D01*
X82067179Y-54930048D01*
X82067181Y-54930049D01*
X82067184Y-54930051D01*
X82256588Y-55026557D01*
X82458757Y-55092246D01*
X82668713Y-55125500D01*
X82668714Y-55125500D01*
X83131286Y-55125500D01*
X83131287Y-55125500D01*
X83341243Y-55092246D01*
X83543412Y-55026557D01*
X83732816Y-54930051D01*
X83779390Y-54896213D01*
X83904786Y-54805109D01*
X83904788Y-54805106D01*
X83904792Y-54805104D01*
X84055104Y-54654792D01*
X84055106Y-54654788D01*
X84055109Y-54654786D01*
X84180048Y-54482820D01*
X84180047Y-54482820D01*
X84180051Y-54482816D01*
X84276557Y-54293412D01*
X84342246Y-54091243D01*
X84375500Y-53881287D01*
X84375500Y-53668713D01*
X84342246Y-53458757D01*
X84276557Y-53256588D01*
X84180051Y-53067184D01*
X84180049Y-53067181D01*
X84180048Y-53067179D01*
X84055109Y-52895213D01*
X83904792Y-52744896D01*
X83855509Y-52709090D01*
X83740204Y-52625316D01*
X83697540Y-52569989D01*
X83691561Y-52500376D01*
X83724166Y-52438580D01*
X83740199Y-52424686D01*
X83904792Y-52305104D01*
X84055104Y-52154792D01*
X84055106Y-52154788D01*
X84055109Y-52154786D01*
X84180048Y-51982820D01*
X84180047Y-51982820D01*
X84180051Y-51982816D01*
X84276557Y-51793412D01*
X84342246Y-51591243D01*
X84375500Y-51381287D01*
X84375500Y-51168713D01*
X84342246Y-50958757D01*
X84276557Y-50756588D01*
X84180051Y-50567184D01*
X84180049Y-50567181D01*
X84180048Y-50567179D01*
X84055109Y-50395213D01*
X83904786Y-50244890D01*
X83732820Y-50119951D01*
X83543414Y-50023444D01*
X83543413Y-50023443D01*
X83543412Y-50023443D01*
X83341243Y-49957754D01*
X83341241Y-49957753D01*
X83341240Y-49957753D01*
X83179957Y-49932208D01*
X83131287Y-49924500D01*
X82668713Y-49924500D01*
X82620042Y-49932208D01*
X82458760Y-49957753D01*
X82458757Y-49957754D01*
X82297026Y-50010304D01*
X82256585Y-50023444D01*
X82067179Y-50119951D01*
X81895213Y-50244890D01*
X81744894Y-50395209D01*
X81744890Y-50395214D01*
X81679618Y-50485054D01*
X81624288Y-50527720D01*
X81554675Y-50533699D01*
X81492880Y-50501093D01*
X81458523Y-50440255D01*
X81455300Y-50412169D01*
X81455300Y-43806649D01*
X81474985Y-43739610D01*
X81527789Y-43693855D01*
X81596947Y-43683911D01*
X81660503Y-43712936D01*
X81679620Y-43733766D01*
X81694894Y-43754790D01*
X81845213Y-43905109D01*
X82017179Y-44030048D01*
X82017181Y-44030049D01*
X82017184Y-44030051D01*
X82206588Y-44126557D01*
X82408757Y-44192246D01*
X82618713Y-44225500D01*
X82618714Y-44225500D01*
X83081286Y-44225500D01*
X83081287Y-44225500D01*
X83291243Y-44192246D01*
X83493412Y-44126557D01*
X83682816Y-44030051D01*
X83787141Y-43954255D01*
X83854786Y-43905109D01*
X83854788Y-43905106D01*
X83854792Y-43905104D01*
X84005104Y-43754792D01*
X84022088Y-43731415D01*
X84077416Y-43688750D01*
X84122406Y-43680300D01*
X85039551Y-43680300D01*
X85039571Y-43680301D01*
X85045685Y-43680301D01*
X85204317Y-43680301D01*
X85308982Y-43659480D01*
X85359897Y-43649353D01*
X85506453Y-43588648D01*
X85515181Y-43582816D01*
X85638349Y-43500518D01*
X85750518Y-43388349D01*
X85750518Y-43388347D01*
X85760726Y-43378140D01*
X85760727Y-43378137D01*
X86572248Y-42566619D01*
X86633571Y-42533134D01*
X86659929Y-42530300D01*
X88265685Y-42530300D01*
X88270404Y-42530565D01*
X88275000Y-42530565D01*
X88279596Y-42530565D01*
X88284315Y-42530300D01*
X88354316Y-42530300D01*
X88354317Y-42530299D01*
X88406175Y-42519984D01*
X88509889Y-42499355D01*
X88509892Y-42499353D01*
X88509897Y-42499353D01*
X88656453Y-42438648D01*
X88788349Y-42350518D01*
X88900518Y-42238349D01*
X88988648Y-42106453D01*
X89049353Y-41959897D01*
X89052645Y-41943350D01*
X89080299Y-41804319D01*
X89080300Y-41804316D01*
X89080300Y-41734319D01*
X89080565Y-41729600D01*
X89080565Y-41720402D01*
X89080300Y-41715686D01*
X89080300Y-41645684D01*
X89080299Y-41645680D01*
X89049355Y-41490110D01*
X89049352Y-41490101D01*
X89043365Y-41475648D01*
X88990396Y-41347767D01*
X88988651Y-41343553D01*
X88988644Y-41343540D01*
X88900518Y-41211651D01*
X88900515Y-41211647D01*
X88788352Y-41099484D01*
X88788348Y-41099481D01*
X88656459Y-41011355D01*
X88656446Y-41011348D01*
X88509898Y-40950647D01*
X88509889Y-40950644D01*
X88354319Y-40919700D01*
X88354315Y-40919700D01*
X88284315Y-40919700D01*
X88279596Y-40919435D01*
X88270404Y-40919435D01*
X88265685Y-40919700D01*
X86360450Y-40919700D01*
X86360430Y-40919699D01*
X86354316Y-40919699D01*
X86195685Y-40919699D01*
X86195680Y-40919699D01*
X86040110Y-40950644D01*
X86040102Y-40950646D01*
X85893550Y-41011350D01*
X85893540Y-41011355D01*
X85761651Y-41099481D01*
X85761647Y-41099484D01*
X84827753Y-42033381D01*
X84766430Y-42066866D01*
X84740072Y-42069700D01*
X84122406Y-42069700D01*
X84055367Y-42050015D01*
X84022087Y-42018584D01*
X84022017Y-42018487D01*
X84005104Y-41995208D01*
X83854792Y-41844896D01*
X83690204Y-41725316D01*
X83647540Y-41669989D01*
X83641561Y-41600376D01*
X83674166Y-41538580D01*
X83690199Y-41524686D01*
X83854792Y-41405104D01*
X84005104Y-41254792D01*
X84005106Y-41254788D01*
X84005109Y-41254786D01*
X84130048Y-41082820D01*
X84130047Y-41082820D01*
X84130051Y-41082816D01*
X84226557Y-40893412D01*
X84292246Y-40691243D01*
X84325500Y-40481287D01*
X84325500Y-40268713D01*
X84292246Y-40058757D01*
X84226557Y-39856588D01*
X84130051Y-39667184D01*
X84130049Y-39667181D01*
X84130048Y-39667179D01*
X84005109Y-39495213D01*
X83854786Y-39344890D01*
X83682820Y-39219951D01*
X83493414Y-39123444D01*
X83493413Y-39123443D01*
X83493412Y-39123443D01*
X83291243Y-39057754D01*
X83291241Y-39057753D01*
X83291240Y-39057753D01*
X83111687Y-39029315D01*
X83081287Y-39024500D01*
X82618713Y-39024500D01*
X82588313Y-39029315D01*
X82408760Y-39057753D01*
X82206585Y-39123444D01*
X82017179Y-39219951D01*
X81845213Y-39344890D01*
X81694894Y-39495209D01*
X81694890Y-39495214D01*
X81679618Y-39516235D01*
X81624288Y-39558901D01*
X81554675Y-39564880D01*
X81492880Y-39532274D01*
X81458523Y-39471436D01*
X81455300Y-39443350D01*
X81455300Y-39334928D01*
X81474985Y-39267889D01*
X81491619Y-39247247D01*
X84752216Y-35986651D01*
X88025518Y-32713349D01*
X88113648Y-32581453D01*
X88174354Y-32434897D01*
X88205301Y-32279315D01*
X88205301Y-32209307D01*
X88205565Y-32204605D01*
X88205565Y-32195403D01*
X88205301Y-32190696D01*
X88205301Y-32124983D01*
X90349500Y-32124983D01*
X90349500Y-33675001D01*
X90349501Y-33675018D01*
X90360000Y-33777796D01*
X90360001Y-33777799D01*
X90405894Y-33916294D01*
X90415186Y-33944334D01*
X90507288Y-34093656D01*
X90631344Y-34217712D01*
X90780666Y-34309814D01*
X90947203Y-34364999D01*
X91049991Y-34375500D01*
X92350008Y-34375499D01*
X92452797Y-34364999D01*
X92619334Y-34309814D01*
X92768656Y-34217712D01*
X92892712Y-34093656D01*
X92984814Y-33944334D01*
X92984814Y-33944331D01*
X92988178Y-33938879D01*
X93040126Y-33892154D01*
X93109088Y-33880931D01*
X93173170Y-33908774D01*
X93181398Y-33916294D01*
X93320213Y-34055109D01*
X93492179Y-34180048D01*
X93492181Y-34180049D01*
X93492184Y-34180051D01*
X93681588Y-34276557D01*
X93883757Y-34342246D01*
X94093713Y-34375500D01*
X94093714Y-34375500D01*
X94306286Y-34375500D01*
X94306287Y-34375500D01*
X94516243Y-34342246D01*
X94718412Y-34276557D01*
X94907816Y-34180051D01*
X94929789Y-34164086D01*
X95079786Y-34055109D01*
X95079788Y-34055106D01*
X95079792Y-34055104D01*
X95230104Y-33904792D01*
X95349683Y-33740204D01*
X95405011Y-33697540D01*
X95474624Y-33691561D01*
X95536420Y-33724166D01*
X95550313Y-33740199D01*
X95580878Y-33782268D01*
X95669896Y-33904792D01*
X95820213Y-34055109D01*
X95992179Y-34180048D01*
X95992181Y-34180049D01*
X95992184Y-34180051D01*
X96181588Y-34276557D01*
X96383757Y-34342246D01*
X96593713Y-34375500D01*
X96593714Y-34375500D01*
X96806286Y-34375500D01*
X96806287Y-34375500D01*
X97016243Y-34342246D01*
X97218412Y-34276557D01*
X97407816Y-34180051D01*
X97429789Y-34164086D01*
X97579786Y-34055109D01*
X97579788Y-34055106D01*
X97579792Y-34055104D01*
X97730104Y-33904792D01*
X97730106Y-33904788D01*
X97730109Y-33904786D01*
X97855048Y-33732820D01*
X97855047Y-33732820D01*
X97855051Y-33732816D01*
X97951557Y-33543412D01*
X98017246Y-33341243D01*
X98050500Y-33131287D01*
X98050500Y-32668713D01*
X98017246Y-32458757D01*
X97951557Y-32256588D01*
X97855051Y-32067184D01*
X97855049Y-32067181D01*
X97855048Y-32067179D01*
X97730109Y-31895213D01*
X97579786Y-31744890D01*
X97407820Y-31619951D01*
X97218414Y-31523444D01*
X97218413Y-31523443D01*
X97218412Y-31523443D01*
X97016243Y-31457754D01*
X97016241Y-31457753D01*
X97016240Y-31457753D01*
X96854957Y-31432208D01*
X96806287Y-31424500D01*
X96593713Y-31424500D01*
X96545042Y-31432208D01*
X96383760Y-31457753D01*
X96181585Y-31523444D01*
X95992179Y-31619951D01*
X95820213Y-31744890D01*
X95669894Y-31895209D01*
X95669890Y-31895214D01*
X95550318Y-32059793D01*
X95494989Y-32102459D01*
X95425375Y-32108438D01*
X95363580Y-32075833D01*
X95349682Y-32059793D01*
X95230109Y-31895214D01*
X95230105Y-31895209D01*
X95079786Y-31744890D01*
X94907820Y-31619951D01*
X94718414Y-31523444D01*
X94718413Y-31523443D01*
X94718412Y-31523443D01*
X94516243Y-31457754D01*
X94516241Y-31457753D01*
X94516240Y-31457753D01*
X94354957Y-31432208D01*
X94306287Y-31424500D01*
X94093713Y-31424500D01*
X94045042Y-31432208D01*
X93883760Y-31457753D01*
X93681585Y-31523444D01*
X93492179Y-31619951D01*
X93320215Y-31744889D01*
X93181398Y-31883706D01*
X93120075Y-31917190D01*
X93050383Y-31912206D01*
X92994450Y-31870334D01*
X92988178Y-31861120D01*
X92892712Y-31706344D01*
X92768657Y-31582289D01*
X92768656Y-31582288D01*
X92655655Y-31512589D01*
X92619336Y-31490187D01*
X92619331Y-31490185D01*
X92607758Y-31486350D01*
X92452797Y-31435001D01*
X92452795Y-31435000D01*
X92350016Y-31424500D01*
X92350009Y-31424500D01*
X92077504Y-31424500D01*
X92030052Y-31415061D01*
X91934898Y-31375647D01*
X91934889Y-31375644D01*
X91779319Y-31344700D01*
X91779315Y-31344700D01*
X91620685Y-31344700D01*
X91620681Y-31344700D01*
X91465109Y-31375645D01*
X91465097Y-31375649D01*
X91369942Y-31415062D01*
X91322491Y-31424500D01*
X91049999Y-31424500D01*
X91049980Y-31424501D01*
X90947203Y-31435000D01*
X90947200Y-31435001D01*
X90780668Y-31490185D01*
X90780663Y-31490187D01*
X90631342Y-31582289D01*
X90507289Y-31706342D01*
X90415187Y-31855663D01*
X90415185Y-31855668D01*
X90394799Y-31917190D01*
X90360001Y-32022203D01*
X90360001Y-32022204D01*
X90360000Y-32022204D01*
X90349500Y-32124983D01*
X88205301Y-32124983D01*
X88205301Y-32120683D01*
X88205300Y-32120679D01*
X88196380Y-32075833D01*
X88174354Y-31965102D01*
X88113648Y-31818547D01*
X88113646Y-31818544D01*
X88113644Y-31818540D01*
X88025518Y-31686651D01*
X88025515Y-31686647D01*
X87913352Y-31574484D01*
X87913348Y-31574481D01*
X87781459Y-31486355D01*
X87781449Y-31486350D01*
X87634898Y-31425646D01*
X87634890Y-31425644D01*
X87479320Y-31394699D01*
X87479316Y-31394699D01*
X87409306Y-31394699D01*
X87404605Y-31394435D01*
X87395395Y-31394435D01*
X87390694Y-31394699D01*
X87320680Y-31394699D01*
X87165110Y-31425644D01*
X87165102Y-31425646D01*
X87018550Y-31486350D01*
X87018540Y-31486355D01*
X86886651Y-31574481D01*
X86886647Y-31574484D01*
X85514680Y-32946451D01*
X85453357Y-32979936D01*
X85383665Y-32974952D01*
X85327732Y-32933080D01*
X85303315Y-32867616D01*
X85303286Y-32867209D01*
X85285713Y-32599080D01*
X85226880Y-32303309D01*
X85129945Y-32017748D01*
X85103986Y-31965109D01*
X84996568Y-31747286D01*
X84996564Y-31747279D01*
X84829026Y-31496540D01*
X84630189Y-31269810D01*
X84403459Y-31070973D01*
X84152720Y-30903435D01*
X84152713Y-30903431D01*
X83882268Y-30770062D01*
X83882247Y-30770053D01*
X83596698Y-30673122D01*
X83596692Y-30673120D01*
X83596691Y-30673120D01*
X83596689Y-30673119D01*
X83596683Y-30673118D01*
X83300930Y-30614288D01*
X83300921Y-30614287D01*
X83300920Y-30614287D01*
X83000000Y-30594564D01*
X82699080Y-30614287D01*
X82699079Y-30614287D01*
X82699069Y-30614288D01*
X82403316Y-30673118D01*
X82403301Y-30673122D01*
X82117752Y-30770053D01*
X82117731Y-30770062D01*
X81847286Y-30903431D01*
X81847279Y-30903435D01*
X81596540Y-31070973D01*
X81369810Y-31269810D01*
X81170973Y-31496540D01*
X81003435Y-31747279D01*
X81003431Y-31747286D01*
X80870062Y-32017731D01*
X80870053Y-32017752D01*
X80773122Y-32303301D01*
X80773118Y-32303316D01*
X80714288Y-32599069D01*
X80714287Y-32599079D01*
X80714287Y-32599080D01*
X80694564Y-32900000D01*
X80712536Y-33174211D01*
X80714287Y-33200918D01*
X80714288Y-33200930D01*
X80773118Y-33496683D01*
X80773122Y-33496698D01*
X80870053Y-33782247D01*
X80870062Y-33782268D01*
X81003431Y-34052713D01*
X81003435Y-34052720D01*
X81170973Y-34303459D01*
X81369810Y-34530189D01*
X81596540Y-34729026D01*
X81847279Y-34896564D01*
X81847286Y-34896568D01*
X82117731Y-35029937D01*
X82117736Y-35029939D01*
X82117748Y-35029945D01*
X82403309Y-35126880D01*
X82572211Y-35160477D01*
X82699069Y-35185711D01*
X82699070Y-35185711D01*
X82699080Y-35185713D01*
X82966884Y-35203265D01*
X83032489Y-35227291D01*
X83074693Y-35282974D01*
X83080092Y-35352635D01*
X83046973Y-35414157D01*
X83046452Y-35414680D01*
X80211681Y-38249452D01*
X80150358Y-38282937D01*
X80080666Y-38277953D01*
X80024733Y-38236081D01*
X80000316Y-38170617D01*
X80000000Y-38161771D01*
X80000000Y-33000882D01*
X80000012Y-32999144D01*
X80000358Y-32974481D01*
X80002274Y-32837729D01*
X80003041Y-32825610D01*
X80039277Y-32504005D01*
X80041606Y-32490299D01*
X80063746Y-32393293D01*
X80113427Y-32175627D01*
X80117272Y-32162279D01*
X80223883Y-31857601D01*
X80229196Y-31844777D01*
X80369243Y-31553965D01*
X80375959Y-31541813D01*
X80547693Y-31268501D01*
X80555723Y-31257183D01*
X80756979Y-31004816D01*
X80766228Y-30994467D01*
X80994467Y-30766228D01*
X81004816Y-30756979D01*
X81257183Y-30555723D01*
X81268501Y-30547693D01*
X81541813Y-30375959D01*
X81553965Y-30369243D01*
X81844777Y-30229196D01*
X81857601Y-30223883D01*
X82162279Y-30117272D01*
X82175627Y-30113427D01*
X82393293Y-30063746D01*
X82490299Y-30041606D01*
X82504005Y-30039277D01*
X82825610Y-30003041D01*
X82837729Y-30002274D01*
X82999144Y-30000011D01*
X83000882Y-30000000D01*
X106436771Y-30000000D01*
X106503810Y-30019685D01*
G37*
G04 #@! TD.AperFunction*
G04 #@! TA.AperFunction,Conductor*
G36*
X110995204Y-52749985D02*
G01*
X111040959Y-52802789D01*
X111051455Y-52841048D01*
X111055908Y-52882483D01*
X111106202Y-53017328D01*
X111106206Y-53017335D01*
X111192452Y-53132544D01*
X111192455Y-53132547D01*
X111307664Y-53218793D01*
X111307671Y-53218797D01*
X111439081Y-53267810D01*
X111495015Y-53309681D01*
X111519432Y-53375145D01*
X111504580Y-53443418D01*
X111483430Y-53471673D01*
X111361503Y-53593600D01*
X111248972Y-53754313D01*
X111225965Y-53787171D01*
X111196559Y-53850233D01*
X111126098Y-54001335D01*
X111126094Y-54001344D01*
X111064938Y-54229586D01*
X111064936Y-54229596D01*
X111044341Y-54464999D01*
X111044341Y-54465000D01*
X111064936Y-54700403D01*
X111064938Y-54700413D01*
X111126094Y-54928655D01*
X111126096Y-54928659D01*
X111126097Y-54928663D01*
X111175014Y-55033566D01*
X111225965Y-55142830D01*
X111225967Y-55142834D01*
X111329004Y-55289985D01*
X111361505Y-55336401D01*
X111528599Y-55503495D01*
X111568756Y-55531613D01*
X111722165Y-55639032D01*
X111722167Y-55639033D01*
X111722170Y-55639035D01*
X111936337Y-55738903D01*
X112164592Y-55800063D01*
X112352918Y-55816539D01*
X112399999Y-55820659D01*
X112400000Y-55820659D01*
X112400001Y-55820659D01*
X112439234Y-55817226D01*
X112635408Y-55800063D01*
X112863663Y-55738903D01*
X113077830Y-55639035D01*
X113271401Y-55503495D01*
X113438495Y-55336401D01*
X113447755Y-55323175D01*
X113502332Y-55279552D01*
X113549330Y-55270300D01*
X115875500Y-55270300D01*
X115942539Y-55289985D01*
X115988294Y-55342789D01*
X115999500Y-55394300D01*
X115999500Y-56550001D01*
X115999501Y-56550018D01*
X116010000Y-56652796D01*
X116010001Y-56652799D01*
X116057573Y-56796361D01*
X116065186Y-56819334D01*
X116157288Y-56968656D01*
X116281344Y-57092712D01*
X116430666Y-57184814D01*
X116597203Y-57239999D01*
X116699991Y-57250500D01*
X117960271Y-57250499D01*
X118027310Y-57270184D01*
X118047952Y-57286818D01*
X118311047Y-57549913D01*
X118344532Y-57611236D01*
X118339548Y-57680928D01*
X118297676Y-57736861D01*
X118232212Y-57761278D01*
X118209631Y-57759707D01*
X118209531Y-57760689D01*
X118100010Y-57749500D01*
X116699998Y-57749500D01*
X116699981Y-57749501D01*
X116597203Y-57760000D01*
X116597200Y-57760001D01*
X116430668Y-57815185D01*
X116430663Y-57815187D01*
X116281342Y-57907289D01*
X116157289Y-58031342D01*
X116065187Y-58180663D01*
X116065185Y-58180668D01*
X116048307Y-58231603D01*
X116010001Y-58347203D01*
X116010001Y-58347204D01*
X116010000Y-58347204D01*
X115999500Y-58449983D01*
X115999500Y-60550001D01*
X115999501Y-60550018D01*
X116010000Y-60652796D01*
X116010001Y-60652799D01*
X116053931Y-60785368D01*
X116065186Y-60819334D01*
X116157288Y-60968656D01*
X116281344Y-61092712D01*
X116430666Y-61184814D01*
X116597203Y-61239999D01*
X116699991Y-61250500D01*
X118100008Y-61250499D01*
X118202797Y-61239999D01*
X118369334Y-61184814D01*
X118518656Y-61092712D01*
X118642712Y-60968656D01*
X118734814Y-60819334D01*
X118789999Y-60652797D01*
X118800500Y-60550009D01*
X118800500Y-60429300D01*
X118820185Y-60362261D01*
X118872989Y-60316506D01*
X118924500Y-60305300D01*
X120625501Y-60305300D01*
X120692540Y-60324985D01*
X120738295Y-60377789D01*
X120749501Y-60429300D01*
X120749501Y-61547876D01*
X120755908Y-61607483D01*
X120806202Y-61742328D01*
X120806206Y-61742335D01*
X120892452Y-61857544D01*
X120892455Y-61857547D01*
X121007664Y-61943793D01*
X121007671Y-61943797D01*
X121142517Y-61994091D01*
X121142516Y-61994091D01*
X121149444Y-61994835D01*
X121202127Y-62000500D01*
X124797872Y-62000499D01*
X124857483Y-61994091D01*
X124992331Y-61943796D01*
X125107546Y-61857546D01*
X125193796Y-61742331D01*
X125244091Y-61607483D01*
X125250500Y-61547873D01*
X125250500Y-61179300D01*
X125270185Y-61112261D01*
X125322989Y-61066506D01*
X125374500Y-61055300D01*
X127941814Y-61055300D01*
X127941815Y-61055300D01*
X127953968Y-61052882D01*
X127978158Y-61050500D01*
X128440686Y-61050500D01*
X128440694Y-61050500D01*
X128477569Y-61047598D01*
X128477571Y-61047597D01*
X128477573Y-61047597D01*
X128566699Y-61021703D01*
X128635398Y-61001744D01*
X128776865Y-60918081D01*
X128893081Y-60801865D01*
X128893267Y-60801549D01*
X128893477Y-60801353D01*
X128897861Y-60795702D01*
X128898772Y-60796409D01*
X128944336Y-60753866D01*
X129013077Y-60741362D01*
X129077667Y-60768006D01*
X129101855Y-60795921D01*
X129102139Y-60795702D01*
X129106179Y-60800911D01*
X129106732Y-60801548D01*
X129106919Y-60801865D01*
X129106921Y-60801867D01*
X129106923Y-60801870D01*
X129223129Y-60918076D01*
X129223133Y-60918079D01*
X129223135Y-60918081D01*
X129364602Y-61001744D01*
X129380091Y-61006244D01*
X129522426Y-61047597D01*
X129522429Y-61047597D01*
X129522431Y-61047598D01*
X129559306Y-61050500D01*
X129911272Y-61050500D01*
X129978311Y-61070185D01*
X130024066Y-61122989D01*
X130034010Y-61192147D01*
X130004985Y-61255703D01*
X129998953Y-61262181D01*
X122634830Y-68626302D01*
X122573507Y-68659787D01*
X122503815Y-68654803D01*
X122447882Y-68612931D01*
X122429443Y-68577625D01*
X122427141Y-68570679D01*
X122397314Y-68480666D01*
X122305212Y-68331344D01*
X122181156Y-68207288D01*
X122031834Y-68115186D01*
X121865297Y-68060001D01*
X121865295Y-68060000D01*
X121762510Y-68049500D01*
X120362498Y-68049500D01*
X120362481Y-68049501D01*
X120259703Y-68060000D01*
X120259700Y-68060001D01*
X120093168Y-68115185D01*
X120093163Y-68115187D01*
X119943842Y-68207289D01*
X119819789Y-68331342D01*
X119727687Y-68480663D01*
X119727686Y-68480666D01*
X119672501Y-68647203D01*
X119672501Y-68647204D01*
X119672500Y-68647204D01*
X119662000Y-68749983D01*
X119662000Y-69120700D01*
X119642315Y-69187739D01*
X119589511Y-69233494D01*
X119538000Y-69244700D01*
X117758185Y-69244700D01*
X117746031Y-69247117D01*
X117721842Y-69249500D01*
X117324500Y-69249500D01*
X117257461Y-69229815D01*
X117211706Y-69177011D01*
X117200500Y-69125500D01*
X117200500Y-69074500D01*
X117220185Y-69007461D01*
X117272989Y-68961706D01*
X117324500Y-68950500D01*
X117721837Y-68950500D01*
X117746026Y-68952882D01*
X117758185Y-68955301D01*
X117758186Y-68955301D01*
X117916814Y-68955301D01*
X117916815Y-68955301D01*
X117928973Y-68952882D01*
X117953163Y-68950500D01*
X118490686Y-68950500D01*
X118490694Y-68950500D01*
X118527569Y-68947598D01*
X118527571Y-68947597D01*
X118527573Y-68947597D01*
X118590767Y-68929237D01*
X118685398Y-68901744D01*
X118826865Y-68818081D01*
X118943081Y-68701865D01*
X119026744Y-68560398D01*
X119068932Y-68415187D01*
X119072597Y-68402573D01*
X119072598Y-68402567D01*
X119075499Y-68365701D01*
X119075500Y-68365694D01*
X119075500Y-67979648D01*
X119084939Y-67932195D01*
X119087919Y-67925000D01*
X119099353Y-67897397D01*
X119122101Y-67783035D01*
X119130300Y-67741816D01*
X119130300Y-67583185D01*
X119130300Y-67162327D01*
X119148184Y-67098176D01*
X119168475Y-67064611D01*
X119168475Y-67064610D01*
X119168478Y-67064606D01*
X119219086Y-66902196D01*
X119225500Y-66831616D01*
X119225500Y-66729300D01*
X119245185Y-66662261D01*
X119297989Y-66616506D01*
X119349500Y-66605300D01*
X119538001Y-66605300D01*
X119605040Y-66624985D01*
X119650795Y-66677789D01*
X119662001Y-66729300D01*
X119662001Y-66850018D01*
X119672500Y-66952796D01*
X119672501Y-66952799D01*
X119727685Y-67119331D01*
X119727687Y-67119336D01*
X119742287Y-67143006D01*
X119819788Y-67268656D01*
X119943844Y-67392712D01*
X120093166Y-67484814D01*
X120259703Y-67539999D01*
X120362491Y-67550500D01*
X121762508Y-67550499D01*
X121865297Y-67539999D01*
X122031834Y-67484814D01*
X122181156Y-67392712D01*
X122305212Y-67268656D01*
X122397314Y-67119334D01*
X122452499Y-66952797D01*
X122463000Y-66850009D01*
X122462999Y-64749992D01*
X122460077Y-64721392D01*
X122452499Y-64647203D01*
X122452498Y-64647200D01*
X122435594Y-64596187D01*
X122397314Y-64480666D01*
X122305212Y-64331344D01*
X122181156Y-64207288D01*
X122031834Y-64115186D01*
X121865297Y-64060001D01*
X121865295Y-64060000D01*
X121762510Y-64049500D01*
X120362498Y-64049500D01*
X120362481Y-64049501D01*
X120259703Y-64060000D01*
X120259700Y-64060001D01*
X120093168Y-64115185D01*
X120093163Y-64115187D01*
X119943842Y-64207289D01*
X119819789Y-64331342D01*
X119727687Y-64480663D01*
X119727685Y-64480668D01*
X119699849Y-64564670D01*
X119672501Y-64647203D01*
X119672501Y-64647204D01*
X119672500Y-64647204D01*
X119662000Y-64749983D01*
X119662000Y-64870700D01*
X119642315Y-64937739D01*
X119589511Y-64983494D01*
X119538000Y-64994700D01*
X118884928Y-64994700D01*
X118817889Y-64975015D01*
X118797247Y-64958381D01*
X115829858Y-61990992D01*
X115829838Y-61990970D01*
X115713352Y-61874484D01*
X115713348Y-61874481D01*
X115581459Y-61786355D01*
X115581446Y-61786348D01*
X115434901Y-61725648D01*
X115434891Y-61725645D01*
X115279317Y-61694699D01*
X115279315Y-61694699D01*
X115120685Y-61694699D01*
X115114571Y-61694699D01*
X115114551Y-61694700D01*
X113974500Y-61694700D01*
X113907461Y-61675015D01*
X113861706Y-61622211D01*
X113850500Y-61570700D01*
X113850499Y-60574998D01*
X113850498Y-60574980D01*
X113839999Y-60472203D01*
X113839998Y-60472200D01*
X113829740Y-60441243D01*
X113784814Y-60305666D01*
X113692712Y-60156344D01*
X113568656Y-60032288D01*
X113475888Y-59975069D01*
X113419336Y-59940187D01*
X113419331Y-59940185D01*
X113411684Y-59937651D01*
X113252797Y-59885001D01*
X113252795Y-59885000D01*
X113150010Y-59874500D01*
X112549998Y-59874500D01*
X112549980Y-59874501D01*
X112447203Y-59885000D01*
X112447200Y-59885001D01*
X112280668Y-59940185D01*
X112280663Y-59940187D01*
X112131342Y-60032289D01*
X112007289Y-60156342D01*
X111915187Y-60305663D01*
X111915185Y-60305668D01*
X111900653Y-60349523D01*
X111860001Y-60472203D01*
X111860001Y-60472204D01*
X111860000Y-60472204D01*
X111849500Y-60574983D01*
X111849500Y-60578933D01*
X111829815Y-60645972D01*
X111777011Y-60691727D01*
X111707853Y-60701671D01*
X111682168Y-60695115D01*
X111657485Y-60685909D01*
X111657483Y-60685908D01*
X111597883Y-60679501D01*
X111597881Y-60679500D01*
X111597873Y-60679500D01*
X111597865Y-60679500D01*
X110074499Y-60679500D01*
X110007460Y-60659815D01*
X109961705Y-60607011D01*
X109950499Y-60555500D01*
X109950499Y-59914499D01*
X109970184Y-59847460D01*
X110022988Y-59801705D01*
X110074494Y-59790499D01*
X111597872Y-59790499D01*
X111657483Y-59784091D01*
X111792331Y-59733796D01*
X111907546Y-59647546D01*
X111911558Y-59642187D01*
X111967493Y-59600317D01*
X112010823Y-59592500D01*
X112046804Y-59592500D01*
X112046805Y-59592499D01*
X112168035Y-59568386D01*
X112248883Y-59534897D01*
X112282233Y-59521083D01*
X112385008Y-59452411D01*
X112472411Y-59365008D01*
X112600600Y-59236819D01*
X112661923Y-59203334D01*
X112688281Y-59200500D01*
X112981613Y-59200500D01*
X112981616Y-59200500D01*
X113052196Y-59194086D01*
X113214606Y-59143478D01*
X113360185Y-59055472D01*
X113480472Y-58935185D01*
X113568478Y-58789606D01*
X113619086Y-58627196D01*
X113625500Y-58556616D01*
X113625500Y-57893384D01*
X113619086Y-57822804D01*
X113568478Y-57660394D01*
X113480472Y-57514815D01*
X113480470Y-57514813D01*
X113480469Y-57514811D01*
X113360188Y-57394530D01*
X113303171Y-57360062D01*
X113214606Y-57306522D01*
X113052196Y-57255914D01*
X113052194Y-57255913D01*
X113052192Y-57255913D01*
X113002778Y-57251423D01*
X112981616Y-57249500D01*
X112468384Y-57249500D01*
X112449145Y-57251248D01*
X112397807Y-57255913D01*
X112235393Y-57306522D01*
X112089811Y-57394530D01*
X111969530Y-57514811D01*
X111881522Y-57660393D01*
X111830913Y-57822807D01*
X111824500Y-57893386D01*
X111824500Y-58029608D01*
X111804815Y-58096647D01*
X111752011Y-58142402D01*
X111682853Y-58152346D01*
X111659419Y-58146366D01*
X111657483Y-58145908D01*
X111597883Y-58139501D01*
X111597881Y-58139500D01*
X111597873Y-58139500D01*
X111597865Y-58139500D01*
X110074499Y-58139500D01*
X110007460Y-58119815D01*
X109961705Y-58067011D01*
X109950499Y-58015500D01*
X109950499Y-57752129D01*
X109950498Y-57752123D01*
X109950216Y-57749501D01*
X109944091Y-57692517D01*
X109941487Y-57685536D01*
X109893797Y-57557671D01*
X109893793Y-57557664D01*
X109807547Y-57442455D01*
X109807544Y-57442452D01*
X109692335Y-57356206D01*
X109692328Y-57356202D01*
X109557482Y-57305908D01*
X109557483Y-57305908D01*
X109497883Y-57299501D01*
X109497881Y-57299500D01*
X109497873Y-57299500D01*
X109497865Y-57299500D01*
X106743980Y-57299500D01*
X106676941Y-57279815D01*
X106631186Y-57227011D01*
X106627798Y-57218833D01*
X106593797Y-57127671D01*
X106593793Y-57127664D01*
X106507547Y-57012455D01*
X106507544Y-57012452D01*
X106392335Y-56926206D01*
X106392328Y-56926202D01*
X106257482Y-56875908D01*
X106257483Y-56875908D01*
X106197883Y-56869501D01*
X106197881Y-56869500D01*
X106197873Y-56869500D01*
X106197864Y-56869500D01*
X104602129Y-56869500D01*
X104602123Y-56869501D01*
X104542516Y-56875908D01*
X104407671Y-56926202D01*
X104407669Y-56926203D01*
X104366487Y-56957032D01*
X104301022Y-56981448D01*
X104251222Y-56974806D01*
X104233649Y-56968657D01*
X104200427Y-56957032D01*
X104079254Y-56914631D01*
X104079249Y-56914630D01*
X103900004Y-56894435D01*
X103899996Y-56894435D01*
X103720750Y-56914630D01*
X103713953Y-56916182D01*
X103713445Y-56913959D01*
X103654448Y-56916958D01*
X103593829Y-56882215D01*
X103561616Y-56820214D01*
X103559300Y-56796361D01*
X103559300Y-54454480D01*
X103578985Y-54387441D01*
X103595610Y-54366808D01*
X103736568Y-54225849D01*
X103797887Y-54192367D01*
X103810345Y-54190315D01*
X103854255Y-54185368D01*
X104024522Y-54125789D01*
X104177262Y-54029816D01*
X104304816Y-53902262D01*
X104400789Y-53749522D01*
X104460368Y-53579255D01*
X104464958Y-53538517D01*
X104480565Y-53400003D01*
X104480565Y-53399996D01*
X104460369Y-53220750D01*
X104460368Y-53220745D01*
X104429505Y-53132544D01*
X104400789Y-53050478D01*
X104391332Y-53035428D01*
X104318975Y-52920272D01*
X104299975Y-52853036D01*
X104320343Y-52786200D01*
X104373610Y-52740986D01*
X104423969Y-52730300D01*
X110928165Y-52730300D01*
X110995204Y-52749985D01*
G37*
G04 #@! TD.AperFunction*
G04 #@! TA.AperFunction,Conductor*
G36*
X109523058Y-61920184D02*
G01*
X109568813Y-61972988D01*
X109572201Y-61981166D01*
X109606202Y-62072328D01*
X109606206Y-62072335D01*
X109692452Y-62187544D01*
X109692455Y-62187547D01*
X109807664Y-62273793D01*
X109807671Y-62273797D01*
X109852618Y-62290561D01*
X109942517Y-62324091D01*
X110002127Y-62330500D01*
X110435271Y-62330499D01*
X110502310Y-62350183D01*
X110522952Y-62366818D01*
X110782814Y-62626680D01*
X110816299Y-62688003D01*
X110816750Y-62690170D01*
X110825645Y-62734889D01*
X110825647Y-62734898D01*
X110886348Y-62881446D01*
X110886355Y-62881459D01*
X110974481Y-63013348D01*
X110974484Y-63013352D01*
X111086647Y-63125515D01*
X111086651Y-63125518D01*
X111218540Y-63213644D01*
X111218553Y-63213651D01*
X111328464Y-63259176D01*
X111365103Y-63274353D01*
X111365105Y-63274353D01*
X111365110Y-63274355D01*
X111520680Y-63305299D01*
X111520684Y-63305300D01*
X111520685Y-63305300D01*
X111590685Y-63305300D01*
X111595404Y-63305565D01*
X111600000Y-63305565D01*
X111604596Y-63305565D01*
X111609315Y-63305300D01*
X114815072Y-63305300D01*
X114882111Y-63324985D01*
X114902753Y-63341619D01*
X117432082Y-65870948D01*
X117465567Y-65932271D01*
X117462787Y-65995517D01*
X117430914Y-66097804D01*
X117424500Y-66168384D01*
X117424500Y-66831616D01*
X117426172Y-66850016D01*
X117430913Y-66902192D01*
X117430913Y-66902194D01*
X117430914Y-66902196D01*
X117481522Y-67064606D01*
X117481523Y-67064607D01*
X117481524Y-67064611D01*
X117501816Y-67098176D01*
X117519700Y-67162327D01*
X117519700Y-67225500D01*
X117500015Y-67292539D01*
X117447211Y-67338294D01*
X117395700Y-67349500D01*
X117184298Y-67349500D01*
X117147432Y-67352401D01*
X117147426Y-67352402D01*
X116989606Y-67398254D01*
X116989603Y-67398255D01*
X116848137Y-67481917D01*
X116848129Y-67481923D01*
X116731923Y-67598129D01*
X116731917Y-67598137D01*
X116648255Y-67739603D01*
X116648254Y-67739606D01*
X116602402Y-67897426D01*
X116602401Y-67897432D01*
X116599500Y-67934298D01*
X116599500Y-68175500D01*
X116579815Y-68242539D01*
X116527011Y-68288294D01*
X116475500Y-68299500D01*
X116352228Y-68299500D01*
X116285189Y-68279815D01*
X116264547Y-68263181D01*
X113160558Y-65159192D01*
X113160538Y-65159170D01*
X113044052Y-65042684D01*
X113044048Y-65042681D01*
X112912159Y-64954555D01*
X112912146Y-64954548D01*
X112765601Y-64893848D01*
X112765591Y-64893845D01*
X112610017Y-64862899D01*
X112610015Y-64862899D01*
X112451385Y-64862899D01*
X112445271Y-64862899D01*
X112445251Y-64862900D01*
X106853129Y-64862900D01*
X106786090Y-64843215D01*
X106765454Y-64826587D01*
X106746928Y-64808062D01*
X106713445Y-64746743D01*
X106718427Y-64677052D01*
X106760297Y-64621117D01*
X106795605Y-64602676D01*
X106819334Y-64594814D01*
X106968656Y-64502712D01*
X107092712Y-64378656D01*
X107184814Y-64229334D01*
X107239999Y-64062797D01*
X107250500Y-63960009D01*
X107250499Y-62909992D01*
X107247546Y-62881088D01*
X107239999Y-62807203D01*
X107239998Y-62807200D01*
X107216036Y-62734889D01*
X107184814Y-62640666D01*
X107092712Y-62491344D01*
X106968656Y-62367288D01*
X106819334Y-62275186D01*
X106673412Y-62226832D01*
X106615967Y-62187059D01*
X106589144Y-62122543D01*
X106596233Y-62065795D01*
X106627798Y-61981165D01*
X106669669Y-61925232D01*
X106735134Y-61900815D01*
X106743952Y-61900499D01*
X109456019Y-61900499D01*
X109523058Y-61920184D01*
G37*
G04 #@! TD.AperFunction*
G04 #@! TA.AperFunction,Conductor*
G36*
X151973339Y-63697185D02*
G01*
X152019094Y-63749989D01*
X152030300Y-63801500D01*
X152030300Y-65142056D01*
X152010615Y-65209095D01*
X151957811Y-65254850D01*
X151888653Y-65264794D01*
X151842151Y-65248173D01*
X151814608Y-65231523D01*
X151814607Y-65231522D01*
X151814606Y-65231522D01*
X151652196Y-65180914D01*
X151652194Y-65180913D01*
X151652192Y-65180913D01*
X151602778Y-65176423D01*
X151581616Y-65174500D01*
X151068384Y-65174500D01*
X151049145Y-65176248D01*
X150997807Y-65180913D01*
X150835393Y-65231522D01*
X150689811Y-65319530D01*
X150689810Y-65319531D01*
X150587681Y-65421661D01*
X150526358Y-65455146D01*
X150456666Y-65450162D01*
X150412319Y-65421661D01*
X150310188Y-65319530D01*
X150263518Y-65291317D01*
X150164606Y-65231522D01*
X150002196Y-65180914D01*
X150002194Y-65180913D01*
X150002192Y-65180913D01*
X149952778Y-65176423D01*
X149931616Y-65174500D01*
X149418384Y-65174500D01*
X149399145Y-65176248D01*
X149347807Y-65180913D01*
X149185393Y-65231522D01*
X149039813Y-65319529D01*
X148920916Y-65438426D01*
X148859593Y-65471910D01*
X148789901Y-65466926D01*
X148733968Y-65425054D01*
X148709551Y-65359590D01*
X148724403Y-65291317D01*
X148726486Y-65287651D01*
X148801744Y-65160398D01*
X148847598Y-65002569D01*
X148850500Y-64965694D01*
X148850500Y-64450781D01*
X148870185Y-64383742D01*
X148886819Y-64363100D01*
X149536100Y-63713819D01*
X149597423Y-63680334D01*
X149623781Y-63677500D01*
X151906300Y-63677500D01*
X151973339Y-63697185D01*
G37*
G04 #@! TD.AperFunction*
G04 #@! TA.AperFunction,Conductor*
G36*
X146021367Y-49981803D02*
G01*
X146065713Y-50010303D01*
X146744141Y-50688732D01*
X146744142Y-50688733D01*
X146791129Y-50735720D01*
X146831268Y-50775859D01*
X146933707Y-50844307D01*
X146933713Y-50844310D01*
X146933714Y-50844311D01*
X147047548Y-50891463D01*
X147079056Y-50897730D01*
X147107484Y-50903385D01*
X147107504Y-50903388D01*
X147107526Y-50903393D01*
X147168391Y-50915499D01*
X147168392Y-50915500D01*
X147168393Y-50915500D01*
X147168394Y-50915500D01*
X147524906Y-50915500D01*
X147591945Y-50935185D01*
X147618618Y-50958296D01*
X147619020Y-50958760D01*
X147657209Y-51002832D01*
X147685250Y-51027129D01*
X147765864Y-51096981D01*
X147765867Y-51096984D01*
X147765869Y-51096985D01*
X147765870Y-51096986D01*
X147886906Y-51174770D01*
X147886914Y-51174774D01*
X147886923Y-51174779D01*
X148011642Y-51231736D01*
X148015941Y-51233985D01*
X148017692Y-51234499D01*
X148155744Y-51275035D01*
X148155745Y-51275035D01*
X148155748Y-51275036D01*
X148198183Y-51281136D01*
X148298059Y-51295497D01*
X148354399Y-51295497D01*
X148354409Y-51295500D01*
X148405764Y-51295500D01*
X148885573Y-51295500D01*
X148885601Y-51295497D01*
X148941940Y-51295497D01*
X148941941Y-51295497D01*
X149075479Y-51276297D01*
X149075481Y-51276297D01*
X149081612Y-51275415D01*
X149084256Y-51275035D01*
X149084257Y-51275035D01*
X149222309Y-51234498D01*
X149353094Y-51174770D01*
X149474130Y-51096986D01*
X149582791Y-51002832D01*
X149582794Y-51002829D01*
X149677015Y-50894091D01*
X149749390Y-50781472D01*
X149802191Y-50735720D01*
X149871349Y-50725776D01*
X149877877Y-50726894D01*
X150020683Y-50755299D01*
X150020684Y-50755300D01*
X150020685Y-50755300D01*
X150090685Y-50755300D01*
X150095404Y-50755565D01*
X150100000Y-50755565D01*
X150104596Y-50755565D01*
X150109315Y-50755300D01*
X150715072Y-50755300D01*
X150782111Y-50774985D01*
X150802753Y-50791619D01*
X151993981Y-51982847D01*
X152027466Y-52044170D01*
X152030300Y-52070528D01*
X152030300Y-62280919D01*
X152010615Y-62347958D01*
X151993981Y-62368600D01*
X151976400Y-62386181D01*
X151915077Y-62419666D01*
X151888719Y-62422500D01*
X149250692Y-62422500D01*
X149129473Y-62446611D01*
X149129473Y-62446612D01*
X149129470Y-62446613D01*
X149129466Y-62446614D01*
X149062570Y-62474323D01*
X149062568Y-62474323D01*
X149015270Y-62493915D01*
X148912489Y-62562590D01*
X148428121Y-63046958D01*
X148366798Y-63080443D01*
X148308811Y-63078457D01*
X148308796Y-63078540D01*
X148308235Y-63078437D01*
X148305852Y-63078356D01*
X148302569Y-63077402D01*
X148302563Y-63077401D01*
X148265701Y-63074500D01*
X148265694Y-63074500D01*
X147834306Y-63074500D01*
X147834298Y-63074500D01*
X147797432Y-63077401D01*
X147797426Y-63077402D01*
X147639606Y-63123254D01*
X147639603Y-63123255D01*
X147498137Y-63206917D01*
X147498129Y-63206923D01*
X147381923Y-63323129D01*
X147381917Y-63323137D01*
X147298255Y-63464603D01*
X147298253Y-63464606D01*
X147260198Y-63595595D01*
X147222592Y-63654481D01*
X147159119Y-63683687D01*
X147141122Y-63685000D01*
X147058878Y-63685000D01*
X146991839Y-63665315D01*
X146946084Y-63612511D01*
X146939802Y-63595595D01*
X146901746Y-63464606D01*
X146901744Y-63464603D01*
X146901744Y-63464602D01*
X146818081Y-63323135D01*
X146818079Y-63323133D01*
X146818076Y-63323129D01*
X146701870Y-63206923D01*
X146701862Y-63206917D01*
X146564223Y-63125518D01*
X146560398Y-63123256D01*
X146560397Y-63123255D01*
X146560396Y-63123255D01*
X146560393Y-63123254D01*
X146402573Y-63077402D01*
X146402567Y-63077401D01*
X146365701Y-63074500D01*
X146365694Y-63074500D01*
X145934306Y-63074500D01*
X145934298Y-63074500D01*
X145897432Y-63077401D01*
X145897426Y-63077402D01*
X145734095Y-63124855D01*
X145664225Y-63124656D01*
X145605555Y-63086714D01*
X145576712Y-63023075D01*
X145575500Y-63005779D01*
X145575500Y-62393629D01*
X145595185Y-62326590D01*
X145611810Y-62305957D01*
X145724969Y-62192797D01*
X145786288Y-62159315D01*
X145798745Y-62157263D01*
X145845844Y-62151957D01*
X146016111Y-62092378D01*
X146168851Y-61996405D01*
X146296405Y-61868851D01*
X146392378Y-61716111D01*
X146451957Y-61545844D01*
X146453820Y-61529310D01*
X146472154Y-61366592D01*
X146472154Y-61366586D01*
X146470269Y-61349858D01*
X146482323Y-61281036D01*
X146529672Y-61229657D01*
X146597282Y-61212032D01*
X146647298Y-61224258D01*
X146650472Y-61225787D01*
X146820745Y-61285368D01*
X146820750Y-61285369D01*
X146999996Y-61305565D01*
X147000000Y-61305565D01*
X147000004Y-61305565D01*
X147179249Y-61285369D01*
X147179252Y-61285368D01*
X147179255Y-61285368D01*
X147349522Y-61225789D01*
X147502262Y-61129816D01*
X147629816Y-61002262D01*
X147725789Y-60849522D01*
X147785368Y-60679255D01*
X147785369Y-60679249D01*
X147805565Y-60500003D01*
X147805565Y-60499996D01*
X147785369Y-60320750D01*
X147785368Y-60320745D01*
X147723489Y-60143905D01*
X147725484Y-60143206D01*
X147715799Y-60084348D01*
X147743528Y-60020216D01*
X147801528Y-59981256D01*
X147838870Y-59975500D01*
X148939548Y-59975500D01*
X149006587Y-59995185D01*
X149027229Y-60011819D01*
X149073787Y-60058377D01*
X149107272Y-60119700D01*
X149109326Y-60132173D01*
X149114630Y-60179249D01*
X149174210Y-60349521D01*
X149224339Y-60429300D01*
X149270184Y-60502262D01*
X149397738Y-60629816D01*
X149550478Y-60725789D01*
X149702546Y-60779000D01*
X149720745Y-60785368D01*
X149720750Y-60785369D01*
X149899996Y-60805565D01*
X149900000Y-60805565D01*
X149900004Y-60805565D01*
X150079249Y-60785369D01*
X150079252Y-60785368D01*
X150079255Y-60785368D01*
X150249522Y-60725789D01*
X150402262Y-60629816D01*
X150529816Y-60502262D01*
X150625789Y-60349522D01*
X150685368Y-60179255D01*
X150685430Y-60178704D01*
X150705565Y-60000003D01*
X150705565Y-59999996D01*
X150685369Y-59820750D01*
X150685368Y-59820745D01*
X150660170Y-59748733D01*
X150625789Y-59650478D01*
X150623947Y-59647547D01*
X150568157Y-59558757D01*
X150529816Y-59497738D01*
X150402262Y-59370184D01*
X150370897Y-59350476D01*
X150249521Y-59274210D01*
X150079249Y-59214630D01*
X150032173Y-59209326D01*
X149967759Y-59182259D01*
X149958377Y-59173787D01*
X149740198Y-58955608D01*
X149740178Y-58955586D01*
X149648736Y-58864144D01*
X149648728Y-58864138D01*
X149571741Y-58812697D01*
X149571739Y-58812695D01*
X149571739Y-58812696D01*
X149546286Y-58795688D01*
X149546284Y-58795687D01*
X149546281Y-58795685D01*
X149446904Y-58754523D01*
X149432455Y-58748538D01*
X149432453Y-58748537D01*
X149432452Y-58748537D01*
X149372029Y-58736518D01*
X149311610Y-58724500D01*
X149311607Y-58724500D01*
X149311606Y-58724500D01*
X145538870Y-58724500D01*
X145471831Y-58704815D01*
X145426076Y-58652011D01*
X145416132Y-58582853D01*
X145424207Y-58556347D01*
X145423489Y-58556096D01*
X145451086Y-58477228D01*
X145485368Y-58379255D01*
X145490672Y-58332173D01*
X145517737Y-58267763D01*
X145526201Y-58258387D01*
X145698729Y-58085860D01*
X145698733Y-58085858D01*
X145785858Y-57998733D01*
X145819932Y-57947738D01*
X145825367Y-57939604D01*
X145825368Y-57939603D01*
X145854309Y-57896290D01*
X145854312Y-57896286D01*
X145893588Y-57801463D01*
X145901463Y-57782452D01*
X145925500Y-57661606D01*
X145925500Y-51674849D01*
X145945185Y-51607810D01*
X145949718Y-51601430D01*
X145950468Y-51600188D01*
X145950472Y-51600185D01*
X146038478Y-51454606D01*
X146089086Y-51292196D01*
X146095500Y-51221616D01*
X146095500Y-50708384D01*
X146089086Y-50637804D01*
X146038478Y-50475394D01*
X145950472Y-50329815D01*
X145950470Y-50329813D01*
X145950469Y-50329811D01*
X145848338Y-50227680D01*
X145814853Y-50166357D01*
X145819837Y-50096665D01*
X145848336Y-50052320D01*
X145890354Y-50010302D01*
X145951675Y-49976819D01*
X146021367Y-49981803D01*
G37*
G04 #@! TD.AperFunction*
G04 #@! TA.AperFunction,Conductor*
G36*
X126762683Y-56322963D02*
G01*
X126799403Y-56382406D01*
X126803312Y-56426433D01*
X126799500Y-56468385D01*
X126799500Y-57131613D01*
X126805913Y-57202192D01*
X126805913Y-57202194D01*
X126805914Y-57202196D01*
X126856522Y-57364606D01*
X126912246Y-57456785D01*
X126944530Y-57510188D01*
X126949157Y-57516094D01*
X126948170Y-57516866D01*
X126978001Y-57571497D01*
X126973017Y-57641189D01*
X126944517Y-57685536D01*
X126831920Y-57798133D01*
X126831917Y-57798137D01*
X126748255Y-57939603D01*
X126748255Y-57939604D01*
X126702402Y-58097426D01*
X126702401Y-58097432D01*
X126699500Y-58134298D01*
X126699500Y-58565701D01*
X126702401Y-58602567D01*
X126702402Y-58602573D01*
X126748254Y-58760393D01*
X126748255Y-58760396D01*
X126748256Y-58760398D01*
X126769125Y-58795685D01*
X126831917Y-58901862D01*
X126831923Y-58901870D01*
X126948129Y-59018076D01*
X126948133Y-59018079D01*
X126948135Y-59018081D01*
X127089602Y-59101744D01*
X127131224Y-59113836D01*
X127247426Y-59147597D01*
X127247429Y-59147597D01*
X127247431Y-59147598D01*
X127284306Y-59150500D01*
X127746842Y-59150500D01*
X127771031Y-59152882D01*
X127783185Y-59155300D01*
X127783186Y-59155300D01*
X127941814Y-59155300D01*
X127941815Y-59155300D01*
X127953968Y-59152882D01*
X127978158Y-59150500D01*
X128440686Y-59150500D01*
X128440694Y-59150500D01*
X128477569Y-59147598D01*
X128477571Y-59147597D01*
X128477573Y-59147597D01*
X128579806Y-59117895D01*
X128635398Y-59101744D01*
X128760048Y-59028026D01*
X128783580Y-59014110D01*
X128784655Y-59015928D01*
X128839532Y-58994381D01*
X128908050Y-59008059D01*
X128958296Y-59056609D01*
X128974500Y-59117895D01*
X128974500Y-59482104D01*
X128954815Y-59549143D01*
X128902011Y-59594898D01*
X128832853Y-59604842D01*
X128784502Y-59584330D01*
X128783580Y-59585890D01*
X128673998Y-59521084D01*
X128635398Y-59498256D01*
X128635397Y-59498255D01*
X128635396Y-59498255D01*
X128635393Y-59498254D01*
X128477573Y-59452402D01*
X128477567Y-59452401D01*
X128440701Y-59449500D01*
X128440694Y-59449500D01*
X127978158Y-59449500D01*
X127953968Y-59447117D01*
X127941815Y-59444700D01*
X127941814Y-59444700D01*
X125374499Y-59444700D01*
X125307460Y-59425015D01*
X125261705Y-59372211D01*
X125250499Y-59320700D01*
X125250499Y-58502129D01*
X125250498Y-58502123D01*
X125250497Y-58502116D01*
X125244091Y-58442517D01*
X125243491Y-58440909D01*
X125193797Y-58307671D01*
X125193793Y-58307664D01*
X125107547Y-58192455D01*
X125107544Y-58192452D01*
X125019519Y-58126556D01*
X124977648Y-58070622D01*
X124972664Y-58000931D01*
X125006150Y-57939608D01*
X125018390Y-57929563D01*
X125018241Y-57929382D01*
X125022944Y-57925520D01*
X125022949Y-57925518D01*
X125135118Y-57813349D01*
X125135118Y-57813347D01*
X125145326Y-57803140D01*
X125145327Y-57803137D01*
X126525518Y-56422949D01*
X126576719Y-56346321D01*
X126630331Y-56301516D01*
X126699655Y-56292809D01*
X126762683Y-56322963D01*
G37*
G04 #@! TD.AperFunction*
G04 #@! TA.AperFunction,Conductor*
G36*
X132410503Y-56204868D02*
G01*
X132416981Y-56210900D01*
X135243900Y-59037819D01*
X135277385Y-59099142D01*
X135272401Y-59168834D01*
X135230529Y-59224767D01*
X135165065Y-59249184D01*
X135156219Y-59249500D01*
X132802129Y-59249500D01*
X132802123Y-59249501D01*
X132742516Y-59255908D01*
X132607671Y-59306202D01*
X132607664Y-59306206D01*
X132492455Y-59392452D01*
X132492452Y-59392455D01*
X132428566Y-59477796D01*
X132372632Y-59519667D01*
X132302941Y-59524651D01*
X132241618Y-59491165D01*
X132208134Y-59429842D01*
X132205300Y-59403485D01*
X132205300Y-57435449D01*
X132205301Y-57435428D01*
X132205301Y-57265574D01*
X132205300Y-57265548D01*
X132205300Y-56298581D01*
X132224985Y-56231542D01*
X132277789Y-56185787D01*
X132346947Y-56175843D01*
X132410503Y-56204868D01*
G37*
G04 #@! TD.AperFunction*
G04 #@! TA.AperFunction,Conductor*
G36*
X118907728Y-58050587D02*
G01*
X118909341Y-58051256D01*
X118909364Y-58051274D01*
X118909368Y-58051267D01*
X118965102Y-58074353D01*
X119081124Y-58097431D01*
X119120679Y-58105299D01*
X119120683Y-58105300D01*
X119120684Y-58105300D01*
X119120685Y-58105300D01*
X120709975Y-58105300D01*
X120777014Y-58124985D01*
X120822769Y-58177789D01*
X120832713Y-58246947D01*
X120809241Y-58303612D01*
X120806204Y-58307668D01*
X120806202Y-58307671D01*
X120755908Y-58442517D01*
X120753353Y-58466286D01*
X120749501Y-58502123D01*
X120749500Y-58502135D01*
X120749500Y-58570700D01*
X120729815Y-58637739D01*
X120677011Y-58683494D01*
X120625500Y-58694700D01*
X118924499Y-58694700D01*
X118857460Y-58675015D01*
X118811705Y-58622211D01*
X118800499Y-58570700D01*
X118800499Y-58449998D01*
X118800498Y-58449981D01*
X118789999Y-58347203D01*
X118776899Y-58307671D01*
X118742599Y-58204162D01*
X118740198Y-58134337D01*
X118775929Y-58074295D01*
X118838450Y-58043102D01*
X118907728Y-58050587D01*
G37*
G04 #@! TD.AperFunction*
G04 #@! TA.AperFunction,Conductor*
G36*
X140268247Y-52370011D02*
G01*
X140314678Y-52399268D01*
X140588181Y-52672771D01*
X140621666Y-52734094D01*
X140624500Y-52760452D01*
X140624500Y-58219093D01*
X140604815Y-58286132D01*
X140552011Y-58331887D01*
X140484261Y-58341628D01*
X140484256Y-58341683D01*
X140484034Y-58341661D01*
X140482853Y-58341831D01*
X140478911Y-58341156D01*
X140478194Y-58341086D01*
X140478193Y-58341086D01*
X140478192Y-58341086D01*
X138293867Y-58341086D01*
X138226828Y-58321401D01*
X138206186Y-58304767D01*
X134388600Y-54487181D01*
X134355115Y-54425858D01*
X134360099Y-54356166D01*
X134401971Y-54300233D01*
X134467435Y-54275816D01*
X134476281Y-54275500D01*
X136489548Y-54275500D01*
X136556587Y-54295185D01*
X136577229Y-54311819D01*
X138498787Y-56233377D01*
X138532272Y-56294700D01*
X138534326Y-56307173D01*
X138539630Y-56354249D01*
X138599210Y-56524521D01*
X138671668Y-56639837D01*
X138695184Y-56677262D01*
X138822738Y-56804816D01*
X138847244Y-56820214D01*
X138965365Y-56894435D01*
X138975478Y-56900789D01*
X139048110Y-56926204D01*
X139145745Y-56960368D01*
X139145750Y-56960369D01*
X139324996Y-56980565D01*
X139325000Y-56980565D01*
X139325004Y-56980565D01*
X139504249Y-56960369D01*
X139504252Y-56960368D01*
X139504255Y-56960368D01*
X139674522Y-56900789D01*
X139827262Y-56804816D01*
X139954816Y-56677262D01*
X140050789Y-56524522D01*
X140110368Y-56354255D01*
X140115673Y-56307173D01*
X140130565Y-56175003D01*
X140130565Y-56174996D01*
X140110369Y-55995750D01*
X140110368Y-55995745D01*
X140066058Y-55869114D01*
X140050789Y-55825478D01*
X140034818Y-55800061D01*
X140010672Y-55761633D01*
X139954816Y-55672738D01*
X139827262Y-55545184D01*
X139760919Y-55503498D01*
X139674521Y-55449210D01*
X139504249Y-55389630D01*
X139457173Y-55384326D01*
X139392759Y-55357259D01*
X139383377Y-55348787D01*
X138071771Y-54037181D01*
X138038286Y-53975858D01*
X138043270Y-53906166D01*
X138085142Y-53850233D01*
X138150606Y-53825816D01*
X138159452Y-53825500D01*
X138661608Y-53825500D01*
X138661608Y-53825499D01*
X138731232Y-53811651D01*
X138731234Y-53811651D01*
X138757016Y-53806522D01*
X138782452Y-53801463D01*
X138816956Y-53787171D01*
X138896286Y-53754312D01*
X138960198Y-53711606D01*
X138998733Y-53685858D01*
X139085858Y-53598733D01*
X139085859Y-53598731D01*
X139092925Y-53591665D01*
X139092928Y-53591661D01*
X139898729Y-52785860D01*
X139898733Y-52785858D01*
X139985858Y-52698733D01*
X140054311Y-52596286D01*
X140101463Y-52482452D01*
X140105380Y-52462759D01*
X140137763Y-52400849D01*
X140198477Y-52366273D01*
X140268247Y-52370011D01*
G37*
G04 #@! TD.AperFunction*
G04 #@! TA.AperFunction,Conductor*
G36*
X130430703Y-55370015D02*
G01*
X130437181Y-55376047D01*
X130558381Y-55497247D01*
X130591866Y-55558570D01*
X130594700Y-55584928D01*
X130594700Y-56965071D01*
X130575015Y-57032110D01*
X130558381Y-57052752D01*
X130097953Y-57513181D01*
X130036630Y-57546666D01*
X130010272Y-57549500D01*
X129559298Y-57549500D01*
X129522432Y-57552401D01*
X129522426Y-57552402D01*
X129364606Y-57598254D01*
X129364603Y-57598255D01*
X129223137Y-57681917D01*
X129223129Y-57681923D01*
X129106923Y-57798129D01*
X129106914Y-57798140D01*
X129106729Y-57798455D01*
X129106519Y-57798650D01*
X129102139Y-57804298D01*
X129101227Y-57803591D01*
X129055657Y-57846136D01*
X128986915Y-57858637D01*
X128922327Y-57831988D01*
X128898143Y-57804078D01*
X128897861Y-57804298D01*
X128893823Y-57799092D01*
X128893271Y-57798455D01*
X128893085Y-57798140D01*
X128893076Y-57798129D01*
X128776870Y-57681923D01*
X128776859Y-57681914D01*
X128728678Y-57653420D01*
X128680995Y-57602351D01*
X128667800Y-57546689D01*
X128667800Y-57047950D01*
X128667801Y-57047929D01*
X128667801Y-56883184D01*
X128667800Y-56883180D01*
X128666354Y-56875909D01*
X128636854Y-56727603D01*
X128636852Y-56727598D01*
X128609939Y-56662623D01*
X128600500Y-56615171D01*
X128600500Y-56468386D01*
X128597023Y-56430125D01*
X128594086Y-56397804D01*
X128543478Y-56235394D01*
X128524243Y-56203576D01*
X128506407Y-56136023D01*
X128527924Y-56069550D01*
X128581964Y-56025261D01*
X128651369Y-56017220D01*
X128694508Y-56033309D01*
X128835394Y-56118478D01*
X128997804Y-56169086D01*
X129068384Y-56175500D01*
X129068387Y-56175500D01*
X129581613Y-56175500D01*
X129581616Y-56175500D01*
X129652196Y-56169086D01*
X129814606Y-56118478D01*
X129960185Y-56030472D01*
X130080472Y-55910185D01*
X130168478Y-55764606D01*
X130219086Y-55602196D01*
X130225500Y-55531616D01*
X130225500Y-55463728D01*
X130245185Y-55396689D01*
X130297989Y-55350934D01*
X130367147Y-55340990D01*
X130430703Y-55370015D01*
G37*
G04 #@! TD.AperFunction*
G04 #@! TA.AperFunction,Conductor*
G36*
X107210503Y-36407840D02*
G01*
X107235414Y-36437400D01*
X107294528Y-36535185D01*
X107294530Y-36535188D01*
X107414811Y-36655469D01*
X107414813Y-36655470D01*
X107414815Y-36655472D01*
X107560394Y-36743478D01*
X107722804Y-36794086D01*
X107793384Y-36800500D01*
X107793387Y-36800500D01*
X108456613Y-36800500D01*
X108456616Y-36800500D01*
X108527196Y-36794086D01*
X108689606Y-36743478D01*
X108835185Y-36655472D01*
X108835189Y-36655467D01*
X108835192Y-36655466D01*
X108839765Y-36651885D01*
X108904678Y-36626039D01*
X108916232Y-36625500D01*
X108976420Y-36625500D01*
X109043459Y-36645185D01*
X109081414Y-36683528D01*
X109173915Y-36830742D01*
X109255492Y-36912319D01*
X109288977Y-36973642D01*
X109283993Y-37043334D01*
X109255492Y-37087681D01*
X109173915Y-37169257D01*
X109075845Y-37325334D01*
X109014961Y-37499328D01*
X108999500Y-37636557D01*
X108999500Y-38363442D01*
X109014961Y-38500671D01*
X109075845Y-38674665D01*
X109173915Y-38830742D01*
X109255492Y-38912319D01*
X109288977Y-38973642D01*
X109283993Y-39043334D01*
X109255492Y-39087681D01*
X109173915Y-39169257D01*
X109075845Y-39325334D01*
X109014961Y-39499328D01*
X108999500Y-39636557D01*
X108999500Y-40363442D01*
X109014961Y-40500671D01*
X109056955Y-40620682D01*
X109072202Y-40664256D01*
X109075845Y-40674665D01*
X109173915Y-40830742D01*
X109255492Y-40912319D01*
X109288977Y-40973642D01*
X109283993Y-41043334D01*
X109255492Y-41087681D01*
X109173915Y-41169257D01*
X109075845Y-41325334D01*
X109014961Y-41499328D01*
X108999500Y-41636557D01*
X108999500Y-42363442D01*
X109014961Y-42500671D01*
X109075845Y-42674665D01*
X109173915Y-42830742D01*
X109255492Y-42912319D01*
X109288977Y-42973642D01*
X109283993Y-43043334D01*
X109255492Y-43087681D01*
X109173915Y-43169257D01*
X109075845Y-43325334D01*
X109014961Y-43499328D01*
X108999500Y-43636557D01*
X108999500Y-44363442D01*
X109014961Y-44500671D01*
X109040789Y-44574482D01*
X109075170Y-44672738D01*
X109075845Y-44674665D01*
X109083378Y-44686654D01*
X109173915Y-44830742D01*
X109304258Y-44961085D01*
X109460337Y-45059156D01*
X109592559Y-45105422D01*
X109634328Y-45120038D01*
X109722090Y-45129925D01*
X109771557Y-45135499D01*
X109771558Y-45135500D01*
X109771562Y-45135500D01*
X112178442Y-45135500D01*
X112178442Y-45135499D01*
X112240673Y-45128487D01*
X112315671Y-45120038D01*
X112327334Y-45115957D01*
X112489663Y-45059156D01*
X112489665Y-45059154D01*
X112489667Y-45059154D01*
X112495939Y-45056134D01*
X112496985Y-45058307D01*
X112553348Y-45042360D01*
X112620190Y-45062704D01*
X112665423Y-45115957D01*
X112675346Y-45152470D01*
X112689630Y-45279250D01*
X112689631Y-45279254D01*
X112749211Y-45449523D01*
X112796337Y-45524523D01*
X112845184Y-45602262D01*
X112972738Y-45729816D01*
X113012005Y-45754489D01*
X113104102Y-45812358D01*
X113125478Y-45825789D01*
X113295745Y-45885368D01*
X113295750Y-45885369D01*
X113474997Y-45905565D01*
X113475000Y-45905565D01*
X113537937Y-45898473D01*
X113576016Y-45900077D01*
X113588194Y-45902500D01*
X113588196Y-45902500D01*
X113588197Y-45902500D01*
X119097823Y-45902500D01*
X119164862Y-45922185D01*
X119185504Y-45938819D01*
X119607504Y-46360819D01*
X119640989Y-46422142D01*
X119636005Y-46491834D01*
X119594133Y-46547767D01*
X119528669Y-46572184D01*
X119519823Y-46572500D01*
X116937097Y-46572500D01*
X116871124Y-46553493D01*
X116824524Y-46524211D01*
X116654254Y-46464631D01*
X116654249Y-46464630D01*
X116475004Y-46444435D01*
X116474996Y-46444435D01*
X116295750Y-46464630D01*
X116295745Y-46464631D01*
X116125476Y-46524211D01*
X115972737Y-46620184D01*
X115845184Y-46747737D01*
X115749211Y-46900476D01*
X115689631Y-47070745D01*
X115689630Y-47070750D01*
X115669435Y-47249996D01*
X115669435Y-47250003D01*
X115689630Y-47429249D01*
X115689632Y-47429257D01*
X115735922Y-47561546D01*
X115739483Y-47631324D01*
X115704754Y-47691952D01*
X115642761Y-47724179D01*
X115618880Y-47726500D01*
X109740281Y-47726500D01*
X109673242Y-47706815D01*
X109652600Y-47690181D01*
X109171733Y-47209314D01*
X109138248Y-47147991D01*
X109142372Y-47080682D01*
X109160368Y-47029255D01*
X109180565Y-46850000D01*
X109178395Y-46830742D01*
X109160369Y-46670750D01*
X109160368Y-46670745D01*
X109148427Y-46636619D01*
X109100789Y-46500478D01*
X109078265Y-46464632D01*
X109032412Y-46391657D01*
X109004816Y-46347738D01*
X108877262Y-46220184D01*
X108802803Y-46173398D01*
X108724523Y-46124211D01*
X108554254Y-46064631D01*
X108554249Y-46064630D01*
X108375004Y-46044435D01*
X108374996Y-46044435D01*
X108195750Y-46064630D01*
X108195745Y-46064631D01*
X108025476Y-46124211D01*
X107872737Y-46220184D01*
X107745184Y-46347737D01*
X107649211Y-46500476D01*
X107589631Y-46670745D01*
X107589630Y-46670750D01*
X107569435Y-46849996D01*
X107569435Y-46850003D01*
X107589630Y-47029249D01*
X107589631Y-47029254D01*
X107649211Y-47199523D01*
X107733632Y-47333877D01*
X107750255Y-47375658D01*
X107771612Y-47483027D01*
X107771614Y-47483035D01*
X107798206Y-47547232D01*
X107818917Y-47597233D01*
X107873948Y-47679593D01*
X107873949Y-47679595D01*
X107887588Y-47700007D01*
X107887593Y-47700013D01*
X108941589Y-48754008D01*
X109028992Y-48841411D01*
X109028993Y-48841412D01*
X109131760Y-48910079D01*
X109131773Y-48910086D01*
X109245960Y-48957383D01*
X109245965Y-48957385D01*
X109245969Y-48957385D01*
X109245970Y-48957386D01*
X109367194Y-48981500D01*
X109367197Y-48981500D01*
X120892719Y-48981500D01*
X120959758Y-49001185D01*
X120980400Y-49017819D01*
X121925400Y-49962819D01*
X121958885Y-50024142D01*
X121953901Y-50093834D01*
X121912029Y-50149767D01*
X121846565Y-50174184D01*
X121837719Y-50174500D01*
X121349998Y-50174500D01*
X121349980Y-50174501D01*
X121247203Y-50185000D01*
X121247200Y-50185001D01*
X121080668Y-50240185D01*
X121080663Y-50240187D01*
X120931342Y-50332289D01*
X120807289Y-50456342D01*
X120715187Y-50605663D01*
X120715185Y-50605668D01*
X120704476Y-50637986D01*
X120660001Y-50772203D01*
X120660001Y-50772204D01*
X120660000Y-50772204D01*
X120649500Y-50874983D01*
X120649500Y-51925001D01*
X120649501Y-51925019D01*
X120660000Y-52027796D01*
X120660001Y-52027799D01*
X120715185Y-52194331D01*
X120715187Y-52194336D01*
X120730235Y-52218733D01*
X120807288Y-52343656D01*
X120931344Y-52467712D01*
X120955241Y-52482452D01*
X120956190Y-52483037D01*
X121002915Y-52534985D01*
X121014138Y-52603947D01*
X120986295Y-52668029D01*
X120965405Y-52687842D01*
X120892455Y-52742452D01*
X120892452Y-52742455D01*
X120806206Y-52857664D01*
X120806202Y-52857671D01*
X120755908Y-52992517D01*
X120749501Y-53052116D01*
X120749500Y-53052135D01*
X120749500Y-56097870D01*
X120749501Y-56097876D01*
X120755908Y-56157483D01*
X120806202Y-56292328D01*
X120806204Y-56292331D01*
X120809241Y-56296388D01*
X120833659Y-56361852D01*
X120818808Y-56430125D01*
X120769403Y-56479531D01*
X120709975Y-56494700D01*
X119584928Y-56494700D01*
X119517889Y-56475015D01*
X119497247Y-56458381D01*
X118836818Y-55797952D01*
X118803333Y-55736629D01*
X118800499Y-55710271D01*
X118800499Y-54449998D01*
X118800498Y-54449981D01*
X118789999Y-54347203D01*
X118789998Y-54347200D01*
X118778274Y-54311819D01*
X118734814Y-54180666D01*
X118642712Y-54031344D01*
X118518656Y-53907288D01*
X118369334Y-53815186D01*
X118290294Y-53788994D01*
X118232850Y-53749222D01*
X118206028Y-53684705D01*
X118205300Y-53671289D01*
X118205300Y-52482430D01*
X118224985Y-52415391D01*
X118241619Y-52394749D01*
X118266357Y-52370011D01*
X118292712Y-52343656D01*
X118384814Y-52194334D01*
X118439999Y-52027797D01*
X118450500Y-51925009D01*
X118450499Y-50874992D01*
X118450447Y-50874486D01*
X118439999Y-50772203D01*
X118439998Y-50772200D01*
X118434398Y-50755300D01*
X118384814Y-50605666D01*
X118292712Y-50456344D01*
X118168656Y-50332288D01*
X118026970Y-50244896D01*
X118019336Y-50240187D01*
X118019331Y-50240185D01*
X117981593Y-50227680D01*
X117852797Y-50185001D01*
X117852795Y-50185000D01*
X117750010Y-50174500D01*
X117149998Y-50174500D01*
X117149980Y-50174501D01*
X117047203Y-50185000D01*
X117047200Y-50185001D01*
X116880668Y-50240185D01*
X116880663Y-50240187D01*
X116731342Y-50332289D01*
X116607289Y-50456342D01*
X116515187Y-50605663D01*
X116515185Y-50605668D01*
X116504476Y-50637986D01*
X116460001Y-50772203D01*
X116460001Y-50772204D01*
X116460000Y-50772204D01*
X116449500Y-50874983D01*
X116449500Y-51925001D01*
X116449501Y-51925019D01*
X116460000Y-52027796D01*
X116460001Y-52027799D01*
X116476381Y-52077229D01*
X116515186Y-52194334D01*
X116576239Y-52293317D01*
X116594700Y-52358413D01*
X116594700Y-53538517D01*
X116575015Y-53605556D01*
X116522211Y-53651311D01*
X116453053Y-53661255D01*
X116446519Y-53660136D01*
X116444324Y-53659699D01*
X116444315Y-53659699D01*
X116285685Y-53659699D01*
X116279571Y-53659699D01*
X116279551Y-53659700D01*
X113549330Y-53659700D01*
X113482291Y-53640015D01*
X113447755Y-53606824D01*
X113442087Y-53598729D01*
X113438495Y-53593599D01*
X113316567Y-53471671D01*
X113283084Y-53410351D01*
X113288068Y-53340659D01*
X113329939Y-53284725D01*
X113360915Y-53267810D01*
X113492331Y-53218796D01*
X113607546Y-53132546D01*
X113693796Y-53017331D01*
X113744091Y-52882483D01*
X113750500Y-52822873D01*
X113750499Y-51027128D01*
X113744091Y-50967517D01*
X113726458Y-50920241D01*
X113693797Y-50832671D01*
X113693793Y-50832664D01*
X113607547Y-50717455D01*
X113607544Y-50717452D01*
X113492335Y-50631206D01*
X113492328Y-50631202D01*
X113357482Y-50580908D01*
X113357483Y-50580908D01*
X113297883Y-50574501D01*
X113297881Y-50574500D01*
X113297873Y-50574500D01*
X113297864Y-50574500D01*
X111502129Y-50574500D01*
X111502123Y-50574501D01*
X111442516Y-50580908D01*
X111307671Y-50631202D01*
X111307664Y-50631206D01*
X111192455Y-50717452D01*
X111192452Y-50717455D01*
X111106206Y-50832664D01*
X111106202Y-50832671D01*
X111059348Y-50958296D01*
X111055909Y-50967517D01*
X111051453Y-51008957D01*
X111024717Y-51073506D01*
X110967325Y-51113354D01*
X110928165Y-51119700D01*
X105568528Y-51119700D01*
X105501489Y-51100015D01*
X105455734Y-51047211D01*
X105445790Y-50978053D01*
X105474815Y-50914497D01*
X105480847Y-50908019D01*
X105783203Y-50605663D01*
X106713345Y-49675520D01*
X106713349Y-49675518D01*
X106825518Y-49563349D01*
X106913648Y-49431453D01*
X106974353Y-49284897D01*
X106980552Y-49253733D01*
X106993835Y-49186956D01*
X107005301Y-49129317D01*
X107005301Y-48965574D01*
X107005300Y-48965548D01*
X107005300Y-36501553D01*
X107024985Y-36434514D01*
X107077789Y-36388759D01*
X107146947Y-36378815D01*
X107210503Y-36407840D01*
G37*
G04 #@! TD.AperFunction*
G04 #@! TA.AperFunction,Conductor*
G36*
X135178568Y-49147185D02*
G01*
X135224323Y-49199989D01*
X135234267Y-49269147D01*
X135217068Y-49316596D01*
X135208000Y-49331296D01*
X135207996Y-49331305D01*
X135154651Y-49492290D01*
X135144500Y-49591647D01*
X135144500Y-50138337D01*
X135144501Y-50138355D01*
X135154650Y-50237707D01*
X135154651Y-50237710D01*
X135207996Y-50398694D01*
X135208001Y-50398705D01*
X135297029Y-50543040D01*
X135297032Y-50543044D01*
X135416955Y-50662967D01*
X135416959Y-50662970D01*
X135561294Y-50751998D01*
X135561297Y-50751999D01*
X135561303Y-50752003D01*
X135722292Y-50805349D01*
X135821655Y-50815500D01*
X136418344Y-50815499D01*
X136418352Y-50815498D01*
X136418355Y-50815498D01*
X136472760Y-50809940D01*
X136517708Y-50805349D01*
X136678697Y-50752003D01*
X136823044Y-50662968D01*
X136942968Y-50543044D01*
X136942971Y-50543038D01*
X136947276Y-50537595D01*
X137004296Y-50497215D01*
X137044547Y-50490500D01*
X137082770Y-50490500D01*
X137149809Y-50510185D01*
X137170451Y-50526819D01*
X137176344Y-50532712D01*
X137325666Y-50624814D01*
X137492203Y-50679999D01*
X137594991Y-50690500D01*
X138645008Y-50690499D01*
X138737898Y-50681010D01*
X138806591Y-50693780D01*
X138857476Y-50741660D01*
X138874500Y-50804368D01*
X138874500Y-51989548D01*
X138854815Y-52056587D01*
X138838181Y-52077229D01*
X138377229Y-52538181D01*
X138315906Y-52571666D01*
X138289548Y-52574500D01*
X133800074Y-52574500D01*
X133733035Y-52554815D01*
X133712393Y-52538181D01*
X132132508Y-50958296D01*
X130513391Y-49339180D01*
X130479907Y-49277858D01*
X130484891Y-49208166D01*
X130526763Y-49152233D01*
X130592227Y-49127816D01*
X130601073Y-49127500D01*
X135111529Y-49127500D01*
X135178568Y-49147185D01*
G37*
G04 #@! TD.AperFunction*
G04 #@! TA.AperFunction,Conductor*
G36*
X153542790Y-30019685D02*
G01*
X153588545Y-30072489D01*
X153599751Y-30124248D01*
X153562051Y-48974070D01*
X153542232Y-49041070D01*
X153489337Y-49086719D01*
X153420159Y-49096524D01*
X153356661Y-49067372D01*
X153350370Y-49061503D01*
X152963352Y-48674485D01*
X152963348Y-48674482D01*
X152831450Y-48586350D01*
X152831448Y-48586349D01*
X152684901Y-48525648D01*
X152684891Y-48525645D01*
X152529317Y-48494699D01*
X152529315Y-48494699D01*
X152459306Y-48494699D01*
X152454605Y-48494435D01*
X152445395Y-48494435D01*
X152440694Y-48494699D01*
X152370683Y-48494699D01*
X152215108Y-48525645D01*
X152215098Y-48525648D01*
X152068551Y-48586349D01*
X152068549Y-48586350D01*
X151936651Y-48674482D01*
X151936647Y-48674485D01*
X151824485Y-48786647D01*
X151824482Y-48786651D01*
X151736350Y-48918549D01*
X151736349Y-48918551D01*
X151675648Y-49065098D01*
X151675646Y-49065104D01*
X151667534Y-49105884D01*
X151635147Y-49167794D01*
X151574430Y-49202366D01*
X151504661Y-49198624D01*
X151458236Y-49169370D01*
X150816819Y-48527953D01*
X150783334Y-48466630D01*
X150780500Y-48440272D01*
X150780500Y-46689978D01*
X150780501Y-46689957D01*
X150780501Y-46525212D01*
X150780500Y-46525208D01*
X150775581Y-46500478D01*
X150749554Y-46369631D01*
X150688848Y-46223075D01*
X150688846Y-46223072D01*
X150688844Y-46223068D01*
X150600718Y-46091179D01*
X150600715Y-46091175D01*
X146253260Y-41743722D01*
X146253257Y-41743718D01*
X146253257Y-41743719D01*
X146246190Y-41736652D01*
X146246190Y-41736651D01*
X146134021Y-41624482D01*
X146134020Y-41624481D01*
X146134019Y-41624480D01*
X146002131Y-41536355D01*
X146002118Y-41536348D01*
X145855573Y-41475648D01*
X145855563Y-41475645D01*
X145699989Y-41444699D01*
X145699987Y-41444699D01*
X145541357Y-41444699D01*
X145535243Y-41444699D01*
X145535223Y-41444700D01*
X139734928Y-41444700D01*
X139667889Y-41425015D01*
X139647247Y-41408381D01*
X138313352Y-40074485D01*
X138313348Y-40074482D01*
X138181450Y-39986350D01*
X138181448Y-39986349D01*
X138034901Y-39925648D01*
X138034891Y-39925645D01*
X137879317Y-39894699D01*
X137879315Y-39894699D01*
X137809306Y-39894699D01*
X137804605Y-39894435D01*
X137795395Y-39894435D01*
X137790694Y-39894699D01*
X137720683Y-39894699D01*
X137565108Y-39925645D01*
X137565098Y-39925648D01*
X137418551Y-39986349D01*
X137418549Y-39986350D01*
X137286651Y-40074482D01*
X137286647Y-40074485D01*
X137174485Y-40186647D01*
X137174482Y-40186651D01*
X137086350Y-40318549D01*
X137086349Y-40318551D01*
X137025648Y-40465098D01*
X137025645Y-40465108D01*
X136994699Y-40620682D01*
X136994699Y-40690696D01*
X136994435Y-40695403D01*
X136994435Y-40704605D01*
X136994699Y-40709307D01*
X136994699Y-40779315D01*
X136994699Y-40779317D01*
X136994698Y-40779317D01*
X137025645Y-40934891D01*
X137025648Y-40934901D01*
X137086349Y-41081448D01*
X137086350Y-41081450D01*
X137174482Y-41213348D01*
X137174485Y-41213352D01*
X138650590Y-42689456D01*
X138684075Y-42750779D01*
X138679091Y-42820471D01*
X138650590Y-42864818D01*
X137481270Y-44034139D01*
X137394144Y-44121264D01*
X137394138Y-44121272D01*
X137325690Y-44223708D01*
X137325688Y-44223713D01*
X137295236Y-44297232D01*
X137295236Y-44297234D01*
X137278537Y-44337547D01*
X137271244Y-44374210D01*
X137271245Y-44374211D01*
X137256327Y-44449211D01*
X137254500Y-44458394D01*
X137254500Y-45818837D01*
X137234815Y-45885876D01*
X137218181Y-45906518D01*
X137169351Y-45955347D01*
X137169348Y-45955351D01*
X137084488Y-46095727D01*
X137084485Y-46095736D01*
X137035687Y-46252335D01*
X137035685Y-46252343D01*
X137029500Y-46320406D01*
X137029500Y-47679594D01*
X137035685Y-47747657D01*
X137035686Y-47747662D01*
X137035687Y-47747664D01*
X137084485Y-47904263D01*
X137084488Y-47904272D01*
X137169348Y-48044648D01*
X137169351Y-48044652D01*
X137245941Y-48121242D01*
X137265825Y-48157657D01*
X137288230Y-48162531D01*
X137292952Y-48165246D01*
X137405499Y-48233282D01*
X137425730Y-48245512D01*
X137582343Y-48294315D01*
X137650406Y-48300500D01*
X137650409Y-48300500D01*
X138109591Y-48300500D01*
X138109594Y-48300500D01*
X138177657Y-48294315D01*
X138334270Y-48245512D01*
X138334277Y-48245507D01*
X138341106Y-48242435D01*
X138341619Y-48243574D01*
X138401811Y-48227678D01*
X138468286Y-48249191D01*
X138512578Y-48303228D01*
X138520623Y-48372633D01*
X138489869Y-48435370D01*
X138486096Y-48439312D01*
X138272227Y-48653181D01*
X138210904Y-48686666D01*
X138184546Y-48689500D01*
X137594998Y-48689500D01*
X137594980Y-48689501D01*
X137492203Y-48700000D01*
X137492197Y-48700002D01*
X137490046Y-48700715D01*
X137488641Y-48700763D01*
X137485578Y-48701419D01*
X137485461Y-48700872D01*
X137420218Y-48703113D01*
X137360178Y-48667379D01*
X137334006Y-48623960D01*
X137325790Y-48600479D01*
X137266963Y-48506857D01*
X137229816Y-48447738D01*
X137141122Y-48359044D01*
X137121237Y-48322628D01*
X137098833Y-48317755D01*
X137092288Y-48313917D01*
X136949521Y-48224210D01*
X136801849Y-48172538D01*
X136779255Y-48164632D01*
X136779254Y-48164631D01*
X136779249Y-48164630D01*
X136735361Y-48159685D01*
X136670948Y-48132617D01*
X136661566Y-48124146D01*
X136550011Y-48012591D01*
X136550006Y-48012587D01*
X136507975Y-47984504D01*
X136507973Y-47984502D01*
X136447233Y-47943917D01*
X136447226Y-47943913D01*
X136407600Y-47927500D01*
X136333035Y-47896614D01*
X136333027Y-47896612D01*
X136211807Y-47872500D01*
X136211803Y-47872500D01*
X130438197Y-47872500D01*
X130438193Y-47872500D01*
X130432130Y-47873097D01*
X130432111Y-47872905D01*
X130415928Y-47874500D01*
X125569641Y-47874500D01*
X125502602Y-47854815D01*
X125481960Y-47838181D01*
X124990960Y-47347181D01*
X124957475Y-47285858D01*
X124962459Y-47216166D01*
X125004331Y-47160233D01*
X125069795Y-47135816D01*
X125078641Y-47135500D01*
X127228442Y-47135500D01*
X127228442Y-47135499D01*
X127290673Y-47128487D01*
X127365671Y-47120038D01*
X127365674Y-47120037D01*
X127539663Y-47059156D01*
X127695742Y-46961085D01*
X127826085Y-46830742D01*
X127918975Y-46682907D01*
X127971307Y-46636619D01*
X128005722Y-46627156D01*
X128005630Y-46626689D01*
X128011607Y-46625500D01*
X128072029Y-46613481D01*
X128132452Y-46601463D01*
X128132455Y-46601461D01*
X128132458Y-46601461D01*
X128165787Y-46587654D01*
X128165786Y-46587654D01*
X128165792Y-46587652D01*
X128246286Y-46554312D01*
X128306403Y-46514142D01*
X128348733Y-46485858D01*
X128435858Y-46398733D01*
X128435859Y-46398730D01*
X128442925Y-46391665D01*
X128442928Y-46391661D01*
X128833379Y-46001209D01*
X128894700Y-45967726D01*
X128907156Y-45965674D01*
X128954255Y-45960368D01*
X129124522Y-45900789D01*
X129277262Y-45804816D01*
X129404816Y-45677262D01*
X129500789Y-45524522D01*
X129560368Y-45354255D01*
X129560369Y-45354249D01*
X129580565Y-45175003D01*
X129580565Y-45174996D01*
X129560369Y-44995750D01*
X129560368Y-44995745D01*
X129500788Y-44825476D01*
X129413558Y-44686651D01*
X129404816Y-44672738D01*
X129358889Y-44626811D01*
X129325404Y-44565488D01*
X129330388Y-44495796D01*
X129372260Y-44439863D01*
X129380593Y-44434139D01*
X129427262Y-44404816D01*
X129554816Y-44277262D01*
X129650789Y-44124522D01*
X129710368Y-43954255D01*
X129710369Y-43954249D01*
X129730565Y-43775003D01*
X129730565Y-43774996D01*
X129710369Y-43595750D01*
X129710368Y-43595745D01*
X129685608Y-43524985D01*
X129650789Y-43425478D01*
X129646913Y-43419310D01*
X129601960Y-43347767D01*
X129554816Y-43272738D01*
X129427262Y-43145184D01*
X129402804Y-43129816D01*
X129274520Y-43049209D01*
X129224194Y-43031599D01*
X129167418Y-42990877D01*
X129141672Y-42925924D01*
X129155129Y-42857362D01*
X129203517Y-42806960D01*
X129251262Y-42791338D01*
X129304255Y-42785368D01*
X129474522Y-42725789D01*
X129627262Y-42629816D01*
X129754816Y-42502262D01*
X129850789Y-42349522D01*
X129910368Y-42179255D01*
X129913611Y-42150478D01*
X129920167Y-42092286D01*
X129947233Y-42027871D01*
X130004827Y-41988316D01*
X130074664Y-41986177D01*
X130131068Y-42018487D01*
X130674146Y-42561565D01*
X130707631Y-42622888D01*
X130709685Y-42635361D01*
X130714630Y-42679249D01*
X130714631Y-42679254D01*
X130714632Y-42679255D01*
X130722538Y-42701849D01*
X130774210Y-42849521D01*
X130841534Y-42956666D01*
X130870184Y-43002262D01*
X130997738Y-43129816D01*
X131088080Y-43186582D01*
X131144673Y-43222142D01*
X131150478Y-43225789D01*
X131306159Y-43280264D01*
X131320745Y-43285368D01*
X131320750Y-43285369D01*
X131499996Y-43305565D01*
X131500000Y-43305565D01*
X131500004Y-43305565D01*
X131679249Y-43285369D01*
X131679252Y-43285368D01*
X131679255Y-43285368D01*
X131849522Y-43225789D01*
X132002262Y-43129816D01*
X132129816Y-43002262D01*
X132225789Y-42849522D01*
X132285368Y-42679255D01*
X132285885Y-42674665D01*
X132305565Y-42500003D01*
X132305565Y-42499996D01*
X132285369Y-42320750D01*
X132285368Y-42320745D01*
X132256536Y-42238348D01*
X132225789Y-42150478D01*
X132129816Y-41997738D01*
X132002262Y-41870184D01*
X131976902Y-41854249D01*
X131849521Y-41774210D01*
X131679249Y-41714630D01*
X131635361Y-41709685D01*
X131570947Y-41682617D01*
X131561565Y-41674146D01*
X131554600Y-41667181D01*
X131521115Y-41605858D01*
X131526099Y-41536166D01*
X131567971Y-41480233D01*
X131633435Y-41455816D01*
X131642281Y-41455500D01*
X132150000Y-41455500D01*
X132221940Y-41450355D01*
X132233726Y-41446893D01*
X132284559Y-41445534D01*
X132284804Y-41443262D01*
X132298172Y-41444699D01*
X132352127Y-41450500D01*
X133405973Y-41450499D01*
X133473012Y-41470183D01*
X133518767Y-41522987D01*
X133529193Y-41588381D01*
X133519435Y-41674994D01*
X133519435Y-41675003D01*
X133539630Y-41854249D01*
X133539631Y-41854254D01*
X133599211Y-42024523D01*
X133650695Y-42106459D01*
X133695184Y-42177262D01*
X133822738Y-42304816D01*
X133975478Y-42400789D01*
X134145745Y-42460368D01*
X134145750Y-42460369D01*
X134324996Y-42480565D01*
X134325000Y-42480565D01*
X134325004Y-42480565D01*
X134504249Y-42460369D01*
X134504252Y-42460368D01*
X134504255Y-42460368D01*
X134674522Y-42400789D01*
X134827262Y-42304816D01*
X134954816Y-42177262D01*
X135050789Y-42024522D01*
X135110368Y-41854255D01*
X135110369Y-41854249D01*
X135130565Y-41675003D01*
X135130565Y-41674996D01*
X135110369Y-41495750D01*
X135110368Y-41495745D01*
X135050788Y-41325475D01*
X135003493Y-41250208D01*
X134982407Y-41216649D01*
X134963407Y-41149414D01*
X134983774Y-41082579D01*
X134993684Y-41069480D01*
X135006986Y-41054130D01*
X135084770Y-40933094D01*
X135141742Y-40808342D01*
X135143986Y-40804053D01*
X135144498Y-40802308D01*
X135144499Y-40802308D01*
X135185035Y-40664256D01*
X135185386Y-40661819D01*
X135190607Y-40625500D01*
X135205497Y-40521941D01*
X135205497Y-40465601D01*
X135205500Y-40465590D01*
X135205500Y-39934426D01*
X135205497Y-39934399D01*
X135205497Y-39878060D01*
X135185035Y-39735744D01*
X135185034Y-39735739D01*
X135167008Y-39674351D01*
X135144498Y-39597691D01*
X135097698Y-39495214D01*
X135084776Y-39466918D01*
X135084773Y-39466914D01*
X135084770Y-39466906D01*
X135006986Y-39345870D01*
X135006985Y-39345869D01*
X135006984Y-39345867D01*
X135006981Y-39345863D01*
X134912847Y-39237226D01*
X134912830Y-39237207D01*
X134912829Y-39237206D01*
X134804091Y-39142985D01*
X134768858Y-39120342D01*
X134683142Y-39065255D01*
X134683125Y-39065246D01*
X134563463Y-39010599D01*
X134510659Y-38964845D01*
X134490974Y-38897805D01*
X134510658Y-38830766D01*
X134527288Y-38810129D01*
X135687411Y-37650008D01*
X135756083Y-37547232D01*
X135803385Y-37433035D01*
X135815029Y-37374500D01*
X135827500Y-37311805D01*
X135827500Y-37188196D01*
X135826903Y-37182134D01*
X135827094Y-37182115D01*
X135825500Y-37165928D01*
X135825500Y-36626568D01*
X135845185Y-36559529D01*
X135861819Y-36538887D01*
X135942325Y-36458381D01*
X136085857Y-36314850D01*
X136085857Y-36314848D01*
X136096061Y-36304645D01*
X136096064Y-36304640D01*
X137363888Y-35036819D01*
X137425211Y-35003334D01*
X137451569Y-35000500D01*
X141679608Y-35000500D01*
X141746647Y-35020185D01*
X141767289Y-35036819D01*
X141829012Y-35098542D01*
X141902198Y-35144528D01*
X141981748Y-35194513D01*
X141981752Y-35194515D01*
X142152019Y-35254094D01*
X142152024Y-35254095D01*
X142331270Y-35274291D01*
X142331274Y-35274291D01*
X142331278Y-35274291D01*
X142510523Y-35254095D01*
X142510526Y-35254094D01*
X142510529Y-35254094D01*
X142680796Y-35194515D01*
X142694806Y-35185712D01*
X142704726Y-35179479D01*
X142771962Y-35160477D01*
X142838798Y-35180843D01*
X142884013Y-35234110D01*
X142894700Y-35284471D01*
X142894700Y-35315071D01*
X142875015Y-35382110D01*
X142858381Y-35402752D01*
X141674485Y-36586647D01*
X141674482Y-36586651D01*
X141586350Y-36718549D01*
X141586349Y-36718551D01*
X141525648Y-36865098D01*
X141525645Y-36865108D01*
X141494699Y-37020682D01*
X141494699Y-37090696D01*
X141494435Y-37095403D01*
X141494435Y-37104605D01*
X141494699Y-37109307D01*
X141494699Y-37179315D01*
X141494699Y-37179317D01*
X141494698Y-37179317D01*
X141525645Y-37334891D01*
X141525648Y-37334901D01*
X141586349Y-37481448D01*
X141586350Y-37481450D01*
X141674482Y-37613348D01*
X141674485Y-37613352D01*
X141786647Y-37725514D01*
X141786651Y-37725517D01*
X141918547Y-37813648D01*
X141918548Y-37813648D01*
X141918549Y-37813649D01*
X141918551Y-37813650D01*
X142065098Y-37874351D01*
X142065103Y-37874353D01*
X142065107Y-37874353D01*
X142065108Y-37874354D01*
X142220682Y-37905301D01*
X142220685Y-37905301D01*
X142290694Y-37905301D01*
X142295395Y-37905565D01*
X142300000Y-37905565D01*
X142304605Y-37905565D01*
X142309306Y-37905301D01*
X142379317Y-37905301D01*
X142483982Y-37884480D01*
X142534897Y-37874353D01*
X142681453Y-37813648D01*
X142813349Y-37725517D01*
X144213345Y-36325520D01*
X144213349Y-36325518D01*
X144325518Y-36213349D01*
X144413648Y-36081453D01*
X144474353Y-35934897D01*
X144478384Y-35914632D01*
X144505301Y-35779315D01*
X144505301Y-35620685D01*
X144505301Y-35615575D01*
X144505300Y-35615549D01*
X144505300Y-34785450D01*
X144505301Y-34785429D01*
X144505301Y-34620682D01*
X144505300Y-34620680D01*
X144491936Y-34553491D01*
X144498163Y-34483900D01*
X144541026Y-34428722D01*
X144606916Y-34405478D01*
X144613553Y-34405300D01*
X146715072Y-34405300D01*
X146782111Y-34424985D01*
X146802753Y-34441619D01*
X149486647Y-37125514D01*
X149486651Y-37125517D01*
X149618540Y-37213643D01*
X149618544Y-37213645D01*
X149618547Y-37213647D01*
X149765102Y-37274353D01*
X149920679Y-37305299D01*
X149920683Y-37305300D01*
X149920684Y-37305300D01*
X149990685Y-37305300D01*
X149995404Y-37305565D01*
X150000000Y-37305565D01*
X150004596Y-37305565D01*
X150009315Y-37305300D01*
X150079316Y-37305300D01*
X150079317Y-37305299D01*
X150234897Y-37274353D01*
X150381453Y-37213647D01*
X150513349Y-37125517D01*
X150625517Y-37013349D01*
X150713647Y-36881453D01*
X150774353Y-36734897D01*
X150805300Y-36579315D01*
X150805300Y-36509319D01*
X150805565Y-36504600D01*
X150805565Y-36495402D01*
X150805300Y-36490686D01*
X150805300Y-36420683D01*
X150805299Y-36420679D01*
X150784248Y-36314847D01*
X150774353Y-36265102D01*
X150713647Y-36118547D01*
X150713645Y-36118544D01*
X150713643Y-36118540D01*
X150625517Y-35986651D01*
X150625514Y-35986647D01*
X147729858Y-33090992D01*
X147729838Y-33090970D01*
X147613352Y-32974484D01*
X147613348Y-32974481D01*
X147481459Y-32886355D01*
X147481446Y-32886348D01*
X147334901Y-32825648D01*
X147334892Y-32825645D01*
X147334164Y-32825501D01*
X147334158Y-32825500D01*
X147179317Y-32794699D01*
X147179315Y-32794699D01*
X147020685Y-32794699D01*
X147014571Y-32794699D01*
X147014551Y-32794700D01*
X142685449Y-32794700D01*
X142685429Y-32794699D01*
X142679315Y-32794699D01*
X142520685Y-32794699D01*
X142514571Y-32794699D01*
X142514551Y-32794700D01*
X135784929Y-32794700D01*
X135717890Y-32775015D01*
X135697248Y-32758381D01*
X135032588Y-32093722D01*
X135032585Y-32093718D01*
X135032585Y-32093719D01*
X135025518Y-32086652D01*
X135025518Y-32086651D01*
X134913349Y-31974482D01*
X134913348Y-31974481D01*
X134910237Y-31971370D01*
X134910222Y-31971356D01*
X133150547Y-30211681D01*
X133117062Y-30150358D01*
X133122046Y-30080666D01*
X133163918Y-30024733D01*
X133229382Y-30000316D01*
X133238228Y-30000000D01*
X153475751Y-30000000D01*
X153542790Y-30019685D01*
G37*
G04 #@! TD.AperFunction*
G04 #@! TA.AperFunction,Conductor*
G36*
X145116387Y-43524985D02*
G01*
X145137029Y-43541619D01*
X145778429Y-44183019D01*
X145811914Y-44244342D01*
X145806930Y-44314034D01*
X145765058Y-44369967D01*
X145699594Y-44394384D01*
X145690748Y-44394700D01*
X144185450Y-44394700D01*
X144185430Y-44394699D01*
X144179316Y-44394699D01*
X144020685Y-44394699D01*
X144020680Y-44394699D01*
X143865110Y-44425644D01*
X143865102Y-44425646D01*
X143719741Y-44485857D01*
X143718549Y-44486350D01*
X143718543Y-44486353D01*
X143586655Y-44574478D01*
X143586652Y-44574480D01*
X143535633Y-44625500D01*
X143474482Y-44686651D01*
X143474479Y-44686654D01*
X142866654Y-45294479D01*
X142866651Y-45294482D01*
X142835799Y-45325334D01*
X142754482Y-45406650D01*
X142705791Y-45479523D01*
X142666350Y-45538549D01*
X142631308Y-45623150D01*
X142587467Y-45677553D01*
X142521173Y-45699618D01*
X142511128Y-45699570D01*
X142509602Y-45699500D01*
X142509594Y-45699500D01*
X142050406Y-45699500D01*
X141982343Y-45705685D01*
X141982339Y-45705686D01*
X141982335Y-45705687D01*
X141825736Y-45754485D01*
X141825727Y-45754488D01*
X141685351Y-45839348D01*
X141685347Y-45839351D01*
X141569351Y-45955347D01*
X141569348Y-45955351D01*
X141484488Y-46095727D01*
X141484485Y-46095736D01*
X141435687Y-46252335D01*
X141435685Y-46252343D01*
X141429500Y-46320406D01*
X141429500Y-47679594D01*
X141435685Y-47747657D01*
X141435686Y-47747662D01*
X141435687Y-47747664D01*
X141484485Y-47904263D01*
X141484488Y-47904272D01*
X141569348Y-48044648D01*
X141569351Y-48044652D01*
X141618181Y-48093482D01*
X141651666Y-48154805D01*
X141654500Y-48181163D01*
X141654500Y-48349398D01*
X141634815Y-48416437D01*
X141582011Y-48462192D01*
X141567391Y-48467783D01*
X141555398Y-48471520D01*
X141555396Y-48471521D01*
X141555394Y-48471521D01*
X141555394Y-48471522D01*
X141517055Y-48494699D01*
X141434150Y-48544817D01*
X141366595Y-48562653D01*
X141305850Y-48544817D01*
X141184606Y-48471522D01*
X141108279Y-48447738D01*
X141022196Y-48420914D01*
X141022194Y-48420913D01*
X141022192Y-48420913D01*
X140972778Y-48416423D01*
X140951616Y-48414500D01*
X140951613Y-48414500D01*
X140829500Y-48414500D01*
X140762461Y-48394815D01*
X140716706Y-48342011D01*
X140705500Y-48290500D01*
X140705500Y-48181163D01*
X140725185Y-48114124D01*
X140741819Y-48093482D01*
X140759783Y-48075518D01*
X140790648Y-48044653D01*
X140875512Y-47904270D01*
X140924315Y-47747657D01*
X140930500Y-47679594D01*
X140930500Y-46320406D01*
X140924315Y-46252343D01*
X140875512Y-46095730D01*
X140875511Y-46095727D01*
X140790651Y-45955351D01*
X140790648Y-45955347D01*
X140674652Y-45839351D01*
X140674648Y-45839348D01*
X140534272Y-45754488D01*
X140534263Y-45754485D01*
X140377664Y-45705687D01*
X140377662Y-45705686D01*
X140377657Y-45705685D01*
X140309594Y-45699500D01*
X139850406Y-45699500D01*
X139782343Y-45705685D01*
X139782341Y-45705685D01*
X139782338Y-45705686D01*
X139625730Y-45754487D01*
X139625726Y-45754489D01*
X139594147Y-45773579D01*
X139526592Y-45791414D01*
X139465853Y-45773579D01*
X139434273Y-45754489D01*
X139434269Y-45754487D01*
X139277661Y-45705686D01*
X139277659Y-45705685D01*
X139277657Y-45705685D01*
X139209594Y-45699500D01*
X138750406Y-45699500D01*
X138682343Y-45705685D01*
X138682342Y-45705685D01*
X138666387Y-45710657D01*
X138596526Y-45711806D01*
X138537135Y-45675003D01*
X138507069Y-45611933D01*
X138505500Y-45592270D01*
X138505500Y-44830452D01*
X138525185Y-44763413D01*
X138541819Y-44742771D01*
X139742971Y-43541619D01*
X139804294Y-43508134D01*
X139830652Y-43505300D01*
X145049348Y-43505300D01*
X145116387Y-43524985D01*
G37*
G04 #@! TD.AperFunction*
G04 #@! TA.AperFunction,Conductor*
G36*
X124023453Y-31329785D02*
G01*
X124069208Y-31382589D01*
X124079152Y-31451747D01*
X124073455Y-31475055D01*
X124064962Y-31499324D01*
X124064962Y-31499325D01*
X124049500Y-31636557D01*
X124049500Y-31861718D01*
X124029815Y-31928757D01*
X124013181Y-31949399D01*
X122888432Y-33074147D01*
X122827109Y-33107632D01*
X122814637Y-33109686D01*
X122770745Y-33114632D01*
X122600478Y-33174210D01*
X122447737Y-33270184D01*
X122320184Y-33397737D01*
X122224211Y-33550476D01*
X122164631Y-33720745D01*
X122164630Y-33720750D01*
X122144435Y-33899996D01*
X122144435Y-33900003D01*
X122164630Y-34079249D01*
X122164631Y-34079254D01*
X122224211Y-34249523D01*
X122262095Y-34309814D01*
X122320184Y-34402262D01*
X122447738Y-34529816D01*
X122600478Y-34625789D01*
X122687751Y-34656327D01*
X122770745Y-34685368D01*
X122770750Y-34685369D01*
X122949996Y-34705565D01*
X122950000Y-34705565D01*
X122950004Y-34705565D01*
X123129249Y-34685369D01*
X123129252Y-34685368D01*
X123129255Y-34685368D01*
X123299522Y-34625789D01*
X123452262Y-34529816D01*
X123579816Y-34402262D01*
X123675789Y-34249522D01*
X123735368Y-34079255D01*
X123740313Y-34035361D01*
X123767378Y-33970951D01*
X123775842Y-33961575D01*
X124581936Y-33155481D01*
X124643257Y-33121998D01*
X124683499Y-33119944D01*
X124724088Y-33124517D01*
X124821557Y-33135499D01*
X124821558Y-33135500D01*
X124821562Y-33135500D01*
X127228442Y-33135500D01*
X127228442Y-33135499D01*
X127290673Y-33128487D01*
X127365671Y-33120038D01*
X127365940Y-33119944D01*
X127539663Y-33059156D01*
X127695742Y-32961085D01*
X127826085Y-32830742D01*
X127924156Y-32674663D01*
X127974770Y-32530013D01*
X128004127Y-32483291D01*
X128087411Y-32400008D01*
X128156083Y-32297233D01*
X128203385Y-32183035D01*
X128214931Y-32124991D01*
X128227500Y-32061805D01*
X128227500Y-31938194D01*
X128203386Y-31816970D01*
X128203385Y-31816969D01*
X128203385Y-31816965D01*
X128193682Y-31793540D01*
X128156086Y-31702773D01*
X128156079Y-31702760D01*
X128087411Y-31599992D01*
X128087408Y-31599988D01*
X128009201Y-31521781D01*
X127975716Y-31460458D01*
X127980700Y-31390766D01*
X128022572Y-31334833D01*
X128088036Y-31310416D01*
X128096882Y-31310100D01*
X131919872Y-31310100D01*
X131986911Y-31329785D01*
X132007553Y-31346419D01*
X133558381Y-32897247D01*
X133591866Y-32958570D01*
X133594700Y-32984928D01*
X133594700Y-35169347D01*
X133575015Y-35236386D01*
X133558381Y-35257028D01*
X132182838Y-36632570D01*
X132121515Y-36666055D01*
X132051823Y-36661071D01*
X131995890Y-36619199D01*
X131977452Y-36583896D01*
X131959814Y-36530666D01*
X131867712Y-36381344D01*
X131743656Y-36257288D01*
X131594334Y-36165186D01*
X131427797Y-36110001D01*
X131427795Y-36110000D01*
X131325010Y-36099500D01*
X130274998Y-36099500D01*
X130274980Y-36099501D01*
X130172203Y-36110000D01*
X130172200Y-36110001D01*
X130005668Y-36165185D01*
X130005663Y-36165187D01*
X129856342Y-36257289D01*
X129732289Y-36381342D01*
X129640187Y-36530663D01*
X129640185Y-36530668D01*
X129637462Y-36538887D01*
X129585001Y-36697203D01*
X129585001Y-36697204D01*
X129585000Y-36697204D01*
X129574500Y-36799983D01*
X129574500Y-37135271D01*
X129554815Y-37202310D01*
X129538181Y-37222952D01*
X128200642Y-38560490D01*
X128139319Y-38593975D01*
X128069627Y-38588991D01*
X128013694Y-38547119D01*
X127989277Y-38481655D01*
X127989741Y-38458925D01*
X127997885Y-38386647D01*
X128000500Y-38363438D01*
X128000500Y-37636562D01*
X127990435Y-37547230D01*
X127985038Y-37499328D01*
X127955057Y-37413648D01*
X127924156Y-37325337D01*
X127826085Y-37169258D01*
X127744508Y-37087681D01*
X127711023Y-37026358D01*
X127716007Y-36956666D01*
X127744508Y-36912319D01*
X127775378Y-36881449D01*
X127826085Y-36830742D01*
X127924156Y-36674663D01*
X127985037Y-36500674D01*
X127985037Y-36500673D01*
X127985038Y-36500671D01*
X127995497Y-36407840D01*
X128000500Y-36363438D01*
X128000500Y-35636562D01*
X127991548Y-35557111D01*
X127985038Y-35499328D01*
X127965648Y-35443915D01*
X127924156Y-35325337D01*
X127826085Y-35169258D01*
X127695742Y-35038915D01*
X127633809Y-35000000D01*
X127539665Y-34940845D01*
X127539664Y-34940844D01*
X127539663Y-34940844D01*
X127497896Y-34926229D01*
X127365671Y-34879961D01*
X127228442Y-34864500D01*
X127228438Y-34864500D01*
X124821562Y-34864500D01*
X124821558Y-34864500D01*
X124684328Y-34879961D01*
X124510334Y-34940845D01*
X124354257Y-35038915D01*
X124223915Y-35169257D01*
X124125845Y-35325334D01*
X124064961Y-35499328D01*
X124049500Y-35636557D01*
X124049500Y-36363442D01*
X124064961Y-36500671D01*
X124125845Y-36674665D01*
X124223915Y-36830742D01*
X124305492Y-36912319D01*
X124338977Y-36973642D01*
X124333993Y-37043334D01*
X124305492Y-37087681D01*
X124223915Y-37169257D01*
X124125845Y-37325334D01*
X124064961Y-37499328D01*
X124049500Y-37636557D01*
X124049500Y-38363442D01*
X124064961Y-38500671D01*
X124125845Y-38674665D01*
X124223915Y-38830742D01*
X124305492Y-38912319D01*
X124338977Y-38973642D01*
X124333993Y-39043334D01*
X124305492Y-39087681D01*
X124223915Y-39169257D01*
X124125845Y-39325334D01*
X124064961Y-39499328D01*
X124049500Y-39636557D01*
X124049500Y-40248500D01*
X124029815Y-40315539D01*
X123977011Y-40361294D01*
X123925500Y-40372500D01*
X118709693Y-40372500D01*
X118642654Y-40352815D01*
X118622012Y-40336181D01*
X113798421Y-35512590D01*
X113798420Y-35512589D01*
X113787513Y-35505301D01*
X113695645Y-35443917D01*
X113695644Y-35443916D01*
X113695642Y-35443915D01*
X113662197Y-35430062D01*
X113581447Y-35396614D01*
X113581439Y-35396612D01*
X113460219Y-35372500D01*
X113460215Y-35372500D01*
X112972323Y-35372500D01*
X112905284Y-35352815D01*
X112867329Y-35314472D01*
X112848478Y-35284471D01*
X112776085Y-35169258D01*
X112694508Y-35087681D01*
X112661023Y-35026358D01*
X112666007Y-34956666D01*
X112694508Y-34912319D01*
X112726866Y-34879961D01*
X112776085Y-34830742D01*
X112874156Y-34674663D01*
X112935037Y-34500674D01*
X112935037Y-34500673D01*
X112935038Y-34500671D01*
X112945783Y-34405300D01*
X112950500Y-34363438D01*
X112950500Y-33636562D01*
X112940801Y-33550478D01*
X112935038Y-33499328D01*
X112899490Y-33397738D01*
X112874156Y-33325337D01*
X112776085Y-33169258D01*
X112645742Y-33038915D01*
X112543196Y-32974481D01*
X112489665Y-32940845D01*
X112489664Y-32940844D01*
X112489663Y-32940844D01*
X112447896Y-32926229D01*
X112315671Y-32879961D01*
X112178442Y-32864500D01*
X112178438Y-32864500D01*
X109771562Y-32864500D01*
X109771558Y-32864500D01*
X109634328Y-32879961D01*
X109460334Y-32940845D01*
X109304257Y-33038915D01*
X109173915Y-33169257D01*
X109075843Y-33325336D01*
X109075842Y-33325340D01*
X109046341Y-33409649D01*
X109005620Y-33466425D01*
X108940667Y-33492172D01*
X108872105Y-33478716D01*
X108821702Y-33430328D01*
X108805300Y-33368694D01*
X108805300Y-32184319D01*
X108805565Y-32179600D01*
X108805565Y-32170402D01*
X108805300Y-32165686D01*
X108805300Y-32095684D01*
X108805299Y-32095680D01*
X108774355Y-31940110D01*
X108774352Y-31940101D01*
X108773563Y-31938197D01*
X108741885Y-31861718D01*
X108713651Y-31793553D01*
X108713644Y-31793540D01*
X108625518Y-31661651D01*
X108625515Y-31661647D01*
X108513352Y-31549484D01*
X108513344Y-31549478D01*
X108494972Y-31537202D01*
X108450166Y-31483590D01*
X108441459Y-31414265D01*
X108471613Y-31351238D01*
X108531056Y-31314518D01*
X108563862Y-31310100D01*
X123956414Y-31310100D01*
X124023453Y-31329785D01*
G37*
G04 #@! TD.AperFunction*
M02*
