M48
; DRILL file {KiCad 9.0.2-9.0.2-0~ubuntu24.04.1} date 2026-05-25T11:49:01-0400
; FORMAT={-:-/ absolute / metric / decimal}
; #@! TF.CreationDate,2026-05-25T11:49:01-04:00
; #@! TF.GenerationSoftware,Kicad,Pcbnew,9.0.2-9.0.2-0~ubuntu24.04.1
; #@! TF.FileFunction,Plated,1,2,PTH
FMAT,2
METRIC
; #@! TA.AperFunction,Plated,PTH,ViaDrill
T1C0.300
; #@! TA.AperFunction,Plated,PTH,ViaDrill
T2C0.400
; #@! TA.AperFunction,Plated,PTH,ComponentDrill
T3C0.500
; #@! TA.AperFunction,Plated,PTH,ComponentDrill
T4C0.550
; #@! TA.AperFunction,Plated,PTH,ComponentDrill
T5C0.950
; #@! TA.AperFunction,Plated,PTH,ComponentDrill
T6C1.000
; #@! TA.AperFunction,Plated,PTH,ViaDrill
T7C3.200
%
G90
G05
T1
X81.25Y-35.85
X84.5Y-67.65
X85.05Y-46.2
X85.125Y-55.75
X85.3Y-50.8
X85.35Y-79.025
X85.5Y-74.3
X85.55Y-31.1
X87.05Y-67.625
X87.1Y-36.425
X87.175Y-43.0
X87.325Y-40.175
X87.375Y-65.425
X87.4Y-32.2
X87.4Y-75.55
X88.275Y-41.725
X89.35Y-55.675
X91.075Y-44.075
X91.7Y-37.35
X92.525Y-46.45
X93.225Y-63.075
X94.025Y-38.9
X94.15Y-77.65
X94.55Y-72.9
X94.9Y-45.65
X95.225Y-54.8
X95.55Y-41.9
X96.675Y-67.4
X97.65Y-41.95
X98.475Y-34.975
X98.725Y-57.975
X98.825Y-45.675
X99.3Y-74.75
X99.95Y-64.5
X100.1Y-68.575
X100.175Y-54.675
X101.3Y-58.45
X101.375Y-44.075
X101.675Y-78.425
X102.3Y-46.6
X102.55Y-74.0
X102.7Y-32.475
X102.725Y-39.1
X103.675Y-53.4
X103.8Y-59.0
X103.8Y-60.3
X103.9Y-57.7
X104.575Y-45.875
X105.05Y-39.15
X107.925Y-40.8
X108.0Y-32.175
X108.375Y-46.85
X108.45Y-70.4
X108.925Y-45.575
X109.6Y-63.5
X110.0Y-78.1
X110.175Y-50.65
X110.95Y-74.7
X111.6Y-62.5
X111.8Y-70.75
X112.6Y-59.8
X112.85Y-33.2
X113.15Y-68.2
X113.45Y-57.15
X113.475Y-45.1
X113.65Y-64.25
X114.55Y-46.7
X114.6Y-52.75
X115.15Y-55.55
X116.475Y-47.25
X116.6Y-33.05
X117.25Y-37.4
X118.45Y-32.6
X118.5Y-76.0
X118.9Y-71.25
X118.9Y-78.95
X118.95Y-46.325
X119.2Y-63.25
X119.65Y-60.85
X119.725Y-53.25
X119.8Y-67.9
X120.15Y-58.4
X120.2Y-73.85
X121.05Y-63.45
X122.1Y-32.7
X122.1Y-36.15
X122.55Y-68.1
X122.8Y-39.6
X122.95Y-33.9
X122.975Y-37.65
X123.15Y-71.65
X124.3Y-65.525
X124.675Y-69.95
X126.2Y-63.3
X126.225Y-58.5
X126.35Y-61.2
X126.55Y-68.15
X127.05Y-74.05
X128.45Y-76.55
X128.5Y-34.375
X128.775Y-45.175
X128.925Y-43.775
X128.95Y-59.0
X129.125Y-42.0
X129.2Y-40.3
X129.7Y-33.8
X129.9Y-31.9
X130.075Y-78.225
X130.4Y-56.0
X131.325Y-49.475
X131.5Y-42.5
X131.55Y-64.15
X132.35Y-74.75
X132.65Y-57.4
X132.75Y-50.9
X134.2Y-36.7
X134.275Y-45.9
X134.325Y-41.675
X134.8Y-30.95
X135.3Y-34.65
X135.675Y-40.3
X136.1Y-30.7
X136.6Y-48.95
X136.85Y-52.575
X137.4Y-35.0
X137.45Y-56.625
X137.75Y-61.3
X137.8Y-40.7
X138.3Y-75.85
X138.55Y-61.15
X138.8Y-78.4
X139.0Y-72.95
X139.05Y-60.25
X139.3Y-48.75
X139.325Y-56.175
X139.408Y-49.908
X139.65Y-64.65
X140.25Y-60.2
X140.4Y-53.8
X140.4Y-67.0
X140.5Y-70.0
X141.3Y-65.6
X141.7Y-40.95
X142.3Y-37.1
X142.331Y-34.469
X142.45Y-75.45
X142.5Y-55.35
X142.5Y-64.8
X142.65Y-52.9
X142.7Y-59.7
X142.874Y-60.975
X143.15Y-38.925
X143.25Y-43.8
X143.3Y-71.4
X143.8Y-79.0
X144.5Y-36.35
X144.7Y-58.2
X144.8Y-67.2
X145.05Y-75.5
X145.15Y-43.9
X145.177Y-71.973
X145.3Y-70.674
X145.35Y-68.346
X145.667Y-61.367
X146.2Y-50.6
X146.5Y-41.25
X147.0Y-60.5
X147.0Y-76.126
X147.225Y-79.1
X147.65Y-51.85
X147.95Y-47.45
X148.2Y-56.6
X148.3Y-41.3
X149.35Y-38.4
X149.6Y-75.8
X149.9Y-60.0
X150.0Y-36.5
X150.1Y-49.95
X150.35Y-51.65
X150.7Y-64.9
X150.7Y-79.1
X151.05Y-68.25
X151.15Y-31.75
X151.2Y-69.9
X151.55Y-34.85
X151.65Y-59.35
X152.0Y-64.65
X152.45Y-49.3
X152.65Y-32.5
X152.65Y-43.85
X152.75Y-47.7
X152.95Y-76.1
X153.0Y-38.6
X153.55Y-75.15
T2
X117.65Y-63.0
T5
X82.85Y-40.375
X82.85Y-42.875
X82.85Y-45.375
X82.875Y-62.2
X82.875Y-64.7
X82.875Y-67.2
X82.875Y-69.7
X82.9Y-51.275
X82.9Y-53.775
X82.9Y-56.275
X91.7Y-32.9
X92.1Y-60.0
X94.2Y-32.9
X94.6Y-60.0
X96.7Y-32.9
X97.1Y-60.0
X99.2Y-32.9
X99.6Y-60.0
T6
X88.75Y-77.125
X91.25Y-77.125
X97.15Y-77.125
X99.65Y-77.125
X105.55Y-77.125
X108.05Y-77.125
X113.05Y-51.925
X113.05Y-54.465
X113.95Y-77.175
X116.45Y-77.175
T7
X83.0Y-32.9
X83.0Y-77.0
X157.0Y-33.0
X157.0Y-77.0
T3
X120.7Y-77.975G85X120.7Y-78.625
G05
X127.7Y-77.975G85X127.7Y-78.625
G05
T4
X121.55Y-75.6G85X121.85Y-75.6
G05
X126.55Y-75.6G85X126.85Y-75.6
G05
M30
